<svg width="1440" height="300" viewBox="0 0 1440 300" fill="none" xmlns="http://www.w3.org/2000/svg">
<g clip-path="url(#clip0_2235_7447)">
<path d="M1275.8 5.22705C1330.32 28.729 1299.12 51.1611 1308.33 75.4706C1315.86 87.021 1326.04 82.8292 1324.23 102.87C1323.88 117.187 1326.54 123.732 1347.55 126.91C1376.72 133.711 1372.61 145.876 1362.49 159.144C1349.26 178.681 1368.25 183.124 1374.88 191.482C1373.54 191.98 1372.19 192.477 1370.84 192.971C1354.89 188.692 1344.27 182.209 1344.27 172.182C1344.27 155.759 1364.66 154.107 1357.98 142.108C1353.83 134.662 1331.31 134.716 1298.75 134.647C1266.45 130.51 1369.74 92.4741 1258.81 60.6464C1332.93 87.8882 1257.57 136.109 1274.08 139.479C1310.83 134.256 1263.76 169.321 1311.43 152.88C1341.09 142.655 1353.67 157.936 1336.32 165.517C1293.63 184.167 1325.38 195.722 1357 197.869C1298.76 217.878 1227.62 235.057 1148.2 248.725C1149.71 247.203 1150.42 245.233 1149.25 242.417C1148.57 240.781 1146.96 239.91 1144.84 240.071C1138.34 240.567 1139.28 247.608 1131.78 247.532C1129.53 240.396 1135.83 235.479 1139.65 229.683C1143.45 223.914 1144 217.059 1137.65 213.049C1128.36 207.193 1140.95 202.477 1142.21 195.417C1143.86 186.121 1147.64 181.438 1152.31 171.771C1154.16 167.94 1150.5 165.086 1146.3 166.268C1137.41 168.771 1138.58 176.292 1134.55 183.907C1127.47 177.949 1121.6 180.31 1125.03 196.198C1129.15 216.642 1130.76 227.614 1118.39 236.369L1112.08 230.974C1107.43 226.999 1107.96 225.866 1107.55 219.944C1106.82 209.588 1101.45 205.636 1094.58 213.718C1090.36 218.218 1090.36 215.172 1090.36 207.896C1089.9 204.961 1088.98 202.085 1086.97 198.924C1082.63 192.091 1081.4 192.719 1085.19 185.187C1086.6 182.367 1087.67 179.836 1088.4 177.272C1090.71 169.221 1090.36 160.695 1081.7 156.889C1076.05 154.403 1070.35 156.799 1071.18 163.612C1072.92 169.876 1071.66 173.032 1068.02 178.384C1054.31 175.754 1048.83 187.321 1059.76 192.992C1074.99 199.971 1077.53 204.499 1076.28 213.049C1075.76 216.514 1080.34 218.569 1081.38 220.889C1083.4 225.415 1076.75 222.918 1072.76 223.644C1065.31 224.243 1065.84 228.822 1069.4 232.062C1073.16 235.488 1076.8 234.829 1081.38 234.948C1111.53 235.731 1094.78 262.544 1071.21 253.392C1063.81 250.515 1059.15 244.067 1057.2 236.369C1056.26 232.672 1055.95 228.186 1056.37 222.017C1056.78 216.203 1052.42 213.358 1047.67 218.761C1045.33 221.425 1043.94 225.79 1045.17 230.974L1047.98 236.369C1042.83 238.721 1040.64 245.143 1049.48 251.275C1055.64 257.132 1064.54 258.654 1072.95 260.093L1073.12 260.121C1073.18 260.16 1073.24 260.202 1073.3 260.24C781.745 299.996 407.6 294.96 144.252 216.54C162.947 203.135 152.011 189.372 137.193 195.154C133.331 188.441 128.965 189.368 114.958 204.151L103.791 202.586L112.411 188.895C117.597 179.131 126.81 182.636 132.883 181.56C146.988 177.746 144.664 163.666 136.311 164.642C129.357 170.314 119.213 173.498 118.19 170.314L125.145 159.654C136.344 143.683 149.633 153.688 159.429 153.688C173.64 145.158 174.782 135.172 156.465 132.542C149.172 131.494 144.174 133.512 151.499 127.464C162.402 118.462 171.846 111.549 172.554 96.9664C169.126 88.3609 162.164 89.0046 156.49 99.0207C153.846 105.768 150.922 109.622 147.283 112.125V108.409C147.12 96.4317 138.106 99.2214 135.85 118.187C135.285 122.928 128.083 140.609 128.083 131.88C128.746 119.572 126.712 116.037 122.01 118.187C114.538 123.364 116.004 131.475 115.349 142.931C115.597 147.719 114.194 149.404 111.053 151.992C107.066 145.322 104.901 141.623 107.117 138.42C112.142 132.635 114.664 128.066 113.1 123.382C106.912 113.724 104.113 108.232 115.934 96.5014C121.445 92.7286 132.757 86.5043 128.688 80.1524C135.006 76.4238 147.175 72.7979 148.539 64.75C149.652 58.1758 144.098 54.5831 135.773 60.6347C132.151 67.2193 129.554 69.4701 123.807 70.2488C114.962 65.6763 129.587 56.9424 130.42 48.1573C131.679 34.88 117.106 39.2939 113.1 50.7565C107.018 62.4381 108.364 67.1243 113.1 74.4937C105.984 81.3697 103.378 84.6959 102.024 88.6988C99.5899 105.451 91.2177 88.1382 91.2846 80.5404C91.3381 74.4554 95.608 67.4884 103.586 60.6347C108.813 54.015 108.283 48.0981 105.452 46.9844C101.904 45.5885 100.671 49.9671 99.0265 51.9908C95.5778 56.2338 90.8205 56.1124 89.7915 48.1573C87.2517 28.5016 66.3672 31.4019 71.9629 51.4058C76.7777 57.9292 79.4004 62.0122 79.8318 64.75C80.4216 68.4945 77.051 68.3319 74.4658 69.1685C64.3529 72.4415 64.7324 82.2057 78.4705 89.9936C91.1686 100.079 94.0968 107.029 98.1203 119.746C98.4054 126.375 93.696 125.982 87.9702 118.187C81.1559 106.481 66.1479 111.485 84.2682 129.209C90.7602 133.541 93.1458 137.017 96.5676 143.912C105.584 166.037 98.7067 184.652 91.2182 184.652C73.6714 177.3 85.0195 151.167 82.8122 139.335C80.5357 127.134 72.8483 126.897 69.1623 132.542C67.3951 135.248 63.5607 148.481 61.6029 138.42C59.8437 129.378 59.9111 123.169 64.1859 115.462C72.0506 101.284 68.2387 91.6929 60.1938 96.5794C55.3033 100.121 52.5066 91.6681 57.5972 80.5404C72.3891 56.8779 62.4693 53.2612 54.7858 61.6857C52.4164 64.2836 51.1707 64.9296 49.7586 60.6347C47.6364 54.1798 52.2807 44.0918 47.3222 37.6385C37.4427 24.781 30.9487 45.7524 34.6868 54.3297L43.3838 74.2822C46.9642 88.2303 36.3941 86.4451 33.6009 77.597C31.755 54.0099 18.4617 59.3114 19.0174 77.597C19.8102 90.093 27.5657 91.8484 39.1603 96.5794C45.3772 102.535 45.0444 105.564 37.3537 103.45C22.5391 99.3774 20.1239 111.325 36.3938 117.023C47.2419 120.822 46.8971 122.728 50.0291 134.525C52.5781 146.632 48.7173 144.949 36.3938 133.235C20.9899 116.206 8.65768 134.723 23.4597 144.749C28.7701 148.346 34.0958 149.872 39.1603 154.063C24.99 165.231 39.5802 166.381 50.0291 168.738C57.657 170.458 60.552 174.739 64.0013 181.56C65.4311 184.388 66.6641 187.347 67.7092 190.373C43.6369 180.94 20.8879 170.733 -0.337402 159.721V300.227H1440.06V162.486C1436.02 164.686 1434.27 165.763 1429.95 167.918C1429.24 163.605 1430.33 159.889 1437.51 157.668C1443.33 155.87 1446.93 153.92 1445.25 146.248C1443.2 136.891 1413.86 115.288 1427.14 107.196C1448.84 93.9681 1402.64 77.5516 1424.34 48.0676C1399.27 62.1396 1421.83 86.7182 1411.79 93.6701C1386.98 107.485 1407.42 114.966 1422.33 131.446C1437.19 145.971 1394.17 155.051 1402.75 164.146C1411.6 169.286 1413.21 173.127 1411.7 176.525C1406.99 178.626 1402.15 180.702 1397.18 182.755C1396.32 178.583 1394.46 174.813 1390.95 171.277C1376.55 156.757 1402.22 158.089 1406.8 140.582C1410.95 121.085 1371.82 122.747 1351.85 101.391C1346.32 92.167 1349.76 80.8384 1349.04 71.0541C1348.4 62.4466 1346.74 62.1612 1339.47 63.8511C1311.25 70.4171 1330.39 36.2625 1319.16 26.4411C1308.38 14.081 1292.15 6.74819 1275.8 5.22705Z" fill="#F3F4FA"/>
<path d="M147.869 262.611C169.804 261.911 184.533 262.289 206.384 264.416C259.761 269.611 255.034 276.617 229.429 284.701C191.328 296.73 155.547 292.912 116.067 286.912C49.2245 276.754 67.3445 265.179 147.869 262.611Z" fill="#DAE0FD"/>
<path d="M1207.32 244.752C1225.36 243.758 1241.55 243.35 1251.67 243.685C1307.51 248.79 1313.01 255.068 1295.37 264.242C1300.91 263.24 1307.58 262.45 1315.24 261.96C1324.9 261.34 1333.58 261.069 1339.01 261.248C1352.86 262.642 1365.41 268.082 1366.07 274.663C1367.18 285.603 1353.15 291.025 1344.7 292.86C1311.48 300.071 1256.85 292.653 1270.92 273.439C1256.06 278.305 1239.62 281.816 1222.96 283.273C1147.99 287.959 1109.26 267.264 1147.99 253.705C1159.88 249.543 1180.35 246.237 1207.32 244.752Z" fill="#DAE0FD"/>
<path d="M283.366 210.668C256.786 244.825 210.195 253.054 179.303 229.048C148.411 205.041 144.916 157.89 171.496 123.733C198.077 89.5757 244.667 81.3468 275.559 105.353C306.451 129.359 309.946 176.51 283.366 210.668Z" fill="#A9BAFF"/>
<path d="M179.607 136.482C204.462 104.542 247.138 96.1534 274.925 117.747C302.713 139.341 305.089 182.74 280.234 214.68C257.577 243.795 209.767 250.848 184.916 233.415C164.409 217.478 157.742 189.667 165.647 163.348C165.497 163.039 165.352 162.726 165.214 162.409C164.435 160.617 163.854 158.715 163.447 156.748C160.084 164.907 155.037 178.697 157.984 199.622C156.781 196.324 155.827 192.925 155.123 189.456C154.655 171.117 160.247 159.329 162.871 152.912C162.248 146.547 163.132 139.724 164.783 133.7C166.21 131.227 167.776 128.8 169.481 126.428C166.285 133.538 163.928 143.799 164.885 152.961C165.161 155.595 165.709 158.122 166.579 160.447C169.436 152.114 173.771 143.982 179.607 136.482Z" fill="#8099FF"/>
<path d="M320.589 156.66L294.981 164.39L294.989 224.126L307.37 220.38L313.243 223.377L320.589 156.66Z" fill="#6CC5AE"/>
<path d="M306.626 154.518L281.018 162.247L263.485 198.572L265.137 224.795L297.257 225.275L306.626 154.518Z" fill="#B0EBDB"/>
<path d="M317.422 162.129L308.009 161.083L299.64 221.413L310.25 219.771L317.422 162.129Z" fill="white"/>
<path d="M310.594 155.537L301.536 219.795C303.362 219.24 305.082 218.933 306.849 218.924C308.853 218.913 310.827 219.286 312.994 220.004L320.517 156.659L324.007 157.746L315.986 225.002L313.822 224.124C310.999 222.98 308.883 222.491 306.868 222.501C304.85 222.512 302.777 223.023 300.037 224.126L297.182 225.275L306.515 154.437L310.594 155.537Z" fill="#DCF6EF"/>
<path d="M335.649 204.932C338.336 195.133 333.914 171.628 323.373 164.688C285.275 198.49 270.249 207.503 335.649 204.932Z" fill="#A9BAFF"/>
<path d="M227.227 18.681C232.486 18.1074 231.939 22.2761 230.674 25.789C222.92 47.3372 212.913 71.0242 204.515 92.3006L212.089 120.458C212.109 120.449 212.128 120.44 212.147 120.431C212.345 128.563 210.695 136.71 197.274 143.063C210.46 139.075 219.837 124.924 219.26 117.612C222.221 116.627 225.196 115.869 228.156 115.347C231.395 116.565 234.382 118.185 237.522 120.317C237.203 119.855 236.9 119.387 236.619 118.908C234.819 115.84 233.824 112.416 233.481 107.897C232.883 100.019 233.767 94.1747 236.594 89.4131C239.385 84.7127 243.986 81.2098 250.513 77.8074C254.012 72.9615 259.467 69.7084 265.792 67.9806C268.738 61.572 275.202 57.1056 282.724 57.0668C291.924 57.0199 299.608 63.6115 301.231 72.3426C301.594 72.5333 301.957 72.7272 302.314 72.9272C307.499 75.8248 312.135 79.7144 315.674 84.5904C317.942 83.599 320.446 83.0427 323.078 83.0291C333.421 82.9765 341.849 91.3135 341.902 101.649C341.955 111.985 333.613 120.407 323.269 120.46C322.472 120.464 321.686 120.417 320.914 120.324C319.518 125.688 317.272 131.437 314.043 137.568L313.818 137.995L280.734 144.228L280.57 144.258L280.406 144.235C280.064 144.186 279.724 144.131 279.386 144.078C285.794 163.255 280.981 188.179 264.954 208.775C264.372 209.523 263.779 210.258 263.179 210.98C272.646 223.626 276.374 234.466 277.737 249.015C268.023 257.661 261.288 261.791 238.713 263.23C237.443 253.334 234.66 244.939 230.456 234.824C219.815 238.831 208.899 239.901 199.001 237.704L199.026 237.733L175.361 261.224C150.256 263.32 142.548 242.926 153.092 224.993L167.995 209.642C161.381 190.411 166.149 165.279 182.29 144.537C184.456 141.754 186.748 139.15 189.143 136.731C170.073 114.66 160.001 98.7022 154.474 84.1806C152.557 69.4869 198.977 31.1824 214.724 23.2372C219.055 21.0519 223.834 19.0513 227.227 18.681Z" fill="#DAE0FD"/>
<path d="M203.987 154.25C193.762 167.879 188.911 172.548 179.21 168.287C148.279 209.225 190.056 259.951 236.587 240.651C264.526 229.062 286.883 190.651 286.883 159.586C286.006 150.861 279.726 146.812 271.245 149.45C272.757 133.324 259.149 128.031 246.217 138.876C240.842 125.435 224.806 121.719 203.987 154.25Z" fill="#A9BAFF"/>
<path d="M241.17 216.647C242.826 216.647 244.17 217.989 244.17 219.645C244.17 221.3 242.826 222.643 241.17 222.643C240.879 222.642 240.598 222.599 240.332 222.522L231.883 233.696C231.243 234.542 230.243 235.041 229.181 235.041H222.464L215.529 243.874C214.701 243.864 213.879 243.831 213.063 243.779L221.49 233.042H229.181C229.616 233.042 230.025 232.838 230.287 232.492L238.707 221.354C238.369 220.869 238.17 220.28 238.17 219.645C238.17 217.989 239.513 216.647 241.17 216.647Z" fill="white"/>
<path d="M263.481 174.49C265.138 174.49 266.481 175.833 266.481 177.488C266.481 179.144 265.138 180.486 263.481 180.486C263.287 180.486 263.097 180.467 262.914 180.431L245.937 205.464C245.403 206.251 244.561 206.778 243.619 206.914L227.903 209.188L203.76 242.237C203.076 242.051 202.398 241.849 201.726 241.633L226.522 207.69L239.276 189.229C238.883 188.722 238.646 188.086 238.646 187.395C238.646 185.74 239.99 184.397 241.646 184.397C243.303 184.397 244.646 185.739 244.646 187.395C244.646 189.051 243.303 190.393 241.646 190.393C241.409 190.393 241.179 190.363 240.958 190.311L229.469 206.941L243.332 204.936C243.717 204.88 244.063 204.665 244.282 204.343L261.186 179.418C260.747 178.896 260.481 178.223 260.481 177.488C260.481 175.833 261.825 174.491 263.481 174.49Z" fill="white"/>
<path d="M237.303 152.624C238.959 152.624 240.303 153.966 240.303 155.622C240.303 157.277 238.959 158.619 237.303 158.619C236.96 158.619 236.63 158.559 236.323 158.452L210.203 193.72C209.971 194.033 209.882 194.429 209.956 194.81L212.349 207.031C212.532 207.967 212.312 208.938 211.742 209.703L191.478 236.895C190.909 236.543 190.348 236.18 189.796 235.805L210.137 208.509C210.37 208.196 210.461 207.799 210.386 207.415L207.994 195.195C207.811 194.262 208.03 193.295 208.595 192.531L215.272 183.516L209.694 172.939C209.128 171.866 209.197 170.568 209.874 169.561L214.004 163.422C213.624 162.92 213.396 162.296 213.396 161.617C213.396 159.962 214.739 158.62 216.396 158.619C218.052 158.619 219.395 159.962 219.395 161.617C219.395 163.273 218.052 164.615 216.396 164.615C216.146 164.615 215.905 164.581 215.673 164.523L211.534 170.676C211.267 171.072 211.239 171.584 211.462 172.007L216.593 181.733L234.759 157.205C234.472 156.746 234.303 156.204 234.303 155.622C234.303 153.966 235.646 152.624 237.303 152.624Z" fill="white"/>
<path d="M193.939 204.618C195.595 204.618 196.939 205.96 196.939 207.616C196.938 209.271 195.595 210.613 193.939 210.613C193.65 210.613 193.37 210.57 193.106 210.493L180.108 227.015C179.947 226.822 179.787 226.628 179.629 226.432C179.357 226.094 179.092 225.752 178.83 225.407L191.479 209.328C191.14 208.842 190.939 208.253 190.939 207.616C190.939 205.96 192.282 204.618 193.939 204.618Z" fill="white"/>
<path d="M306.899 115.705L316.193 121.508L297.219 123.735C279.73 115.243 263.948 97.4518 255.329 81.318L266.393 90.5072C282.503 99.48 301.485 102.007 306.899 115.705Z" fill="#8099FF"/>
<path d="M297.207 121.413C297.286 117.073 299.592 115.821 304.634 116.575C302.273 106.331 283.64 101.916 263.552 91.4642C273.594 103.68 282.971 113.014 297.207 121.413Z" fill="white"/>
<path d="M282.734 59.0663C283.889 59.0604 285.017 59.1712 286.107 59.3883C286.516 59.4697 286.919 59.5665 287.317 59.6771C287.449 59.714 287.581 59.7523 287.712 59.7923C287.975 59.8723 288.234 59.9585 288.491 60.0509C288.619 60.0971 288.747 60.1451 288.873 60.1943C289.127 60.2929 289.379 60.3972 289.626 60.5076C291.656 61.4122 293.472 62.7104 294.979 64.3036C295.073 64.4036 295.167 64.5048 295.259 64.6071C295.489 64.8632 295.713 65.1256 295.928 65.3956C296.13 65.6497 296.324 65.9104 296.511 66.1763C296.56 66.2456 296.608 66.315 296.656 66.3851C296.954 66.8222 297.232 67.2741 297.488 67.7396C297.566 67.8813 297.642 68.0247 297.716 68.1689C297.988 68.6994 298.231 69.2468 298.446 69.8084C298.611 70.2391 298.761 70.6777 298.891 71.1248C298.998 71.4965 299.093 71.8738 299.175 72.2558C299.315 72.9067 299.417 73.5717 299.478 74.2484C299.522 74.7259 299.546 75.2092 299.549 75.6976C299.555 76.9959 299.414 78.2604 299.14 79.4751C299.018 80.0149 298.87 80.545 298.697 81.0637C298.579 81.4197 298.447 81.7698 298.306 82.1147C303.37 83.3192 307.693 86.7191 310.044 91.3882C312.259 88.5875 315.352 86.5105 318.911 85.576C319.044 85.541 319.179 85.5083 319.313 85.4765C320.526 85.1903 321.789 85.0353 323.089 85.0286C323.233 85.0278 323.377 85.0286 323.52 85.0315C325.099 85.0634 326.624 85.3143 328.067 85.7546C328.329 85.8346 328.589 85.9208 328.845 86.0132C329.615 86.2906 330.359 86.6232 331.073 87.0056C331.31 87.1332 331.545 87.2662 331.776 87.4048C336.504 90.2428 339.716 95.3508 339.895 101.229C339.9 101.372 339.902 101.516 339.903 101.66C339.904 101.804 339.903 101.948 339.9 102.091C339.894 102.378 339.881 102.663 339.861 102.946C339.841 103.229 339.813 103.511 339.779 103.79C339.66 104.767 339.457 105.717 339.177 106.635C339.097 106.897 339.01 107.156 338.918 107.412C338.687 108.054 338.417 108.677 338.112 109.279C337.99 109.52 337.863 109.758 337.729 109.993C337.596 110.227 337.457 110.457 337.313 110.684C336.954 111.251 336.561 111.795 336.138 112.313C336.053 112.417 335.967 112.519 335.88 112.621C332.83 116.175 328.312 118.436 323.259 118.462C319.651 118.48 316.303 117.355 313.56 115.427C313.45 115.35 313.341 115.272 313.234 115.192C312.836 114.898 312.452 114.586 312.082 114.258C312.003 114.188 311.925 114.118 311.848 114.046C311.501 113.727 311.168 113.395 310.849 113.048C310.618 112.797 310.395 112.537 310.18 112.272C310.058 112.122 309.938 111.97 309.821 111.815C309.74 111.708 309.66 111.601 309.581 111.492C309.347 111.165 309.123 110.83 308.912 110.486C308.841 110.372 308.772 110.256 308.705 110.14C308.501 109.791 308.31 109.434 308.132 109.069C307.123 107.004 306.528 104.699 306.454 102.262C306.449 102.119 306.447 101.975 306.446 101.831C306.445 101.686 306.446 101.543 306.449 101.399C306.469 100.396 306.578 99.4133 306.768 98.4601C306.822 98.1876 306.884 97.9177 306.952 97.6502C307.34 96.1088 307.944 94.6528 308.728 93.3145C306.73 88.5075 302.455 85.0135 297.409 83.9639C297.265 84.2202 297.116 84.4735 296.959 84.7212C296.887 84.8346 296.814 84.9473 296.739 85.0588C296.59 85.2819 296.436 85.5012 296.276 85.7166C295.957 86.1474 295.618 86.562 295.26 86.9598C293.225 89.2203 290.581 90.9235 287.585 91.8117C287.186 91.9302 286.78 92.0341 286.368 92.123C285.251 92.364 284.093 92.4936 282.905 92.4996C282.46 92.5019 282.019 92.4866 281.583 92.4548C281.187 92.4258 280.794 92.383 280.406 92.3269C279.974 92.2645 279.547 92.1866 279.126 92.0917C278.856 92.0309 278.588 91.9635 278.323 91.8897C278.004 91.8009 277.689 91.702 277.378 91.595C277.068 91.4885 276.762 91.3736 276.46 91.2496C273.923 90.2064 271.698 88.5577 269.966 86.4826C269.623 86.0717 269.299 85.6443 268.997 85.2013C267.179 82.5425 266.109 79.3315 266.091 75.8693C266.088 75.1479 266.129 74.4368 266.214 73.7391C266.231 73.5996 266.251 73.4607 266.271 73.3224C266.312 73.0456 266.359 72.7709 266.414 72.4988C266.495 72.0902 266.592 71.687 266.703 71.2897C266.74 71.1573 266.778 71.0255 266.818 70.8945C266.898 70.6325 266.984 70.3731 267.077 70.1167C267.493 68.9622 268.033 67.8667 268.681 66.8457C268.825 66.6189 268.974 66.3955 269.128 66.1763C270.209 64.6412 271.542 63.2962 273.067 62.2007C273.285 62.0441 273.506 61.8921 273.732 61.7459C274.972 60.9423 276.326 60.2981 277.764 59.843C278.025 59.7603 278.29 59.6838 278.557 59.6137C279.891 59.2634 281.291 59.0737 282.734 59.0663Z" fill="white"/>
<path d="M244.387 238.409C247.579 244.699 249.167 251.378 249.957 257.846C261.472 258.416 272.283 252.701 276.415 239.677C277.47 245.012 278.01 250.753 278.262 257.265L295.772 264.448L281.158 266.353L292.626 275.677L278.262 274.372C270.144 273.634 264.362 275.806 270.368 286.628L238.468 274.372C238.255 269.161 238.078 259.166 237.178 254.681C240.673 256.265 244.314 257.273 247.92 257.679C247.137 251.514 245.605 245.226 242.604 239.312L244.387 238.409Z" fill="#A9BAFF"/>
<path d="M172.408 218.331C168.149 224.04 161.341 231.412 152.322 234.772C151.899 234.93 151.47 235.122 151.022 235.181L150.908 235.196C150.881 248.482 161.087 261.223 175.356 261.223L158.227 267.682L138.089 283.12L138.742 268.08L120.509 275.357C123.103 264.502 136.927 244.586 113.903 253.283C119.569 242.287 125.364 233.774 133.941 227.735L147.586 225.745L153.087 224.993C151.904 227.626 151.227 230.371 150.998 233.119C160.372 229.126 166.694 222.44 171.49 216.012L172.408 218.331Z" fill="#A9BAFF"/>
<path d="M216.369 22.4265C203.381 32.4315 189.684 44.8536 179.994 57.0632C174.988 63.3719 171.083 69.5843 168.886 75.3445C166.689 81.1064 166.239 86.3113 167.965 90.7009L187.292 134.575C185.689 132.695 184.153 130.859 182.68 129.066L166.121 91.4744L166.113 91.4558L166.106 91.4373C164.126 86.4096 164.723 80.6522 167.019 74.6326C169.316 68.6087 173.353 62.2146 178.427 55.821C185.396 47.0388 194.383 38.1785 203.681 30.1785C208.05 27.0894 211.885 24.6693 214.724 23.2371C215.267 22.9632 215.816 22.6917 216.369 22.4265Z" fill="#A9BAFF"/>
<path d="M204.513 92.3025L205.62 96.4363L173.127 87.8806L204.513 92.3025Z" fill="#A9BAFF"/>
<path d="M305.374 94.6355L301.172 96.3533L304.011 92.3464L305.374 94.6355Z" fill="#A9BAFF"/>
<path d="M300.948 90.3201L298.322 94.4685L298.311 89.9324L300.948 90.3201Z" fill="#A9BAFF"/>
<path d="M311.592 99.9935C323.8 93.2222 328.149 99.9113 325.955 111.522C324.26 102.508 319.214 98.9503 311.592 99.9935Z" fill="#8099FF"/>
<path d="M270.959 76.8436C280.83 71.1401 289.817 71.2653 289.126 85.2007C286.729 77.9579 280.696 74.7926 270.959 76.8436Z" fill="#8099FF"/>
<path d="M249.911 257.824C250.752 264.414 250.619 273.594 250.247 278.898L248.314 278.174C248.679 272.956 248.759 264.117 247.94 257.694L249.911 257.824Z" fill="#DAE0FD"/>
<path fill-rule="evenodd" clip-rule="evenodd" d="M230.698 128.344C234.592 127.565 238.024 128.321 240.836 130.204C243.294 131.85 245.23 134.323 246.613 137.276C252.932 132.395 259.506 131.061 264.529 133.124C269.583 135.2 272.651 140.532 272.336 148.116C276.224 147.202 279.727 147.651 282.459 149.419C285.516 151.398 287.416 154.905 287.877 159.486L287.883 159.536V159.586C287.883 175.338 282.222 192.885 273.067 207.941C263.914 222.992 251.196 235.674 236.97 241.574C213.275 251.402 190.731 243.399 178.072 227.685C165.404 211.959 162.657 188.537 178.412 167.685L178.889 167.055L179.613 167.372C181.952 168.4 183.925 168.855 185.71 168.809C187.482 168.762 189.144 168.221 190.867 167.133C194.381 164.915 198.036 160.515 203.16 153.687C213.595 137.388 222.998 129.884 230.698 128.344ZM239.723 131.863C237.366 130.286 234.479 129.625 231.09 130.303C224.227 131.676 215.208 138.574 204.83 154.789L204.81 154.82L204.787 154.85C199.701 161.629 195.824 166.367 191.936 168.821C189.956 170.071 187.948 170.75 185.763 170.807C183.806 170.858 181.767 170.408 179.546 169.512C164.889 189.437 167.633 211.54 179.629 226.432C191.758 241.489 213.368 249.199 236.203 239.728C249.917 234.04 262.347 221.721 271.358 206.903C280.355 192.107 285.871 174.937 285.883 159.638C285.458 155.52 283.785 152.657 281.372 151.096C278.947 149.526 275.582 149.147 271.542 150.403L270.11 150.85L270.249 149.356C270.979 141.574 268.06 136.737 263.768 134.974C259.407 133.183 253.162 134.357 246.861 139.642L245.802 140.53L245.289 139.247C244 136.023 242.099 133.454 239.723 131.863Z" fill="#DAE0FD"/>
<path d="M150.908 235.196L122.914 238.531C123.395 237.902 123.719 237.453 124.281 236.809L150.99 233.124L150.908 235.196Z" fill="#DAE0FD"/>
<path d="M1162.84 254.927V242.348L1179.95 256.413L1181.84 263.852L1179.95 271.831L1162.84 254.927Z" fill="#F3F4FA"/>
<path d="M1179.76 275.508C1181.79 269.334 1181.36 262.891 1179.1 255.799L1315.6 247.841C1318.37 249.003 1320.85 259.095 1315.6 265.275L1179.76 275.508Z" fill="#B0EBDB"/>
<path d="M1180.28 256.767L1161.94 240.02L1288.2 235.866L1316.4 247.786L1180.28 256.767Z" fill="#DCF6EF"/>
<path d="M1181.73 258.426C1184.51 264.707 1182.83 270.517 1181.09 273.351L1179.76 275.514L1161.94 256.297L1162.06 252.221L1178.7 268.775C1179.57 267.556 1180.75 262.342 1176.95 258.05L1161.94 244.099V240.004L1176.62 252.47C1178 253.685 1179.27 254.744 1180.3 256.064C1180.85 256.758 1181.33 257.525 1181.73 258.426Z" fill="#6CC5AE"/>
<path d="M1195.58 239.948V231.752L1222.75 240.576L1226.79 246.552L1222.18 252.915L1195.58 239.948Z" fill="#F3F4FA"/>
<path d="M1221.62 252.338C1223.2 249.106 1223.31 243.767 1220.73 239.602L1348.53 233.656V245.49L1221.62 252.338Z" fill="#FCFDFE"/>
<path d="M1220.81 239.28L1197.7 230.747L1319.34 224.025L1351.92 231.328L1220.81 239.28Z" fill="#A9BAFF"/>
<path d="M1220.42 250.916V254.895L1194.64 241.975L1194.65 238.426L1220.42 250.916ZM1220.35 237.801V241.975L1194.65 232.779L1194.64 229.274L1220.35 237.801Z" fill="#8099FF"/>
<path d="M1351.94 247.593L1220.42 254.902V250.926L1351.94 243.64V247.593ZM1351.93 235.199L1220.35 241.986V237.808L1351.94 231.325L1351.93 235.199Z" fill="#DAE0FD"/>
<path d="M1320.51 225.374L1321.01 205.3L1324.53 206.662L1325.44 213.851C1324.39 218.524 1323.3 221.044 1320.51 225.374Z" fill="#8099FF"/>
<path d="M1280.91 214.367L1162.7 202.868L1199.34 197.756L1321.81 203.524L1280.91 214.367Z" fill="#A9BAFF"/>
<path d="M1280.41 239.287C1282.91 229.777 1283.33 224.349 1280.41 215.493L1171.54 206.886V226.699L1280.41 239.287Z" fill="#F3F4FA"/>
<path d="M1279.86 213.727L1279.51 218.414L1162.7 206.931V202.858L1279.86 213.727Z" fill="#8099FF"/>
<path d="M1279.69 237.6L1279.56 241.874L1164.32 228.738V224.428L1279.69 237.6Z" fill="#8099FF"/>
<path d="M1280.38 238.124C1282.31 232.946 1282.82 224.162 1280.75 218.014L1321.25 205.593L1320.86 224.142L1280.38 238.124Z" fill="#FCFDFE"/>
<path d="M1324.27 203.467C1329.55 210.046 1328.95 220.05 1323 226.578L1322.66 226.954L1279.54 241.879V237.585L1320.9 223.158C1325 218.343 1324.62 211.88 1321.58 207.104L1279.47 218.438L1279.54 213.696L1323.44 202.443L1324.27 203.467Z" fill="#DAE0FD"/>
<path d="M1326.78 185.28C1329.49 189.451 1329.53 195.581 1326.35 199.692L1326.37 185.556L1326.78 185.28Z" fill="#3FB898"/>
<path d="M1259.83 188.997L1170.71 180.514L1227.34 175.514L1328.34 181.587L1259.83 188.997Z" fill="#DCF6EF"/>
<path d="M1262 209.736C1264.38 202.31 1264.5 198.181 1262 190.89L1175.52 182.912V199.176L1254.99 209.736H1262Z" fill="#F3F4FA"/>
<path d="M1261.29 210.379C1262.56 204.046 1263.83 198.582 1261.29 191.284L1326.47 184.218L1326.35 200.41L1261.29 210.379Z" fill="#FCFDFE"/>
<path d="M1261.02 209.25V212.852L1170.77 200.569V197.385L1261.02 209.25ZM1260 188.789L1259.85 192.349L1170.7 183.297V180.507L1260 188.789Z" fill="#6CC5AE"/>
<path d="M1328.77 202.958L1261 212.869V209.252L1326.46 199.235C1328.73 195.319 1329.47 189.954 1326.62 185.519L1259.84 192.355V188.779L1328.42 181.532C1334.33 187.328 1332.79 196.87 1328.77 202.958Z" fill="#B0EBDB"/>
<path d="M1374 235.957L1373.99 235.968L1373.99 235.959L1353.9 248.135L1324.45 232.448L1374 235.957Z" fill="#A9BAFF"/>
<path d="M1319.81 235.289L1319.81 235.292L1319.81 235.289L1349.26 250.957L1349.25 250.96L1349.25 250.959L1323.58 266.518L1323.58 266.52L1294.01 284.441L1294 284.445L1319.81 235.289Z" fill="#A9BAFF"/>
<path d="M1324.46 232.473L1324.54 232.494L1353.9 248.135L1353.9 248.136L1354.33 281.381L1349.62 279.448L1349.26 250.96L1349.25 250.961L1349.25 250.959L1349.26 250.957L1324.46 237.783L1324.46 232.473Z" fill="#8099FF"/>
<path d="M1354.34 281.364L1354.34 281.386L1354.33 281.383L1354.34 281.364Z" fill="#8099FF"/>
<path d="M1353.9 248.136L1373.99 235.958L1354.33 281.393L1353.9 248.136Z" fill="white"/>
<path d="M1323.58 266.52L1323.58 266.518L1349.25 250.958L1349.25 250.962L1349.26 250.961L1349.68 284.222L1294 284.448L1323.58 266.52Z" fill="white"/>
</g>
<defs>
<clipPath id="clip0_2235_7447">
<rect width="1440" height="300" fill="white"/>
</clipPath>
</defs>
</svg>
