<svg xmlns="http://www.w3.org/2000/svg" width="242" height="152" viewBox="0 0 242 152" fill="none">
  <path d="M242 140.112C242 149.551 0 160.669 0 141.449C0 136.416 33.707 131 74.5871 131C115.467 131 242 135.08 242 140.112Z" fill="#F3F4FA"/>
  <path d="M150.434 102.469C136.328 120.695 111.602 125.086 95.2081 112.276C78.8137 99.4668 76.9587 74.308 91.065 56.0823C105.171 37.8566 129.897 33.4657 146.291 46.2751C162.686 59.0844 164.541 84.2433 150.434 102.469Z" fill="#A9BAFF"/>
  <path d="M95.3694 62.8852C108.56 45.8423 131.208 41.3665 145.955 52.8884C160.702 64.4104 161.963 87.5674 148.772 104.61C136.748 120.146 111.376 123.909 98.1867 114.607C87.3036 106.103 83.7657 91.2634 87.9608 77.2205C87.881 77.0554 87.8044 76.8882 87.7313 76.7193C87.3175 75.7632 87.0095 74.7484 86.7932 73.6986C85.0086 78.0521 82.3302 85.4105 83.894 96.5754C83.2558 94.8155 82.7494 93.002 82.3755 91.151C82.1271 81.3658 85.0949 75.076 86.4874 71.6518C86.1569 68.2559 86.6262 64.6149 87.5022 61.4007C88.2594 60.0813 89.0908 58.786 89.9955 57.5202C88.2992 61.3143 87.0486 66.7891 87.5566 71.6779C87.7027 73.0834 87.9935 74.4318 88.4553 75.6724C89.9714 71.2261 92.2721 66.8872 95.3694 62.8852Z" fill="#8099FF"/>
  <path d="M170.189 73.6519L156.599 77.7763L156.603 109.65L163.174 107.652L166.29 109.25L170.189 73.6519Z" fill="#6CC5AE"/>
  <path d="M162.779 72.5085L149.189 76.633L139.884 96.015L140.76 110.007L157.807 110.263L162.779 72.5085Z" fill="#B0EBDB"/>
  <path d="M168.508 76.5702L163.512 76.0117L159.071 108.203L164.702 107.327L168.508 76.5702Z" fill="white"/>
  <path d="M164.884 73.0528L160.077 107.34C161.046 107.043 161.96 106.879 162.897 106.875C163.961 106.869 165.009 107.068 166.158 107.451L170.151 73.6512L172.003 74.2312L167.746 110.118L166.598 109.65C165.1 109.039 163.977 108.778 162.907 108.784C161.836 108.789 160.736 109.062 159.282 109.65L157.767 110.264L162.72 72.4656L164.884 73.0528Z" fill="#DCF6EF"/>
  <path d="M178.181 99.4086C179.607 94.1799 177.261 81.6386 171.666 77.9353C151.448 95.9715 143.474 100.781 178.181 99.4086Z" fill="#A9BAFF"/>
  <path d="M120.642 0.0284396C123.433 -0.277639 123.142 1.94673 122.471 3.82116C118.356 15.3189 113.045 27.9578 108.588 39.3105L112.608 54.3346C112.618 54.3299 112.628 54.3252 112.639 54.3205C112.744 58.6593 111.868 63.0066 104.745 66.3964C111.743 64.2687 116.719 56.7177 116.413 52.8162C117.985 52.2906 119.564 51.8863 121.135 51.6077C122.853 52.2577 124.439 53.1219 126.105 54.2596C125.936 54.0132 125.775 53.7634 125.626 53.5077C124.67 51.8709 124.143 50.0435 123.961 47.6322C123.643 43.4287 124.112 40.3105 125.613 37.7698C127.094 35.2617 129.536 33.3927 133 31.5772C134.856 28.9915 137.752 27.2557 141.108 26.3338C142.671 22.9143 146.102 20.5311 150.094 20.5104C154.976 20.4854 159.054 24.0026 159.916 28.6613C160.108 28.763 160.301 28.8665 160.491 28.9732C163.242 30.5193 165.702 32.5947 167.581 35.1965C168.784 34.6675 170.113 34.3707 171.51 34.3634C176.999 34.3353 181.472 38.7838 181.5 44.2987C181.528 49.8139 177.101 54.3073 171.611 54.3356C171.188 54.3378 170.771 54.3127 170.361 54.2632C169.621 57.1252 168.428 60.1932 166.715 63.4644L166.595 63.6924L149.038 67.0181L148.951 67.0342L148.864 67.0218C148.682 66.9954 148.502 66.9664 148.322 66.9379C151.723 77.1704 149.169 90.4697 140.663 101.459C140.354 101.858 140.04 102.25 139.721 102.636C144.745 109.383 146.724 115.167 147.447 122.931C142.292 127.544 138.718 129.747 126.737 130.516C126.063 125.235 124.586 120.755 122.355 115.358C116.708 117.496 110.915 118.067 105.662 116.895L105.675 116.91L93.1161 129.445C79.7929 130.563 75.7022 119.681 81.2982 110.113L89.207 101.922C85.697 91.6606 88.2274 78.2503 96.7935 67.1826C97.9427 65.698 99.1593 64.3083 100.43 63.0176C90.3098 51.241 84.9647 42.7263 82.0315 34.9778C81.014 27.1375 105.649 6.69899 114.006 2.45955C116.305 1.29353 118.841 0.226033 120.642 0.0284396Z" fill="#DAE0FD"/>
  <path d="M108.308 72.3661C102.882 79.638 100.307 82.1293 95.1589 79.856C78.7436 101.7 100.915 128.766 125.609 118.468C140.436 112.284 152.301 91.7888 152.301 75.2133C151.835 70.5579 148.503 68.3974 144.002 69.8046C144.804 61.2004 137.583 58.3759 130.72 64.1629C127.867 56.9909 119.357 55.0081 108.308 72.3661Z" fill="#A9BAFF"/>
  <path d="M128.041 105.66C128.92 105.66 129.633 106.376 129.633 107.259C129.633 108.143 128.92 108.859 128.041 108.859C127.886 108.859 127.737 108.835 127.596 108.794L123.112 114.757C122.773 115.208 122.242 115.474 121.678 115.474H118.113L114.433 120.187C113.994 120.182 113.558 120.165 113.124 120.137L117.597 114.408H121.678C121.909 114.408 122.126 114.299 122.266 114.114L126.734 108.171C126.555 107.913 126.449 107.598 126.449 107.259C126.449 106.376 127.162 105.66 128.041 105.66Z" fill="white"/>
  <path d="M139.881 83.1657C140.761 83.1657 141.473 83.8819 141.473 84.7653C141.473 85.6487 140.761 86.3649 139.881 86.3649C139.779 86.3648 139.678 86.3544 139.58 86.3357L130.571 99.6925C130.287 100.113 129.841 100.393 129.341 100.466L121 101.679L108.188 119.314C107.824 119.215 107.464 119.107 107.108 118.992L120.267 100.88L127.036 91.0297C126.827 90.7592 126.702 90.4202 126.702 90.0514C126.702 89.168 127.415 88.4519 128.294 88.4518C129.173 88.4518 129.886 89.1679 129.886 90.0514C129.886 90.9347 129.173 91.6509 128.294 91.6509C128.168 91.6509 128.046 91.6349 127.928 91.6072L121.831 100.481L129.188 99.4108C129.393 99.381 129.576 99.2662 129.692 99.0942L138.664 85.7947C138.43 85.5165 138.289 85.1575 138.289 84.7653C138.289 83.8819 139.002 83.1658 139.881 83.1657Z" fill="white"/>
  <path d="M125.989 71.498C126.868 71.498 127.581 72.2142 127.581 73.0976C127.581 73.981 126.868 74.6972 125.989 74.6972C125.806 74.6972 125.632 74.6648 125.469 74.6081L111.606 93.4265C111.484 93.5933 111.436 93.8045 111.476 94.0081L112.746 100.529C112.843 101.028 112.726 101.546 112.423 101.954L101.669 116.463C101.367 116.276 101.07 116.082 100.777 115.882L111.572 101.318C111.696 101.15 111.744 100.938 111.704 100.734L110.434 94.2132C110.337 93.7156 110.453 93.1994 110.753 92.7918L114.297 87.9816L111.336 82.3378C111.036 81.7652 111.073 81.0729 111.432 80.5357L113.624 77.26C113.422 76.992 113.301 76.6588 113.301 76.2967C113.301 75.4134 114.014 74.6973 114.893 74.6972C115.772 74.6972 116.485 75.4134 116.485 76.2967C116.485 77.1801 115.772 77.8963 114.893 77.8963C114.761 77.8963 114.633 77.878 114.51 77.8474L112.313 81.1303C112.171 81.3419 112.157 81.615 112.275 81.8406L114.998 87.0303L124.639 73.9427C124.486 73.6973 124.397 73.4082 124.397 73.0976C124.397 72.2143 125.109 71.4982 125.989 71.498Z" fill="white"/>
  <path d="M102.975 99.2411C103.854 99.2411 104.567 99.9572 104.567 100.841C104.567 101.724 103.854 102.44 102.975 102.44C102.822 102.44 102.674 102.417 102.533 102.376L95.6354 111.192C95.5499 111.089 95.4647 110.985 95.3809 110.881C95.2367 110.701 95.0962 110.518 94.957 110.334L101.67 101.754C101.49 101.495 101.383 101.181 101.383 100.841C101.383 99.9574 102.096 99.2413 102.975 99.2411Z" fill="white"/>
  <path d="M162.924 51.7992L167.856 54.8959L157.786 56.0837C148.505 51.5527 140.129 42.0596 135.555 33.4509L141.427 38.3541C149.976 43.1419 160.05 44.4903 162.924 51.7992Z" fill="#8099FF"/>
  <path d="M157.78 54.8447C157.822 52.5293 159.046 51.8609 161.722 52.2636C160.469 46.7976 150.58 44.4414 139.919 38.8647C145.248 45.383 150.225 50.3632 157.78 54.8447Z" fill="white"/>
  <path d="M150.099 21.5775C150.712 21.5744 151.311 21.6335 151.889 21.7493C152.106 21.7928 152.32 21.8444 152.531 21.9035C152.602 21.9231 152.672 21.9436 152.741 21.9649C152.88 22.0076 153.018 22.0536 153.154 22.1029C153.222 22.1276 153.29 22.1532 153.357 22.1794C153.492 22.232 153.625 22.2876 153.757 22.3466C154.834 22.8293 155.798 23.522 156.597 24.3721C156.648 24.4254 156.697 24.4794 156.746 24.534C156.869 24.6706 156.987 24.8106 157.101 24.9547C157.208 25.0903 157.311 25.2294 157.411 25.3713C157.436 25.4083 157.462 25.4453 157.488 25.4827C157.646 25.7159 157.793 25.957 157.929 26.2054C157.971 26.2811 158.011 26.3576 158.05 26.4345C158.194 26.7176 158.324 27.0097 158.438 27.3093C158.525 27.5391 158.605 27.7732 158.674 28.0117C158.731 28.2101 158.781 28.4114 158.824 28.6152C158.899 28.9625 158.953 29.3173 158.985 29.6784C159.009 29.9332 159.021 30.1911 159.023 30.4517C159.026 31.1444 158.951 31.8192 158.806 32.4673C158.741 32.7553 158.663 33.0382 158.571 33.315C158.508 33.5049 158.438 33.6917 158.363 33.8757C161.051 34.5184 163.345 36.3326 164.593 38.8239C165.768 37.3295 167.41 36.2212 169.298 35.7226C169.369 35.7039 169.44 35.6865 169.512 35.6695C170.155 35.5168 170.826 35.4341 171.515 35.4305C171.592 35.4301 171.668 35.4305 171.744 35.4321C172.582 35.4491 173.392 35.583 174.157 35.8179C174.297 35.8606 174.434 35.9066 174.57 35.9559C174.979 36.1039 175.374 36.2814 175.753 36.4855C175.879 36.5535 176.003 36.6245 176.126 36.6984C178.635 38.2128 180.34 40.9383 180.435 44.0745C180.437 44.151 180.439 44.2277 180.439 44.3047C180.439 44.3816 180.439 44.4584 180.437 44.5348C180.434 44.6878 180.427 44.8399 180.417 44.991C180.406 45.1422 180.391 45.2923 180.373 45.4414C180.31 45.9624 180.202 46.4697 180.053 46.9592C180.011 47.099 179.965 47.2374 179.916 47.3742C179.793 47.7164 179.65 48.0489 179.489 48.3703C179.424 48.4989 179.356 48.6259 179.285 48.7509C179.215 48.8757 179.141 48.9985 179.065 49.1195C178.874 49.4221 178.665 49.7126 178.441 49.9891C178.396 50.0443 178.35 50.099 178.304 50.1531C176.685 52.0496 174.288 53.2562 171.606 53.27C169.691 53.2797 167.914 52.6795 166.458 51.6506C166.4 51.6095 166.343 51.5676 166.285 51.5251C166.074 51.3682 165.871 51.2016 165.674 51.0268C165.633 50.9896 165.591 50.9519 165.55 50.9138C165.366 50.7437 165.189 50.5662 165.02 50.3812C164.897 50.247 164.779 50.1087 164.665 49.9672C164.6 49.887 164.536 49.806 164.474 49.7235C164.431 49.6664 164.389 49.6088 164.347 49.5507C164.223 49.3765 164.104 49.1977 163.992 49.0144C163.954 48.9532 163.918 48.8916 163.882 48.8295C163.774 48.6433 163.673 48.4528 163.578 48.2583C163.043 47.1562 162.727 45.9263 162.687 44.626C162.685 44.5495 162.684 44.4728 162.683 44.3958C162.683 44.3189 162.683 44.2421 162.685 44.1657C162.695 43.6301 162.753 43.1059 162.854 42.5973C162.883 42.452 162.916 42.3079 162.952 42.1652C163.158 41.3427 163.478 40.5658 163.894 39.8517C162.834 37.2868 160.565 35.4225 157.887 34.8625C157.811 34.9992 157.732 35.1343 157.648 35.2665C157.61 35.327 157.571 35.3871 157.532 35.4467C157.453 35.5657 157.371 35.6827 157.286 35.7976C157.117 36.0275 156.937 36.2488 156.747 36.461C155.667 37.6672 154.264 38.576 152.674 39.0499C152.462 39.1131 152.246 39.1686 152.028 39.216C151.435 39.3446 150.82 39.4137 150.19 39.417C149.954 39.4181 149.72 39.41 149.488 39.393C149.278 39.3776 149.07 39.3547 148.864 39.3248C148.634 39.2915 148.408 39.2499 148.184 39.1993C148.041 39.1668 147.899 39.1309 147.758 39.0915C147.589 39.0441 147.422 38.9913 147.257 38.9343C147.092 38.8774 146.93 38.8161 146.77 38.7499C145.423 38.1933 144.242 37.3136 143.323 36.2064C143.141 35.9871 142.969 35.7591 142.809 35.5227C141.844 34.104 141.276 32.3907 141.267 30.5433C141.265 30.1584 141.287 29.779 141.332 29.4066C141.341 29.3322 141.351 29.2581 141.362 29.1843C141.384 29.0366 141.409 28.8901 141.438 28.7448C141.481 28.5268 141.533 28.3117 141.591 28.0997C141.611 28.0291 141.631 27.9587 141.653 27.8888C141.695 27.749 141.741 27.6106 141.79 27.4738C142.011 26.8578 142.298 26.2732 142.641 25.7285C142.718 25.6074 142.797 25.4883 142.879 25.3713C143.452 24.5522 144.159 23.8345 144.969 23.25C145.084 23.1664 145.202 23.0853 145.322 23.0073C145.98 22.5786 146.698 22.2348 147.461 21.992C147.6 21.9478 147.741 21.907 147.882 21.8696C148.59 21.6827 149.333 21.5815 150.099 21.5775Z" fill="white"/>
  <path d="M129.748 117.271C131.442 120.627 132.285 124.191 132.704 127.643C138.816 127.947 144.553 124.897 146.746 117.948C147.305 120.795 147.592 123.858 147.726 127.333L157.018 131.165L149.263 132.182L155.349 137.157L147.726 136.46C143.418 136.067 140.349 137.226 143.537 143L126.607 136.46C126.494 133.68 126.4 128.347 125.922 125.954C127.777 126.799 129.709 127.337 131.623 127.554C131.208 124.264 130.395 120.909 128.802 117.753L129.748 117.271Z" fill="#A9BAFF"/>
  <path d="M91.5492 106.558C89.2886 109.604 85.6755 113.538 80.889 115.331C80.6649 115.415 80.4372 115.517 80.1992 115.549L80.1391 115.557C80.1247 122.646 85.5407 129.445 93.1133 129.445L84.0229 132.891L73.3358 141.128L73.6825 133.103L64.0061 136.986C65.3827 131.194 72.7193 120.567 60.5 125.208C63.5071 119.341 66.5824 114.798 71.1342 111.576L78.3759 110.514L81.2953 110.113C80.6673 111.518 80.3083 112.982 80.1868 114.449C85.1616 112.318 88.5166 108.751 91.0615 105.321L91.5492 106.558Z" fill="#A9BAFF"/>
  <path d="M114.879 2.0271C107.986 7.36558 100.717 13.9938 95.575 20.5086C92.9182 23.8748 90.8456 27.1896 89.6798 30.2632C88.5137 33.3376 88.2749 36.1149 89.1911 38.4571L99.448 61.8674C98.5972 60.8644 97.7819 59.8849 97.0003 58.9281L88.2126 38.8698L88.2079 38.8599L88.2043 38.85C87.1538 36.1673 87.4706 33.0952 88.6889 29.8833C89.9081 26.6691 92.0506 23.2573 94.7432 19.8458C98.4419 15.1597 103.211 10.4321 108.146 6.1634C110.464 4.51514 112.5 3.22382 114.006 2.45959C114.294 2.31349 114.586 2.16858 114.879 2.0271Z" fill="#A9BAFF"/>
  <path d="M108.587 39.3116L109.175 41.5173L91.9306 36.9522L108.587 39.3116Z" fill="#A9BAFF"/>
  <path d="M162.114 40.5565L159.884 41.4731L161.391 39.3351L162.114 40.5565Z" fill="#A9BAFF"/>
  <path d="M159.765 38.2539L158.371 40.4674L158.366 38.047L159.765 38.2539Z" fill="#A9BAFF"/>
  <path d="M165.414 43.4157C171.893 39.8026 174.201 43.3719 173.036 49.5672C172.137 44.7572 169.459 42.859 165.414 43.4157Z" fill="#8099FF"/>
  <path d="M143.85 31.0633C149.088 28.0201 153.858 28.0869 153.491 35.5225C152.219 31.6579 149.017 29.969 143.85 31.0633Z" fill="#8099FF"/>
  <path d="M132.68 127.631C133.126 131.147 133.055 136.045 132.858 138.876L131.832 138.489C132.026 135.705 132.068 130.989 131.634 127.562L132.68 127.631Z" fill="#DAE0FD"/>
  <path fill-rule="evenodd" clip-rule="evenodd" d="M122.483 58.5428C124.55 58.1271 126.371 58.5308 127.864 59.5354C129.168 60.4136 130.196 61.733 130.929 63.3091C134.283 60.7044 137.772 59.9929 140.437 61.0934C143.12 62.2012 144.748 65.0461 144.581 69.093C146.644 68.6052 148.503 68.8446 149.953 69.7881C151.576 70.844 152.584 72.7156 152.828 75.1599L152.832 75.1865V75.213C152.832 83.6181 149.827 92.981 144.968 101.015C140.111 109.045 133.361 115.812 125.812 118.96C113.237 124.205 101.273 119.934 94.5544 111.549C87.8318 103.158 86.3739 90.6606 94.7353 79.5343L94.9882 79.1982L95.3722 79.3676C96.6137 79.9158 97.6606 80.1589 98.6082 80.1341C99.5484 80.1094 100.431 79.8204 101.345 79.2399C103.21 78.0564 105.15 75.7086 107.869 72.0652C113.407 63.3689 118.397 59.3649 122.483 58.5428ZM127.273 60.4207C126.022 59.579 124.49 59.2263 122.691 59.5881C119.049 60.3208 114.263 64.0014 108.755 72.6535L108.744 72.6702L108.733 72.6858C106.033 76.3034 103.975 78.8311 101.912 80.1409C100.862 80.8077 99.796 81.1698 98.6362 81.2002C97.5976 81.2274 96.5158 80.9874 95.337 80.5093C87.5586 91.1409 89.0147 102.935 95.381 110.881C101.818 118.915 113.286 123.029 125.405 117.975C132.683 114.94 139.279 108.367 144.062 100.461C148.836 92.5657 151.764 83.4041 151.77 75.2407C151.545 73.0437 150.657 71.516 149.376 70.6828C148.089 69.8452 146.304 69.6431 144.159 70.3134L143.399 70.5515L143.473 69.7548C143.86 65.602 142.312 63.0211 140.034 62.0804C137.719 61.1248 134.405 61.7513 131.061 64.5711L130.499 65.0453L130.227 64.3606C129.543 62.6404 128.534 61.2697 127.273 60.4207Z" fill="#DAE0FD"/>
  <path d="M80.1389 115.557L65.2822 117.337C65.5372 117.001 65.7093 116.762 66.0078 116.418L80.1824 114.452L80.1389 115.557Z" fill="#DAE0FD"/>
</svg>
