<svg xmlns="http://www.w3.org/2000/svg" width="15" height="16" fill="none"><path fill="#7A859E" d="m14.862 9.265-1.687 4.905c-.38 1.111-1.485 1.832-2.643 1.83H6.68c-.69-.002-1.295-.293-1.891-.58-.187-.09-.691-.311-.795-.36.01-2.936 0-5.872.003-8.809.094-.028.213-.06.305-.09.402-.134 1.334-.268 1.403-.417l1.447-2.923c.229-.463.294-.983.358-1.494q.022-.182.047-.36c.045-.297.252-.568.492-.735C8.311.05 8.604 0 8.915 0c1.478.186 1.54 2.815 1.198 3.792-.263.447-.659 1.036-.439 1.754v.031l.439.008c.183.003.558-.005.748 0 1.391.039 2.894.206 3.703 1.42a2.59 2.59 0 0 1 .298 2.26M2.992 4.988H1a1 1 0 0 0-1 1.001v9.01A1 1 0 0 0 1 16h1.996z"/></svg>