<svg xmlns="http://www.w3.org/2000/svg" width="15" height="16" fill="none"><path fill="#7A859E" fill-rule="evenodd" d="m13.175 14.172 1.687-4.9a2.59 2.59 0 0 0-.298-2.258c-.81-1.212-2.312-1.379-3.703-1.417q-.286-.008-.561-.011l-.263-.004-.176-.004v-.032a5 5 0 0 1 .353-1.705c.388-1.106.347-2.04-.119-2.765A2.5 2.5 0 0 0 8.333 0c-.311 0-.604.05-.865.232-.24.167-.448.438-.493.733q-.025.18-.047.36c-.064.511-.129 1.03-.358 1.493l-1.447 2.92c-.086.186-.612.375-1.128.53V6a1 1 0 0 0-1-1H1a1 1 0 0 0-1 1v9a1 1 0 0 0 1 1h2a1 1 0 0 0 .997-.932c.267.1.529.226.792.352.596.287 1.2.578 1.891.58h3.852c1.159.002 2.263-.718 2.643-1.828M8.86 5.557l-.02.996.996.025.48.009c.686.01 1.326.021 1.928.138.708.138 1.188.395 1.487.845.272.406.338.927.184 1.377l-1.687 4.9v.001c-.23.67-.927 1.153-1.695 1.152H6.682c-.42-.002-.818-.172-1.433-.468l-.081-.04c-.32-.154-.717-.345-1.168-.477V7.31c.14-.04.29-.083.437-.13.245-.077.52-.172.758-.281.118-.054.255-.125.384-.216.105-.075.313-.236.443-.506l1.444-2.914c.313-.633.402-1.37.464-1.878q.016-.139.032-.25a.3.3 0 0 1 .077-.08c.023-.017.073-.046.23-.052.411.069.778.307.989.621.24.377.334.958.018 1.87-.26.659-.4 1.357-.415 2.064ZM3 15H1V6h1.995z" clip-rule="evenodd"/></svg>