<svg width="64" height="64" viewBox="0 0 64 64" fill="none" xmlns="http://www.w3.org/2000/svg">
<path d="M20.0197 17.5934C21.3833 15.1457 24.4529 14.2781 26.8758 15.6557L43.434 25.0697C45.8569 26.4472 46.7157 29.5482 45.3521 31.9959L33.9803 52.4088C32.6167 54.8565 29.5471 55.7241 27.1242 54.3465L10.566 44.9325C8.14311 43.555 7.28435 40.454 8.64794 38.0063L20.0197 17.5934Z" fill="#F7F8FB"/>
<path fill-rule="evenodd" clip-rule="evenodd" d="M48.2328 34.3527L50.3938 38.3736L53.641 44.0478C53.9548 44.5961 54.6303 44.7721 55.1498 44.441C55.6694 44.1099 55.8362 43.397 55.5224 42.8487L51.8589 36.4471C51.6706 36.1181 51.7707 35.6904 52.0824 35.4917C52.3942 35.2931 52.7995 35.3987 52.9877 35.7277L56.6513 42.1293C57.3415 43.3355 56.9746 44.9038 55.8316 45.6322C54.6886 46.3607 53.2025 45.9734 52.5122 44.7672L49.2556 39.0767L47.0857 35.0392L48.2328 34.3527Z" fill="#14C393"/>
<path fill-rule="evenodd" clip-rule="evenodd" d="M48.7808 33.4165C52.6 31.0523 53.7796 26.0396 51.4154 22.2203C49.0512 18.4011 44.0385 17.2215 40.2192 19.5857C36.4 21.9499 35.2204 26.9626 37.5846 30.7819C39.9488 34.6011 44.9615 35.7807 48.7808 33.4165ZM49.4995 34.5776C53.9601 31.8164 55.3377 25.9621 52.5765 21.5016C49.8153 17.041 43.961 15.6634 39.5005 18.4246C35.0399 21.1858 33.6623 27.0401 36.4235 31.5006C39.1847 35.9612 45.039 37.3388 49.4995 34.5776Z" fill="#FD9317"/>
<path fill-rule="evenodd" clip-rule="evenodd" d="M17 20.6591C17 20.2957 17.3376 20.0011 17.754 20.0011H21.246C21.6624 20.0011 22 20.2957 22 20.6591C22 21.0225 21.6624 21.3172 21.246 21.3172H17.754C17.3376 21.3172 17 21.0225 17 20.6591ZM17 45.3427C17 44.9793 17.309 44.6847 17.6903 44.6847H28.1032C28.4845 44.6847 28.7935 44.9793 28.7935 45.3427C28.7935 45.7061 28.4845 46.0007 28.1032 46.0007H17.6903C17.309 46.0007 17 45.7061 17 45.3427ZM30.0162 45.3427C30.0162 44.9793 30.3253 44.6847 30.7065 44.6847H33.3097C33.691 44.6847 34 44.9793 34 45.3427C34 45.7061 33.691 46.0007 33.3097 46.0007H30.7065C30.3253 46.0007 30.0162 45.7061 30.0162 45.3427ZM17.754 32.1493C17.3376 32.1493 17 32.4439 17 32.8073C17 33.1707 17.3376 33.4654 17.754 33.4654H21.246C21.6624 33.4654 22 33.1707 22 32.8073C22 32.4439 21.6624 32.1493 21.246 32.1493H17.754Z" fill="#14C393"/>
<path fill-rule="evenodd" clip-rule="evenodd" d="M17.1349 13.0011C14.8978 13.0011 13 14.6984 13 16.8923V23.3058C13 24.6425 13.7045 25.7949 14.7611 26.4913C13.7126 27.1421 13 28.2196 13 29.5017V35.4876C13 36.7738 13.7172 37.8541 14.7713 38.5042C13.7091 39.2 13 40.3554 13 41.6964V48.1099C13 50.3038 14.8978 52.0011 17.1349 52.0011H43.8651C46.1022 52.0011 48 50.3038 48 48.1099V41.6964C48 40.3562 47.2918 39.2013 46.2306 38.5054C46.3293 38.4442 46.4251 38.3791 46.5175 38.3104C46.8213 38.0846 46.8841 37.6558 46.6578 37.3526C46.4315 37.0494 46.0018 36.9867 45.698 37.2125C45.5011 37.359 45.2776 37.4834 45.0331 37.5793C44.6804 37.7176 44.2852 37.796 43.8651 37.796H17.1349C15.5157 37.796 14.3718 36.6758 14.3718 35.4876V29.5017C14.3718 28.3434 15.4589 27.2496 17.0136 27.1953C17.0783 27.1971 17.1442 27.1998 17.2074 27.1932H31.7928C32.1716 27.1932 32.4787 26.8868 32.4787 26.5087C32.4787 26.1307 32.1716 25.8242 31.7928 25.8242H16.9809C15.4853 25.7505 14.3718 24.6096 14.3718 23.3058V16.8923C14.3718 15.5442 15.5623 14.3701 17.1349 14.3701H43.8651C44.8168 14.3701 45.6427 14.8078 46.136 15.4558C46.3652 15.7568 46.7955 15.8155 47.0971 15.5868C47.3987 15.3581 47.4575 14.9287 47.2283 14.6276C46.4723 13.6347 45.2403 13.0011 43.8651 13.0011H17.1349ZM17.1349 39.1742C15.5623 39.1742 14.3718 40.3483 14.3718 41.6964V48.1099C14.3718 49.458 15.5623 50.6321 17.1349 50.6321H43.8651C45.4377 50.6321 46.6282 49.458 46.6282 48.1099V41.6964C46.6282 40.3483 45.4377 39.1742 43.8651 39.1742H17.1349Z" fill="#375BE9"/>
</svg>
