<svg width="170" height="157" fill="none" xmlns="http://www.w3.org/2000/svg">
  <mask id="a" maskUnits="userSpaceOnUse" x="0" y="0" width="162" height="147">
    <rect x=".5" y=".5" width="161" height="146" rx="3.5" fill="#fff" stroke="#E7EAF3"/>
  </mask>
  <g mask="url(#a)">
    <path d="M32 74.5c-59.5 23.5 6.93 75.6 73.93 90.5 67 14.9 136.5-45.5 101.5-59.5s-32.93-82-84.93-82c-52 0-31 27.5-90.5 51z" fill="#EDF8F5"/>
  </g>
  <path fill-rule="evenodd" clip-rule="evenodd" d="M104.52 81.68l2.65-3.29-2.47-2.47-3.35 2.62c-1.05.81-2.4.94-3.58.35-.73-.36-1.47-.69-2.13-.88a3.24 3.24 0 01-2.36-2.84L92.83 71h-3.66l-.45 4.17a3.3 3.3 0 01-2.3 2.82c-.78.26-1.51.56-2.2.9a3.33 3.33 0 01-3.57-.35l-.01-.01-3.3-2.65-2.47 2.47 2.63 3.25c.9 1.06.94 2.5.4 3.6-.35.75-.65 1.5-.92 2.24a3.3 3.3 0 01-2.8 2.28l-4.18.45v3.66l4.17.45a3.3 3.3 0 012.82 2.3c.26.78.56 1.51.9 2.2a3.33 3.33 0 01-.35 3.57l-.01.01-2.66 3.3 2.48 2.47 3.25-2.63c1.06-.9 2.5-.94 3.6-.4.75.35 1.5.65 2.24.92a3.3 3.3 0 012.28 2.8l.45 4.18h3.66l.45-4.17a3.3 3.3 0 012.3-2.82c.78-.26 1.51-.56 2.19-.9a3.33 3.33 0 013.58.35l.01.01 3.3 2.66 2.46-2.48-2.62-3.25a3.32 3.32 0 01-.4-3.6c.34-.75.65-1.5.92-2.24a3.3 3.3 0 012.8-2.28l4.18-.45v-3.61l-4.13-.45a3.3 3.3 0 01-2.81-2.3c-.26-.78-.57-1.51-.9-2.2a3.33 3.33 0 01.35-3.57l.01-.02zm2.44 5.18c.15.48.58.87 1.12.92l4.46.48c.88.1 1.5.78 1.46 1.65v4.18c0 .87-.63 1.6-1.5 1.7l-4.47.48a1.3 1.3 0 00-1.12.92c-.29.83-.63 1.65-1.02 2.48-.24.48-.19 1.06.15 1.45l2.81 3.5c.59.63.54 1.6-.1 2.23l-2.9 2.9a1.7 1.7 0 01-2.24.1l-3.49-2.8a1.33 1.33 0 00-1.46-.15c-.77.38-1.6.72-2.47 1.02a1.3 1.3 0 00-.92 1.11l-.49 4.47c-.1.87-.82 1.5-1.7 1.5h-4.17c-.87 0-1.6-.63-1.7-1.5l-.48-4.47a1.3 1.3 0 00-.92-1.11 26.9 26.9 0 01-2.48-1.02 1.32 1.32 0 00-1.45.14l-3.5 2.82a1.6 1.6 0 01-2.23-.1l-2.91-2.91a1.7 1.7 0 01-.1-2.23l2.82-3.5c.34-.43.39-.97.14-1.45-.39-.78-.72-1.6-1.02-2.48a1.3 1.3 0 00-1.11-.92l-4.47-.49c-.87-.1-1.5-.82-1.5-1.7v-4.17c0-.87.63-1.6 1.5-1.7l4.47-.48a1.3 1.3 0 001.11-.92c.3-.83.63-1.65 1.02-2.48.25-.48.2-1.06-.14-1.45l-2.82-3.5a1.6 1.6 0 01.1-2.23l2.91-2.91a1.7 1.7 0 012.23-.1l3.5 2.82c.43.34.97.39 1.45.14.78-.38 1.6-.72 2.48-1.02.48-.14.87-.58.92-1.11l.48-4.47c.1-.87.83-1.5 1.7-1.5h4.18c.87 0 1.6.63 1.7 1.5l.48 4.47c.05.53.39.97.92 1.11.83.25 1.7.64 2.47 1.02.49.25 1.02.2 1.46-.14l3.54-2.77a1.6 1.6 0 012.23.1l2.92 2.91c.58.58.63 1.55.1 2.23l-2.82 3.5c-.34.43-.39.97-.15 1.45.4.78.73 1.6 1.02 2.48zm-29.4 21.48z" fill="#14C393"/>
  <path fill-rule="evenodd" clip-rule="evenodd" d="M47 40a1 1 0 011-1h39.5a1 1 0 01.7.3l18 18a1 1 0 01.3.7v10a1 1 0 01-2 0v-9.59L87.09 41H49v67h12a1 1 0 010 2H48a1 1 0 01-1-1V40z" fill="#2F354D"/>
  <path fill-rule="evenodd" clip-rule="evenodd" d="M86 43.5a1 1 0 011 1V59h14a1 1 0 010 2H86a1 1 0 01-1-1V44.5a1 1 0 011-1z" fill="#7A859E"/>
  <path fill-rule="evenodd" clip-rule="evenodd" d="M91 100a8 8 0 100-16 8 8 0 000 16zm0 2a10 10 0 100-20 10 10 0 000 20z" fill="#7A859E"/>
  <path d="M28.2 103.72a.87.87 0 00-1.72 0 3.35 3.35 0 01-2.76 2.76.87.87 0 00-.51 1.42c.13.16.31.26.51.3a3.36 3.36 0 012.76 2.76.87.87 0 001.72 0 3.36 3.36 0 012.76-2.76.87.87 0 00.51-1.42.87.87 0 00-.51-.3 3.36 3.36 0 01-2.76-2.76zm-.86 4.86a5.1 5.1 0 00-1.24-1.24c.48-.34.9-.76 1.24-1.24.34.48.76.9 1.24 1.24-.48.34-.9.76-1.24 1.24z" fill="#14C393"/>
  <path d="M32.2 71.72a.87.87 0 00-1.72 0 3.36 3.36 0 01-2.76 2.76.87.87 0 000 1.72 3.36 3.36 0 012.76 2.76.87.87 0 001.72 0 3.36 3.36 0 012.76-2.76.87.87 0 000-1.72 3.36 3.36 0 01-2.76-2.76zm-.86 4.86a5.1 5.1 0 00-1.24-1.24c.48-.34.9-.76 1.24-1.24.34.48.76.9 1.24 1.24-.48.34-.9.76-1.24 1.24z" fill="#2F354D"/>
</svg>
