<svg width="64" height="65" fill="none" xmlns="http://www.w3.org/2000/svg">
  <g clip-path="url(#clip0)">
    <path d="M5.5 20.5c2.5 16-8.7 29 3 35.5s6.73-.25 30.5-2 25.95-34 15-41S3 4.5 5.5 20.5z" fill="#EDF8F5"/>
    <path d="M31.85 29.05c-1.9-3.05.52-5.66 2.37-5.52 0 0 3.17-.42 6.34 1.7s0 5.52.8 9.34c.78 3.82-.8 5.52-1.99 7.64s-3.17 6.53-5.94 6.95c-2.77.43-5.94 1.54-8.32-5.25-1.08-3.1 5.94-2.55 8.32-6.37 2.38-3.82.8-4.67-1.58-8.49z" fill="#D2D6E7"/>
    <path fill-rule="evenodd" clip-rule="evenodd" d="M32.93 13.5a1 1 0 011.02.99l.05 4a1 1 0 11-2 .02l-.05-4a1 1 0 01.98-1.01z" fill="#7A859E"/>
    <path fill-rule="evenodd" clip-rule="evenodd" d="M50.54 36.98a1 1 0 011-1H55a1 1 0 110 2h-3.46a1 1 0 01-1-1z" fill="#2F354D"/>
    <path fill-rule="evenodd" clip-rule="evenodd" d="M8 36.3a1 1 0 011-1h4.2a1 1 0 010 2H9a1 1 0 01-1-1z" fill="#2F354D"/>
    <path fill-rule="evenodd" clip-rule="evenodd" d="M50.83 20.95a1 1 0 01-.28 1.38l-3 2a1 1 0 11-1.1-1.66l3-2a1 1 0 011.38.28z" fill="#2F354D"/>
    <path fill-rule="evenodd" clip-rule="evenodd" d="M18.72 49.8a1 1 0 01-.02 1.42l-2.65 2.58a1 1 0 11-1.4-1.43l2.65-2.59a1 1 0 011.42.02z" fill="#2F354D"/>
    <path fill-rule="evenodd" clip-rule="evenodd" d="M44.31 50.28a1 1 0 011.41.03l2.61 2.74a1 1 0 11-1.44 1.38l-2.61-2.74a1 1 0 01.03-1.41z" fill="#7A859E"/>
    <path fill-rule="evenodd" clip-rule="evenodd" d="M14.3 19.8a1 1 0 011.4 0l3 3a1 1 0 01-1.4 1.4l-3-3a1 1 0 010-1.4z" fill="#7A859E"/>
    <path d="M35 48.5h-8v5.14l2.29 3.43 2.66.43 2.29-2.57.76-2.14V48.5z" fill="#14C393"/>
    <path fill-rule="evenodd" clip-rule="evenodd" d="M36.63 49.08a1.63 1.63 0 01-.06.13 2.35 2.35 0 01.26 1.06v3.4c0 1-.63 1.85-1.53 2.18l-.68 1.3a2.63 2.63 0 01-2.21 1.35H30.6c-.88 0-1.81-.57-2.22-1.35l-.68-1.3a2.31 2.31 0 01-1.52-2.18v-3.4c0-.38.09-.74.25-1.06 0-.03-.02-.06-.03-.08a.85.85 0 01-.05-.13c-.49-1.77-1.85-3.56-3.05-4.79A11.57 11.57 0 0120 36.1c0-6.4 5.15-11.6 11.5-11.6S43 29.7 43 36.1c0 3.16-1.26 6.03-3.3 8.12-1.2 1.22-2.56 3.01-3.05 4.78a.5.5 0 01-.02.08zm-11.9-6.27a14.48 14.48 0 013.47 5.4h6.6c.68-2.16 2.24-4.13 3.47-5.4A9.57 9.57 0 0041 36.1c0-5.32-4.27-9.6-9.5-9.6a9.55 9.55 0 00-9.5 9.6 9.57 9.57 0 002.73 6.71zm3.45 7.4h6.64v3.46c0 .14-.08.25-.2.3a2 2 0 00-1.09.95l-.68 1.3a.67.67 0 01-.44.28H30.6a.68.68 0 01-.45-.28l-.68-1.3a2 2 0 00-1.09-.95.31.31 0 01-.2-.3v-3.4a.3.3 0 010-.06z" fill="#2F354D"/>
    <path fill-rule="evenodd" clip-rule="evenodd" d="M31.93 30.14a1 1 0 01-.57 1.3c-2.77 1.07-4.74 3.06-5.4 5.34a1 1 0 11-1.92-.56c.86-3 3.38-5.4 6.6-6.65a1 1 0 011.3.57z" fill="#14C393"/>
  </g>
  <defs>
    <clipPath id="clip0">
      <path fill="#fff" d="M0 .5h64v64H0z"/>
    </clipPath>
  </defs>
</svg>
