<svg width="64" height="64" fill="none" xmlns="http://www.w3.org/2000/svg">
  <g clip-path="url(#clip0)">
    <path d="M9.3 23.1c2.4 15.8-8.2 39 5.7 39.5 13.8.6 7-15.4 27.2-4C62.4 69.9 67.2 26.5 51 17 34.7 7.6 7 7.3 9.3 23.1z" fill="#2F354D"/>
    <path d="M7.6 23.3c1.6-1.3 2.9-1.9 4.2-2.5 1.6-.7 3.2-1.4 5.8-3.6 3.9-3.3 8.3-6 12.5-8.7l.8-.6L48.3-3l1.5-1c3.7-2.3 6.8-5.5 9.9-8.6l1.5 1.5C58.1-8 54.8-4.7 51-2.2l-1.5.9-17.3 11-.9.6c-4.1 2.6-8.5 5.3-12.2 8.5-2.8 2.4-4.7 3.2-6.3 4-1.8.8-3.3 1.4-5.6 4-2.7 2.8-3.6 4.2-4.6 6a46.6 46.6 0 01-6 8 163 163 0 00-5.3 7 37.4 37.4 0 00-3.3 5.3c-.8 1.4-1.6 3-3.6 5.6l-1.7-1.3c1.9-2.5 2.6-3.9 3.4-5.3.8-1.5 1.6-3 3.5-5.6l5.4-7.1 2.4-3C-1 34.1-.2 32.8.6 31.5c1.2-1.8 2.1-3.3 5-6.3l2-2z" fill="#14C393"/>
    <path fill-rule="evenodd" clip-rule="evenodd" d="M25.1 20.7a1 1 0 00-1 1v30.2c0 .5.5 1 1 1h23.5c.5 0 1-.5 1-1V21.6c0-.5-.5-1-1-1H25zm1 30.2V22.6h21.5v28.3H26.1z" fill="#fff"/>
    <path d="M24 20.7a3.4 3.4 0 00-3.3 3.3v31.3a1 1 0 001.9 0V24c0-.8.6-1.4 1.4-1.4h2a1 1 0 100-2h-2z" fill="#fff"/>
    <path d="M41.5 28.7h-13c-.3 0-.5-.4-.5-1 0-.5.2-1 .5-1h13c.3 0 .5.5.5 1 0 .6-.2 1-.5 1z" fill="#14C393"/>
    <path d="M48.4 47.4H31.6c-.3 0-.6-.4-.6-1 0-.5.3-1 .6-1h16.8c.3 0 .6.5.6 1 0 .6-.3 1-.6 1z" fill="#fff"/>
    <path d="M38.7 33.8H28.4c-.2 0-.4-.4-.4-1 0-.5.2-1 .4-1h10.3c.2 0 .4.5.4 1 0 .6-.2 1-.4 1z" fill="#14C393"/>
    <path d="M24.7 51a4 4 0 00-4 4 4 4 0 004 3.9l1.8.1s.9-1.7.3-2h-2.1a2 2 0 01-2.1-2c0-1.2 1-2.2 2-2.2h23V57h-12c-.6.3 0 1.9 0 1.9h13c.5 0 1-.4 1-1v-6c0-.5-.5-1-1-1h-24z" fill="#9FAAC4"/>
    <path d="M14.9 38.5c-1.3 0-2.4-1-2.4-2.4a2.3 2.3 0 014.7 0c0 1.3-1 2.4-2.3 2.4zm0-3.5c-.6 0-1.1.5-1.1 1.1a1.1 1.1 0 002.2 0c0-.6-.5-1-1.1-1z" fill="#fff"/>
    <path d="M58.7 47.4c-1.4 0-2.5-1-2.5-2.4a2.4 2.4 0 014.9 0c0 1.4-1.1 2.4-2.4 2.4zm0-3.2c-.5 0-1 .3-1 .8a.9.9 0 001.8 0c0-.5-.4-.8-.8-.8z" fill="#9FAAC4"/>
    <path d="M12.9 51c.4-.5 1.1-.5 1.5 0 .5.4.5 1 0 1.5-.4.4-1 .4-1.5 0s-.5-1.1 0-1.5z" fill="#9FAAC4"/>
    <path d="M54.4 32.3c.4-.4 1-.4 1.5 0 .5.5.5 1.2 0 1.6-.4.4-1.1.4-1.5 0-.5-.4-.5-1.1 0-1.6z" fill="#fff"/>
    <path d="M35.8 61.8l-.5-.1-4.3-3.3-4.3 3.3c-.2.2-.6.2-.9 0-.2 0-.4-.3-.4-.6v-8.5c0-.5.4-.9.8-.9h9.6c.4 0 .8.4.8.9V61a.8.8 0 01-.8.8zM31 56.2l.5.1 3.4 2.7v-5.4h-7.8v5.1l3.4-2.4.5-.1z" fill="#9FAAC4"/>
  </g>
  <defs>
    <clipPath id="clip0">
      <path fill="#fff" d="M0 0h64v64H0z"/>
    </clipPath>
  </defs>
</svg>
