<svg width="64" height="65" fill="none" xmlns="http://www.w3.org/2000/svg">
  <g clip-path="url(#clip0)">
    <path d="M11.5 25C3 38.5 1.14 62.54 14.96 63.11c13.81.57 7.07-15.38 27.28-4.04 20.2 11.34 25.02-32.09 8.74-41.54C34.69 8.07 20 11.5 11.5 25z" fill="#EDF8F5"/>
    <path d="M46.5 20.5C37 17 17.5 19 20.5 28s8 7.5 12 10 6 16 13 14.5 10.5-28.5 1-32z" fill="#D2D6E7"/>
    <path d="M24.04 21.15a3.36 3.36 0 00-3.36 3.35v31.34a.96.96 0 001.92 0V24.5c0-.8.64-1.44 1.44-1.44h1.94a.96.96 0 100-1.9h-1.94z" fill="#7A859E"/>
    <path fill-rule="evenodd" clip-rule="evenodd" d="M25.11 21.15a.96.96 0 00-.95.96v30.27c0 .53.43.96.95.96h23.47c.53 0 .96-.43.96-.96V22.11a.96.96 0 00-.96-.96H25.1zm.96 30.28V23.06h21.55v28.37H26.07z" fill="#7A859E"/>
    <path d="M41.54 29.24H28.46c-.26 0-.46-.45-.46-1s.2-1 .46-1h13.08c.26 0 .46.45.46 1s-.2 1-.46 1z" fill="#14C393"/>
    <path d="M48.41 47.94H31.6c-.33 0-.59-.45-.59-1 0-.56.26-1 .59-1H48.4c.33 0 .59.44.59 1 0 .55-.26 1-.59 1z" fill="#7A859E"/>
    <path d="M38.74 34.3H28.36c-.2 0-.36-.44-.36-1 0-.55.16-1 .36-1h10.38c.2 0 .36.45.36 1 0 .56-.16 1-.36 1z" fill="#14C393"/>
    <path d="M24.68 51.43a4 4 0 00-4 3.98 4 4 0 004 3.98l1.82.11s.87-1.72.26-2.02h-2.08a2.08 2.08 0 01-2.08-2.07c0-1.14.93-2.07 2.08-2.07h22.94v4.14H35.63c-.6.3 0 1.91 0 1.91h12.95c.53 0 .96-.42.96-.95v-6.06a.96.96 0 00-.96-.95h-23.9z" fill="#2F354D"/>
    <path d="M14.9 38.97a2.34 2.34 0 01-2.35-2.33 2.34 2.34 0 014.7 0 2.34 2.34 0 01-2.35 2.33zm0-3.46a1.13 1.13 0 101.13 1.12c0-.61-.51-1.12-1.13-1.12z" fill="#2F354D"/>
    <path d="M58.66 47.93a2.41 2.41 0 01-2.41-2.4 2.41 2.41 0 014.83 0c0 1.33-1.09 2.4-2.42 2.4zm0-3.27c-.48 0-.88.39-.88.87a.88.88 0 001.76 0c0-.48-.4-.87-.88-.87z" fill="#7A859E"/>
    <path d="M12.87 51.45a1.11 1.11 0 011.57 0 1.1 1.1 0 010 1.56c-.43.44-1.13.44-1.57 0a1.1 1.1 0 010-1.56z" fill="#7A859E"/>
    <path d="M54.35 32.82a1.11 1.11 0 011.57 0 1.1 1.1 0 010 1.57c-.43.43-1.13.43-1.57 0a1.1 1.1 0 010-1.57z" fill="#2F354D"/>
    <path d="M35.78 61.53a.83.83 0 01-.5-.17L31 58.13l-4.28 3.23c-.25.2-.59.22-.87.08s-.46-.37-.46-.69v-8.48c0-.47.37-.84.83-.84h9.56c.46 0 .83.37.83.84v8.42a.84.84 0 01-.83.84zm-4.8-5.67c.17 0 .35.06.5.17l3.46 2.7v-5.4h-7.87v5.08l3.4-2.38a.83.83 0 01.5-.17z" fill="#2F354D"/>
  </g>
  <defs>
    <clipPath id="clip0">
      <path fill="#fff" d="M0 .5h64v64H0z"/>
    </clipPath>
  </defs>
</svg>
