<svg width="64" height="65" fill="none" xmlns="http://www.w3.org/2000/svg">
  <g clip-path="url(#clip0)">
    <path d="M12.95 12.31C-.77 23.05-.17 40.35 9.38 53.47c9.54 13.12 18.49 14.91 37.57 5.96 19.1-8.94 20.9-49.5-2.95-47.12-23.86 2.39-17.33-10.73-31.05 0z" fill="#EDF8F5"/>
    <path d="M33.91 46.3c-3.3-9.83 17.7-13.26 15.09-4.8-4 13-10.5 8.5-4.5 16.5s-15.13 5.52-22 5a6.57 6.57 0 01-6-10c1.32-1.31 19.83.52 17.41-6.7z" fill="#D2D6E7"/>
    <path d="M15.77 48.06v-2.69" stroke="#2F354D" stroke-width="2" stroke-miterlimit="10" stroke-linejoin="round"/>
    <path d="M15.77 42.69v-5.38h32.25v24.2H15.77V50.74" stroke="#2F354D" stroke-width="2" stroke-miterlimit="10" stroke-linejoin="round"/>
    <path d="M48.03 37.17V61.5H15.78" stroke="#7A859E" stroke-width="2" stroke-linecap="round" stroke-linejoin="round"/>
    <path d="M44.75 18.5L11.81 30.17l2.7 7.6L47.44 26.1l-2.69-7.6z" stroke="#2F354D" stroke-width="2" stroke-miterlimit="10" stroke-linejoin="round"/>
    <path d="M53.54 30.98l5.37-.37" stroke="#14C393" stroke-width="2" stroke-miterlimit="10"/>
    <path d="M61.59 30.42l2.68-.18" stroke="#14C393" stroke-width="2" stroke-miterlimit="10"/>
    <path d="M51.77 25.6l4.53-2.89" stroke="#14C393" stroke-width="2" stroke-miterlimit="10"/>
    <path d="M58.57 21.27l2.26-1.45" stroke="#14C393" stroke-width="2" stroke-miterlimit="10"/>
    <path d="M52.53 36.53l4.88 2.25" stroke="#14C393" stroke-width="2" stroke-miterlimit="10"/>
    <path d="M59.85 39.9l2.45 1.13" stroke="#14C393" stroke-width="2" stroke-miterlimit="10"/>
    <path clip-rule="evenodd" d="M31.94 43.2l2.12 3.75 4.29.8-2.98 3.12.54 4.23-3.97-1.82L28 55.1l.54-4.23-3-3.12 4.31-.8 2.1-3.74z" stroke="#14C393" stroke-width="2" stroke-linecap="round" stroke-linejoin="round"/>
    <path d="M14.72 10.02a.62.62 0 00-1.23 0 2.4 2.4 0 01-1.97 1.97.62.62 0 000 1.23 2.4 2.4 0 011.97 1.98.62.62 0 001.23 0 2.4 2.4 0 011.98-1.98.62.62 0 000-1.23 2.4 2.4 0 01-1.98-1.97zm-.61 3.47a3.65 3.65 0 00-.9-.88c.35-.25.65-.55.9-.89.24.34.54.64.89.89-.35.24-.65.54-.9.88z" fill="#2F354D"/>
    <path d="M4.6 24.14a.77.77 0 00-1.51 0A2.98 2.98 0 01.64 26.6a.77.77 0 000 1.51 2.98 2.98 0 012.45 2.45.77.77 0 001.51 0 2.98 2.98 0 012.45-2.45.77.77 0 000-1.51 2.98 2.98 0 01-2.45-2.45zm-.76 4.3c-.3-.42-.67-.8-1.1-1.1.43-.3.8-.67 1.1-1.1.3.43.68.8 1.1 1.1-.42.3-.8.68-1.1 1.1z" fill="#7A859E"/>
  </g>
  <defs>
    <clipPath id="clip0">
      <path fill="#fff" d="M0 .5h64v64H0z"/>
    </clipPath>
  </defs>
</svg>
