<svg width="64" height="64" fill="none" xmlns="http://www.w3.org/2000/svg">
  <g clip-path="url(#clip0)">
    <path d="M21.7 11.2c-16.5-5-28 18.1-18.4 33.6 9.5 15.5 18.2.4 38 10.2C61.1 64.7 74.5-4 50.2 2.3c-24.3 6.2-12 14-28.5 9z" fill="#2F354D"/>
    <path d="M43.9 4c1.7 1.1 2.6 2.2 3.6 3.3 1.1 1.3 2.3 2.7 5.1 4.5 4.3 2.9 8.1 6.3 11.9 9.6l.7.6 15.5 13.6 1.4 1.1c3.3 3 7.2 5 11 7.1l-1 2c-3.9-2.2-8-4.4-11.4-7.5l-1.4-1.1-15.5-13.6-.7-.6c-3.7-3.3-7.5-6.7-11.6-9.4-3.1-2-4.4-3.6-5.6-5-1.3-1.4-2.3-2.6-5.4-4.2-3.5-1.7-5.1-2.2-7-2.7A46.6 46.6 0 0124-1.7C21.3-3 20.3-3.3 15.8-5c-2.9-1-4.4-1.4-6-1.7-1.6-.3-3.3-.7-6.4-1.8l.8-2c2.9 1 4.4 1.4 6 1.7 1.7.4 3.3.7 6.3 1.8 4.5 1.6 5.6 2 8.4 3.2l3.6 1.5c2.6 1 4 1.4 5.5 1.8 2 .6 3.8 1 7.4 3 1 .4 1.8.9 2.5 1.4z" fill="#14C393"/>
    <path d="M8.2 32.7a.9.9 0 00-1.7 0 3.4 3.4 0 01-2.8 2.8.9.9 0 000 1.7A3.4 3.4 0 016.5 40a.9.9 0 001.7 0 3.4 3.4 0 012.8-2.8.9.9 0 000-1.7 3.4 3.4 0 01-2.8-2.8zm-.9 4.9c-.3-.5-.7-1-1.2-1.3.5-.3.9-.7 1.2-1.2.4.5.8.9 1.3 1.2-.5.4-1 .8-1.3 1.3z" fill="#14C393"/>
    <path d="M13.2 6.7a.9.9 0 00-1.7 0 3.4 3.4 0 01-2.8 2.8.9.9 0 000 1.7 3.4 3.4 0 012.8 2.8.9.9 0 001.7 0 3.4 3.4 0 012.8-2.8.9.9 0 000-1.7 3.4 3.4 0 01-2.8-2.8zm-.9 4.9c-.3-.5-.7-1-1.2-1.3.5-.3.9-.7 1.2-1.2.4.5.8.9 1.3 1.2-.5.4-1 .8-1.3 1.3z" fill="#9FAAC4"/>
    <path d="M56.3 35v-2.7H59v-1.7h-2.6V28h-1.7v2.6H52v1.7h2.6V35h1.7z" fill="#9FAAC4"/>
    <path fill-rule="evenodd" clip-rule="evenodd" d="M44.2 40.4zm3 11.8v7.4h-30c-.2 0-.4 0-.6-.2a.8.8 0 01-.2-.6v-7.4c0-.2 0-.5.2-.6.2-.2.4-.2.6-.2h1.6V44l.3-.6.5-.2h8.6l.1-.8c-3.3-1.4-6-3.9-7.7-7a15.8 15.8 0 013.9-19.5 15.3 15.3 0 0124.8 9 15.8 15.8 0 01-9.2 17.5l.2.8h8.5c.2 0 .4 0 .6.2l.2.6v7.4c0 .2 0 .4-.2.6l-.6.2h-1.6zm-24.4-32a14 14 0 001.7 17.6 13.7 13.7 0 0022.4-4.5 14.1 14.1 0 00-3-15.2 13.7 13.7 0 00-21.1 2.2zM48 44.9H20.5v5.8h3.2V48h1.6v2.5h3.2V48h1.7v2.5h3.2V48H35v2.5h3.3V48h1.6v2.5H43V48h1.6v2.5H48v-5.8zm-30 7.4V58h3.3v-2.4h1.6v2.4H26v-2.4h1.6v2.4H31v-2.4h1.6v2.4h3.2v-2.4h1.7v2.4h3.2v-2.4h1.6v2.4h3.2v-5.7H18z" fill="#9FAAC4"/>
    <path d="M27.2 28.5c0 .8-.7 1.5-1.6 1.5-.9 0-1.6-.7-1.6-1.5s.7-1.5 1.6-1.5c.9 0 1.6.7 1.6 1.5z" fill="#fff"/>
    <path d="M43.4 30c.9 0 1.6-.7 1.6-1.5s-.7-1.5-1.6-1.5c-.9 0-1.6.7-1.6 1.5s.7 1.5 1.6 1.5z" fill="#fff"/>
    <path d="M37.7 22.7a6.3 6.3 0 00-4.1-.6c-1.3.3-2.4 1.2-2.6 2.6-.2 1.2.2 2 .8 2.8.6.7 1.4 1.2 2.1 1.6.8.5 1.4.8 1.9 1.3.4.4.6.8.6 1.3 0 .6-.2 1-.4 1.1-.2.2-.6.4-1 .4-1.1 0-2.4-.3-3.2-.8l-1.1 1.4c1 .7 2.8 1.3 4.4 1.2.7 0 1.6-.3 2.2-.9a3 3 0 001-2.4c0-1.1-.5-2-1.2-2.6-.6-.6-1.5-1-2.2-1.5a7 7 0 01-1.7-1.2c-.3-.4-.5-.8-.4-1.5.1-.5.5-.9 1.2-1 .8-.2 1.8-.1 2.8.4l1-1.6z" fill="#fff"/>
  </g>
  <defs>
    <clipPath id="clip0">
      <path fill="#fff" d="M0 0h64v64H0z"/>
    </clipPath>
  </defs>
</svg>
