<svg width="64" height="64" fill="none" xmlns="http://www.w3.org/2000/svg">
  <g clip-path="url(#clip0)">
    <path d="M21.65 11.2C5.16 6.14-6.3 29.33 3.25 44.83 12.84 60.32 26.2 43.23 46 53S74.5-3.86 50.2 2.32c-24.3 6.2-12.06 13.96-28.55 8.89z" fill="#2F354D"/>
    <path d="M43.9 3.96a16.66 16.66 0 013.58 3.32 21.66 21.66 0 005.15 4.55c4.24 2.83 8.11 6.23 11.85 9.53l.76.67c5.13 4.51 10.4 9.1 15.49 13.54l1.32 1.15c3.31 2.89 7.26 5.03 11.08 7.1l-1.01 1.89c-3.92-2.13-7.98-4.33-11.46-7.37l-1.33-1.16a3670.6 3670.6 0 01-15.5-13.54l-.76-.67c-3.69-3.25-7.5-6.63-11.62-9.35-3.07-2.04-4.4-3.58-5.58-4.94-1.3-1.5-2.32-2.68-5.4-4.25-3.46-1.76-5.1-2.21-7.02-2.74-1.45-.4-3.08-.86-5.71-1.92L24.1-1.71c-2.8-1.15-3.85-1.58-8.3-3.19a37.36 37.36 0 00-5.99-1.67C8.2-6.91 6.5-7.26 3.41-8.42l.76-2a34.3 34.3 0 006.1 1.75c1.6.34 3.26.68 6.27 1.77 4.49 1.62 5.55 2.06 8.4 3.22l3.6 1.47c2.52 1.02 4.03 1.43 5.5 1.84 2.01.56 3.76 1.04 7.4 2.9.98.5 1.78.97 2.46 1.43z" fill="#14C393"/>
    <path d="M8.2 32.72a.87.87 0 00-1.72 0 3.36 3.36 0 01-2.76 2.76.87.87 0 000 1.72 3.36 3.36 0 012.76 2.76.87.87 0 001.72 0 3.36 3.36 0 012.76-2.76.87.87 0 000-1.72 3.36 3.36 0 01-2.76-2.76zm-.86 4.86a5.1 5.1 0 00-1.24-1.24c.48-.34.9-.76 1.24-1.24.34.48.76.9 1.24 1.24-.48.34-.9.76-1.24 1.24z" fill="#14C393"/>
    <path d="M13.2 6.72a.87.87 0 00-1.72 0 3.36 3.36 0 01-2.76 2.76.87.87 0 000 1.72 3.36 3.36 0 012.76 2.76.87.87 0 001.72 0 3.36 3.36 0 012.76-2.76.87.87 0 000-1.72 3.36 3.36 0 01-2.76-2.76zm-.86 4.86a5.1 5.1 0 00-1.24-1.24c.48-.34.9-.76 1.24-1.24.34.48.76.9 1.24 1.24-.48.34-.9.76-1.24 1.24z" fill="#9FAAC4"/>
    <path d="M56.34 34.94v-2.6h2.6V30.6h-2.6V28H54.6v2.6H52v1.74h2.6v2.6h1.74z" fill="#9FAAC4"/>
    <path fill="#F9FAFC" d="M20 44h28v8H20z"/>
    <path fill-rule="evenodd" clip-rule="evenodd" d="M44.19 40.4zm2.98 11.81v7.35l-27.53.04h-2.43a.8.8 0 01-.57-.24.84.84 0 01-.24-.6v-7.38c0-.22.09-.43.24-.59a.8.8 0 01.57-.24h1.62V44c0-.22.09-.43.24-.59a.8.8 0 01.57-.24h8.51l.16-.77c-3.29-1.38-6-3.88-7.67-7.06a15.79 15.79 0 013.82-19.4 15.26 15.26 0 0119.5 0 15.79 15.79 0 013.82 19.4 15.46 15.46 0 01-7.66 7.06l.16.77h8.5a.8.8 0 01.58.24c.15.16.24.37.24.59v7.38c0 .23-.09.44-.24.6a.8.8 0 01-.57.23h-1.62zm-24.4-31.95a14.07 14.07 0 001.72 17.59 13.63 13.63 0 0017.37 1.74 13.9 13.9 0 005.06-6.26 14.1 14.1 0 00-2.98-15.18 13.6 13.6 0 00-15-3.02 13.8 13.8 0 00-6.17 5.13zm25.2 24.57H20.46v5.72h3.23V48.1h1.62v2.46h3.23V48.1h1.63v2.46h3.23V48.1h1.63v2.46h3.23V48.1h1.63v2.46h3.22V48.1h1.63v2.46h3.23v-5.72zm-29.94 7.38v5.73h3.23v-2.46h1.63v2.46h3.22v-2.46h1.63v2.46h3.23v-2.46h1.63v2.46h3.23v-2.46h1.63v2.46h3.23v-2.46h1.62v2.46h3.23V52.2H18.03z" fill="#9FAAC4"/>
    <path d="M27.22 28.5c0 .84-.72 1.52-1.61 1.52-.89 0-1.61-.68-1.61-1.52s.72-1.52 1.6-1.52c.9 0 1.62.68 1.62 1.52z" fill="#fff"/>
    <path d="M43.4 30.02c.88 0 1.6-.68 1.6-1.52s-.72-1.52-1.6-1.52c-.9 0-1.62.68-1.62 1.52s.72 1.52 1.61 1.52z" fill="#fff"/>
    <path d="M37.71 22.73a6.3 6.3 0 00-4.12-.6c-1.29.28-2.4 1.14-2.62 2.56-.17 1.18.2 2.1.84 2.83a8.7 8.7 0 002.13 1.6c.76.45 1.38.8 1.85 1.24.42.4.65.82.65 1.37 0 .61-.2.93-.4 1.11-.23.2-.6.34-1.12.38a5.23 5.23 0 01-3.09-.87l-1.14 1.4A7.15 7.15 0 0035.06 35a3.76 3.76 0 002.25-.85c.66-.57 1-1.4 1-2.41a3.5 3.5 0 00-1.2-2.62c-.65-.61-1.5-1.09-2.18-1.5-.73-.43-1.3-.8-1.68-1.22a1.66 1.66 0 01-.43-1.46c.08-.53.47-.92 1.2-1.08.76-.17 1.8-.06 2.82.45l.87-1.57z" fill="#fff"/>
  </g>
  <defs>
    <clipPath id="clip0">
      <path fill="#fff" d="M0 0h64v64H0z"/>
    </clipPath>
  </defs>
</svg>
