<svg width="64" height="65" viewBox="0 0 64 65" fill="none" xmlns="http://www.w3.org/2000/svg">
<g clip-path="url(#clip0)">
<path d="M21.6524 11.7059C5.16171 6.63186 -6.30914 29.8222 3.25898 45.3202C12.8271 60.8181 26.2019 43.7312 46 53.5007C65.7981 63.2703 74.4938 -3.36277 50.194 2.82551C25.8941 9.01378 38.143 16.78 21.6524 11.7059Z" fill="#EDF8F5"/>
<path d="M8.19587 33.2235C8.16165 33.0212 8.05688 32.8375 7.90015 32.7051C7.74341 32.5727 7.54483 32.5 7.33962 32.5C7.13441 32.5 6.93584 32.5727 6.7791 32.7051C6.62236 32.8375 6.5176 33.0212 6.48338 33.2235C6.36828 33.9136 6.04045 34.5506 5.54567 35.0455C5.05089 35.5403 4.41387 35.8683 3.7236 35.9836C3.52126 36.0178 3.33758 36.1225 3.20513 36.2792C3.07267 36.4359 3 36.6345 3 36.8396C3 37.0448 3.07267 37.2433 3.20513 37.4C3.33758 37.5567 3.52126 37.6615 3.7236 37.6957C4.41387 37.811 5.05089 38.139 5.54567 38.6338C6.04045 39.1286 6.36828 39.7656 6.48338 40.4558C6.5176 40.6581 6.62236 40.8417 6.7791 40.9742C6.93584 41.1066 7.13441 41.1792 7.33962 41.1792C7.54483 41.1792 7.74341 41.1066 7.90015 40.9742C8.05688 40.8417 8.16165 40.6581 8.19587 40.4558C8.31096 39.7656 8.63879 39.1286 9.13358 38.6338C9.62836 38.139 10.2654 37.811 10.9556 37.6957C11.158 37.6615 11.3417 37.5567 11.4741 37.4C11.6066 37.2433 11.6792 37.0448 11.6792 36.8396C11.6792 36.6345 11.6066 36.4359 11.4741 36.2792C11.3417 36.1225 11.158 36.0178 10.9556 35.9836C10.2654 35.8683 9.62836 35.5403 9.13358 35.0455C8.63879 34.5506 8.31096 33.9136 8.19587 33.2235ZM7.33962 38.0795C7.00101 37.5977 6.58144 37.1782 6.09954 36.8396C6.58144 36.5011 7.00101 36.0816 7.33962 35.5998C7.67824 36.0816 8.09781 36.5011 8.5797 36.8396C8.09781 37.1782 7.67824 37.5977 7.33962 38.0795Z" fill="#14C393"/>
<path d="M13.1959 7.22345C13.1616 7.02116 13.0569 6.83751 12.9001 6.70509C12.7434 6.57266 12.5448 6.5 12.3396 6.5C12.1344 6.5 11.9358 6.57266 11.7791 6.70509C11.6224 6.83751 11.5176 7.02116 11.4834 7.22345C11.3683 7.91362 11.0405 8.55062 10.5457 9.04545C10.0509 9.54029 9.41387 9.86826 8.7236 9.98355C8.52126 10.0178 8.33758 10.1225 8.20513 10.2792C8.07267 10.4359 8 10.6345 8 10.8396C8 11.0448 8.07267 11.2433 8.20513 11.4C8.33758 11.5567 8.52126 11.6615 8.7236 11.6957C9.41387 11.811 10.0509 12.139 10.5457 12.6338C11.0405 13.1286 11.3683 13.7656 11.4834 14.4558C11.5176 14.6581 11.6224 14.8417 11.7791 14.9742C11.9358 15.1066 12.1344 15.1792 12.3396 15.1792C12.5448 15.1792 12.7434 15.1066 12.9001 14.9742C13.0569 14.8417 13.1616 14.6581 13.1959 14.4558C13.311 13.7656 13.6388 13.1286 14.1336 12.6338C14.6284 12.139 15.2654 11.811 15.9556 11.6957C16.158 11.6615 16.3417 11.5567 16.4741 11.4C16.6066 11.2433 16.6792 11.0448 16.6792 10.8396C16.6792 10.6345 16.6066 10.4359 16.4741 10.2792C16.3417 10.1225 16.158 10.0178 15.9556 9.98355C15.2654 9.86826 14.6284 9.54029 14.1336 9.04545C13.6388 8.55062 13.311 7.91362 13.1959 7.22345ZM12.3396 12.0795C12.001 11.5977 11.5814 11.1782 11.0995 10.8396C11.5814 10.5011 12.001 10.0816 12.3396 9.59979C12.6782 10.0816 13.0978 10.5011 13.5797 10.8396C13.0978 11.1782 12.6782 11.5977 12.3396 12.0795Z" fill="#2F354D"/>
<path d="M56.3396 35.4434V32.8396H58.9434V31.1038H56.3396V28.5H54.6038V31.1038H52V32.8396H54.6038V35.4434H56.3396Z" fill="#2F354D"/>
<rect x="20" y="44.5" width="28" height="8" fill="#F9FAFC"/>
<path d="M41.5156 36.4998C47.1156 37.2998 37.9991 43.5007 46 44.5002C54.0009 45.4998 51.5552 52.3614 41.5156 60.3931C39.0156 62.3931 20.0165 60.3931 16.5165 60.3931C13.0165 60.3931 16.0165 56.3931 21.0165 55.3931C26.0165 54.3931 28.5 48.4997 24 40.9998C19.5 33.4999 34.5156 35.4998 41.5156 36.4998Z" fill="#D2D6E7"/>
<path fill-rule="evenodd" clip-rule="evenodd" d="M19.6429 43.5208C19.3882 43.5208 19.1433 43.6232 18.9622 43.8068C18.781 43.9904 18.6786 44.2402 18.6786 44.5014V50.9047H17.2143C16.9596 50.9047 16.7147 51.0072 16.5336 51.1908C16.3524 51.3744 16.25 51.6242 16.25 51.8854V59.2694C16.25 59.5306 16.3524 59.7804 16.5336 59.964C16.7147 60.1476 16.9596 60.2501 17.2143 60.2501H19.6426L47.3214 60.2163V52.8661H48.7857C49.0403 52.8661 49.2853 52.7636 49.4664 52.58C49.6476 52.3964 49.75 52.1466 49.75 51.8854V44.5014C49.75 44.2402 49.6476 43.9904 49.4664 43.8068C49.2853 43.6232 49.0403 43.5208 48.7857 43.5208C38.6882 43.5208 30.2773 43.5208 19.6429 43.5208ZM20.6071 50.9047V45.4821H47.8214V50.9047H44.8928V48.4434H42.9643V50.9047H40.0357V48.4434H38.1071V50.9047H35.1786V48.4434H33.25V50.9047H30.3214V48.4434H28.3929V50.9047H25.4643V48.4434H23.5357V50.9047H20.6071ZM18.1786 58.2887V52.8661H45.3928V58.2887H42.4643V55.8274H40.5357V58.2887H37.6071V55.8274H35.6786V58.2887H32.75V55.8274H30.8214V58.2887H27.8928V55.8274H25.9643V58.2887H23.0357V55.8274H21.1071V58.2887H18.1786Z" fill="#7A859E"/>
<path d="M27.2178 29C27.2178 29.8421 26.4975 30.5247 25.6089 30.5247C24.7203 30.5247 24 29.8421 24 29C24 28.1579 24.7203 27.4753 25.6089 27.4753C26.4975 27.4753 27.2178 28.1579 27.2178 29Z" fill="#2F354D"/>
<path d="M43.3911 30.5247C44.2797 30.5247 45 29.8421 45 29C45 28.1579 44.2797 27.4753 43.3911 27.4753C42.5025 27.4753 41.7822 28.1579 41.7822 29C41.7822 29.8421 42.5025 30.5247 43.3911 30.5247Z" fill="#2F354D"/>
<path d="M37.713 23.2339C36.3618 22.5526 34.8571 22.3371 33.5903 22.6233C32.3002 22.9148 31.1809 23.7667 30.9726 25.1893C30.7999 26.3692 31.1697 27.2921 31.8114 28.0218C32.4098 28.7023 33.2391 29.2049 33.9417 29.6216C34.6972 30.0698 35.3239 30.4292 35.7876 30.8649C36.2137 31.2652 36.4419 31.6765 36.4419 32.2258C36.4419 32.8423 36.2457 33.1605 36.0386 33.3419C35.8101 33.5422 35.4428 33.6848 34.9243 33.7199C33.8558 33.7923 32.5529 33.3785 31.8327 32.8501L30.6893 34.2515C31.762 35.0386 33.5167 35.5917 35.0575 35.4874C35.8436 35.4341 36.6689 35.2024 37.3069 34.6432C37.9663 34.0652 38.3104 33.2386 38.3104 32.2258C38.3104 31.0895 37.7871 30.2491 37.1027 29.6061C36.4559 28.9985 35.6131 28.523 34.9325 28.1193C34.1988 27.6841 33.6253 27.3178 33.2465 26.887C32.911 26.5055 32.7294 26.0747 32.8234 25.433C32.9007 24.9048 33.2876 24.5133 34.0234 24.347C34.7825 24.1755 35.8231 24.2879 36.8359 24.7985L37.713 23.2339Z" fill="#2F354D"/>
<path fill-rule="evenodd" clip-rule="evenodd" d="M34.5 42.5C42.232 42.5 48.5 36.232 48.5 28.5C48.5 20.768 42.232 14.5 34.5 14.5C26.768 14.5 20.5 20.768 20.5 28.5C20.5 36.232 26.768 42.5 34.5 42.5ZM34.5 44.5C43.3366 44.5 50.5 37.3366 50.5 28.5C50.5 19.6634 43.3366 12.5 34.5 12.5C25.6634 12.5 18.5 19.6634 18.5 28.5C18.5 37.3366 25.6634 44.5 34.5 44.5Z" fill="#2F354D"/>
</g>
<defs>
<clipPath id="clip0">
<rect y="0.5" width="64" height="64" fill="white"/>
</clipPath>
</defs>
</svg>
