<svg width="64" height="64" fill="none" xmlns="http://www.w3.org/2000/svg">
  <g clip-path="url(#clip0)">
    <path d="M51.5 12.5C72 18.5 48.4 57 48.4 41c0-15.8-11-21.2-26.3-11.8-3.7 8.2 3.7 10.4-8.3 14.9C1.8 48.5-4.9 7.8 17 4 38.7.3 31 6.5 51.5 12.5z" fill="#2F354D"/>
    <path fill-rule="evenodd" clip-rule="evenodd" d="M50.4 34c0 9.4-7.9 17-17.5 17-9.7 0-17.5-7.6-17.5-17s7.8-17 17.5-17c9.6 0 17.5 7.6 17.5 17zm-12-3.4l1.3-1.1-1.3-1.2c-3-3-8-3-11.1 0l-4.7 4.5a3.6 3.6 0 005 0l2.2-2.1a4.5 4.5 0 014.7-1l-1 1a3.6 3.6 0 005 0zm0 9.1l4.7-4.5a3.6 3.6 0 00-5 0L36 37.3a4.5 4.5 0 01-4.7 1l.9-1a3.6 3.6 0 00-5 0L26 38.6l1.3 1.2c3 3 8 3 11.1 0z" fill="#5275FF"/>
    <path d="M3 25.8c1.5-1.4 2.7-2.1 4-2.8 1.5-.9 3-1.7 5.5-4.1 3.6-3.6 7.7-6.7 11.7-9.8l.8-.6L41.3-3.9 42.7-5c3.5-2.7 6.4-6.1 9.2-9.4l1.7 1.3c-3 3.4-5.9 7-9.5 9.8l-1.4 1-16.4 12.5-.8.7c-4 3-8 6-11.5 9.5-2.6 2.6-4.4 3.6-6 4.5-1.7 1-3 1.7-5.2 4.4-2.4 3-3.2 4.6-4 6.3a46.6 46.6 0 01-5.3 8.5 163 163 0 00-4.8 7.5c-1.6 2.6-2.2 4-2.8 5.5-.7 1.6-1.3 3.2-3.1 6l-1.8-1.2c1.7-2.7 2.3-4 3-5.6.6-1.5 1.2-3 3-5.8 2.4-4.1 3-5 4.7-7.6l2.2-3.3c1.5-2.2 2.2-3.6 3-5 .9-1.8 1.7-3.4 4.2-6.6.7-.9 1.3-1.6 2-2.2z" fill="#14C393"/>
    <path d="M9.8 39.4a.9.9 0 00-1.7 0A3.4 3.4 0 015.4 42a.9.9 0 000 1.7A3.4 3.4 0 018 46.6a.9.9 0 001.7 0 3.4 3.4 0 012.8-2.8.9.9 0 000-1.7 3.4 3.4 0 01-2.8-2.7zM9 44.2c-.4-.5-.8-.9-1.3-1.2.5-.4 1-.8 1.3-1.3.3.5.7 1 1.2 1.3-.5.3-.9.7-1.2 1.2z" fill="#9FAAC4"/>
    <path d="M18.5 51.7a.9.9 0 00-1.7 0 3.4 3.4 0 01-2.8 2.8.9.9 0 000 1.7 3.4 3.4 0 012.8 2.8.9.9 0 001.7 0 3.4 3.4 0 012.8-2.8.9.9 0 000-1.7 3.4 3.4 0 01-2.8-2.8zm-.8 4.9c-.4-.5-.8-1-1.3-1.3.5-.3 1-.7 1.3-1.2.3.5.7.9 1.2 1.2-.5.4-.9.8-1.2 1.3z" fill="#14C393"/>
    <path d="M54.4 24v-2.7H57v-1.7h-2.6V17h-1.8v2.6H50v1.7h2.6V24h1.8z" fill="#fff"/>
  </g>
  <defs>
    <clipPath id="clip0">
      <path fill="#fff" d="M0 0h64v64H0z"/>
    </clipPath>
  </defs>
</svg>
