<svg width="64" height="65" fill="none" xmlns="http://www.w3.org/2000/svg">
  <path d="M51.5 13c20.5 6.04-3.11 44.4-3.11 28.54 0-15.85-10.93-21.2-26.33-11.84-3.7 8.23 3.77 10.42-8.24 14.88C1.81 49.03-2.8 14.22 19 10.5 40.8 6.78 30.98 6.98 51.5 13z" fill="#EDF8F5"/>
  <path fill-rule="evenodd" clip-rule="evenodd" d="M50 34.5c0 9.39-7.84 17-17.5 17S15 43.89 15 34.5s7.84-17 17.5-17S50 25.11 50 34.5zm-11.88-3.37l1.2-1.15-1.25-1.2a8.05 8.05 0 00-11.14 0l-4.66 4.52a3.57 3.57 0 004.95 0l2.18-2.12a4.48 4.48 0 014.7-.96l-.93.9a3.57 3.57 0 004.95.01zm-.05 9.1l4.66-4.53a3.57 3.57 0 00-4.95 0l-2.18 2.12a4.48 4.48 0 01-4.7.96l.93-.9a3.57 3.57 0 00-4.95-.01l-1.2 1.15 1.25 1.2a8.05 8.05 0 0011.14 0z" fill="#5275FF"/>
  <path d="M7.2 33.22a.87.87 0 00-1.72 0 3.36 3.36 0 01-2.76 2.76.87.87 0 000 1.72 3.36 3.36 0 012.76 2.76.87.87 0 001.72 0 3.36 3.36 0 012.76-2.76.87.87 0 000-1.72 3.36 3.36 0 01-2.76-2.76zm-.86 4.86a5.1 5.1 0 00-1.24-1.24c.48-.34.9-.76 1.24-1.24.34.48.76.9 1.24 1.24-.48.34-.9.76-1.24 1.24z" fill="#9FAAC4"/>
  <path d="M16.2 52.22a.87.87 0 00-1.72 0 3.36 3.36 0 01-2.76 2.76.87.87 0 000 1.72 3.36 3.36 0 012.76 2.76.87.87 0 001.72 0 3.36 3.36 0 012.76-2.76.87.87 0 000-1.72 3.36 3.36 0 01-2.76-2.76zm-.86 4.86a5.1 5.1 0 00-1.24-1.24c.48-.34.9-.76 1.24-1.24.34.48.76.9 1.24 1.24-.48.34-.9.76-1.24 1.24z" fill="#14C393"/>
  <path d="M54.37 24.44v-2.6h2.6V20.1h-2.6v-2.6h-1.74v2.6h-2.6v1.73h2.6v2.6h1.74z" fill="#2F354D"/>
</svg>
