<svg width="64" height="64" fill="none" xmlns="http://www.w3.org/2000/svg">
  <g clip-path="url(#clip0)">
    <path d="M20 7.7C-2.6 12-2.4 58.8 14 61.5c16.4 2.7-2.3-17.2 26.9-6.8C70 65.2 66.4 10 50 12 33.8 14 42.6 3.3 20 7.7z" fill="#2F354D"/>
    <circle cx="35" cy="37" r="18" fill="#F9FAFC"/>
    <path d="M26.5 37.5c0 1-.9 2-2 2a2 2 0 01-2-2c0-1 1-2 2-2a2 2 0 012 2z" fill="#2F354D"/>
    <path d="M46.5 39.5a2 2 0 002-2c0-1-1-2-2-2a2 2 0 00-2 2c0 1 .9 2 2 2z" fill="#2F354D"/>
    <path d="M39.5 30.1a7.5 7.5 0 00-5.1-.8c-1.6.4-3 1.5-3.3 3.3-.2 1.5.3 2.7 1 3.6.8 1 1.8 1.6 2.7 2.1 1 .6 1.7 1 2.3 1.6.5.5.8 1 .8 1.7 0 .8-.2 1.2-.5 1.5-.3.2-.7.4-1.4.4-1.3.1-2.9-.4-3.8-1l-1.4 1.7c1.3 1 3.5 1.7 5.4 1.6 1 0 2-.4 2.8-1a4 4 0 001.2-3.2c0-1.4-.6-2.5-1.5-3.3-.8-.8-1.8-1.4-2.7-2-.9-.5-1.6-1-2-1.5-.5-.5-.7-1-.6-1.9.1-.6.6-1.1 1.5-1.4 1-.2 2.2 0 3.5.6l1-2z" fill="#2F354D"/>
    <path fill-rule="evenodd" clip-rule="evenodd" d="M35.5 54.7a17.2 17.2 0 100-34.4 17.2 17.2 0 000 34.4zM54 37.5a18.5 18.5 0 11-37 0 18.5 18.5 0 0137 0z" fill="#9FAAC4"/>
    <path d="M10.7 20.3c1.4-1.5 2.6-2.2 3.9-3 1.5-.9 3-1.8 5.4-4.2 3.5-3.7 7.5-7 11.4-10l.8-.7a3665 3665 0 0016-13l1.3-1c3.4-2.8 6.2-6.3 9-9.7L60-20c-2.8 3.5-5.6 7-9.2 10l-1.4 1.1-16 13-.8.6c-3.8 3-7.8 6.2-11.2 9.8-2.5 2.7-4.3 3.7-5.8 4.7-1.7 1-3 1.8-5.1 4.6-2.3 3-3 4.6-4 6.4a46.6 46.6 0 01-4.9 8.6l-4.5 7.7A37.4 37.4 0 00-5.5 52c-.6 1.5-1.3 3.1-3 6l-1.8-1.1c1.6-2.7 2.2-4.2 2.8-5.7.6-1.6 1.2-3.1 2.8-6l4.6-7.6 2-3.3c1.5-2.3 2.2-3.8 2.8-5.1 1-2 1.7-3.5 4.2-6.8.6-.9 1.2-1.6 1.8-2.2z" fill="#14C393"/>
    <path d="M55.7 56a.9.9 0 00-1.7 0 3.4 3.4 0 01-2.8 2.8.9.9 0 000 1.7 3.4 3.4 0 012.8 2.8.9.9 0 001.7 0 3.4 3.4 0 012.8-2.8.9.9 0 000-1.7 3.4 3.4 0 01-2.8-2.8zm-.9 4.9c-.3-.5-.7-.9-1.2-1.2.5-.4.9-.8 1.2-1.3.4.5.8 1 1.3 1.3-.5.3-1 .7-1.3 1.2z" fill="#14C393"/>
    <path d="M51.1 14a.6.6 0 00-1.2 0 2.4 2.4 0 01-2 2 .6.6 0 000 1.2 2.4 2.4 0 012 2 .6.6 0 001.2 0 2.4 2.4 0 012-2 .6.6 0 000-1.2 2.4 2.4 0 01-2-2zm-.6 3.5c-.2-.4-.5-.7-.9-1 .4-.2.7-.5.9-.8l.9.9c-.4.2-.7.5-.9.9z" fill="#fff"/>
    <path d="M10.3 42.6a.8.8 0 00-1.6 0A3 3 0 016.3 45a.8.8 0 000 1.6A3 3 0 018.7 49a.8.8 0 001.6 0 3 3 0 012.4-2.4.8.8 0 000-1.6 3 3 0 01-2.4-2.4zm-.8 4.3l-1.1-1.1 1.1-1.1 1.1 1.1-1.1 1.1z" fill="#9FAAC4"/>
  </g>
  <defs>
    <clipPath id="clip0">
      <path fill="#fff" d="M0 0h64v64H0z"/>
    </clipPath>
  </defs>
</svg>
