<svg width="64" height="65" fill="none" xmlns="http://www.w3.org/2000/svg">
  <g clip-path="url(#clip0)">
    <path d="M19.98 8.16C-2.6 12.5-2.37 59.35 14.04 62.04c16.4 2.7-2.35-17.28 26.83-6.83 29.18 10.46 25.56-44.76 9.25-42.72-16.32 2.03-7.56-8.69-30.14-4.33z" fill="#EDF8F5"/>
    <path d="M51 36a17.5 17.5 0 01-17.5 17.5c-9.67 0-4.5-9-10.5-16S27.83 21 37.5 21C47.16 21 51 26.33 51 36z" fill="#E7EAF3"/>
    <g clip-path="url(#clip1)">
      <path d="M24.52 36c0 1.08-.89 1.95-1.98 1.95-1.1 0-1.99-.87-1.99-1.95s.89-1.95 1.99-1.95 1.98.87 1.98 1.95z" fill="#2F354D"/>
      <path d="M44.47 37.95c1.1 0 1.98-.87 1.98-1.95s-.89-1.95-1.98-1.95c-1.1 0-1.99.87-1.99 1.95s.9 1.95 1.99 1.95z" fill="#2F354D"/>
      <path d="M37.46 28.61a7.51 7.51 0 00-5.08-.78c-1.6.38-2.97 1.47-3.23 3.29a4.42 4.42 0 001.03 3.63c.74.87 1.77 1.51 2.63 2.05.93.57 1.7 1.03 2.28 1.59.52.51.8 1.04.8 1.74 0 .8-.24 1.2-.5 1.43-.27.26-.73.44-1.37.49a6.28 6.28 0 01-3.8-1.12l-1.42 1.8a8.58 8.58 0 005.39 1.58 4.53 4.53 0 002.77-1.08 4.02 4.02 0 001.24-3.1c0-1.45-.65-2.53-1.49-3.35-.8-.78-1.84-1.4-2.68-1.9a8.7 8.7 0 01-2.08-1.59 2.18 2.18 0 01-.52-1.86c.1-.67.58-1.18 1.48-1.39a5.2 5.2 0 013.47.58l1.08-2z" fill="#2F354D"/>
      <path fill-rule="evenodd" clip-rule="evenodd" d="M33.5 53.15a17.15 17.15 0 100-34.3 17.15 17.15 0 000 34.3zM52 36a18.5 18.5 0 11-37 0 18.5 18.5 0 0137 0z" fill="#505573"/>
    </g>
    <path d="M55.7 56.54a.87.87 0 00-1.72 0 3.36 3.36 0 01-2.76 2.76.87.87 0 000 1.72 3.36 3.36 0 012.76 2.76.87.87 0 001.72 0 3.36 3.36 0 012.76-2.76.87.87 0 000-1.72 3.36 3.36 0 01-2.76-2.76zm-.86 4.86a5.1 5.1 0 00-1.24-1.24c.48-.34.9-.76 1.24-1.24.34.48.76.9 1.24 1.24-.48.34-.9.76-1.24 1.24z" fill="#14C393"/>
    <path d="M51.11 14.49a.62.62 0 00-1.22 0 2.4 2.4 0 01-1.98 1.97.62.62 0 000 1.23 2.4 2.4 0 011.98 1.98.62.62 0 001.22 0 2.4 2.4 0 011.98-1.98.62.62 0 000-1.23 2.4 2.4 0 01-1.98-1.97zm-.61 3.48a3.65 3.65 0 00-.89-.9c.35-.23.65-.53.89-.88.24.35.54.65.89.89-.35.24-.65.54-.89.89z" fill="#2F354D"/>
    <path d="M10.26 43.1a.77.77 0 00-1.52 0 2.97 2.97 0 01-2.44 2.44.77.77 0 000 1.52 2.98 2.98 0 012.44 2.45.77.77 0 001.52 0 2.98 2.98 0 012.44-2.45.77.77 0 000-1.52 2.98 2.98 0 01-2.44-2.44zm-.76 4.3c-.3-.43-.67-.8-1.1-1.1.43-.3.8-.67 1.1-1.1.3.43.67.8 1.1 1.1-.43.3-.8.67-1.1 1.1z" fill="#7A859E"/>
  </g>
  <defs>
    <clipPath id="clip0">
      <path fill="#fff" d="M0 .5h64v64H0z"/>
    </clipPath>
    <clipPath id="clip1">
      <path d="M15 17.5h37v37H15v-37z" fill="#fff"/>
    </clipPath>
  </defs>
</svg>
