<svg width="64" height="64" fill="none" xmlns="http://www.w3.org/2000/svg">
  <g clip-path="url(#clip0)">
    <path d="M11 15.4C-1.2 25-4.3 60 13 62.8c17.3 2.8-4.3-14.2 26.3-3.2 30.7 11 28.4-36.8 12-46.3C35.2 4 23 6 11 15.4z" fill="#2F354D"/>
    <path d="M7.6 23.3c1.6-1.3 2.9-1.9 4.2-2.5 1.6-.7 3.2-1.4 5.8-3.6 3.9-3.3 8.3-6 12.5-8.7l.8-.6L48.3-3l1.5-1c3.7-2.3 6.8-5.5 9.9-8.6l1.5 1.5C58.1-8 54.8-4.7 51-2.2l-1.5.9-17.3 11-.9.6c-4.1 2.6-8.5 5.3-12.2 8.5-2.8 2.4-4.7 3.2-6.3 4-1.8.8-3.3 1.4-5.6 4-2.7 2.8-3.6 4.2-4.6 6a46.6 46.6 0 01-6 8 163 163 0 00-5.3 7 37.4 37.4 0 00-3.3 5.3c-.8 1.4-1.6 3-3.6 5.6l-1.7-1.3c1.9-2.5 2.6-3.9 3.4-5.3.8-1.5 1.6-3 3.5-5.6l5.4-7.1 2.4-3C-1 34.1-.2 32.8.6 31.5c1.2-1.8 2.1-3.3 5-6.3l2-2z" fill="#14C393"/>
    <path d="M34.2 59.2c5.1 0 9.8-2 13.3-5.8.3-.3.8-.3 1.1 0 .4.3.4.8 0 1.2A20 20 0 0114.4 42l-.2-2.2-3.7 3.7c-.3.3-.9.3-1.1 0A.8.8 0 019 43c0-.2 0-.4.3-.5l5.3-5.3c.3-.3.8-.3 1.1 0l5.3 5.3c.2.1.2.3.2.5 0 .3 0 .4-.2.6-.3.3-.8.4-1.2 0l-4-4 .2 2.9c.8 9.4 8.8 16.8 18.2 16.8z" fill="#9FAAC4"/>
    <path d="M54.3 42l3.7-3.7c.3-.4.8-.4 1.1 0 .4.3.4.8 0 1.2l-5.3 5.2c-.3.3-.8.3-1.1 0l-5.3-5.2a.8.8 0 01-.2-.6c0-.2 0-.4.2-.6.2-.2.4-.2.6-.2.2 0 .4 0 .6.2l4 4-.2-2.8a18.2 18.2 0 00-9.8-14.7l1.4-1.2c5.7 3.2 9.7 9.2 10 16.2l.3 2.2z" fill="#fff"/>
    <path d="M34.2 22.7c-5 0-9.8 2-13.2 5.7-.3.3-.9.3-1.2 0-.3-.3-.4-.8 0-1.2A19.5 19.5 0 0140.6 22l-.8 1.6a18 18 0 00-5.6-1z" fill="#fff"/>
    <path fill-rule="evenodd" clip-rule="evenodd" d="M43 35.6v10.7c0 1-1 2-2.6 2.6-1.7.6-4 .9-6.2.9s-4.5-.3-6.1-1c-1.7-.5-2.7-1.4-2.7-2.5V35.6c0-1 1-2 2.7-2.6 1.6-.6 3.9-.9 6.1-.9 2.3 0 4.5.3 6.2 1 1.7.5 2.6 1.4 2.6 2.5zM27.8 38l-.6-.2v3.1l.1.1c.2.2.4.4.8.5l1.4.5c1.1.3 2.7.5 4.7.5a19.2 19.2 0 006.2-1c.3-.1.6-.3.7-.5h.1v-3.2l-.5.2c-1.7.7-4 1-6.5 1a18 18 0 01-6.4-1zm13-2.1l.5-.3-.4-.4c-.4-.3-1.2-.6-2.3-.8a19.3 19.3 0 00-11 .8l-.5.4.5.3c.4.3 1.2.6 2.3.8a19.8 19.8 0 0011-.8zm-13 7.4l-.6-.2v3.2l.1.2.8.4c.4.2.8.4 1.4.5 1.1.3 2.7.5 4.7.5a19 19 0 006.1-1l.8-.4.1-.2v-3.2l-.5.2c-1.7.7-4 1-6.5 1-2.4 0-4.7-.3-6.4-1z" fill="#14C393"/>
    <path d="M6.7 53.5c-1.3 0-2.4-1-2.4-2.3a2.3 2.3 0 014.7 0c0 1.3-1 2.3-2.3 2.3zm0-3.4c-.7 0-1.2.5-1.2 1.1a1.1 1.1 0 002.3 0c0-.6-.5-1.1-1.1-1.1z" fill="#fff"/>
    <path d="M58.1 21.5c.7-.7 1.9-.7 2.6 0 .7.7.7 1.9 0 2.6-.7.7-1.9.7-2.6 0-.7-.7-.7-1.9 0-2.6z" fill="#9FAAC4"/>
    <path d="M47.8 17.3c.6-.6 1.6-.6 2.2 0 .6.6.6 1.6 0 2.2-.6.6-1.6.6-2.2 0-.6-.6-.6-1.6 0-2.2z" fill="#9FAAC4"/>
  </g>
  <defs>
    <clipPath id="clip0">
      <path fill="#fff" d="M0 0h64v64H0z"/>
    </clipPath>
  </defs>
</svg>
