<svg width="64" height="65" fill="none" xmlns="http://www.w3.org/2000/svg">
  <g clip-path="url(#clip0)">
    <path d="M7.5 23c-6 9-11.65 37.44 5.58 40.26 17.24 2.83-4.43-14.17 26.23-3.19C69.96 71.06 67.67 23.3 51.39 13.85 35.11 4.39 13.5 14 7.5 23z" fill="#EDF8F5"/>
    <path d="M42.5 34.5c4.8 2.4 2.67 6 1 7.5 4 5.2-1.67 7.33-5 9-2.33-.83-2.3.4-7.5 0-6.5-.5-6.5-3.5-5.5-4.5s7.33-1.5 5.5-7c-2.5-7.5 5.5-8 11.5-5z" fill="#D2D6E7"/>
    <path d="M34.23 59.66c5.08 0 9.78-2 13.27-5.72a.79.79 0 011.14-.03h.02v.02c.3.27.35.8.02 1.16a19.5 19.5 0 01-14.45 6.25 19.97 19.97 0 01-19.87-18.82v-.02l-.24-2.17-3.7 3.7c-.29.28-.87.28-1.16 0a.78.78 0 01-.26-.59c0-.2.07-.39.26-.58l5.3-5.25c.3-.29.88-.29 1.17 0l5.25 5.25c.18.19.25.37.25.58 0 .21-.07.4-.25.59h-.02v.02c-.28.3-.8.33-1.15-.02l-4-4 .23 2.82a18.34 18.34 0 0018.19 16.81z" fill="#14C393"/>
    <path d="M54.29 42.46l3.7-3.7.01-.02c.27-.3.79-.34 1.14.02.35.35.35.88 0 1.22l-5.3 5.25c-.29.3-.88.3-1.17 0l-5.25-5.25a.78.78 0 01-.25-.58c0-.21.07-.4.25-.58a.78.78 0 01.59-.26c.2 0 .4.07.58.26l4 4-.23-2.82a18.2 18.2 0 00-9.74-14.74l1.34-1.2a19.87 19.87 0 0110.08 16.2v.03l.25 2.17z" fill="#505573"/>
    <path d="M34.23 23.18c-5.09 0-9.78 2-13.27 5.72-.28.3-.81.34-1.17.01-.3-.27-.34-.8-.01-1.16a19.5 19.5 0 0114.45-6.25c2.21 0 4.35.37 6.34 1.04l-.78 1.52a17.98 17.98 0 00-5.56-.88z" fill="#505573"/>
    <path fill-rule="evenodd" clip-rule="evenodd" d="M44 36.2v11.55c0 1.14-1 2.1-2.84 2.77-1.8.66-4.24.98-6.66.98-2.43 0-4.85-.3-6.66-.95C26 49.88 25 48.95 25 47.8V36.19c0-1.1 1-2.04 2.84-2.71 1.8-.66 4.24-.98 6.66-.98 2.43 0 4.85.3 6.66.95C43 34.12 44 35.05 44 36.2zm-16.5 2.6l-.59-.24v3.4l.11.12c.17.19.47.37.83.54.38.17.88.35 1.5.5 1.24.32 2.96.58 5.15.58 2.2 0 3.91-.26 5.15-.58a9.32 9.32 0 001.5-.5c.36-.17.66-.35.83-.54l.1-.12v-3.4l-.58.24a19.83 19.83 0 01-7 1.09c-2.63 0-5.17-.35-7-1.09zm14.16-2.25l.5-.34-.48-.36a7.23 7.23 0 00-2.47-.95c-1.2-.28-2.79-.5-4.71-.5s-3.5.22-4.69.5a7.8 7.8 0 00-2.47.94l-.53.36.53.35c.42.28 1.27.62 2.45.89 1.2.27 2.79.48 4.71.48s3.49-.2 4.68-.46a7.58 7.58 0 002.48-.91zM27.5 44.58l-.59-.24v3.47l.13.12c.18.18.48.36.85.52.38.17.89.35 1.5.5 1.24.33 2.95.58 5.11.58s3.87-.25 5.1-.57a9.77 9.77 0 001.51-.5c.37-.17.67-.35.85-.53l.13-.12v-3.47l-.6.24a20.06 20.06 0 01-6.99 1.09c-2.57 0-5.11-.36-7-1.1z" fill="#2F354D"/>
    <path d="M6.65 54.04a2.34 2.34 0 01-2.34-2.34 2.34 2.34 0 014.69 0 2.34 2.34 0 01-2.35 2.34zm0-3.46c-.62 0-1.13.5-1.13 1.12a1.13 1.13 0 002.26 0c0-.62-.5-1.12-1.13-1.12z" fill="#2F354D"/>
    <path d="M3 41.75a2.25 2.25 0 110-4.5 2.25 2.25 0 010 4.5z" stroke="#2F354D" stroke-width="1.5"/>
    <path d="M58.1 22.04a1.84 1.84 0 012.6 0c.71.7.71 1.86 0 2.58-.72.71-1.88.71-2.6 0a1.82 1.82 0 010-2.59z" fill="#14C393"/>
    <path d="M47.81 17.77c.6-.6 1.59-.6 2.2 0 .6.6.6 1.58 0 2.18-.61.6-1.6.6-2.2 0-.6-.6-.6-1.58 0-2.18z" fill="#14C393"/>
  </g>
  <defs>
    <clipPath id="clip0">
      <path fill="#fff" d="M0 .5h64v64H0z"/>
    </clipPath>
  </defs>
</svg>
