<svg width="64" height="65" fill="none" xmlns="http://www.w3.org/2000/svg">
  <g clip-path="url(#clip0)">
    <path d="M32.06 5.47C-8.59 9.99-4.04 28.35 26.6 23.82c30.64-4.52-2.55 39.55 15.74 37.1 18.3-2.43 27.9-44.84 11.21-37.1C36.87 31.57 72.72.95 32.06 5.47z" fill="#EDF8F5"/>
    <path fill-rule="evenodd" clip-rule="evenodd" d="M48.76 35.5a18 18 0 11-36 0 18 18 0 0136 0zm-20.51-8.76l.73-.74c1-1 2.63-1 3.63 0l4.42 4.4-.74.75c-1 1-2.63 1-3.63 0l-4.41-4.41zM22 38.04l-.74-.73c-1-1-1-2.62 0-3.62l4.42-4.41.74.74c1 1 1 2.62 0 3.61l-4.42 4.41zm18.3-4.35l-.73-.73-4.42 4.4c-1 1-1 2.62 0 3.62l.73.74 4.42-4.4c1-1.01 1-2.63 0-3.63zm-6.97 10.57l-.74.74c-1 1-2.62 1-3.62 0l-4.42-4.4.74-.75c1-1 2.62-1 3.62 0l4.42 4.41z" fill="#1AA168"/>
    <path d="M2.6 30.25v-2.6H0V25.9h2.6v-2.6h1.74v2.6h2.6v1.73h-2.6v2.6H2.6z" fill="#7A859E"/>
    <path d="M14.82 16.12v-2.06h-2.06V12.7h2.06v-2.06h1.37v2.06h2.06v1.37H16.2v2.06h-1.37z" fill="#2F354D"/>
  </g>
  <defs>
    <clipPath id="clip0">
      <path fill="#fff" d="M0 .5h64v64H0z"/>
    </clipPath>
  </defs>
</svg>
