<svg width="64" height="64" fill="none" xmlns="http://www.w3.org/2000/svg">
  <g clip-path="url(#clip0)">
    <path d="M33.1 3.3c-40.6 4.6-36 23-5.4 18.4 30.6-4.5-2.6 39.5 15.7 37.1 18.3-2.4 28-44.9 11.2-37.1C38 29.4 73.8-1.2 33.1 3.3z" fill="#2F354D"/>
    <path fill-rule="evenodd" clip-rule="evenodd" d="M48.8 35a18 18 0 11-36 0 18 18 0 0136 0zm-20.6-8.8l.8-.7c1-1 2.6-1 3.6 0l4.4 4.4-.7.7c-1 1-2.6 1-3.6 0l-4.5-4.4zM22 37.5l-.7-.7c-1-1-1-2.6 0-3.6l4.4-4.4.7.7c1 1 1 2.6 0 3.6L22 37.5zm18.3-4.3l-.7-.7-4.4 4.4c-1 1-1 2.6 0 3.6l.7.7 4.4-4.4c1-1 1-2.6 0-3.6zm-7 10.6l-.7.7c-1 1-2.6 1-3.6 0l-4.4-4.4.7-.7c1-1 2.6-1 3.6 0l4.4 4.4z" fill="#1AA168"/>
    <path d="M51.7 12.4c1.5 1.5 2.2 2.7 3 4 .8 1.4 1.7 3 4.2 5.3 3.7 3.5 6.9 7.5 10 11.4l.6.8 12.9 16 1.1 1.4c2.8 3.5 6.3 6.3 9.7 9L91.8 62c-3.4-2.8-7-5.7-10-9.3l-1-1.4-13-16-.6-.8c-3-3.9-6.2-7.9-9.8-11.3-2.7-2.5-3.7-4.2-4.6-5.8-1-1.7-1.8-3-4.6-5.1-3-2.4-4.6-3.1-6.4-4a46.6 46.6 0 01-8.6-5 163 163 0 00-7.6-4.5A37.4 37.4 0 0020-4c-1.6-.6-3.2-1.3-6-3l1-1.8c2.8 1.6 4.2 2.2 5.8 2.8 1.5.6 3 1.2 5.8 2.8 4.2 2.4 5.1 3 7.7 4.7l3.3 2c2.3 1.5 3.8 2.2 5.1 2.8 2 1 3.5 1.7 6.8 4.2.9.6 1.6 1.2 2.2 1.8z" fill="#14C393"/>
    <path d="M2.6 29.7v-2.6H0v-1.7h2.6v-2.6h1.7v2.6H7v1.7H4.3v2.6H2.6z" fill="#9FAAC4"/>
    <path d="M14.8 15.6v-2h-2v-1.4h2v-2h1.4v2h2v1.4h-2v2h-1.4z" fill="#F9FAFC"/>
  </g>
  <defs>
    <clipPath id="clip0">
      <path fill="#fff" d="M0 0h64v64H0z"/>
    </clipPath>
  </defs>
</svg>
