<svg width="873" height="845" fill="none" xmlns="http://www.w3.org/2000/svg">
  <mask id="a" maskUnits="userSpaceOnUse" x="-1" y="119" width="874" height="649">
    <path d="M346 370c47.6-35.4 106.3-161.6 248.4-188.9C736.5 154 838.5 274 797.6 387.4c-51.4 142.4-164.2 152.2-290.8 156.3-94 3-80.1 130.8-218.7 159.7C81.1 746.7 19 572.2 132 443.2c71.1-81.3 166.4-38 214-73.3z" fill="#fff"/>
  </mask>
  <g mask="url(#a)" fill="#F9FAFC">
    <path d="M417.2 668.6l1.8-.4c29.7-6 60.4-6.4 86.5-5.9 11.2.2 23 0 34.3-.3 19.2-.4 39-.8 58 1a318 318 0 0 1 42.5 7.7c15.6 3.6 31.7 7.3 47.6 8 19.9 1 40.6 1 60.7 1a3370 3370 0 0 1 40.6.3c16 .2 32.5.5 48.4-.1 11.6-.5 22.2-4 33.4-7.8 9.4-3 19-6.3 29.3-7.6a626.2 626.2 0 0 0 77.4-14c15.4-3.4 31.4-7 46.4-12.2 9.9-3.4 20-4.1 29.7-4.8a87.7 87.7 0 0 0 31.9-6 244 244 0 0 0 31.9-19c7.5-5 15.2-10 23.2-14.5a309 309 0 0 0 33.4-22.7c7.2-5.3 14.6-10.8 22.2-15.8a181.2 181.2 0 0 0 30.4-27.4c7.8-8.2 15.9-16.6 25-23.7a3.8 3.8 0 0 1 4.6 5.9c-8.7 6.7-16.6 15-24.2 23a189.3 189.3 0 0 1-31.7 28.4c-7.4 4.9-14.8 10.3-21.8 15.6-11 8.1-22.2 16.5-34.3 23.2a343 343 0 0 0-22.7 14.3c-10.5 7-21.3 14.1-32.9 19.5-11.3 5.2-23 6-34.5 6.7-9.7.7-18.8 1.3-27.8 4.4-15.3 5.4-31.5 9-47.2 12.4-4.7 1-9.4 2-14 3.2-18.8 4.3-39.7 8-64 11-9.6 1.2-18.5 4.1-28 7.3-11.2 3.7-22.8 7.6-35.4 8.1-16.1.7-32.8.4-48.9.1a1824.6 1824.6 0 0 0-40.4-.3c-20.1 0-41 0-61.1-.9-16.5-.8-33-4.6-48.8-8.2-13.7-3.1-27.8-6.4-41.6-7.6-18.5-1.7-38.2-1.3-57.1-1a839 839 0 0 1-34.6.3c-25.7-.4-55.9-.2-84.8 5.8-24.6 5-46.7 12.2-66 21.2-5 2.4-10 4.6-15 6.8-13.5 6-27.6 12-39.7 20.7-14 10-27.5 21.5-40.5 32.6l-4.9 4.2c-6 5.1-12.1 10.5-18 15.7a853.3 853.3 0 0 1-25.1 21.7 157 157 0 0 1-32 18.8 136.6 136.6 0 0 0-34.6 21.4c-9.9 7.9-20 16.1-33.6 19.6-6 1.5-11.9 3.2-17.5 4.8-16.1 4.6-31.3 9-48.7 9.8-20.4.9-41.5-5.4-62-11.5-9.7-2.8-18.8-5.6-28-7.6a497 497 0 0 1-82.4-28.8l-29.3-12c-2-.7-2.9-2.8-2.1-4.8.7-1.9 2.9-2.9 4.8-2.1 9.8 3.8 19.8 8 29.5 12 26.3 11 53.6 22.3 81.2 28.4 9.3 2 19 5 28.5 7.7 19.8 6 40.3 12 59.4 11.2 16.5-.8 31.3-5 47-9.5a584 584 0 0 1 17.7-4.9c12-3 21.1-10.4 30.7-18.2 6-4.7 12-9.6 19-13.5 5.5-3.2 11.4-6 17-8.8 10.6-5 21.6-10.3 30.6-17.8 8.4-6.8 16.8-14.3 25-21.5l18-15.8 5-4.2c13.1-11.2 26.7-22.8 41-33 12.7-9 27.1-15.4 41-21.5 5-2.1 10-4.4 14.8-6.6a299.1 299.1 0 0 1 65.8-21.5z"/>
    <path d="M401.5 634.7c21.9-4.6 45.2-4 67.7-3.3l16.2.3c19.1.3 38.5 2.6 57.2 4.9 12.8 1.5 26.1 3 39.1 4l39.9 3c15.3 1.1 31.2 2.4 46.3 3.3 12.6.9 25-1.7 38.3-4.4 10.6-2.2 21.6-4.4 32.8-4.7 12.1-.3 24.4.8 36.3 1.8 13.5 1.2 27.4 2.4 41 1.6 13.4-.8 26.9-3.6 39.8-6.2 8.6-1.8 17.5-3.6 26.3-4.9 6.7-1 13.6-1.8 20.3-2.6 15-1.9 30.7-3.8 45.5-7.1 12-2.8 23.9-7.3 35.4-11.7 8-3.1 16.3-6.3 24.7-8.9 11.7-3.6 22.5-9.8 33-15.8 7.8-4.6 16-9.3 24.4-12.9 10-4.2 20.3-5.5 30.3-6.9 11.8-1.5 22.9-3 33.1-8.6 20.3-11.2 40-22.2 58.5-34.2 7.9-5.2 16.1-10 24-14.6 12.1-7 24.6-14.3 36-22.7 1.7-1.3 4-1 5.2.7 1.3 1.7 1 4-.7 5.3a394 394 0 0 1-36.7 23.2c-7.9 4.6-16 9.3-23.7 14.3a976 976 0 0 1-59 34.5 97.5 97.5 0 0 1-35.7 9.6c-10 1.3-19.3 2.5-28.3 6.3a220 220 0 0 0-23.7 12.4c-10.8 6.3-22 12.7-34.5 16.6-8.2 2.5-16.3 5.6-24.3 8.6-11.7 4.5-23.8 9.2-36.4 12-15.2 3.5-31 5.4-46.2 7.3l-20.2 2.6c-8.6 1.3-17.3 3-25.8 4.8-13.2 2.7-26.9 5.5-40.8 6.4-14.2.9-28.4-.4-42.2-1.6-11.7-1-23.7-2.1-35.5-1.8-10.4.2-21.1 2.4-31.5 4.6-13 2.6-26.6 5.4-40.2 4.5-15.1-1-31-2.2-46.4-3.4l-39.8-3c-13.2-.8-26.6-2.4-39.5-4-18.5-2.2-37.7-4.5-56.5-4.8a996 996 0 0 1-16.2-.3c-22.8-.7-46.4-1.3-68 3.6-20 4.5-40.2 11.4-63.7 21.6a259 259 0 0 0-43.7 26.4l-7.6 5.3c-7.1 4.9-14.8 8.9-22.3 12.8-9.1 4.7-18.5 9.6-26.5 16a117.6 117.6 0 0 0-18.4 20.2c-6.3 8-12.7 16.1-21.3 22.6a406.7 406.7 0 0 1-47 30.3c-11.6 6.6-24.5 8.4-37 10.2-7.3 1-14.3 2-21 3.9-22 6-44.3 9.4-66.2 10-7.6.2-15.2.6-22.6 1a240 240 0 0 1-58.4-1.2c-32.5-6-65.4-18-97.2-29.8a3670 3670 0 0 1-10-3.7c-2-.7-3-2.8-2.2-4.8.7-2 2.8-3 4.8-2.2l10 3.7c31.5 11.6 64.1 23.6 96 29.4 19 3.5 37.3 2.3 56.6 1.2 7.4-.5 15-1 22.8-1.2 21.3-.5 43-3.8 64.4-9.7 7.2-2 14.7-3 22-4 12.3-1.8 24-3.5 34.4-9.3 17.8-10 33-19.8 46.1-29.8 7.8-5.9 13.6-13.4 19.8-21.3 5.9-7.4 12-15.1 19.7-21.4 8.6-6.9 18.3-12 27.8-16.9 7.2-3.7 14.7-7.6 21.4-12.2l7.6-5.3c14-9.8 28.7-20 45-27.1 24-10.4 44.6-17.5 65-22.1l2.2-.4z"/>
    <path d="M430.1 594.2a91.6 91.6 0 0 1 20.4-2.1c17.1.2 34.3 2.4 51 4.5 14.7 1.8 29.9 3.7 44.9 4.3a404 404 0 0 1 49.5 5.9c15.4 2.5 30 4.9 44.4 5.5 12 .6 23.7-2.7 36-6.2 10.7-3 21.7-6.2 33.1-6.7 13-.6 26.3 1.1 39.1 2.8 14.3 1.8 29 3.6 43 2.3 13-1.3 26.5-4.1 39.6-6.8 9.2-2 18.7-4 28-5.4 9.6-1.4 19.4-2.3 28.8-3.2 13.4-1.2 27.3-2.4 40.6-5.4 13.8-3 27.6-7.9 40.8-12.5 7.2-2.5 14.6-5.1 21.9-7.4 8.3-2.6 16.8-4.8 25-7 13.1-3.3 26.5-6.7 39-11.7 11.4-4.6 22-11.6 32.1-18.3 8.6-5.6 17.4-11.4 26.9-16a699.6 699.6 0 0 0 61.6-32.9c9.7-5.9 20.2-10 30.5-13.8 11.5-4.4 23.4-9 33.8-16.2 1.7-1.1 4-.7 5.2 1 1.2 1.8.8 4.1-1 5.3-11 7.7-23.4 12.4-35.4 17-10.4 4-20.2 7.7-29.2 13.2-17 10.4-36.7 21-62.3 33.3-9 4.4-17.6 10-26 15.5-10.5 6.9-21.4 14-33.4 18.9-13 5.2-26.6 8.7-39.9 12.1-8.1 2.1-16.6 4.3-24.7 6.8-7.2 2.3-14.5 4.8-21.6 7.3a361.4 361.4 0 0 1-41.7 12.8c-13.8 3-27.9 4.3-41.5 5.5-9.3.9-19 1.8-28.3 3.2-9.2 1.4-18.6 3.4-27.7 5.3-13.3 2.7-27 5.6-40.4 6.9-14.8 1.4-30-.5-44.6-2.4a227.3 227.3 0 0 0-37.9-2.6c-10.5.4-21 3.4-31.3 6.4-12.5 3.5-25.3 7.1-38.5 6.5-14.8-.7-30.3-3.2-45.2-5.6-16-2.6-32.5-5.3-48.6-5.9-15.3-.5-30.7-2.5-45.6-4.3-16.4-2-33.4-4.2-50-4.4-15-.3-28 4-41.9 8.5-8.9 3-18 6-27.8 7.7a287.7 287.7 0 0 0-63.4 18.7c-16.3 7-31.5 17.2-46.1 27l-4.3 2.9c-7.3 4.8-15.2 8.6-22.9 12.2-9.3 4.5-18.2 8.7-26 14.7-7 5.4-12.6 12.2-18.4 19.3A120.4 120.4 0 0 1 179 732a66.5 66.5 0 0 1-29.7 10.6 74.4 74.4 0 0 0-22.9 6.6l-.8.5c-16.2 8.7-33 17.8-51.3 22.6-20 5.2-41.9 7.9-64.8 8-21.8.1-50.5-.4-79.6-6-31.6-5.9-65.6-13-100-24.6-1.9-.6-3-2.8-2.3-4.8.7-2 2.8-3 4.8-2.3a720.5 720.5 0 0 0 98.9 24.3c22.2 4.2 46.3 6 78.1 5.8 22.3 0 43.5-2.7 63-7.8a225.7 225.7 0 0 0 49.6-21.9l.9-.5c8.1-4.3 16.7-5.9 25-7.4a59.9 59.9 0 0 0 26.6-9.2 112 112 0 0 0 19.3-20c5.8-7 12-14.5 19.6-20.4 8.5-6.6 18.1-11.1 27.4-15.5 7.4-3.6 15.1-7.2 22-11.8l4.2-2.8c15-10 30.4-20.4 47.4-27.7a294.2 294.2 0 0 1 65-19.2c9.2-1.6 18.1-4.5 26.8-7.3a225 225 0 0 1 23.8-6.9z"/>
    <path d="M309.6 581c7.3-1.6 14.8-2.8 22.1-4 5.5-1 11.2-1.8 16.6-2.9 7.2-1.3 14.5-3.2 21.6-5 15.3-3.8 31.2-7.7 48.2-7.7a283 283 0 0 1 52.2 6.6c15.9 3 32.2 6.2 48.6 6.5a880 880 0 0 1 43.5 2.3c15.6 1.1 31.8 2.3 47.2 2.4 12.7 0 26-2.3 38.8-4.5 11.9-2 24.2-4.2 36.2-4.5 12.5-.3 24.7-3.6 37.5-7.1 10.5-3 21.3-5.9 32.3-7 14.7-1.6 29.5.7 43.7 2.9 14.3 2.2 27.7 4.2 40.7 2.6 10.6-1.3 19.6-7.6 29-14.3 9-6.4 18.3-13 29.5-15.6 11.3-2.7 23-3.5 34.2-4.4 12.7-1 25.8-2 38.2-5.5 14-4 27.5-10.1 40.7-16 7.6-3.4 15.5-7 23.3-10 10.8-4.2 22.4-5.7 33.6-7.1 12.1-1.5 24.7-3 36-8.3a997.2 997.2 0 0 0 64-32.6c7.6-4.1 15.4-8.1 22.9-12 14.1-7.4 28.8-15 42.5-23.6a3.8 3.8 0 1 1 4 6.4c-14 8.7-28.8 16.4-43.1 23.8-7.4 3.9-15.2 7.9-22.6 12-17.4 9.5-40.5 21.9-64.6 32.9-12.4 5.6-25.5 7.2-38.1 8.8-11.3 1.5-21.9 2.8-32 6.7-7.5 3-15.3 6.5-22.8 9.9-13.4 6-27.3 12.2-41.7 16.3a195.3 195.3 0 0 1-39.7 5.8c-11.5.8-22.3 1.7-33 4.2-9.9 2.3-18.2 8.2-26.9 14.4-9.8 7-20 14.1-32.5 15.7-14 1.7-28.6-.5-42.8-2.7-13.8-2.1-28-4.3-41.7-2.9-10.5 1.1-21 4-31.2 6.8a163.4 163.4 0 0 1-39.3 7.4c-11.5.3-23.5 2.4-35 4.4a226.1 226.1 0 0 1-40.2 4.6c-15.7-.1-32-1.3-47.6-2.4-14.2-1-29-2-43.2-2.3-17-.3-33.7-3.5-49.9-6.6-16.6-3.2-33.7-6.5-50.8-6.5-16 0-30.8 3.7-46.4 7.5a390.3 390.3 0 0 1-38.7 8 209 209 0 0 0-47 11.3c-12.9 5.4-25 13.2-36.8 20.8l-11.4 7.2a686.3 686.3 0 0 0-44.4 29.6c-11.7 8.4-17.5 11.7-23.7 15.2-5.3 3-10.7 6-20.4 12.6a192 192 0 0 0-17.1 13c-6.5 5.4-11.5 9.7-26 17-13.5 7-28.4 10.6-42.9 14l-10.3 2.5c-8 2-14.5 6.4-21.3 11-9.6 6.6-19.5 13.3-34 13-17.5-.4-35.3-5.9-52.4-11.1-9.7-3-19.7-6-29.3-8-11.6-2.5-23.3-4.3-34.6-6-19-3-38.8-6-58.6-12.1-2-.6-3-2.7-2.5-4.7.6-2 2.7-3 4.7-2.5 19.2 6 38.7 9 57.6 11.9a675 675 0 0 1 35 6c9.8 2 20 5.2 29.8 8.2 16.7 5.1 34 10.4 50.6 10.8 12 .3 20.4-5.5 29.4-11.6 7-4.8 14.4-9.8 23.8-12.2l10.4-2.5c14-3.3 28.5-6.7 41.2-13.3 13.7-7 18.2-10.8 24.5-16A235.1 235.1 0 0 1 166 662c6-3.4 11.7-6.6 23-14.8a689 689 0 0 1 44.8-29.9 627 627 0 0 0 11.3-7.1c12-7.8 24.4-15.8 38-21.4 8.7-3.6 17.6-6 26.6-7.9z"/>
    <path d="M264.5 551.7c9.3-2 18.8-2.5 28-3 8.7-.6 17.7-1.1 26-2.8a775 775 0 0 0 17-3.7c16.2-3.6 32.9-7.3 50-8 15.8-.6 32.2.8 48 2.2 14.3 1.3 29.1 2.5 43.4 2.4 16-.3 32.2-1.2 48-2 12.5-.8 25.4-1.5 38-1.9 15.6-.4 31.7-2.3 47.3-4.2 10.9-1.3 22.1-2.6 33.2-3.4 15.2-1.2 30.4.6 45.2 2.4 15.4 1.8 30 3.6 44.4 2.2 12.3-1.2 24.2-5.4 36.7-9.7 10.4-3.7 21.2-7.4 32.1-9.3 12-2.1 24.5-2.6 36.5-3.1 13.6-.6 27.7-1.1 41-4 20.6-4.5 43.1-10 71-17 11.7-3.1 22-9.7 33-16.7 9.6-6 19.5-12.4 30.6-16.2 27.6-9.6 49.5-18 68.9-26.3 11-4.7 22.6-8 33.9-11 12.5-3.5 25.4-7 37.1-12.7 12.9-6 25-14.6 36.6-22.9 9.8-7 20-14.1 30.7-20 1.8-1 4-.3 5.1 1.5 1 1.8.3 4-1.5 5-10.3 5.7-20.3 12.8-29.9 19.6-12 8.5-24.3 17.2-37.7 23.6-12.3 5.9-25.6 9.5-38.4 13-11 3.1-22.4 6.2-33 10.8-19.4 8.4-41.5 16.8-69.4 26.4-10.2 3.6-19.7 9.6-29 15.5-11 7-22.2 14.2-35.2 17.5-27.9 7.2-50.5 12.6-71.1 17.1-14 3-28.4 3.7-42.4 4.2-11.7.5-23.9 1-35.5 3-10.4 1.8-20.8 5.5-30.9 9-12.4 4.3-25.3 8.8-38.4 10.1-15.2 1.5-31-.4-46.1-2.2a228 228 0 0 0-43.7-2.4c-11 .8-22.1 2.2-33 3.4a544 544 0 0 1-47.8 4.3c-12.5.3-25.4 1-37.9 1.8-15.8.9-32.2 1.8-48.3 2-14.7.2-29.6-1-44-2.4a384.5 384.5 0 0 0-47.1-2.1c-16.5.6-32.1 4-48.7 7.8l-17.2 3.7c-8.9 1.8-18 2.3-27 2.9-13.4.8-26.1 1.6-38 6.2a73.5 73.5 0 0 0-23.6 17 106.8 106.8 0 0 1-18.2 14.8c-7.1 4.3-14.9 7.2-22.4 10-9 3.4-17.5 6.5-25 11.8-7.2 5-10.7 12.2-14.5 19.8-4 8.3-8.3 17-17.5 23.1L129 662a248 248 0 0 1-39.3 22.6 68.2 68.2 0 0 1-33.3 5c-8-.1-15.7-.2-23.2 1.8l-11 3c-15 4.3-30.4 8.7-46.7 9-21.2.2-42.3-3.6-62.7-7.3l-11.4-2c-10.8-1.9-21.7-3.1-32.2-4.3-17.9-2-36.3-4.1-55-9.4-2-.6-3.2-2.7-2.6-4.6.6-2 2.7-3.2 4.7-2.6 18 5.2 36.2 7.2 53.8 9.2 10.6 1.2 21.6 2.4 32.6 4.3l11.4 2c20 3.7 40.8 7.5 61.2 7.2 15.4-.2 30.4-4.5 44.9-8.6 3.7-1 7.3-2.2 11-3.1 8.6-2.3 17.1-2.2 25.4-2 10.4.2 20.4.4 29.7-4.3 20.9-10.3 22.2-11.2 38.5-22.1l4.7-3.2c7.6-5 11.2-12.4 15-20.2 4-8 8.2-16.4 16.9-22.5 8.3-6 17.7-9.4 26.7-12.8 7.6-2.8 14.7-5.5 21.2-9.4 6.2-3.7 11.4-8.6 16.9-13.8a80.6 80.6 0 0 1 26-18.6 79 79 0 0 1 12.3-3.6z"/>
    <path d="M249 519.2c6.7-1.5 13.5-2.5 20.3-3.6 5.8-.9 12-1.8 17.7-3 6.6-1.3 13.3-3 19.8-4.8 13.7-3.7 28-7.4 43-7.4 15.8 0 31.6 2.7 47 5.3 16.3 2.8 33.1 5.6 49.9 5.2l22.1-.6c23-.7 46.8-1.4 68.6-1.4 12.5 0 24-4.8 36.3-9.8 11.2-4.6 22.8-9.4 35.5-10.5 15.2-1.2 30.6.4 45.6 2 16.1 1.9 31.3 3.6 46.4 1.8 13.5-1.5 27.3-5.5 40.6-9.4 10.8-3.1 21.9-6.4 33-8.3 13.2-2.5 26.8-2.5 39.9-2.5 13.9 0 28.2 0 42-2.9h.3c17.1-3.7 34.4-8.5 51.2-13.1l21.3-5.9c13.6-3.6 27.4-8.7 40.6-13.6 10-3.6 20.3-7.5 30.4-10.6 12.6-4 24-10.7 36-17.9 10.3-6 20.9-12.4 32.3-16.8 22.7-8.7 45.5-19.2 67.4-29.4l4.3-1.9c11.4-5.3 23.7-8.8 35.5-12.1 13.2-3.7 26.8-7.6 39.1-14 1.9-.9 4.2-.1 5 1.7 1 1.9.3 4.2-1.6 5-13 6.8-27 10.7-40.5 14.6a229 229 0 0 0-34.4 11.7l-4.2 2c-22.1 10.1-45 20.7-68 29.5-10.8 4.1-21 10.3-31 16.2-12 7-24.2 14.4-37.7 18.6-10 3.1-20.1 6.9-30 10.5-13.4 5-27.3 10.1-41.3 13.8l-21.2 5.9a843 843 0 0 1-52 13.2c-14.5 3-29.3 3-43.5 3-12.9 0-26.1 0-38.7 2.4-10.6 2-21.5 5-32.1 8.1-13.7 4-27.8 8-41.9 9.7-15.9 1.8-32.3 0-48-1.7a230.3 230.3 0 0 0-44.2-2c-11.6 1-22.6 5.5-33.3 9.9-12.4 5-25.1 10.3-39 10.3-21.8 0-45.5.7-68.5 1.4l-22.1.6c-17.5.5-34.7-2.5-51.4-5.3-15-2.5-30.6-5.2-45.7-5.2-14 0-27.8 3.6-41.1 7.2-6.6 1.7-13.4 3.5-20.2 4.9-6 1.2-12.1 2.1-18 3-13.6 2.2-27.5 4.3-40.2 9.4-13 5.3-16.8 9.8-21.3 15-4 4.6-8.4 9.8-18.9 16-11.8 6.8-16.3 10.8-21.4 15.5-4.2 3.7-8.9 8-18.2 14.3a46.5 46.5 0 0 1-26 8.8c-6.5.5-12.6 1-21.7 6.8-12.1 7.6-18.2 9.7-25.1 12-4.9 1.7-10.4 3.5-19.4 7.8-7.5 3.6-12.1 6.3-16.2 8.7-7.4 4.4-12.8 7.6-29.7 12a262 262 0 0 1-56.1 9c-19.2.8-38.5-2.3-57.2-5.3l-12.2-2-11.3-1.7c-24.2-3.6-47-7-70.8-13.5-2-.5-3.1-2.6-2.6-4.6.5-2 2.6-3.2 4.6-2.7 23.3 6.4 46 9.8 69.9 13.4l11.3 1.7 12.3 1.9c18.3 3 37.2 6 55.7 5.3 16.4-.6 34.2-3.5 54.5-8.8 15.8-4.1 20.6-7 27.8-11.2a194.2 194.2 0 0 1 37-17.2 90 90 0 0 0 23.5-11.2c10.7-6.8 18.3-7.4 25-8 6.6-.5 13-1 22.5-7.5 8.8-6 13.2-9.9 17.4-13.7 5.2-4.7 10.1-9.1 22.6-16.4 9.4-5.5 13.2-10 17-14.3 4.9-5.7 9.5-11.1 24.2-17 7-2.9 14.1-4.8 21.4-6.3z"/>
    <path d="M302.9 469c4.4-.8 9-1.4 13.6-1.5 13.9 0 28 1.5 41.7 3 16 1.8 32.7 3.7 49 2.8 14.2-.7 28.6-.6 42.6-.5 17 .1 34.6.3 51.6-1.1 14.7-1.2 29.8-3.5 44.4-5.7 13-2 26.5-4 39.6-5.2 14-1.4 28.3-4.3 42.2-7.2 12.7-2.6 25.8-5.2 38.6-6.7 12.5-1.5 25.5-1.8 38.1-2 15.9-.4 32.3-.7 47.7-3.4 13.8-2.5 28.1-4 42-5.4 13.2-1.4 26.8-2.8 39.6-5 12.6-2 23.1-9.5 34.2-17.4 10.2-7.1 20.7-14.5 33.2-18 13-3.5 26.4-4.6 39.4-5.6 13.7-1.1 28-2.3 41.3-6.4 9-2.8 18.4-5.6 27.4-8.2 16-4.8 32.7-9.7 48.4-15 14-4.8 27-12.9 39.8-20.7 10.3-6.4 21-13 32.3-17.9a157 157 0 0 1 38.9-9.5c13.5-2 27.4-4.2 40-10.1a3.7 3.7 0 1 1 3.2 6.7 151.6 151.6 0 0 1-42 10.8c-13.2 2-25.5 4-37.1 9-10.7 4.6-21.2 11.1-31.4 17.4-13 8-26.5 16.3-41.2 21.3-15.9 5.4-32.6 10.4-48.7 15.1l-27.4 8.3c-14 4.3-28.7 5.5-42.9 6.6a205 205 0 0 0-38 5.5 103.4 103.4 0 0 0-30.8 16.9c-11.3 8-23 16.2-37.3 18.6-13 2.3-26.7 3.7-40 5-13.8 1.5-28 3-41.6 5.4-16 2.8-32.6 3.1-48.8 3.5-12.4.2-25.2.5-37.4 2-12.5 1.4-25.5 4-38 6.6-14 2.9-28.6 5.9-43 7.2-12.8 1.2-26.2 3.3-39.1 5.2a668 668 0 0 1-45 5.7c-17.3 1.5-35 1.3-52.3 1.2-13.8 0-28.1-.2-42 .5-17 1-34-1-50.3-2.8-14-1.6-27.4-3-40.8-3a97.9 97.9 0 0 0-32.7 7.8c-7.4 2.7-15 5.4-23 7a305 305 0 0 0-53.8 14c-22 8.6-23.7 9.6-40 18.6l-4.8 2.7c-12.1 6.7-16.6 10-22.3 14.2-4.1 3-8.8 6.5-17.2 12a81 81 0 0 0-17.4 14c-4.3 4.5-8.7 9.1-19.3 15.5a54 54 0 0 1-25 8.6c-5.5.7-11.3 1.4-20.7 5.8-8.3 3.8-12.9 6.9-17 9.6-6.2 4.2-11.6 7.8-26.8 11.8-15.6 4.2-31.8 5-47.4 5.7l-7.8.4c-14.5.8-28.4-2.8-41.9-6.3-8.5-2.2-17.3-4.5-26-5.5-9.5-1.2-19-1.7-28.2-2.2-15.2-.9-31-1.8-47.2-5.5-2-.4-3.3-2.4-2.8-4.5.5-2 2.5-3.2 4.5-2.8a266 266 0 0 0 46 5.3c9.2.5 18.9 1 28.6 2.2 9.2 1.1 18.3 3.5 27 5.8a129 129 0 0 0 47.4 5.7c15.3-.8 31.1-1.6 45.9-5.5 14-3.7 18.7-6.8 24.6-10.8 4.3-2.9 9.1-6.2 18-10.2 10.4-4.9 17-5.7 23-6.4 6.4-.8 12-1.6 22-7.6 9.7-5.9 13.6-10 17.7-14.2a89 89 0 0 1 18.7-15.3c8.2-5.2 12.8-8.6 16.8-11.6 5.7-4.2 10.6-7.8 23.1-14.7l5-2.7a243.8 243.8 0 0 1 40.7-19.1c18-7.1 37.7-11 55-14.3 7.5-1.5 14.9-4.1 22-6.7 7-2.6 14.1-5.1 21.6-6.7z"/>
    <path d="M229.7 443c14.2-3 28.7-3.1 42.7-3.2 6.7 0 13.7 0 20.4-.4 13.5-.7 27.3-.8 40.6-.8a814 814 0 0 0 42.2-1c37.5-2.2 66-4.2 92.3-6.5 16.2-1.4 32.8-1.2 48.9-1 15.6.2 30.4.4 44.8-.8 13.3-1 25.8-6.3 39-11.8 12-5 24.5-10.3 37.9-12.2 15.5-2.3 31.3-1 46.5.1 15.6 1.2 30.4 2.4 44.7 0a151 151 0 0 0 37.7-13.3c11.8-5.4 24-11 37.1-13.7h.2c32.6-6.8 57.3-12.5 80-18.3 11.5-2.9 23.4-5.3 35-7.5 15-3 30.4-6 45.2-10.5 11.8-3.5 24-6.5 36-9.5 14.3-3.5 29.1-7.2 43.2-11.8 13.9-4.4 27.3-11.4 40.3-18.2A316 316 0 0 1 1120 286c19.4-7.2 39-15.5 57.8-23.5l20.7-8.7a3.8 3.8 0 0 1 2.9 7c-7 2.8-13.8 5.7-20.6 8.6-19 8-38.6 16.3-58.2 23.6-11.9 4.4-23.5 10.5-34.8 16.3-13.2 7-27 14.1-41.4 18.8a693.3 693.3 0 0 1-43.8 11.9c-11.8 3-24 6-35.6 9.4-15 4.5-30.7 7.6-46 10.6-11.3 2.3-23.1 4.6-34.5 7.5-22.8 5.8-47.6 11.4-80.3 18.3h-.1c-12.3 2.6-24.1 8-35.6 13.2a158.8 158.8 0 0 1-39.5 14c-15.3 2.4-31.2 1.2-46.5 0a202.9 202.9 0 0 0-45-.2c-12.3 1.8-24.3 6.8-36 11.7a138 138 0 0 1-41.2 12.4c-14.8 1.2-30.5 1-45.6.8-16-.2-32.3-.5-48 1-26.5 2.3-55 4.3-92.7 6.5-14.1.8-28.6.9-42.5 1-13.3 0-27 0-40.3.8-7 .4-14 .4-20.8.4-13.6 0-27.7.2-41.1 3h-.3a63.1 63.1 0 0 0-26 10.4c-4.7 3-10 6.4-20.2 10.4-14 5.3-18.5 8.3-24.9 12.4-4.2 2.8-9 5.9-17.2 10.3-11.1 5.8-18.5 6-25 6.1-6.4.2-11.8.3-20.9 5.6-8.7 5.1-11.3 10.5-14.3 16.7-3 6.4-6.6 13.8-17.4 20a39.8 39.8 0 0 1-25.3 5.6c-6-.3-11.7-.6-20.9 3.4a98.3 98.3 0 0 0-16.8 9.4c-6 4-11.3 7.5-25.8 11.3a63 63 0 0 0-18.8 8c-6.5 4-12.7 7.7-29.7 8.8-15.3 1-30.7-1.1-45.5-3.3l-17.7-2.3c-28.9-3-52.3-7.3-73.6-13a3.7 3.7 0 1 1 2-7.3c20.9 5.7 44 9.8 72.4 13 6 .6 12 1.4 18 2.3a213 213 0 0 0 44 3.2c15.1-1 20-4 26.3-7.8a70 70 0 0 1 20.7-8.9 64.6 64.6 0 0 0 23.5-10.3c4.3-2.8 9-6 18-9.9 10.8-4.7 18-4.4 24.3-4 6.4.3 12 .5 21.2-4.7A32 32 0 0 0 75.8 519 40 40 0 0 1 93 499c10.7-6.2 17.7-6.4 24.4-6.5 6.3-.2 12.1-.3 21.7-5.3 8-4.3 12.6-7.3 16.6-10 6.5-4.2 11.6-7.5 26.3-13.1 9.5-3.7 14.2-6.7 18.7-9.7a70 70 0 0 1 28.7-11.4h.2z"/>
    <path d="M169.2 418.4c7.3-1.5 14.7-1.9 21.9-2.3 7.6-.4 14.8-.8 21.9-2.4 15.4-3.6 31.6-4.6 47.2-5.6l11.5-.7c14.3-1 29-.5 43.3 0 13.1.6 26.7 1.1 39.7.4 15.5-.9 31-4.7 45.9-8.4 13.6-3.3 27.6-6.8 41.9-8.1 13.2-1.2 26.9-1.3 40.1-1.5 17.4-.1 35.4-.3 52.3-2.9 14.4-2.2 28.8-6.6 42.7-10.8 12.9-3.9 26.2-8 39.7-10.3 15.7-2.9 31.8-1.7 47.3-.5 15.3 1.2 29.8 2.3 43.9-.1 13.3-2.3 26.1-7.5 39.7-12.9 12.5-5 25.5-10.1 39-13 20.3-4.1 41-9 61-13.6L869 321c15.3-3.5 30.6-9 45.4-14.3 11-4 22.6-8.1 34-11.4 13.3-3.8 27.3-6 40.8-8 14-2 28.4-4.2 42-8.3 15.1-4.5 30.2-11 44.8-17.4 11.2-4.9 22.7-9.9 34.2-14l32.1-11.2c16.2-5.5 32.8-11.2 49-17.3a3.7 3.7 0 1 1 2.6 7c-16.3 6-33 11.8-49.1 17.4l-32.1 11.1c-11.2 4-22.6 9-33.7 13.8a414.5 414.5 0 0 1-45.7 17.7c-14 4.3-28.8 6.5-43 8.6-13.3 2-27 4-39.9 7.8a531.9 531.9 0 0 0-33.5 11.2 411 411 0 0 1-46.2 14.6l-20.9 4.8c-20 4.6-40.7 9.5-61.1 13.7h-.5a229.2 229.2 0 0 0-37.2 12.6 209.5 209.5 0 0 1-41.3 13.2c-15 2.6-30.6 1.4-45.6.3-15.1-1.2-30.8-2.3-45.5.3-13 2.4-26.2 6.3-38.8 10.2-14.2 4.3-28.9 8.7-43.8 11-17.4 2.7-35.7 2.9-53.4 3-13 .2-26.6.3-39.5 1.5-13.7 1.2-27.5 4.6-40.8 7.9a258 258 0 0 1-47.2 8.6 423 423 0 0 1-40.4-.3c-14-.6-28.6-1.2-42.5-.2l-11.6.8c-15.3 1-31.2 2-46 5.4a138 138 0 0 1-23.2 2.6c-10 .5-19.5 1-28.5 4.4a43.5 43.5 0 0 0-20 13.5c-4.2 4.5-8.9 9.6-19.1 14.6-10.6 5.2-16.8 6.3-22.3 7.4-5.7 1-10.7 2-20.2 7.1-10.4 5.6-15.7 7.5-21.2 9.5-4.9 1.7-9.9 3.5-19 8.1-8.3 4.3-12.9 7.3-16.8 10-5.6 3.7-10.4 7-22.6 12-8.7 3.5-13 6.6-17.2 9.6-5.6 4-10.9 7.9-24.5 11.5a82.8 82.8 0 0 1-32 .3c-7.4-.9-14.5-1.8-21.5-1.1-7.8.7-14.6 3.5-21.9 6.6-9.7 4-19.8 8.3-32.1 6.9l-1.5-.2c-22-2.4-44.8-4.9-67.3-9.3-2-.4-3.3-2.4-3-4.4.5-2 2.5-3.4 4.5-3 22.2 4.4 44.8 6.9 66.6 9.3l1.5.2a55.7 55.7 0 0 0 28.4-6.4c7.5-3.1 15.2-6.4 24.1-7.2 7.9-.7 15.7.3 23.2 1.2 10 1.2 19.5 2.4 29-.1a55.7 55.7 0 0 0 22.1-10.3c4.4-3.1 9.3-6.7 18.7-10.6 11.5-4.7 16-7.8 21.3-11.3 4.1-2.7 8.8-5.9 17.5-10.3 9.6-5 14.9-6.8 20-8.6 5.2-1.9 10.2-3.6 20.1-9a66.1 66.1 0 0 1 22.4-8c5.3-1 10.7-2 20.3-6.6 9-4.4 12.9-8.6 17-13a51 51 0 0 1 22.8-15.5c3-1 6-1.9 9-2.5z"/>
    <path d="M160.8 385.8c7-1.5 12-1.2 17-1 6.1.4 12.5.7 24-1.8a395 395 0 0 1 52.9-6.7l3.5-.3 71.8-6 6.1-.6c15.4-1.3 30.4-6 44.9-10.6 14.1-4.4 28.7-9 43.8-10.6 14-1.5 28.4-1.7 42.4-2 16.2-.2 33-.5 49-2.7 14.8-2 29.7-6 44.2-9.6a445 445 0 0 1 41.4-9.2c18.4-2.9 37.4-6.8 55.7-10.7l29.3-6c15.2-3 30.2-1.4 44.7.1 15.3 1.6 29.7 3.1 44.2-.3l30-7c17.4-4.1 35.3-8.3 52.7-12.2 14-3.2 27.5-9.5 40.5-15.6 12.4-5.9 25.3-12 38.9-15.3a225 225 0 0 1 40.6-5.2c14.8-1 30-2 44-6.2 13.4-4 26-11.4 38.2-18.5a190 190 0 0 1 40.6-19.5 2281 2281 0 0 0 82.3-26.7c2-.6 4.1.4 4.8 2.4.7 2-.4 4-2.3 4.8-26.7 9-55.2 18.6-82.6 26.7a185.7 185.7 0 0 0-39 18.8 193.6 193.6 0 0 1-39.8 19.2c-14.8 4.5-30.5 5.5-45.7 6.5a221 221 0 0 0-39.2 5c-13 3.2-25 8.8-37.6 14.7-13.3 6.3-27.1 12.8-42 16.2L807.5 308l-30.1 7c-15.8 3.6-31.5 2-46.7.5-14-1.5-28.4-3-42.4-.2l-29.2 6c-18.4 3.8-37.5 7.8-56 10.7a437.3 437.3 0 0 0-40.8 9 406.4 406.4 0 0 1-45 9.8 414.5 414.5 0 0 1-50 2.8 476 476 0 0 0-41.7 2c-14.4 1.4-28.6 5.9-42.3 10.2-15 4.7-30.4 9.6-46.5 11l-6.1.5-71.9 6-3.5.4c-17.2 1.3-35 2.8-51.8 6.5-12.7 2.8-19.8 2.4-26 2-7-.4-12.4-.7-24 3.3-12.8 4.4-18 7.5-23.9 11a163 163 0 0 1-18.7 9.7l-12.6 5.5c-9.7 4.3-13.3 6-28.3 13.2a131 131 0 0 0-18.7 11c-4.8 3.3-9.9 6.7-20.3 11.7-14 6.6-18.3 8.2-26.9 11.4l-14.4 5.4c-9 3.5-13.4 6.4-17.8 9.3-5.8 3.7-11.2 7.3-24.7 10.8l-.9.2a220 220 0 0 1-48.5 8.6c-12.3 1.3-23.6-1.9-34.6-5-8.5-2.3-16.6-4.5-25-4.8a81.3 81.3 0 0 0-24.9 4.2c-11.3 3.1-23.1 6.3-36.9 3-2-.6-3.2-2.6-2.7-4.6.5-2 2.5-3.2 4.6-2.7 11.8 3 22.1 0 33-3a88.1 88.1 0 0 1 27.2-4.4c9.3.4 18.1 2.8 26.7 5.2 10.8 3 21 5.8 31.8 4.7 25.3-2.7 25.3-2.7 47.5-8.4l.8-.2c12.3-3.2 17-6.3 22.5-9.9 4.5-3 9.6-6.2 19.2-10L1.5 462c8.4-3 12.6-4.6 26.3-11.1 10-4.7 14.5-7.8 19.3-11 4.7-3.3 9.6-6.7 19.7-11.6 15-7.4 18.7-9 28.5-13.3l12.5-5.6c8.7-3.8 13.5-6.6 18-9.3 6.3-3.7 11.8-7 25.4-11.6a85 85 0 0 1 9.6-2.7z"/>
    <path d="M166.1 347.4c3.4-.7 6.4-1.2 9.8-1.7 5.2-.8 11.2-1.7 21.4-4 12.4-2.8 25.2-3.9 37.5-4.9l17.2-1.6c13.3-1.5 27-1.1 40.3-.8 12 .3 24.3.6 36.1-.5 15.7-1.4 31.4-5.4 46.6-9.4 14.2-3.7 29-7.5 43.8-9.2 16.2-1.9 32.7-5.3 48.6-8.6 13-2.7 26.5-5.4 39.7-7.4 14-2 28.5-2.6 42.6-3.1 14.9-.6 30.3-1.2 45-3.6 14.2-2.4 28.2-7.3 41.8-12.1 13.7-4.8 27.9-9.8 42.5-12.3 25-4.3 53.3-9.8 84-16.3h.2c14.2-3 28.5-2.2 42.3-1.3 14.9.9 29 1.8 43-1.8 12-3.1 24.4-6.5 36.4-9.8 15.1-4.2 30.8-8.5 46-12.3 13.6-3.3 26.6-9.6 39-15.8 13.2-6.4 26.7-13 41.5-16.6a766 766 0 0 1 36.6-7.5c15.5-3 31.5-6 46.7-10.3 14.4-4 28.6-9.9 42.5-15.6a436.2 436.2 0 0 1 39-14.6c2-.6 4 .5 4.7 2.5.6 2-.5 4.1-2.5 4.7-13 4-25.9 9.3-38.4 14.4-14 5.8-28.5 11.8-43.3 16-15.5 4.3-31.7 7.3-47.3 10.3-12 2.3-24.3 4.6-36.2 7.5-14 3.4-27.2 9.8-40 16a206.8 206.8 0 0 1-40.5 16.4c-15.1 3.8-30.7 8-45.8 12.2-12 3.3-24.4 6.7-36.5 9.8-15.2 3.9-30.5 3-45.4 2-13.3-.8-27-1.6-40.2 1.1h-.2c-30.8 6.7-59.2 12.2-84.4 16.5-14 2.4-27.8 7.3-41.2 12A261 261 0 0 1 596 300c-15.1 2.5-30.8 3.1-46 3.7-13.7.6-28 1.1-41.7 3.1-13 2-26.4 4.7-39.3 7.4-16.1 3.3-32.7 6.7-49.2 8.6-14.4 1.7-28.9 5.4-42.9 9-15.4 4-31.5 8.2-47.7 9.7-12.3 1-24.8.7-37 .4-13-.3-26.5-.6-39.3.8-5.8.7-11.7 1.2-17.4 1.6-12 1-24.6 2-36.4 4.7a289.9 289.9 0 0 1-22 4.2c-7.4 1.1-12.8 2-26.4 6.3a134 134 0 0 0-25 10.5c-4.9 2.6-10.4 5.4-20 9.3-11 4.4-16.1 7.9-21.5 11.5-5.1 3.4-10.4 7-20.6 11.5C54 406.6 49 409 44 411.5c-5.5 2.7-10.7 5.2-21.9 10a43.3 43.3 0 0 1-23.9 4c-5.5-.4-10.6-.8-20.5 2.7-8.7 3-13.8 5.3-18.3 7.3-7 3-12.4 5.5-26.8 9.2-8.4 2.1-13.6 3.8-18.2 5.3-8.2 2.6-14 4.5-30.7 6.7-11.5 1.6-22.6-.4-33.3-2.3-8.3-1.4-16-2.8-24-2.7-8.3.2-16 2.6-24 5.1a70.6 70.6 0 0 1-35.4 4.7c-2-.4-3.4-2.4-3-4.4.3-2 2.2-3.4 4.3-3 11.3 2 21.3-1.1 31.7-4.5 8.3-2.6 16.8-5.3 26.3-5.4 8.6-.1 17.1 1.4 25.3 2.8a99.8 99.8 0 0 0 31 2.2c16-2.1 21.7-4 29.4-6.4 4.7-1.5 10-3.3 18.8-5.5 13.6-3.4 18.9-5.8 25.5-8.7 4.6-2 9.9-4.4 18.8-7.5A50 50 0 0 1-1.3 418c5.7.4 10.6.8 20.4-3.4 11-4.7 16.1-7.2 21.6-10 4.9-2.3 10-4.9 19.8-9.2 9.5-4.2 14.5-7.6 19.3-10.8 5.5-3.8 11.2-7.6 23-12.3 9.2-3.7 14.3-6.4 19.2-9 6.5-3.3 12.6-6.5 26.2-11 8.1-2.6 13.4-4 17.9-4.9z"/>
    <path d="M165 310.4a54 54 0 0 1 16.8-1c5.3.2 10.8.6 22.7-2.2 11.7-2.7 23.8-3.6 35.6-4.5 6-.4 12.2-.9 18.2-1.6 13.2-1.6 27.1-6.2 40.6-10.8 12.3-4.1 25.1-8.4 37.6-10.4 15.9-2.6 32.7-4.6 48.8-6.6 12.8-1.6 25.9-3.2 38.6-5l34.2-5 51.8-7.5c14-2 28.5-3.2 42.5-4.2 13.7-1.1 27.9-2.2 41.6-4.1 12.7-1.8 25.6-2.7 38.1-3.6 15-1 30.7-2 45.6-4.7 14.7-2.6 28.3-9.4 41.5-16A162.2 162.2 0 0 1 761 207c10-1.9 20.5-3.7 30.6-5.4 16.9-2.9 34.4-5.9 51.2-9.6 27.8-6 55.6-12.6 81.6-18.8 10.8-2.6 22-5 32.7-7.4 16-3.5 32.7-7.1 48.6-11.4 13.5-3.5 27.4-5.8 41-7.9 13.6-2.2 27.8-4.4 41.2-8 13.5-3.7 26.3-9.9 38.8-15.9 13-6.2 26.5-12.7 41-16.5 2-.5 4.2.7 4.7 2.7s-.7 4.2-2.7 4.7c-13.8 3.6-27 10-39.8 16-12.7 6.2-26 12.5-40 16.4-13.9 3.7-28.2 6-42 8.2-13.4 2.1-27.2 4.3-40.2 7.8-16.1 4.3-32.8 7.9-49 11.4-10.7 2.4-21.8 4.8-32.6 7.4-26 6.2-53.8 12.8-81.6 18.8-17 3.8-34.6 6.8-51.6 9.7-10 1.7-20.5 3.5-30.5 5.4-14 2.6-26.6 8.9-40 15.6-13.6 6.7-27.7 13.8-43.5 16.6-15.3 2.7-31 3.8-46.3 4.8-12.4.8-25.2 1.7-37.6 3.5-14 2-28.3 3-42.1 4.1-13.9 1-28.2 2.2-42 4.2a16659.2 16659.2 0 0 0-86 12.5c-12.8 1.8-26 3.5-38.7 5-16.2 2-32.9 4-48.6 6.6-11.9 1.9-24.4 6-36.5 10.1-13.8 4.7-28 9.5-42 11.1-6.1.8-12.5 1.2-18.6 1.7-11.4.9-23.3 1.7-34.4 4.3a75 75 0 0 1-24.8 2.2c-5.7-.3-10.7-.6-22.7 3-9.6 2.9-17.6 8.4-26 14.2a111 111 0 0 1-24.4 14.1c-12.6 4.7-18.5 2.6-23.8.8-4.8-1.7-8.9-3-19.1.7-8.5 3-15.3 8.4-22.5 14.1a90.6 90.6 0 0 1-23.7 15 552.8 552.8 0 0 1-45.5 15.8 55.2 55.2 0 0 1-26 2.9c-5.6-.5-11.5-1.1-22.6 1.5a82.2 82.2 0 0 0-21.7 9.8 77.9 77.9 0 0 1-27.6 11.2c-17 2.4-35.6 4-55.2 5-12 .6-23.4-2-34.5-4.4-9.1-2-18.6-4.2-28.1-4.4-2 0-3.7-1.8-3.7-4 0-2 1.7-3.7 3.8-3.7 10.2.3 20 2.5 29.6 4.6 11 2.5 21.5 4.8 32.5 4.3 19.4-1 37.7-2.6 54.5-5 9.2-1.3 16.9-5.7 25-10.3a89.8 89.8 0 0 1 23.7-10.5c12.2-3 19-2.3 25-1.8 6.3.6 11.7 1.1 23-2.6l10-3.2c13.6-4.4 16.8-5.4 35.1-12.4 8.2-3 14.8-8.3 21.9-13.9 7.3-5.8 14.9-11.8 24.4-15.3 12.7-4.6 18.7-2.5 24-.7 4.8 1.6 8.9 3 19-.7 8.2-3 15.2-8 22.7-13.2 8.5-6 17.3-12 28-15.3 3.3-1 6-1.6 8.5-2.1z"/>
    <path d="M235.7 255.3c14-3 19.3-2.1 25-1.3 5 .7 10.3 1.5 23.8-.7 14-2.2 28.2-5.4 41.9-8.4 10.9-2.4 22.1-4.8 33.2-6.9 13.7-2.5 27.8-2.6 41.3-2.7 12.3-.1 25-.2 37.3-2.2 14.8-2.3 29.7-6.5 44-10.5 13.7-4 27.9-8 42.1-10.4 12-2 24.5-3.5 36.6-5 14.4-1.7 29.3-3.5 43.5-6.3 12.9-2.4 26.2-3.7 39.1-4.9a394 394 0 0 0 40.4-5.2c13.6-2.7 27.8-4.3 41.4-5.9 12.7-1.4 25.9-2.9 38.4-5.3 14-2.6 28-7.6 41.6-12.5 12.7-4.5 26-9.2 39.5-12.2 21.4-4.6 43.3-9.8 64.4-15l15-3.5c13.5-3.2 27.5-5.1 41-6.9 12.8-1.7 26-3.4 38.4-6.3 13.6-3 27-8.6 40-14 12.5-5 25.3-10.3 38.7-13.7 15.6-4 31.4-8.3 46.7-12.6 10.5-3 21.4-6 32.1-8.8a3.7 3.7 0 1 1 2 7.2c-10.7 2.8-21.6 5.9-32 8.8-15.4 4.2-31.3 8.7-47 12.6a282 282 0 0 0-37.6 13.5c-13.3 5.4-27 11-41.3 14.3-12.8 3-26 4.7-39 6.4-13.4 1.8-27.2 3.6-40.3 6.7l-15 3.6c-21.1 5.1-43 10.4-64.6 15-13 2.9-26 7.5-38.5 12-13.8 4.9-28.1 10-42.8 12.8-12.8 2.4-26 3.9-38.9 5.3-13.5 1.6-27.5 3.1-40.8 5.8-13.5 2.7-27.5 4-41 5.3a412.5 412.5 0 0 0-38.5 4.9c-14.5 2.7-29.5 4.5-44 6.3-12 1.5-24.4 3-36.3 5a394.6 394.6 0 0 0-41.3 10.1 384 384 0 0 1-45 10.8c-12.7 2-25.7 2.1-38.3 2.3-13.2 0-26.9.2-40 2.6-11 2-22.1 4.4-33 6.8a758 758 0 0 1-42.2 8.5 74.4 74.4 0 0 1-26.1.7c-5.4-.8-10-1.5-23.7 1.5a245.2 245.2 0 0 0-31.4 10c-8.6 3-17.5 6.3-26.6 8.7-10.4 2.8-21 6.3-31.1 9.7-7 2.3-14.3 4.7-21.5 6.9-9.8 2.9-18.3 8-27.3 13.3-8.4 5-17 10.1-26.8 13.4a219.9 219.9 0 0 1-25 7c-5.6 1.3-11.5 2.6-23.1 6.3-13.4 4.2-19.7 2.6-25.8 1a37 37 0 0 0-22.4.6c-8.9 2.4-16.3 7.1-24.3 12.1a91.4 91.4 0 0 1-27.9 13.5 978.5 978.5 0 0 1-53.3 11.2 74 74 0 0 1-31.8-3 72 72 0 0 0-27-3.2c-7 .9-14 2.1-21 3.3a282 282 0 0 1-39.3 5 3.7 3.7 0 1 1-.3-7.5c12.9-.4 25.8-2.6 38.3-4.8 7-1.2 14.3-2.5 21.4-3.4 10.6-1.4 20.3 1 29.7 3.3a67.4 67.4 0 0 0 28.7 3c16.6-3 33.9-6.7 52.9-11.2 9.5-2.2 17.3-7.2 25.6-12.4 8-5.1 16.4-10.4 26.3-13.1 13.7-3.7 20.4-2 26.3-.6 5.5 1.5 10.3 2.7 21.6-1 12-3.7 18-5 23.8-6.4 6.1-1.4 12-2.7 24.3-6.8 9-3 16.9-7.7 25.3-12.7 9-5.4 18.3-10.9 29-14.1 7-2.1 14.2-4.5 21.2-6.8 10.3-3.4 21-7 31.6-9.8 8.8-2.3 17.5-5.5 26-8.6a250.3 250.3 0 0 1 33.7-10.5z"/>
  </g>
  <path d="M402 595.4c8.6-50 30.6-93.8 62-94.4 31.3-.6 14.4 60.1 52.9 88.8 38.5 28.6-31.4 52.4-53 60.5-21.7 8-70.7-5-62-55z" fill="#5275FF" opacity=".1" filter="url(#filter0_f)"/>
  <path d="M418.9 566c-4.3 62.2 60.6 50.7 64.3 85.9 3.7 35.2-97 95.7-145 95.7s87.4-95.7-9.2-155.9C232.3 531.5 423 504 418.9 566z" fill="#72FFFF" opacity=".1" filter="url(#filter1_f)"/>
  <path d="M604.4 346.2c-26.2-7.7-45.8-57.2-41.8-85.3 4-28 17.1-115.8 75-98 57.8 17.7 62.7 54.7 14.2 93.1-48.4 38.4-21.3 97.8-47.4 90.2z" fill="#5275FF" opacity=".1" filter="url(#filter2_f)"/>
  <path d="M522.3 269.2c-18.1-14.8-2.4-22.1 9.4-118.4 11.8-96.2 156.4-27.5 185.2 31 28.7 58.7-80.2 5.2-104.5 20.4-24.3 15.1-64.6 87.7-90.1 67z" fill="#72FFFF" opacity=".1" filter="url(#filter3_f)"/>
  <path d="M497.6 478.1l-.4-.3c-2-4.1-4.4-8.2-8.3-10.8a8 8 0 0 0-.1-2.3c-.3-1.6-2.2-2.9-3.8-2.9-7 .2-14.2-.2-21.1.7-3.8.5-7.8 2.3-7.9 6.6 0 .4.1.8.3 1l-4.7 2.5c-2.7 1.5-6.2 3.5-8.8 6.1-1.3-.6-3.3.3-3.3 2a2536.3 2536.3 0 0 0 0 5.1c.2 10.4.7 20.2 7.1 29.2a41.7 41.7 0 0 0 20.6 15.3c.6.3 1.3.5 2 .3h2.4c.4.4 1.1.7 1.9.6 4.4-.7 8.5-5.7 11.2-9 3.1-3.7 6.2-7.5 6.8-12.5 0-.6 0-1.1-.3-1.5l2.3-3c4.6-6.7 10-19.8 4.1-27zm-6.6 16.1c0 1.5-.3 3-.7 4.3-2 6.8-7.3 11.4-13.6 13.8l-.8.8c-1.3 1.5-2.8 3-4.3 4.4-2.7.4-5.7 1-8.4 1-.7.1-1.3.6-1.6 1.2l-.2-.2a33 33 0 0 1-15-23.6c-.5-4.1-.5-8.2-1.4-12.1a85.6 85.6 0 0 1 24-10.2c2-.6 4.3-1.1 6.6-1.5v.8c4.5.4 8.8 3 11.5 7.2 2.3 3.6 3.8 7.8 4 12.2l1-.6-1.1 2.5z" fill="#72FFFF"/>
  <path d="M439.3 552.8c-.7-4.6-1-12-5.1-14.7l-.8-.4.5-.8c.7-3.6-1.6-6.7-3.5-9.6-1.9-2.8-6.5-.2-4.6 2.7l2 3.8a9.3 9.3 0 0 0 2.4 4l.3.2h-.1c-2.8 2.2-3.2 4.2-2.8 7.6l1 5.6c.3 1 .3 3.4.7 4.6h-.2l-4.8.7c-1.7.2-3.3.6-4.9 1-1.7.6-4 2.1-5.8 1.2-2.2-1.2-5.8.8-4.7 3.6 1.8 4.7 6 6 10.8 5.1 2.7-.5 5.3-1.1 8-1.4 2.4-.2 5 0 7.3-.9 5.2-1.9 5-7.8 4.3-12.3z" fill="#E7EAF3"/>
  <path d="M426.6 543.9c-3.2-5.3-8 2-8.5 4.7-.9 4.7 7.4 4.3 8.5 0 .5-1.6.6-3.8 0-4.7z" fill="#72FFFF"/>
  <path d="M422.4 525.2c-.1-1-1.3-1.7-2.2-1.7-5.8.3-7.6 9.4-8.7 13.8-.7 3 3.5 4.1 4.5 1.3.9-2.5 2.4-4.7 3.9-6.9 1.4-2 2.9-3.8 2.5-6.5zM442.8 511.7c-2-2.2-4-2-6.6-2-2 0-4-.2-5.8-.4 1.6-.1 3.1-.3 4.5-.8 2.6.8 6.1-1.8 4.2-5a43 43 0 0 1-4.4-8.6c-1-2.6-4.5-1.5-4 1.1l.6 4-1.7.2a59.2 59.2 0 0 1-11.2-1c-4.5-1-9.1-3.6-13.6-3.6-1.5 0-2.2 1.5-1.6 2.8 1.1 2.5 3.5 4.4 6.2 5.8-1 .6-1.6 1.7-.8 2.8a31 31 0 0 0 16.5 9.7c5.3 1.5 14.5 3.9 18.2-1.1.8-1.2.3-3-.5-4zM485.5 433.7c-1.1-8.1-3.6-15.7-5.4-23.7-.2-1-1-1.4-1.8-1.5.3-1 .2-2.3-.4-3.4l-.4-.8c-1-2-3.8-2-5.4-.7a71.7 71.7 0 0 1-26.6 15c-2.8 1-1.7 5.3 1.2 4.5 7.8-2.3 16.6-3.8 24-7.9-.3 3.6-.1 7.4 0 10.9-2.2.8-4.3 2.7-6.2 3.6-3.4 1.7-7 2.8-10.7 3.4-8 1.4-17.7 1.2-25.5-.7-2.5-.5-3.3 2.9-1 3.8 4.2 1.6 8 3.5 12.5 4.3a49 49 0 0 0 30.8-4.2 198 198 0 0 0 .3 19c-.9 4 4.5 6.1 7.4 4 1.5 4.2 9.2 4.1 9.1-1.6 0-8-.8-16-1.9-24zM451.2 456c-3.4-2-7 .5-10.7 1-4.5.5-8.6-.5-13-1.2-2-.2-3.9 2-2.1 3.7 3.6 3.3 8.8 4.8 13.7 5 4 0 11.1-.3 13.2-4.4a3 3 0 0 0-1.1-4zM437.6 476.2c-2-1.9-5.1-.5-7.7-.8-4.9-.5-10-1-14.6-2.8-1.7-.7-2.8 1.7-1.7 2.8 3.5 3.5 8.1 5 12.7 6.4 4 1.2 8 2.5 11.3-.5 1.4-1.3 1.4-3.9 0-5.1zM488.1 490c-.6-1.3-2.4-2.4-3.8-2.3l-.8.1c-1.6.2-2.7 1-3.3 2.5-.7 1.7 0 2.6.2 4.2 0 1.8-.6 3-1.6 4.6a23.3 23.3 0 0 1-7.5 7.4c-3 1.5-6.5.3-9.3-1-2.9-1.3-4.3-3.3-6.5-5.2-.7-.7-1.5-.7-2.3-.3l-.6.2c-1 .4-1.3 1.5-1.4 2.4-1.2 10 14.9 15.8 22.5 12.9 9-3.5 19.6-15.7 14.4-25.6zM493.6 514.7c-3.2 2.2-4.9 5.7-7.4 8.5-2.6 3-5.5 5.8-8.6 8.2-1.2 1-3 2.7-4.5 3-1.9.5-4.1-1-5.7-1.7-3.7-1.6-7.5-4-11.5-4.6-1.7-.2-3.1 1.3-2.2 3 2.3 4.3 7.3 7.3 11.5 9.7 4.7 2.7 8.7 3.7 13.6.8 4.2-2.5 8.2-5.8 11.7-9.3 3.2-3.3 8.3-8.2 9-13 .5-3.1-2.7-6.8-6-4.6zM352.6 481.2c-.5-4.3-3.7-8.4-2-12.6 1.6-4.6-5.9-7.8-8-3.4a14 14 0 0 0-.6 10.6c1 3.6 4.6 9.4-1.5 9.8H339c-.4-.6-1.1-1-2.1-1-.6 0-1 .1-1.5.3-.4 0-.8-.2-1.1-.4-1.4-.7-2.2-1.7-3.9-1.7-3.3-.2-6.5 3.3-8.3 5.8-.7 1 .3 2.8 1.6 2.7 2-.2 3.8-1 5.6-1.5 1 .8 1.9 1.9 3.1 2.5 1.9.8 4 1.2 6 1.4 4 .5 8.2 0 11.2-2.8 2.6-2.5 3.4-6.2 3-9.7z" fill="#E7EAF3"/>
  <path d="M373.2 468.4c-.7-3.7-1-7.6-1-12v-.1c0-.4-.2-.8-.5-1-.3-.3-.8-.4-1.1-.3-3.5.9-6 4-6.3 7.6a266.4 266.4 0 0 1-8 0 122 122 0 0 0-9.2.3c-.9-2.5-4.4-3.6-5.7-3.6-.4 0-.9 0-1.3.2-2 .7-3.3 2.7-3.3 5 0 2.5 1.6 4.4 4 5l.1 3.6c0 2.3 0 4.6.4 7a5 5 0 0 0-3.9 3.3l-.4-.1c-1 0-2.2 0-3.3-.2l-3.6-.2c-1.2 0-2.3.1-3.3.3-.8-2.9-3.9-5.6-8.5-5.7a1.2 1.2 0 0 0-1.3 1.3c0 3.4 0 7.5.3 11.7 0 .4.2.8.6 1a1.2 1.2 0 0 0 1.1 0c.4 0 .8-.2 1.1-.4 2.7-1.2 6-2.6 6.7-5.3h.2c.9-.3 2-.4 3.1-.4l3.4.2 3.5.2c.1 2.7 2 4.5 4.7 4.5 3.5 0 5.7-3.4 5.7-5.8 0-2.2-1.6-3.7-3.5-4.2a46 46 0 0 1-.5-7.2v-3.7c2-.6 3.3-2.5 3.7-4.1h.5l8.7-.2h8.3c.6 3 3.1 4.9 6.7 4.9h.8c.4-.1.7-.3 1-.6.1-.3.2-.6.1-1zm-53.5 20.1l-.2-8.4c3.2.5 5 2.8 5 4.5 0 1.7-2.5 2.9-4.8 4zm25.1-4c0 1.2-1.2 3.3-3.1 3.3-1 0-2.2-.4-2.2-2.2 0-1.2.5-2.6 1.7-3h1s2.6 0 2.6 2zm-2.7-17.4c-1.3 0-2.8-.7-2.8-2.6 0-1 .5-2.2 1.6-2.6h.5c.7 0 3.4.9 3.4 2.2 0 .5-1 3-2.7 3zm24.7-3.9a6 6 0 0 1 2.8-5c.1 3.2.4 6.3.9 9.2-1.9-.2-3.7-1.1-3.7-4.2z" fill="#181B2B"/>
  <path d="M569.5 323.7c-1.8-3.4-7-1.7-7 2-.1 3.3-3.9 4-6.8 3.7-.5 0-.8 0-1.1-.2-.3-1.4-1-2.6-2-3.6a6 6 0 0 0-.6-1.1c-2.3-3.7-7.2-4.8-10.3-1.7a4.2 4.2 0 0 0 .3 6.2l-7.1.6c-1.2 0-3.4.6-5 .6 1.3-3.1-.5-6.2-2.9-8.3-2-1.7-4.9-1-5.7 1.6-1.4 4-1.6 9.3 2.1 12.2 4.4 3.3 12 1.6 17 1.2 2.3-.2 5.8-.2 8.7-.8 3 1.8 6.5 1.6 9.8 1.2 6.4-.8 14.6-6 10.6-13.6z" fill="#72FFFF"/>
  <path d="M546.5 341c-3.6 0-4.4 3-4.2 6v4.5c-1.7 2.4-3.8 5.3-4 8.2-.3 3 2.6 5.2 5.5 4.7 3.6-.7 4.4-4.2 4.9-7.3.5-3.5.5-7 .5-10.4 1.5-2 .6-5.6-2.7-5.7z" fill="#E7EAF3"/>
  <path d="M579.4 352.2l-1.2-15.4c-.4-4.6 0-10.2-3.3-13.8-1.5-1.7-4.1-1-5.2.7-2 3-1.4 6.4-1.3 9.8l.2 3.4c-.9.2-1.7.8-2.3 1.5-2.5 3.3-1.8 8.4-1.8 12.4 0 2.4.3 5 .2 7.4-.2 2.8-1.1 3.2-3.5 4.6a85.1 85.1 0 0 0-14.5 10.8c-1 1-2 2.4-3.1 3.4-6.7-4-12.1-10.2-19-14-1-.6-2.4.6-1.7 1.7 2.6 4.2 6.1 7.9 9.9 11.3-.9.3-1.6 1.1-1.2 2.2 1.3 3.7 4.1 6.7 7 9.4 2.7 2.7 5.8 5.7 10 4.4 4.3-1.4 8.5-5.5 12.1-8l12.7-9.1c3.1-2.3 5.7-4.7 6.5-8.7.8-4.5-.2-9.5-.5-14z" fill="#E7EAF3"/>
  <path d="M572.3 320.3c0-.4-.1-.7-.4-1-.2-.2-.5-.3-.9-.3l-7.8.3c-.7 0-1.2.6-1.2 1.2v7.3c-2 .2-4 .2-6 .2h-1a28.7 28.7 0 0 1 0-4.1v-3.1c0-.4 0-.7-.3-1-.2-.1-.6-.3-1-.3l-12 .2a1.2 1.2 0 0 0-1.2 1.3 43 43 0 0 1 0 4.8v2c-2.6.3-5.4.4-8.5.5v-1.2-3.5l.1-2.6c0-.3-.1-.6-.4-.9-.2-.2-.5-.3-.9-.3h-11.7c-.3 0-.6 0-.9.3-.2.3-.3.6-.3 1a392.6 392.6 0 0 1-.9 40c0 .5.1.9.4 1.1l26.9 23.7c.2.2.5.3.8.3.3 0 .6-.1.8-.3 7.7-6.2 16.5-12.2 26.7-18.4.4-.2.7-.6.7-1-.5-14.9-1-30.7-1-46.2zm-27.1 63l-25.6-22.5a333.6 333.6 0 0 0 .8-38.5H529.6v7.3c0 .7.6 1.2 1.2 1.2 4.1 0 7.8-.2 11.2-.5a1.2 1.2 0 0 0 1.2-1.4l-.2-3.1v-1.6-1.7-.3l9.6-.1-.1 1.7v5.7c0 .6.6 1.1 1.3 1.1h2.2c2.4 0 5 0 7.4-.4.6 0 1.1-.6 1.1-1.2v-7.2l5.3-.2c0 14.9.5 30 1 44.2a242 242 0 0 0-25.6 17.5z" fill="#181B2B"/>
  <path d="M546.5 340.6c-3.3-.1-7 2.3-7 5.8 0 1.7.9 3.4 2.4 4.6l-1 1.7-1.5 3-1.6 4a75 75 0 0 1-1 2.8c-.2.4-.2.9 0 1.2.3.4.7.6 1.1.6h6.4l5.8-.1a1.3 1.3 0 0 0 1.2-1.7c-1-3.2-1.7-6.6-2.3-10a6.8 6.8 0 0 0 4.6-6.3c0-1.3-.4-2.4-1.1-3.4-1.5-2-4.3-2.1-6-2.2zm1 9.7c-.4 0-.7.2-1 .5l-.2 1c.6 3.2 1.2 6.6 2.1 9.9h-8.6c0-.4.2-.8.4-1.1l1.4-3.9 1.5-2.8 1.5-2.8c.3-.6 0-1.3-.5-1.6-1.3-.7-2.1-2-2.1-3.1 0-1.9 2.2-3.3 4.2-3.3h.2c1.7 0 3.3.2 4 1.2.5.5.7 1.2.7 1.9 0 1.8-1.5 4-3.6 4.1z" fill="#181B2B"/>
  <path d="M225.8 396.1l-.4.2c-.2 0-.3.1-.5.3-.3.2-.3.3-.1 0 .1 0 .2 0 0 0l-.2.1c-1.3.7-1.2 3 .2 3.6l.3.1-.3-.2.8.5h.4c.7.5 1.5.6 2.3.4 1.2-.4 2.1-1.6 2-2.8a2.8 2.8 0 1 0-4.5-2.1zM250.4 359.7c-5 1-9.4 3.3-14.2 4.4-2.9.6-8 .3-7.5 4.7a4.2 4.2 0 0 0 3.1 3.8c5 1.4 10.2-1.4 14.7-3.2 2-.7 5.3-2.6 7.4-2.3 3 .3 3 5 4.1 7.2.8 1.3 2.7 1 3.3-.1 2-3.2 1.8-7.8-.3-11-2.5-3.7-6.5-4.3-10.6-3.5z" fill="#E7EAF3"/>
  <path d="M224.3 391.7c1 1.7 3 2.7 4.5 3.9l2 1.5c.8.7 1.9 1.1 2.6 1.8 1.9 1.6 4.5-.6 3.3-2.7-.6-1-.8-2-1.4-2.8a26 26 0 0 0-2.1-2.6c-1.5-1.6-3.2-3.5-5.5-4-2.8-.6-4.8 2.5-3.4 5z" fill="#E7EAF3"/>
  <path fill-rule="evenodd" clip-rule="evenodd" d="M234.5 402.4c0 .6-.4 1.2-1 1.3l-7.6.6c-1.6 0-3.2.2-4.7.3-.7 0-1.3-.4-1.3-1.1l-.1-.8c-.2-4.8 2.5-8.2 5-9.1.2-1.8.3-3.7.2-6.2l-.2-3.1v-.6c-.2-1.7-.3-3.4-.3-5.2-1.4-.2-2.5-1-3.4-2-.4-.7-.7-1.4-.7-2.2-.1-2.7 2.2-6.8 6-7 2.5 0 4.2 2 5 4.1a48.3 48.3 0 0 1 6.6-.2h5.2c2.3-.2 4.3-.4 6-.8.3-3.2 3-5.5 6.6-5.6h.7c.6 0 1 .4 1.2 1 .3 1.4.4 3 .5 4.9v2.5l.1.6V377c0 .4 0 .7-.3 1-.3.2-.7.3-1 .3-3-.4-6.4-2.2-7.4-5.3-1.9.4-4 .6-6.3.7H238c-1.4 0-3 0-4.4.2h-1.9c-.2 2.4-2.1 4.2-4.7 4.7a83.8 83.8 0 0 0 .5 8.8 35 35 0 0 1-.2 6.1 10 10 0 0 1 7.2 9zm-12.2-.4l3.3-.2h.1l6-.4c-.8-3.8-4-5.7-5.6-5.6-1 0-3.7 2-3.8 6.2zm.8-27a3 3 0 0 0 2.7 1.1c1.7 0 3.5-1.1 3.4-2.8 0-1.2-1.2-3.5-2.6-3.4-2.2 0-3.8 2.6-3.7 4.3 0 .3.1.6.3.8zm32.7-1.1v1.5c-2-.7-4-2.2-4-4.4-.1-2.2 1.7-3.4 3.6-3.7a32.7 32.7 0 0 1 .4 6.6z" fill="#181B2B"/>
  <path d="M351 540l-2.6.8h-.7l-1.8.4c-2 .6-3.3 3-2 4.9 2.1 3.2 7.3 4 10.5 2 4.4-2.6 1.5-9.5-3.4-8.2z" fill="#E7EAF3"/>
  <path d="M347.3 546.1c-3.5 0-5.3-2.9-5.3-5.6 0-2 .8-3.7 2.3-4.8.7-.5 1.4-.7 2.3-.7 4.5 0 6.9 2.7 6.9 5.3 0 2.6-2.9 5.8-6.2 5.8zm-.7-8.6c-.3 0-.6 0-.8.2-.8.7-1.3 1.7-1.3 2.8 0 1.5 1 3.1 2.8 3.1 2 0 3.7-2 3.7-3.3 0-1.1-1.2-2.8-4.4-2.8z" fill="#181B2B"/>
  <path fill-rule="evenodd" clip-rule="evenodd" d="M352 697.7c1.9 3.1 4 6.6 2.4 9.9-.4 1-1.8 1.5-2.9 1.2-3.5-.9-4.7-4.8-5.8-8.3l-1-3c-1.4-3.3 4-5.7 5.6-2.6l1.7 2.8zm-12.5 9c2-.8 3.2-2.9 2.6-5-.3-1-1-1.8-2-2.3l-.5-.3c-.3 0-.5-.1-.7-.3-.3-.4-.4-1-.6-1.6a18.9 18.9 0 0 0-.4-1.6c-.2-1.2-.5-2.4-1.6-3.2-1-.8-2-1-3.2-.3-3 1.4-2.8 6.6-2.2 9.3.8 3.8 4.5 7.2 8.6 5.4zm-15.5-2.4l.1-.2c.6-1.1.7-2.7 0-3.8a8.5 8.5 0 0 0-1-1l-.3-1-.2-.7a24 24 0 0 1-.6-4.6c0-2.6-3.7-3.6-4.9-1.2-1.3 2.4-1.9 4.9-1.8 7.7 0 3.2 1 5.6 4.1 6.8 1.7.6 3.9-.5 4.6-2z" fill="#E7EAF3"/>
  <path fill-rule="evenodd" clip-rule="evenodd" d="M347.5 698.2v-3.3-1a307.3 307.3 0 0 1-.1-3.9 1.3 1.3 0 0 1 2.1-.9c2 2 4 4 6.3 6.6.5.5.4 1.3 0 1.7a80.3 80.3 0 0 0-5.1 5.4l-.8.9c-.3.3-.9.5-1.4.3-.4-.2-.8-.6-.8-1l-.2-4.8zm2.4-5v.6a248.3 248.3 0 0 0 .1 6c1-1.2 2-2.3 3.1-3.3L350 693zM333.2 688.8c0-.4.2-.9.6-1.1.5-.3 1-.2 1.4.2 2.2 1.9 4.2 4 6.1 6l.6.6.8 1c.5.4.5 1.2 0 1.7-2 2-3.9 4-5.7 6.1l-.2.2-.6.8c-.3.3-.9.5-1.4.3-.4-.1-.8-.6-.8-1l-.3-5.8c0-3-.2-6-.5-8.8v-.1zm6.9 7.5l-.3-.4a27 27 0 0 1-.3-.3l-.5-.5-3-3.1.3 5.7v2.6c1.2-1.4 2.5-2.8 3.8-4zM319.7 700.4v3.2c0 .5.3 1 .8 1.1.4.2 1 .1 1.3-.2l.4-.3c2-2 4-3.9 5.8-6 .4-.4.4-1.1 0-1.6a160.5 160.5 0 0 0-6.2-6.6c-.4-.4-1-.6-1.4-.4-.5.2-.9.7-.8 1.2v9.6zm2.5 0V694l.6.6.5.6 2 2.1a73 73 0 0 1-3.1 3.3v-.2-.1z" fill="#181B2B"/>
  <path d="M359 411.7h-4.4l-3.8-.1a1.3 1.3 0 0 1-.9-2.2c2-1.8 4.1-3.8 6.8-6 .5-.5 1.3-.5 1.7 0 1.6 1.8 3.5 3.6 5.3 5.2l.8.8c.4.4.5.9.3 1.4-.2.4-.6.8-1.1.8H359zm-5-2.6h6.6l-3.2-3.1-3.4 3.1zM349.3 425.8c-.5 0-1-.3-1.2-.7-.2-.5-.1-1 .2-1.5l6.2-5.9 1.6-1.4c.5-.4 1.3-.4 1.7.1 2 2.1 4.1 4.1 6.2 6l.7.7c.4.4.5.9.4 1.4-.2.4-.6.8-1.1.8l-5.8.1c-2.9 0-5.9 0-8.8.3h-.1zm7.5-6.8l-.6.6-3.7 3.4 5.7-.1h2.6a85.7 85.7 0 0 1-4-3.9zM363.7 439.6h-3.2l-9.4-.2h-.2a1.3 1.3 0 0 1-.8-2.2 126.5 126.5 0 0 0 6.8-6c.4-.5 1.2-.5 1.6 0 2 1.8 4 4 5.8 6l.3.3a1.3 1.3 0 0 1-1 2.1zm-9.5-2.7l6.3.1h.3c-1-1-2-2.2-3.2-3.2l-2.2 2-1.2 1.1z" fill="#181B2B"/>
  <path d="M208.1 491.6c-1.7 0-3.8.3-5.9 1-.4-1.1-1.6-1.9-3-1-2.6 1.8-4.7 4-6.8 6.4-1.8 2-.7 5.6 2.2 5.5 4.8-.3 6.9 4.8 3.5 7.6l-1 .7c-3.8 2.5-.5 8.3 3.5 6.1a12 12 0 0 0 2-1.4c3.5-2.5 6.3-6 6.3-10.5 0-2.2-.7-4.6-2.3-6.3 0-.2-.2-.3-.4-.6a9 9 0 0 1 2-.2c4.6-.2 4.7-7.2 0-7.3z" fill="#72FFFF"/>
  <path d="M221.3 506.8c-.5-2.9-2.5-6.7-5.2-8.2l-.1-.1.4-1.3c.2-1 .2-2.3-.4-3.3-1.4-2.1-4.3-1.8-6-.5a6.8 6.8 0 0 0-2.2 8.3c1.1 2.5 4.5 3.7 5.5 6.2-3 2.5-6.8 4.5-9.9 6.8-3.4 2.5-7 5.1-9.7 8.6-1 1.4-.1 4.2 2 3.4 8-2.7 15.4-8.2 22.3-12.8 2.8-1.8 4-3.8 3.3-7.1z" fill="#E7EAF3"/>
  <path d="M193.2 524.1c-.2 0-.5 0-.7-.2-.4-.3-.6-.8-.5-1.3l.8-3.9c1-4 2-8.2 2.7-12.4l-1.4-.2c-2.3-.4-4.6-.7-7-.9-.4 0-.9-.3-1-.8-.2-.5 0-1 .3-1.3 4-4 7.4-8.6 10.3-12.6.2-.3.6-.5 1-.5 3 0 6 .2 9 .4l7.2.3c.4 0 .9.2 1 .6.3.4.3.9 0 1.3a226.4 226.4 0 0 0-6 11c2.9 1.2 5.8 2.3 8.7 3.2a1.3 1.3 0 0 1 .2 2.3 452 452 0 0 1-5.8 3.4 168.2 168.2 0 0 0-18.8 11.6zM190 503l4.5.6 2.6.4c.3 0 .6.2.8.5.2.3.3.6.2 1-.7 4.6-1.8 9.3-2.8 13.8l-.1.6a199.7 199.7 0 0 1 19-11.6c-2.6-.9-5-2-7.6-3.1-.3-.2-.5-.4-.6-.8-.1-.3 0-.7.1-1 1.4-2.3 2.8-4.8 4-7.2l1.7-3-5.3-.4c-2.7-.1-5.4-.3-8.2-.3-2.3 3.3-5.1 7-8.3 10.5z" fill="#181B2B"/>
  <path d="M604.3 200.2a4.7 4.7 0 0 0-5.5-.7l-.4.2c-1.6 1-2 2.6-1.8 4.2.3 2.1 1 3.2 1 5.5a33 33 0 0 1-1.3 8c-1.6 5-5.3 7.5-10.2 5-1.4-.7-3.6 0-3.4 2 1 9.5 13.4 8 18.4 2.7 3.4-3.7 4.7-8.7 5.4-13.6.6-4.4 1.5-10-2.2-13.3z" fill="#E7EAF3"/>
  <path fill-rule="evenodd" clip-rule="evenodd" d="M583.1 211.5c0-4.7 2.3-7.3 4.8-8.6h.3c.2 0 .5-.2.6-.4a11 11 0 0 1 1.8-.6c.1 2.8.4 5.6.7 8.4v.2c.4 3 .7 6.2.7 9.3 0 2-.1 3.7-.4 5.4-4.3-.8-8.5-5.5-8.5-13.7zm9.8 16.3c5-.1 8-2.7 9.6-6.3l1.6 1c.6.5 1.2 1 1.9 1.3a1.3 1.3 0 0 0 1-2.3c-.5-.2-1-.6-1.4-1-.6-.4-1.3-1-2.2-1.3a20.9 20.9 0 0 0 .5-8.2h.2l2.6-1.2.7-.4.2-.1a1.3 1.3 0 0 0-1-2.3l-.7.4a19.8 19.8 0 0 1-2.5 1.1 15 15 0 0 0-1.6-3.8c.3 0 .5-.1.7-.3.9-.9 1.5-1.9 2-3 .2-.7 0-1.4-.7-1.7-.7-.3-1.4 0-1.6.7-.4.9-.8 1.6-1.5 2.2l-.2.3c-.6-.7-1.4-1.4-2.2-2-.7-.5-1.4-.9-2.2-1.2 0-3.3-4-4.7-5.4-4.7-2 0-4.1 1.7-4.1 5.6v.2c-1 .6-2 1.3-2.8 2.2-.7 0-1.6-.6-2.2-1.3a1.3 1.3 0 0 0-2 1.5c.7 1 1.6 1.6 2.5 2-.9 1.6-1.5 3.6-1.5 6.1h-.5-.2l-.9.1c-.5 0-.9 0-1.3-.2-.6-.3-1.3 0-1.6.6-.3.7 0 1.4.7 1.7.6.3 1.4.4 2.2.4h1.7c.4 3.6 1.5 6.5 3 8.8-.4.6-1 1-1.7 1.6l-1.7 1.4c-.5.5-.5 1.3 0 1.8l.9.3.9-.3c.4-.5.9-.8 1.4-1.2l2-1.7c2 2 4.4 3 6.8 3.1h.6zm1.2-2.7c.3-1.6.4-3.4.4-5.3 0-3.2-.3-6.5-.7-9.6v-.2c-.3-2.7-.6-5.5-.7-8.2a7.7 7.7 0 0 1 1.5.1c.8.2 1.6.6 2.2 1 3 2.2 4.8 6 4.8 10.7 0 6.8-2.7 10.9-7.5 11.6zm-3.4-27.6c.4 0 2.3.6 2.8 1.7h-.7c-1.2 0-2.4.2-3.7.5.2-1.5 1-2.2 1.6-2.2z" fill="#181B2B"/>
  <path d="M240.6 634c-2-3.5-7.6-4.6-9.5-.3-1 2.2-.6 4.3 1.2 5.8-1.4-1.1-.6-1-2.5-1.4l-3.3-.9-7-2.4c-1-.4-2.6-.6-3.5-1.3-1.6-1.1 1 .5-.7-1.2-1-1-2.3-1.6-3.8-1.7-6.7-.2-11.5 9-10.8 14.8.2 1.8 2.5 2.1 3.2.4l.5-1a4.9 4.9 0 0 0 4 2.8c2.7.2 5.6-.4 8.3-.4 3.2 0 6.3.3 9.4.6 4.4.3 10 1.4 13.7-1.9 3.4-3 3-8.2.8-11.9z" fill="#72FFFF"/>
  <path d="M249 632.5c-2.8-4.8-8.3-6.3-13.3-7.9 1-1.4 2.2-2.8 2.8-4.7.8-2.7.4-5.3-.5-8-.2-.4-.6-.7-1-.9v-.3c-.1-5.9-3.3-12.8-8.6-15.5-1.9-1-3.6 1.3-2.2 3 2 2.2 2.5 5.7 3 8.6.8 4.2-.6 5.9-2.2 9.5-1.7 3.7-3.4 11.3 1.3 13.4 1 .5 2.5.6 3.4-.3 3.6 1.8 8.3 2.6 11 5.9 2.8 3.4-1.4 9 .2 13.1.6 1.6 2.6 2.4 3.9 1 3.4-3.5 4.7-12.4 2.1-16.9z" fill="#E7EAF3"/>
  <path fill-rule="evenodd" clip-rule="evenodd" d="M240.2 650a1.3 1.3 0 1 0 2.5 0c0-1.8.4-3.7.9-5.5v-.1c.4-1.8.8-3.4.8-5 0-7.8-5.6-9.4-9.7-10.6-3.6-1-5.1-1.6-5.1-3.7 0-1.8.7-2.2 2-3 2.2-1.4 5.1-3.2 5.1-10.7 0-5.1-2-18.4-11.6-18.4-8.4 0-17.5 6-17.5 15.7a16 16 0 0 0 6.3 13c1.7 1.5 2.6 2.4 2.6 3.6 0 3.4-2.1 4-6.2 4.7-4.8 1-11.3 2.2-11.3 12.3v2.5a68.9 68.9 0 0 1 0 3.3c0 .6.6 1.2 1.3 1.3.7 0 1.3-.5 1.3-1.2V647v-2.3-2.5c0-8 4.4-8.9 9.1-9.8l3.6-.8c1 3.8 5.3 5.8 9.2 5.8 4.8 0 8.6-4.3 9.6-6.5l1 .3c4 1.1 7.8 2.2 7.8 8 0 1.4-.3 2.9-.7 4.5v.1c-.5 2-1 4-1 6.1zm-9.4-19.8c-2.1-1-3.7-2.3-3.7-5.1 0-3.2 1.7-4.3 3.3-5.2 1.8-1.1 3.7-2.3 3.8-8l-1-.8c-2.7-2.3-11.1-9-18.4-9-1 0-1.6.2-2.3.7-.3.3-.7.4-1 .3-1 1.6-1.4 3.5-1.4 5.6 0 6.2 3 8.8 5.5 11.2 1.8 1.6 3.4 3 3.4 5.4 0 2.6-1 4.2-2.4 5.2.6 3.1 4.3 4.5 7 4.5 3.6 0 6.5-3.6 7.2-4.8zm-16.5-30.7h.5c7.5 0 15.8 6.2 19.3 9-.7-5-2.9-13-9-13-3.4 0-7.7 1.3-10.8 4zm1.6 52.3l-1.4-.1a1.3 1.3 0 0 1 .3-2.5h1.1c1 0 2.2-.1 3.3-.4 1.2-.2 2.5-.5 3.9-.5h4.7c2.4-.2 5-.3 7.2-.2a1.3 1.3 0 1 1-.2 2.5l-7 .1-4.7.2c-1.2 0-2.3.2-3.4.4h-.2c-1.2.3-2.3.5-3.6.5z" fill="#181B2B"/>
  <path d="M718.6 353.1c-3-3.4-1.8-8.7-1.7-13 0-4.5-.3-9.5 1.5-13.6.5-1.3 2.6-1.2 3.1 0 2 4 1.8 9.1 2 13.6.4 4.4 1.8 9.4-1.1 13-1 1-2.9 1-3.8 0zM718.3 377.3a3.5 3.5 0 0 1-2.5-3.3c-.1-4.5.8-9 1-13.4-.4.4-.9.8-1.4 1-3.3 1.2-7.3.2-10.8-.2-3.9-.5-7.7-1.4-11.6-1.7-2.8-.3-3-4.5 0-4.4 4.1 0 8.3-.4 12.5-.4 3.7 0 7.3-.5 10.6 1.2 1 .4 1.5 1.3 1.5 2.1 1.3-1 3.6-.3 3.7 1.8.3 5 2 9.8 1.2 14.9-.2 1.5-2 2.4-3.3 2.5l-1-.1z" fill="#E7EAF3"/>
  <path fill-rule="evenodd" clip-rule="evenodd" d="M694.8 357a5.5 5.5 0 0 0-4.6-2.3c-1.5 0-3 .6-4.1 1.5-.7.7-1.1 1.5-1.1 2.5 0 2.4 2.3 6 5.8 6 2.3 0 4.7-2.1 4.7-5.2v-.2a146.8 146.8 0 0 0 16.3-.2l4.4-.2a6.2 6.2 0 0 0 4.2 4.5 295 295 0 0 0 .1 7.3v9.1a7.3 7.3 0 0 0-4.8 6.7c0 .8.5 1.3 1.2 1.3h.1c3.2.2 6.5.3 9.6 1 .6 0 1.3-.4 1.4-1 .2-.8.2-1.4.2-2 0-3.9-2.5-6-5.2-6.3a142.8 142.8 0 0 0 0-10.4l-.1-5.7a6 6 0 0 0 3.8-5.6c0-2.7-2.2-5-5-5.1.6-3.6.8-7.4.8-12l-.1-7.5v-.5l-.1-2.4c4.3-.7 5-6 5.4-8.7v-.1c0-.3-.1-.6-.3-.8-.2-.3-.5-.5-.9-.5a195 195 0 0 0-7.3-.2H717c-.6 0-1.2.4-1.3 1l-.2 1.9c0 3 1.5 6.4 4.3 7.3v3.1l.2 7.5a75.3 75.3 0 0 1-.9 12.4 5.3 5.3 0 0 0-2.8 3.2 951.5 951.5 0 0 0-16.5.5 141 141 0 0 1-5 .1zm-7.3 1.7c0-.4.2-.5.2-.6.7-.6 1.6-.9 2.5-.9 1.3 0 2.8.9 2.8 2.3 0 1.8-1.4 2.8-2.2 2.8-1.9 0-3.3-2.4-3.3-3.6zm30.6-36.2h2.2l4.7.2c-.7 3.7-1.8 5.2-3.7 5.2-2.1 0-3.3-2.8-3.2-5.4zm.5 35.3c0-.4.1-.9.4-1.2.5-1 1.4-1.4 2.5-1.4 1.5 0 2.7 1.1 2.7 2.6 0 2-1.8 3.3-2.5 3.3-1.2 0-3-1.5-3-3.3zm3.8 24.2c-2 0-3.5 1.6-4 3.4 2.4.1 4.9.2 7.3.6.1-2.8-1.6-4-3.3-4zM485.4 574.2a1.3 1.3 0 0 0 1.5.9c.7-.2 1-.9.9-1.6-.3-1.2-.5-2.4-.6-3.7 1.9 0 4-.1 6.3-.4a1.3 1.3 0 0 0-.4-2.5c-2.1.3-4.2.4-6.1.4v-4a1.3 1.3 0 1 0-2.6 0v4H481.3a1.3 1.3 0 1 0 0 2.5h3.3c.2 1.5.4 3 .8 4.4zM425.7 537.7v-.1c-.5-10.3-2.5-12.5-4.2-12.5-3.3 0-6.6 3.4-6.6 10.8v1.7h2.8a309.8 309.8 0 0 0 8 .1zm-13.3-.2V536c0-9.2 4.6-13.3 9.1-13.3 6 0 6.5 10.8 6.7 14.9v.2c1.9 0 3.6-.2 5.2-.3.3 0 .6 0 .9.3.3.2.4.5.4.9l.2 3.8.1 2a263.3 263.3 0 0 1 .5 17c0 .7-.5 1.2-1.2 1.2l-10 .2h-.5l-11.5.2h-2c-.7 0-1.2-.5-1.3-1.1a306.6 306.6 0 0 1-1.4-23c0-.4.1-.7.3-1l1-.4h3.5zm-1 23a430.6 430.6 0 0 0 21.7-.4 38 38 0 0 1 0-1.1c0-4.7-.3-9.4-.5-14v-.5l-.3-4.5a101.6 101.6 0 0 1-14.6.2h-.7l-6.9-.1c.2 5.5.6 11.2 1 16.7v.1l.4 3.6zm11.6-2.2c-.5 0-1-.3-1.2-.8-.3-.8-.4-1.7-.5-2.5 0-.8-.1-1.5-.4-2l-.4-.2c-1-.3-3.3-.9-3.3-3.7 0-3.7 3.2-5.2 5-5.2h1.3c2.6 0 4.3 1.5 4.3 3.8 0 2.5-1.9 4.7-4.2 5.3a10.7 10.7 0 0 1 .2 1.6v.1c0 .7.1 1.4.3 1.8.3.7 0 1.4-.7 1.7a1 1 0 0 1-.4 0zm-1-7.7c1.7.2 3.3-1.3 3.3-2.9 0-.9-.6-1.3-1.8-1.3H422.2s-2.5.3-2.5 2.7c0 .8.3 1 1.4 1.3a8.4 8.4 0 0 1 .9.2z" fill="#181B2B"/>
  <path d="M670.4 277.1c-2-1-3.9.3-4 2.3-.2 1.8.9 2.7 1 4.3 0 2.9-1.8 2-3.8 1.2-1.9-.7-4.2 1.2-4 3.1 0 .5.1 2.2-.5 2.4-.2.1-1.4-1-1.6-1.1-1-.6-2-1.2-3.2-1.4-1-.1-2.2 0-3.2.5-.5.2-1 .6-1.5 1l-.4.4c-1.3-2-1.2-4-3.9-4.6-1.9-.3-3.5.5-4.6 2-1 1.3.7 3.1 1.8 1.8.8-1 1.6 2.4 1.6 2.4.2.7.2 1.4.6 2.1a4.8 4.8 0 0 0 2.9 2.6c1.1.4 2.3.3 3.4-.2 1.7-.8 1.7-1.9 3.4-1.3 2.9 1 4.2 3.4 7.6 1.8 2-.9 3-2.5 3.6-4.3 3.1.4 6.2-.5 7.7-3.8 1.8-3.7.7-9.1-3-11.2z" fill="#E7EAF3"/>
  <path d="M666.7 268.9c-1.3-4-6.5-3.8-8 0-.3.8-.3 2.2-.5 2.7v.4c-.5-.2-1.4 0-1.8 0-1.1.1-1.6.5-2.6.8a1.7 1.7 0 0 0 0 3.3l.2.1c.1.3.4.5.6.7.5.6 1.2 1.1 1.9 1.6 1.6 1 3.6 1.2 5.3.6 3.9-1.4 6.2-6.4 5-10.2z" fill="#E7EAF3"/>
  <path fill-rule="evenodd" clip-rule="evenodd" d="M659 294c.3.3.6.5 1 .5h.2c.5-.2.8-.6.9-1l.7-3.3v-.3l.7-3.5c2.3.7 4.6 1.3 7 1.8.4 0 .8 0 1.1-.4.3-.4.4-.9.2-1.3l-2.5-6.6c2 0 3.9-.1 5.5-.3a1.3 1.3 0 0 0 .6-2.3c-2.7-2-4.7-4-6.1-6.3a1.3 1.3 0 1 0-2.1 1.4 26 26 0 0 0 4.3 5h-3.9c-.4 0-.8.2-1 .5-.2.3-.3.7-.2 1.1l2.2 6.2-5.5-1.5h-.2a1.3 1.3 0 0 0-1.6 1l-.8 4.2-.1.5v.2l-.3 1.1-2-2-.5-.4-2.9-2.7c-.5-.5-1.2-.5-1.7 0l-4.2 4.3-.1-6.2a1.2 1.2 0 0 0-1.5-1.2c-2.4.4-4.8 1-7 1.6a85 85 0 0 0 3.7-5.9c.2-.3.2-.8 0-1.2-.1-.3-.5-.6-.9-.6-1.7-.3-3.5-.5-5.3-1l5.2-4.5c.6-.4.7-1.1.3-1.7l-3-4.8 5.6 2.2 1.3.5a1.3 1.3 0 0 0 1.7-1l.4-3.5 1-7a1.3 1.3 0 0 0-2.4-.6 64 64 0 0 0-1 7v.5l-.3 1.7a94.6 94.6 0 0 0-8.7-3.2c-.5-.1-1 0-1.4.4-.3.4-.3 1 0 1.4 1.2 2.2 2.6 4.6 4.1 6.9-2.1 1.7-4.1 3.6-6 5.4l-.1.1a1.2 1.2 0 0 0 .5 2.1c2 .6 4 1 6 1.3l-3.9 5.6-.8 1c-.3.5-.3 1 0 1.5.3.4.8.6 1.3.5l2.8-.6.3-.1 5.6-1.3.1 3.4v1.7l.1 2.7a1.2 1.2 0 0 0 2.2.8c1.7-2 3.6-3.9 5.3-5.6a200.3 200.3 0 0 0 6.1 5.9zm-7.8-24.3c0 3.5 3.1 6 5.8 6 2.8 0 5.6-2.8 5.6-5.5 0-3-3.5-5.5-6.4-5.5-.6 0-1.2 0-1.8.3a5 5 0 0 0-3.2 4.7zm4-2.4l1-.1c1.7 0 4 1.5 4 3 0 1.4-2 3-3.2 3a3.6 3.6 0 0 1-3.2-3.5c0-.9.4-2 1.5-2.4zM475.6 447.4l.6 11.5-2.6.1c-6.8.3-13.8.6-20.7 1.2a1.3 1.3 0 0 0-1.1 1.4l.1 1.8c0 7.7-11 10-15.8 10.5-.6 0-1 .6-1.1 1.2v3.8l-.1 6c-20-1.8-34.3-7.6-42.6-17.2a1384.8 1384.8 0 0 1 1.3-23c9.6 8.5 24 12.8 42.5 12.8l5.8-.1a1.3 1.3 0 1 0-.1-2.5l-5.7.1c-19 0-33.2-4.6-42.3-13.6l.6-18.5c10.9 8.3 25.5 12.1 45.5 12.1 14 0 22.8 0 36.3-10.4a92.2 92.2 0 0 0-.8 19.7c-5 4.2-11.3 7-18 8.3a1.3 1.3 0 1 0 .4 2.5 44 44 0 0 0 17.8-7.7zm1-26.4c.5-3.2.8-6.5.8-9.6 0-3.4-.4-6.5-1.3-9.3-7.8 12-22.3 17.8-44.2 17.8-18.2 0-32-6.3-37.4-17-.4.8-.6 1.7-.6 2.6 0 0 .4 6.4.5 14.2 10.6 8.8 25.1 12.8 45.5 12.8 14.2 0 22.8 0 36.7-11.5zm-84.8-.7c0-8-.4-14.6-.4-14.7a10.5 10.5 0 0 1 2.3-6.4c5.4-7.3 18.9-11.4 25.4-13.4l1-.4a1.3 1.3 0 1 1 .8 2.4l-1 .4c-5.7 1.7-18.8 5.8-23.9 12 2 4.8 9.8 17.2 36 17.2 21.8 0 35.9-6 42.9-18.2-4.5-9.2-15.2-13.9-31.7-13.9-7 0-14 .8-20.2 1.5h-.1a1.3 1.3 0 1 1-.3-2.5c6.3-.7 13.4-1.5 20.6-1.5 17.7 0 29.3 5.4 34.1 15.7l.2.5c1.6 3.5 2.4 7.7 2.4 12.4 0 4.2-.6 8.5-1.1 12.8a95.7 95.7 0 0 0-.8 20.7c.2 4.9.5 10.7.8 13.9l8.2-.4a1.3 1.3 0 0 1 1.3 1.4l-.1 1.5c0 6.7 4.7 11.2 12.3 11.7.6 0 1 .5 1.1 1.1.3 3.2.6 6.9.6 10.5 0 21.4-15.8 41.1-29.3 51.4-.2.2-.4.3-.7.3l-.5-.1c-16.1-7.5-26.7-13.8-32.2-25.6h-2.6c-21.6 0-47.5-6-47.5-34.3a172.7 172.7 0 0 1 .3-8.4l.6-9.6v-.5a1555.5 1555.5 0 0 0 1-16c.3-7.3.5-14.7.5-21.3v-.2zm.3 50.9c9 9 23.4 14.5 42.8 16.3a61 61 0 0 0 3.5 20.6h-1.5c-29.8 0-45-10.7-45-31.8l.2-5.1zm45.4 7.7v-2.7c5.8-.8 17-3.6 17-12.8l-.1-.8c6.5-.5 13-.8 19.3-1l12-.6v.3c0 7.7 5.3 13.1 13.5 14.1a54 54 0 0 1-9.8 39.3 85.5 85.5 0 0 1-17.4 18.9c-24-11.3-34.6-19.5-34.6-48.7a251.8 251.8 0 0 1 0-6zm8 15.3a23 23 0 0 0 23.1 23.3c10.7 0 21.6-8.2 21.6-23.8 0-1.8-.2-3.5-.6-5.2-2.2-9-8.7-15.4-16.6-16.5-1-.2-2.2-.3-3.2-.3-6 0-12.2 2.4-16.8 6.5-4.9 4.3-7.6 10-7.6 16zm2.4 0c0-11.7 11.5-20 21.9-20 1 0 1.9.1 2.8.3 7 1 12.7 6.7 14.6 14.6.3 1.5.5 3 .5 4.6 0 14-9.6 21.3-19 21.3a20.5 20.5 0 0 1-20.8-20.8zm18.7 11.5c-.3 0-.6-.1-.8-.3-1.5-1.1-2.9-2.4-4.2-3.5a123 123 0 0 0-7-5.7c-.5-.4-.6-1.2-.2-1.7.4-.6 1.2-.7 1.8-.3 2.4 1.8 4.7 3.8 7 5.7l.4.4 1.3 1 1.5 1.4c4.1-5.1 8.9-10.8 13.8-16.1.5-.6 1.3-.6 1.8-.1s.5 1.3 0 1.8a336.5 336.5 0 0 0-14.5 17c-.2.2-.6.4-1 .4zm-66.3-66.3c0 1.8 1.3 3.1 2.8 3.1 1.7 0 3-1.6 3-3 0-1.3-1.1-2.4-2.5-2.3-.4-.6-1-.8-1.6-.5a3 3 0 0 0-1.7 2.7zm2.8.6l-.2-.2a3.4 3.4 0 0 1 .6-.1c-.1.2-.3.3-.4.3zm12.3 6.3c-.5 0-.9-.3-1.1-.4h-.1c-1.3-.1-1.8-1.8-1.8-2.6 0-.6.3-1.2.5-1.6v-.2l.2-.4a1.3 1.3 0 0 1 2.5.3c.8 0 1.3.3 1.6.6.3.4.6 1 .6 1.5 0 1.3-1 2.8-2.4 2.8zm13-.3c0 1.4 1.1 3 2.7 3 1.4 0 2.6-1.2 2.6-2.7 0-1.2-.7-1.8-2-1.8l-.2-.1c-.2-.5-.6-.8-1.2-.8s-1.1.5-1.2 1.1v.1c-.3.2-.6.6-.6 1.2zM400.2 466c-1.4 0-2.4-1.1-2.4-2.7 0-1 .4-2.3 1-3a1.3 1.3 0 0 1 2.3.6c.9.4 1.8 1.5 1.8 2.6 0 1.4-1.2 2.5-2.7 2.5zm10.6 1.4c0 1.7 1 2.8 2.7 2.8 1.2 0 2.2-1 2.2-2.4a3 3 0 0 0-2.2-2.9c-.4 0-.7 0-1 .2a2.4 2.4 0 0 0-1.7 2.3zm15 7c-1.2 0-2.3-.8-2.3-1.9v-.2-.6c0-.4.1-.7.3-1 0-.4 0-.7.3-1 .7-.7 1.6-1.1 2.5-1.1 1.4 0 2.5 1 2.5 2.3 0 1.4-.6 2.2-1 2.7-.6.5-1.4.8-2.2.8zm.5-3c0 .2 0 .3-.2.4h.2c.2-.2.2-.4.3-.7a.5.5 0 0 0-.2 0l-.1.4z" fill="#181B2B"/>
  <path d="M662 412.5c-3.4-1.4-7.8.2-11.3.8a255.6 255.6 0 0 0-13.5 2.9l-.3-.8-.6-.8-1-.8c-1-.5-2.6-.3-3 .8l-.4.8-.1 1c0 .6 0 1.3.4 1.9.6 1 2 1.6 3 1.2.5-.1 1-.4 1.3-.7.3-.3.5-.7.7-1.2.1.2.4.3.7.3 4.4 0 8.9 0 13.3-.2 3.7-.2 8.2.4 11.2-1.7 1.5-1 1.1-2.9-.4-3.5z" fill="#72FFFF"/>
  <path d="M633 401.5c-.7-1.7-2.9-2.6-4.5-1.6a9.1 9.1 0 0 1-6 1.3c-1.3-.2-2.4 1.3-1.4 2.4a7.8 7.8 0 0 0 4.3 2.6c1.9.4 3.8.2 5.6-.4 1.8-.7 2.8-2.5 2-4.3zM668.6 412a24.1 24.1 0 0 1-2-13.4c.4-7 .1-14.2-6.4-18.2-1.6-1-3.2 1.2-2 2.6 3.5 4 2.6 9.5 1.6 14.7-.7-.2-1.4-.2-2.3 0-1 .4-4.4 2.3-5.7 1-1.6-1.3-3.6 0-3.5 1.7h-.6c-2 .2-3.2 1-4.6 2.4a10.2 10.2 0 0 1-4 2.8c-2.4.8-1.4 4.5 1 3.8 3.8-1.1 9.2-2 9.8-6.7 1 1.2 2 2.2 3.7 3 1.7.6 3.5.8 5.2.4.2 3.8 1.8 7.2 3.1 10.7-1.8 0-3.6.4-5.4.6-2.8.3-5.6.5-8.5.4-2 0-2.5 3.2-.5 3.6 4.8 1 11.4 3 16.3 1.3l.1.4c.7 3.7 6.5 3.6 7.2 0 1-4-.7-7.6-2.5-11.1zM661 432.7c-2.5-2-5.2-1.9-8.2-2.2-2.4-.2-3.8-.3-5.3-2.2-.8-1-2.8-1-3.5 0-2.3 2.8-.8 6.2 1.9 8-1.2.4-2.3 1-3.5 1.5-1.2.5-2.5 1-3.8 1.3-.7.2-1.3.2-2 .2-.6 0-1.7-.3-1 0-1.4-.4-2.6.5-3 1.7-1.7 4.3 5.3 5.7 8 5.5 4.1-.4 11-2.3 12-7v-1.3h.1c2.2.4 4.5 1.2 6.7.4 2.1-.9 3.8-4 1.5-6z" fill="#E7EAF3"/>
  <path d="M685 428.4c-.2-1.6-1.2-3.5-3-3.9-5.1-1-5 5-7.3 8-2 2.7-3 3.3-6.2 3.8-3 .5-5.6 1.8-8.5 2.6-2.2.7-1.2 3.6.9 3.3 5.5-.8 11.4 2.3 16.4-1 4.1-2.8 8.2-7.6 7.6-12.8z" fill="#E7EAF3"/>
  <path fill-rule="evenodd" clip-rule="evenodd" d="M647.6 389.8c-.4 0-.7-.1-1-.4l-.8-.1h-.5c-2.6 0-3.5-1.6-3.5-3.1 0-1.2.5-2.3 1.4-2.9.3-.2.6-.3.9-.2 2.4.3 5 2 5 4.4 0 .5-.1 1-.4 1.6-.2.4-.7.7-1.1.7zm-1.8-3h.5a4 4 0 0 0-1.9-1.1l-.1.5c0 .2 0 .5 1 .5h.5z" fill="#181B2B"/>
  <path fill-rule="evenodd" clip-rule="evenodd" d="M632.2 407.5c-3-.5-5.7-2.7-7.4-5.8a10 10 0 0 1-4.7 1.4c-6.9 0-9.1-8.7-9.1-11.7 0-4.4 3-5.2 6.7-6.1a39 39 0 0 0 6-2 3 3 0 0 1 1.5 0h.3c1.1 0 8.6-2.2 22.1-6.4l3-.9c8.6 0 13.6 5.6 13.6 14.9 0 3.8-.3 7.8-4.3 9.2.4 12.6 4.5 19.9 5.9 20.1h.4l.8.1c1 .1 1.9.4 2.7 1 1.8 1 2.6 3 3.2 4.3l.3.7h.1l1-.4 4-1.6c.5-.2 1-.1 1.3.2.4.3.5.8.4 1.2-.9 3.9-2.3 8.2-6.1 10.8l-.1.1c-.6 3.5-2.8 5.5-6.2 6v-.1c-2.3.3-12.9.8-13 .8-1.4 0-2.4-1-2.4-2.5 0-1.4.8-2.2 1.8-2.7l-4.4.1H647a70 70 0 0 0-3.8.1c-.7 3-1.7 5-3.5 5-1.4 0-3.5-1.4-4.5-4.7-.9 3.1-2 5.3-4 5.3s-2.8-3-2.8-4.2v-1a44.7 44.7 0 0 1 0-2.1c0-1.9 1-8.8 2.3-16.5a5.4 5.4 0 0 1-1.8-4.2c0-1.5.5-2.8 1.5-3.8.4-.5 1-.9 1.8-1.1v-1.2-1.2-1zm41.7 25.7c1.5-1.5 2.4-3.5 3-5.6l-1.8.7-1.4.5.2 4.4zm-16.3-.3l.3 2.2c-2.8.6-5.7.6-8.3.6h-5.9a111.2 111.2 0 0 0 .6-5l.2-1.4a1.3 1.3 0 1 0-2.5-.4l-.2 2.1c-.3 2.2-1 8.8-2.2 9.7-.5 0-2.4-1.4-2.4-6 0-5 0-5.7-1.3-5.8-1.2 0-1.4.8-1.9 3.3-1 5.5-1.9 8.5-2.6 9.1-.3-.3-.5-1.1-.5-1.5V438v-.5-1c0-1.7 1.3-9.9 2.2-15.5h.3c2.2 0 3.8-1 4.7-2.4h.6l6.5-.7h.4c4-.5 8.3-1 12.5-1.3.7 0 1.2-.7 1.1-1.4 0-.7-.6-1.2-1.3-1.1-4.3.2-8.7.8-13 1.3l-1.1.2-4.8.5v-.5c0-.3 0-.7-.2-1l7.2-1 .3-.1c3.8-.6 7.9-1.2 11.8-1.2.4 0 .7 0 1-.3 1 3.9 2.3 7 3.8 8.9a9.5 9.5 0 0 0-5.7 8.4l.3 3.3v.2zm-20.2-20.6a5.2 5.2 0 0 0-2.7-1.4v-1.2a25 25 0 0 1 0-2c4.9-.2 8.4-2.1 10.6-5.7a1.2 1.2 0 0 0 .3-.5c.5-1 1-2 1.2-3.2.2-.6 0-1.1-.5-1.4-2.6-1.8-6.1-3.9-9.3-3.9-3.7 0-6.9 2.2-10 4.3-2.5 1.7-4.8 3.3-6.9 3.3-2.9 0-4.6-2.3-5.5-4.6a17.6 17.6 0 0 0 9.8-10.2h1.2c1.3 0 7.7-1.8 22.8-6.5l.2-.1 2.2-.7c9.5.1 11 7.8 11 12.4 0 5.6-1.2 7.2-5.3 7.2a5 5 0 0 1-1.5-.2c.1-.5.9-1.7 1.4-2.6l.1-.1c.9-1.4 2-3 2.7-5 .2-.6-.1-1.3-.7-1.6-.7-.2-1.4.1-1.7.7-.6 1.7-1.6 3.2-2.5 4.6-1.3 2.1-2.4 3.8-1.6 5.3.7 1.2 2.4 1.4 3.8 1.4h1c0 3.3.5 6.5 1 9.4h-.3a69 69 0 0 0-12.3 1.1h-.1a106.3 106.3 0 0 1-8.4 1.2zm-4 1c-.6 0-1 .2-1.2.5a3 3 0 0 0-.8 2c0 1 .4 2.8 2 2.8 2.1 0 3-1.5 3-2.9.1 0-.2-2.4-2.9-2.4h-.2zm10.8-14.8l-.4 1a39 39 0 0 1-3.6-2.1l-.2-.1c-.5-.4-1.2-.2-1.6.3l-1.8 2.4a41.6 41.6 0 0 1-3.3-2.4c-.3-.2-.6-.2-1-.1-.3 0-.6.3-.8.7l-.5 1v.1c-.6 1.4-1.2 2.7-2 4a10 10 0 0 1-2-3l1.4-1h.1c2.8-1.8 5.6-3.7 8.5-3.7 2.3 0 5 1.5 7.2 2.9zm-4.5 1.5c.9.6 1.8 1.2 2.8 1.6-1.5 2-4.1 3.6-8.7 3.6-1 0-1.8-.2-2.6-.6.8-1.3 1.4-2.7 2-4 .2 0 .3.2.5.3l.3.2.1.1 2.2 1.6c.6.3 1.3.2 1.7-.4l.3-.5 1.4-1.9zm-25.9-6.4a15 15 0 0 0 7.3-6.6l-2.8.7c-3.7 1-4.8 1.4-4.8 3.7l.3 2.2zm45.9 35.7c0-3.3 3.2-6.5 6.5-6.5.8 0 1.6.2 2.3.6 1 .5 1.5 1.7 2.1 3.2.6 1.4.8 6.1.8 7.8 0 4.6-2.3 5.4-4 5.6h-1c-2.8.3-10.3.7-11.7.8 0-.3.6-.5 1.7-1 1.6-.5 4-1.3 4-4.1 0-1.2-.2-2.3-.4-3.4v-.2l-.3-2.8z" fill="#181B2B"/>
  <path d="M656.3 218.2c-3.4-.7-7-1.5-10.5-1.6-.9 1.5-2 2.2-3.8 2.4-2 .2-3.4-1.8-3.5-3.5 0-1 .4-1.9 1-2.7 0-.2.2-.4.4-.6v-.1-.1l.4-1.4v-.2c0-.4.1-.9.3-1.3.3-1.1 1.7-2.1 3-1.6 2.1.9 3.1 3 3.2 5.2 4-.4 7.8-1 11.9-.6 1 .1 5.5 1.4 6 1 .4-.3.5-1.3.7-1.6.6-.9 1.4-1.3 2.2-2 .9-.5 2.5-.3 3.2.5 3.5 4.3 0 10.5-5.4 10.6-3 0-6.2-1.7-9.1-2.4z" fill="#E7EAF3"/>
  <path fill-rule="evenodd" clip-rule="evenodd" d="M641.4 209.4c-.8-3.1-3.8-4.9-6.8-5.4a1.3 1.3 0 0 0-1.4 1.2c-.2 3.4-.6 7-1.1 11.3-.1.6.3 1.3 1 1.4l1.8.1c4.2 0 6.3-2.9 6.6-6.1a87.8 87.8 0 0 0 8.3.3h1a111.6 111.6 0 0 1 9.1.4c.7 2.6 3.3 4.2 4.8 4.2 2.4 0 4.7-2.5 4.7-5.2 0-3-1.7-5-4.4-5-1.3 0-2.7.5-3.7 1.5-.7.6-1.2 1.3-1.4 2a75 75 0 0 0-8.1-.4h-3a109.2 109.2 0 0 1-7.4-.3zm-5.8-2.6c1.8.7 3.5 2 3.5 4.2 0 1-.4 4.6-4.1 4.5h-.3l.9-8.7zm27.4 3a3 3 0 0 1 2-.8c1.2 0 2 1 1.9 2.5 0 1.5-1.2 2.8-2.2 2.8-.5 0-2.5-1.1-2.5-3.1 0-.5.5-1 .8-1.4z" fill="#181B2B"/>
  <path d="M557.6 430.5c-1.5 1.2-2.8 2.5-4.7 3-2 .7-3.3 0-5.2-.5-4.3-.9-8 2.4-8.3 6.5-.2 2.4 3 4.2 5 2.8l1.6-1.1.3.1.8.3c2 .6 4.1.8 6.2.5 3.9-.5 8-2.5 9.9-6 1.7-3.3-2.1-8.2-5.6-5.6z" fill="#E7EAF3"/>
  <path d="M540.1 428h-.7a5.4 5.4 0 0 0-4.4 5.4c0 2.9 2.3 5.2 5 5.2 2.6 0 5.7-2.4 5.7-5.5 0-3-3-5-5.6-5zm0 8.1c-1.6 0-2.6-1.3-2.6-2.7 0-1.2.8-2.6 2.3-2.8h.3c1.5 0 3.1 1 3.1 2.5s-1.8 3-3.1 3z" fill="#181B2B"/>
  <path d="M538.1 420.4a1.3 1.3 0 0 0 0 2.5c5.5.1 11.6 4.8 11.6 10.9 0 .5 0 1-.2 1.5v1c0 .6.5 1.1 1.2 1.1.6 0 1.2-.5 1.2-1.2l.1-.5.2-2c0-6.1-5.8-13.1-14-13.3z" fill="#181B2B"/>
  <path d="M544.5 415.2c-.7 0-1.3.4-1.4 1-.1.7.3 1.4 1 1.5 9.2 1.5 11 10 11.4 19 0 .6.6 1.1 1.3 1.1.7 0 1.3-.6 1.2-1.3-.3-6.3-1-19.3-13.5-21.3z" fill="#181B2B"/>
  <path d="M546.4 410c-.7-.1-1.4.3-1.5 1-.1.7.3 1.4 1 1.5 8.3 1.5 15 9.4 15 17.6v1.6l-.1 2.9a1.3 1.3 0 1 0 2.5 0 43.6 43.6 0 0 1 .1-4.5c0-9.5-7.5-18.3-17-20zM644.5 600.3H641.1v-2-3a1.3 1.3 0 1 0-2.5 0v4.9c-1.3 0-2.5.1-3.6.3-.6.1-1.1.8-1 1.5.1.6.7 1 1.2 1h.3c.9-.2 2-.3 3.1-.3 0 1.7 0 3.2.2 4.5 0 .7.6 1.2 1.2 1.2h.1c.7 0 1.2-.7 1.2-1.3l-.2-4.4h.6l2.8.1c.7 0 1.3-.5 1.3-1.2s-.6-1.3-1.3-1.3zM290.5 583.3H287.1v-2-3a1.3 1.3 0 1 0-2.5 0v4.9c-1.3 0-2.5.1-3.6.3-.6.1-1.1.8-1 1.5.1.6.7 1 1.2 1h.3c.9-.2 2-.3 3.1-.3 0 1.7 0 3.2.2 4.5 0 .7.6 1.2 1.2 1.2h.1c.7 0 1.2-.7 1.2-1.3l-.2-4.4a116.3 116.3 0 0 1 3.4.1c.7 0 1.3-.5 1.3-1.2s-.6-1.3-1.3-1.3z" fill="#181B2B"/>
  <path d="M581.4 505.4a5 5 0 0 0-.1-5.3l-1.4-1.6.1-.7c.3-.8 1-2.3-.2-3.3-2.5-2.2-6 0-7.3 2.5a6.7 6.7 0 0 0-.3 5c.3 1 1 1.7 1.7 2.7l.4.6.8 1c1.8 1.6 5 1.5 6.3-.9zM550.4 503.9a4.5 4.5 0 0 0-.4-5.9l-.5-.5-.1-.2v-.4-.3l.5-1c1.5-2.5-1-5-3.5-4.6-6.7 1-7.5 11-1.8 14 2 1 4.4.7 5.8-1.1zM521.5 506.1c2-.1 3.8-1.2 4.4-3.2.5-1.9-.3-4-2-5V496c0-2-.7-4-2.5-5.1-1.8-1.2-3.7.1-4.4 1.8-1 2.1-2 4.6-2 7 .2 3.3 3 6.7 6.5 6.4zM549.1 467.8a9 9 0 0 0-.6-.3 8 8 0 0 1-.6-.8c.7-1.4.3-2.8-1-3.7-1.3-1-3.2-.8-4.5.1-1.6 1-2.5 3-2.4 4.9.2 3.7 2.8 7.9 6.8 8 4.3.1 6.3-6.2 2.3-8.2z" fill="#E7EAF3"/>
  <path d="M529.6 499.4a79.8 79.8 0 0 0 11.1-.2l5.4-.2a6 6 0 0 0 5.7 4.4 4.9 4.9 0 0 0 4.6-3l.7.2a111 111 0 0 1 7.5 0 269.2 269.2 0 0 0 11.5 0c.2 4.1 4.8 6 9.3 6h.3c.4 0 .7 0 1-.3.2-.3.3-.6.3-1l-.1-4c0-3 .2-6.2.4-9.2a1.2 1.2 0 0 0-1.4-1.4c-4.7.7-8.2 4.3-9.4 7.4a79.4 79.4 0 0 1-11.9 0 280 280 0 0 0-7.6 0c.5-3-2-6-5-6.4a391.3 391.3 0 0 0 0-18.7c2.2-.7 3.9-3.2 3.9-5.4l-.3-1.8a5.5 5.5 0 0 0-5.1-3.6 5.5 5.5 0 0 0-5.5 5.2c0 2.9 2.1 4.9 4.4 5.5l.1 8v11a5.3 5.3 0 0 0-3.6 4.6l-5.3.2-9 .3h-2.1c-.8-3.8-4.2-7-8.1-7.3-.4 0-.7 0-1 .3-.3.2-.4.5-.4.9v12.9a1.2 1.2 0 0 0 1.5 1.2c1.9-.2 7.4-1 8-5.6zm18-32c0-1.5 1.5-2.7 2.9-2.7a3 3 0 0 1 2.7 2c.2.3.2.6.2.9 0 1.4-1.3 3-2.5 3-1.6 0-3.4-1.3-3.4-3.1zm37 26.2a138.8 138.8 0 0 0-.2 10.5c-2.5-.2-5.8-1.2-5.8-3.8 0-1.8 2.3-5.5 6-6.7zm-34.2.7h.3c.3.1.5 0 .7-.1 1.5 0 3.2 1.4 3.2 3.2v.4c-.2 1.2-.6 2-1.1 2.5-.6.5-1.2.6-1.7.6a3.6 3.6 0 0 1-3.4-3.6c0-.7.2-2.5 2-3zm-27.9.6v-2.5c2.6 1 4.6 3.5 4.6 6.1 0 2-1.4 3.2-4.5 3.8V495z" fill="#181B2B"/>
  <path d="M279.7 425.8c-1.3-1.7-4.1-2.6-6-1.2a73.9 73.9 0 0 0-6.8 5.7c-.5 0-1 0-1.4.2-1.6.4-2.8 2.2-2.3 3.9 1.3 3.4 4.3 5.4 7.9 3.6 2.9-1.4 5.9-3.9 8.2-6 1.8-1.6 1.8-4.5.4-6.2z" fill="#E7EAF3"/>
  <path d="M266.5 435.1a5.3 5.3 0 0 1-5.5-5.3c0-1.4.6-2.7 1.6-3.6a4.3 4.3 0 0 1 3.1-1.1c2.6 0 5.3 2 5.3 5.3 0 2.5-2.5 4.7-4.5 4.7zm-.8-7.5h-.4c-.4 0-.6.2-1 .6a2 2 0 0 0-.8 1.6c0 1.3 1 2.8 3 2.8.6 0 2-1 2-2.3 0-1.8-1.4-2.7-2.8-2.7zM278 431.2c-.7 0-1.2-.5-1.3-1.1-.6-4.7-4.8-8.7-9.9-9.4a1.3 1.3 0 0 1 .4-2.5 14 14 0 0 1 12 11.6c0 .7-.4 1.3-1 1.4h-.2z" fill="#181B2B"/>
  <path d="M282.7 428.3c-.6 0-1.1-.4-1.2-1-1.2-5.8-6-10.8-11.6-12.2-.6-.2-1-.9-.9-1.6.2-.6.9-1 1.5-.9a19 19 0 0 1 13.4 14.2 1.3 1.3 0 0 1-1.2 1.5zM287.2 424.7c-.6 0-1.2-.6-1.2-1.2-.3-7-4.8-13.4-11.6-16a1.2 1.2 0 1 1 1-2.4c7.6 3 12.8 10.3 13.1 18.3 0 .7-.5 1.2-1.2 1.3z" fill="#181B2B"/>
  <path d="M653.2 510.8l-1-9a43 43 0 0 0-6-17c-3-4.8-9.2-1-8 3.8-1.2 3.2 0 7.3.4 10.6.3 2 1 4-.8 5.5a24.5 24.5 0 0 1-7.7 3c-2.6.7-1.5 4.5 1.1 4 4.2-1 9.6 0 13-2.7.3 1.9.6 3.8.7 5.6h-3.6l-7.4.8c-4 .5-8.2.7-11.7 2.6-1.2.6-1.3 2.6 0 3.1 5.2 2.4 11.8 2 17.5 1.9 4.1 0 12 1.3 13.7-3.9.9-2.4 0-5.8-.2-8.3z" fill="#E7EAF3"/>
  <path d="M640 490c-3.4-2.6-8-3.5-13.4 2.4-1.8 2 .9 6 2.5 7s2 3.5.5 7c-1.6 3.6 3 4 7 3.5s5.5-3.5 6-7 1-10.5-2.5-13z" fill="#72FFFF"/>
  <path fill-rule="evenodd" clip-rule="evenodd" d="M637.9 479.3c-.7 0-1.3-.6-1.3-1.2v-3.8a1.3 1.3 0 1 1 2.5 0v3.8c0 .6-.5 1.2-1.2 1.2zm-10.4-.4a1.3 1.3 0 0 0 1.7.4c.6-.3.8-1.1.5-1.7a9 9 0 0 1-1-3v-.1c0-.7-.7-1.2-1.4-1-.6 0-1.1.7-1 1.4.2 1.3.5 2.7 1.2 4zm-8.3 6.7c-1.1-1-2.3-1.8-3.2-3a1.3 1.3 0 1 1 2-1.5c.7.9 1.6 1.6 2.6 2.4l.1.1-1.5 2zm4.1 20.7l.2 3.1-3.8.5c-.7.1-1.2.8-1 1.4l.8 7a1.3 1.3 0 0 0 1.3 1.2h.1c6.6-1 13.4-1 20-1 3-.1 5.9-.1 8.8-.3.4 0 .7-.1 1-.4.2-.3.3-.6.2-1-.3-2.3-.4-4.6-.5-7 0-.8-.6-1.3-1.2-1.3H647V503.3c0-7.1 0-20.4-12.2-20.4-10.6 0-11.7 12-11.7 17 0 2.2 0 4.3.2 6.4zM646 511h-.2c-8 0-16.3.1-24.4 1.3l.6 4.5c6.3-.7 12.7-.8 18.8-.9h1.2l6.4-.1a68 68 0 0 1-.4-4.8h-2zm-1.4-6.3v3.8c-6 0-12.3.1-18.5.7a201.8 201.8 0 0 0-.4-9.2c0-9.4 3.2-14.6 9.2-14.6 9 0 9.7 8.9 9.7 18v1.3zm-16.1-.3c.2.4.6.6 1 .6l.7-.1 1.2-.8.1-.1c1.2-.9 2.3-1.7 3.5-1.7 1.4 0 2.7.7 3.5 1.3a1.3 1.3 0 1 0 1.4-2.1 9 9 0 0 0-4.9-1.7c-2 0-3.6 1.1-5 2.1l-.1.1-1 .7c-.6.4-.8 1.2-.4 1.7zm-12.5-2.7h-5.6a1.3 1.3 0 1 1 0-2.5h5.6a1.3 1.3 0 1 1 0 2.5zm.8-8.5h.3c.6 0 1-.4 1.2-1 .2-.6-.2-1.3-.9-1.4l-1.5-.5c-1.1-.4-2.4-.8-3.9-.8a1.3 1.3 0 1 0 0 2.5c1 0 2 .3 3 .6l1.8.6zm29.5-10.9c.3.2.6.4 1 .4.3 0 .6-.1.8-.4l.7-.7c.6-.6 1.2-1.3 1.8-1.6a1.3 1.3 0 0 0-1.3-2.2c-.9.6-1.7 1.4-2.3 2v.1l-.6.6c-.5.5-.5 1.3 0 1.8zm4.7 8.4c-.7 0-1.2-.6-1.2-1.3 0-.7.5-1.2 1.2-1.2l2-.2 2.2-.2a1.3 1.3 0 1 1 0 2.5c-.6 0-1.2 0-1.9.2l-2.3.2zm.7 9.3a1.3 1.3 0 0 0 1.6.8c1.2-.4 2.3-.6 3.4-.6.7 0 1.3-.6 1.3-1.3 0-.7-.6-1.2-1.3-1.2-1.4 0-2.8.2-4.2.7-.6.2-1 .9-.8 1.6z" fill="#181B2B"/>
  <path d="M292.3 528.2c-9.1.3-19.6.1-28.4 3-2.1.6-2.4 4 0 4.5 9 2 19.3 1 28.4.5 5.1-.2 5.2-8 0-8z" fill="#72FFFF"/>
  <path d="M301.4 523.6L301 511c-.5-8.7-.7-17.4-1.4-26-.3-5-7.8-5.1-7.7 0A818 818 0 0 0 294 526c.1 2 1.3 6.4-.4 7.7-1.9 1.4-7 1.5-9.4 1.8-6.3.8-12.7.3-19 1.6-1.4.3-1.8 2.6-.4 3.3a39 39 0 0 0 21.5 1.8c5.4-.7 13.7-1 15.1-7.6.8-3.5.2-7.5 0-11z" fill="#E7EAF3"/>
  <path d="M291 492.8c-.1 4-.7 8-.6 12 0 4 1 8 1 11.9 0 2.4-1 4.1-3.3 5a41.3 41.3 0 0 1-21 .7c-2.6-.5-3.3-3.7-2.3-5.7.7-1.3 1.2-2.7 1.6-4.2-.4-2.9-.5-5.8-.7-8.7-.3-3-.4-6-.6-9.1-.1-2.1-.5-4.3 0-6.4.3-1 1.2-2 2.2-2.2 3.4-.7 7.3 0 10.6.2 3 .2 7-.2 9.9.9 2.5.9 3.2 3.1 3.2 5.6z" fill="#E7EAF3"/>
  <path d="M271 537h-5.2a5.3 5.3 0 0 1-5.2-5.2l-.6-47v-.2c.3-2.4 2.4-4.2 5.6-4.3a247.7 247.7 0 0 1 24.5-.1c3.1 0 5 3 5 5.8v.5l2 45.9c0 .3 0 .5-.3.8v.2c-1.2 1.5-2.7 3.6-5 3.6H271zm-8.5-52.2l.6 47c0 1.4 1.3 2.7 2.7 2.7h25.9c1 0 2-1.3 2.9-2.4l-2-45.6v-.2-.3c0-1.6-1-3.3-2.6-3.3a608.8 608.8 0 0 0-24.3 0c-.5.1-3 .3-3.2 2.1z" fill="#181B2B"/>
  <path d="M261.8 528.3c-.6 0-1.2-.5-1.2-1.1 0-.7.4-1.3 1.1-1.4 9.7-.6 19.4-.7 30.9-.7h3a1.3 1.3 0 1 1 0 2.5h-3c-11.5 0-21.1.1-30.7.7zM275.6 532.7h-1.3a1.2 1.2 0 1 1 .3-2.6l1 .1c1.6 0 3.2-.3 5-.7.6-.1 1.3.3 1.4 1 .1.7-.3 1.4-1 1.5-1.7.3-3.6.7-5.4.7zM276.3 472h-.1c-.7-.1-1.2-.7-1.2-1.4v-.8c0-.7.6-1.3 1.3-1.2.7 0 1.3.6 1.2 1.3v.8c0 .7-.6 1.2-1.2 1.2zm.2-7.6c-.7 0-1.2-.6-1.2-1.3v-.8c0-.7.6-1.2 1.3-1.2.7 0 1.2.5 1.2 1.2v.9c0 .7-.6 1.2-1.3 1.2zm.1-7.5c-.7 0-1.2-.6-1.2-1.3v-.8a1.3 1.3 0 1 1 2.5 0v.8c0 .7-.6 1.3-1.3 1.3zm0-7.6c-.8 0-1.3-.5-1.3-1.2v-.8c0-.7.5-1.3 1.2-1.3.6 0 1.2.5 1.3 1.2v.9c0 .6-.5 1.2-1.3 1.2z" fill="#181B2B"/>
  <path d="M465.4 301.3a15.2 15.2 0 0 0-10.7-4.6c-2.1-5.3-5.8-11-12.2-10.5-1.2.1-2.6 1.6-1.6 3 2.7 3.5 5.5 5.8 6.3 10.4.4 2.2.9 4 3.1 5 2 1 4 .3 6 1.2 4.2 2 4.9 7.1 2.5 10.8-2 3.2-5.5 3.7-8.5 5-2 .5-3.8 1-5.8 1.3-6 1.2-12 2-18.2 2-11.2 0-22.3-2.7-29.9-11.4-1-1.2-3-.5-3.3.9-2 6.8 4.5 12.3 10 15 2.4 1.1 5 2 7.6 2.8a20.3 20.3 0 0 1-.3 9c-1 .8-5.6.7-7 .8-5.2.5-10.5.4-15.9.6a4 4 0 0 0-3.7 2.8c-.5 1.8-1.6 2.8-2.7 4.2-1.3 1.5-.5 3.7 1.5 3.8 2.7 0 4.8-1.1 6.5-2.9a85 85 0 0 0 21.8-.6c3.5-.6 6.2-1.6 7.6-5a27 27 0 0 0 1.3-10.9c2.4.3 4.8.4 7.2.5 6.2 0 41.2-1.9 40.5-13 1.2-2.1 2-4.5 2.3-6.9.5-4.9-1-9.8-4.4-13.3zM500 357.7c-.1-1-1.3-2-2.3-1.9-4.6.5-6.3 5.6-10.7 6.7-5 1.3-9.7-2.7-12.7-6.2-2.5-2.8-4.3-7.3-8.4-7.9-4.5-.6-11.5.3-15.5 2.3-1.4.6-1.5 3.1 0 3.8 2.7 1.2 5.5 1.3 8.5 1.5l2.5.2c1 .5 1.7.3 2-.6.7.3 1.8 2.6 2.3 3.2 3.2 4.3 6.8 8.4 11.7 10.5 4.9 2.1 10.4 2.3 15-.4 3.8-2.2 8.4-6.5 7.7-11.2z" fill="#E7EAF3"/>
  <path fill-rule="evenodd" clip-rule="evenodd" d="M410.3 331c-14.1 0-22.6-5.3-22.6-14 0-8.3 8.5-12.7 12.9-13.2 1.5-6.7 8.8-11.6 15.2-11.6a7 7 0 0 1 2.2.4 19 19 0 0 1 4.8-4.4c4-2.6 9.1-4.2 13.4-4.2 3.2 0 7 2 10.2 5.6a19 19 0 0 1 5.1 11c6.3.7 15.9 6 15.9 16 0 8.6-6.9 14.1-17.5 14.2v2.3c0 5 .3 10.2.5 15.1a601.4 601.4 0 0 0 19 0l.1-1c.1-.6.8-1 1.5-1 .6.2 1 .8 1 1.5l-.1.5h1.1l6.4-.3h.2c1-3.2 4.3-5 7.6-5 .4-.1.7 0 1 .3.2.2.4.6.4 1a47 47 0 0 0 .5 9.6c0 .3 0 .7-.2 1-.3.3-.6.4-1 .4h-.3c-3 0-7.5-1.3-8.1-4.8l-6.4.3h-.3c-3 .1-4.8.2-10.5.2-4.6 0-8.8 0-13-.2-.7 0-1.3-.5-1.3-1.2v-1a290 290 0 0 1-.6-17.7l-4-.3h-.5c-2.1-.2-4.3-.4-6.3-.4h-2c-.7.1-1.3-.4-1.3-1.1 0-.7.5-1.3 1.2-1.3h2c2.2 0 4.5 0 6.7.3h.4c1.6.1 3.3.3 5 .3a1.3 1.3 0 0 1 .3 0h.8c7.3 0 15.2-3 15.2-11.6 0-8.2-8.1-12.8-13.4-13.5-.6 6-4.5 6.5-5.8 6.5-2 0-4.4-1.4-4.4-3.7 0-3 4.2-5 7.7-5.3-.6-6-7-14.2-12.7-14.2-5.8 0-12.7 3.2-16 7.3a9.3 9.3 0 0 1 4.1 7.4c0 2-1.7 3.3-4 3.3-1.8 0-4.7-.8-4.7-5.8 0-1.3.3-2.6 1-3.8a4 4 0 0 0-.9-.1c-6.3 0-11.3 4.6-12.7 9.3 3.5 1 7.7 4 7.7 7.6 0 2.1-1.6 3.6-3.9 3.6-3.6 0-6.7-4-6.7-8.8-3.3.6-10 4.2-10 10.4 0 10.8 15.4 11.6 20.1 11.6a82.3 82.3 0 0 0 8.4-.3h.5l4.4-.3c.6 0 1.2.5 1.3 1.2 0 .7-.6 1.3-1.2 1.3l-4.2.2h-.7l-.5.1-3.3.2a164.8 164.8 0 0 0 .3 13.6c0 .7-.4 1.2-1 1.3a70 70 0 0 1-10.7.7c-3.1 0-6.3-.1-9.3-.3H393.4a295 295 0 0 0-6.1-.2c-.5 3.5-5 4.9-6.7 5.4h-.4a1.3 1.3 0 0 1-1.2-1 441.8 441.8 0 0 0-1-11.1c0-.4.1-.7.4-1 .3-.2.6-.4 1-.3 4 .5 7 2.6 7.7 5.6l.5-.1 6 .2h.8c3 .2 6.1.3 9.2.3 3.4 0 6.4-.2 9.1-.5a249.7 249.7 0 0 1-.2-12.5h-2.2zm-7.6-24.5c0 3.6 2.3 6.3 4.2 6.3 1 0 1.4-.4 1.4-1.1 0-2-3-4.4-5.6-5.2zm46.3-3.3c-2.7.4-5.2 1.8-5.2 2.8 0 .7 1 1.2 2 1.2 2.2 0 3-2 3.2-4zm-30.1-7.3c-.4.9-.6 1.8-.6 2.8 0 3.3 1.3 3.3 2 3.3.5 0 1.6-.2 1.6-.8 0-2.2-1.4-4.2-3-5.3zm-38.3 44.9l.5 5.2v.8l.1.9.1.8c2.4-1 3.6-2 3.6-3.3 0-2.4-2.1-3.8-4.3-4.4zm101.3 8.8c0-2.3 2-3.7 4.1-4.1v.5c0 2.3.2 4.5.4 6.6-1.6-.2-4.5-.9-4.5-3zm1.6 15.4a1.3 1.3 0 0 0 .1-2.6h-.7c-.7-.1-1.3.4-1.4 1 0 .8.4 1.4 1.1 1.5h1zm5.5-2a1.3 1.3 0 0 0 1.6.7c.3 0 .6-.2.8-.3.7-.4 1-1.1.6-1.7-.3-.7-1-.9-1.7-.6l-.7.3c-.6.3-1 1-.6 1.7zm-13.1-.7c.2.2.4.3.7.3.4 0 .8-.2 1-.6.4-.6.2-1.3-.3-1.7l-.7-.5c-.5-.4-1.3-.3-1.7.3-.4.5-.3 1.3.2 1.7l.8.5zm19-3.6l.7.2c.4 0 .8-.3 1-.7l.5-.8a1.3 1.3 0 1 0-2.3-1l-.3.6c-.4.6-.1 1.4.5 1.7zm-24.3-2.5a1.2 1.2 0 0 0 1.7.6c.6-.3.9-1 .6-1.7l-.3-.7c-.3-.6-1-1-1.6-.7-.7.3-1 1-.8 1.6l.4.9zm25.3-5.8c0 .7.6 1.2 1.2 1.2.8 0 1.3-.6 1.3-1.3l-.1-1c0-.6-.7-1-1.4-1s-1.2.7-1 1.4v.7zm-2.3-6.3c.3.3.7.5 1 .5.3 0 .6 0 .8-.2.5-.4.7-1.2.3-1.8l-.5-.7c-.5-.5-1.3-.6-1.8-.2-.5.4-.6 1.2-.2 1.8l.4.6zm-21-1.7l.8.3c.4 0 .8-.2 1-.5l.5-.6a1.3 1.3 0 0 0-1.8-1.7l-.6.7c-.5.6-.4 1.4.2 1.8zm15.9-2.8l.5.2c.5 0 1-.3 1.2-.7.3-.7 0-1.4-.6-1.7l-.8-.4a1.3 1.3 0 0 0-1 2.3l.7.3zm-10.1-1.9a1.3 1.3 0 0 0 1.5 1 11.7 11.7 0 0 1 1-.3H481.7c.7-.1 1.2-.7 1.2-1.4s-.7-1.2-1.4-1.2l-.9.1h-.2l-.3.1-.9.2c-.7.1-1 .8-.9 1.5z" fill="#181B2B"/>
  <path d="M376.7 584.8c-6.9-1.1-15 1-22 1.8-6.6.8-14.8.8-20.5 4.2-1.7 1-1.2 3.3.5 4 6.3 2 14.3.4 20.8-.1l10.5-1c3.5-.3 7.4-.2 10.7-1.5 3.2-1.2 4.2-6.7 0-7.4z" fill="#72FFFF"/>
  <path d="M375.4 625c-2.2-3.8-9-2.3-8.7 2.4v.4l-.5.6c-.9-.1-1.7-.2-2.6 0l-.5.2s-.1-.2-.3-.2c-3.4-2.1-8.2-.6-12-.3-4.8.3-9.4.3-14.1 0-2.1 0-2.6 3.3-.5 3.7 4.8 1 9.6 1.8 14.5 2.1 3.7.3 8.2 1 11.4-1 1.7 3.6 5.4 5 9 3 3.9-2 6.6-6.8 4.3-10.8zM377.7 593.9c-3.3-1-6.9-.1-10.3 0-3.6.3-7.3.3-11 .3-6.7.1-13.8 0-20 3-1.4.6-1 3 .5 3.4 6.9 1.3 14.1 1.1 21 1.4 6 .1 15.6 1.5 20.6-2.1 2.3-1.7 2-5.1-.8-6zM385.3 617.2c-1.3.1-2.7 1-2.5 2.5.2 1.7.8 2.8 1.4 4.3 1 2.6 1 5.4.4 8-1.3 4.7-5.3 9-9.2 11.8-.9.7 0 2.2 1 1.6 6-3.6 12-5.9 14.3-13.1 1.5-4.4 1.5-15.7-5.4-15zM293.5 629.4c-3.5-1.3-7.8 0-11.5.1-3.8.2-7.5 0-11.3.6-1.6.3-1.2 2.5 0 3 3.8 1.5 8 1.8 12 2.1 3.8.3 8 1 11.5-.9 2.2-1.2 1.4-4.2-.7-5z" fill="#E7EAF3"/>
  <path d="M267.1 636.3c-.6 0-1.2-.4-1.2-1-.5-3.7-.9-7.2-.9-10.6a1.3 1.3 0 1 1 2.5 0c0 3.3.4 6.7.8 10.2.1.7-.4 1.3-1 1.4h-.2zM294.5 634.4c-.5 0-1-.3-1.2-.7-.8-2-.9-4-1-6a21 21 0 0 0-.3-3.3 1.3 1.3 0 0 1 2.5-.6l.3 3.9c.1 1.7.2 3.4.9 5 .2.6 0 1.3-.7 1.6l-.5.1z" fill="#181B2B"/>
  <path d="M267.3 631.3a1.3 1.3 0 0 1 0-2.6h4.2c6.9-.2 14-.3 21-1.2.6-.1 1.2.4 1.3 1 .1.8-.4 1.4-1 1.5-7.1.9-14.3 1-21.3 1.1l-4.2.2zM303.2 634c-.6 0-1.1-.4-1.3-1a31 31 0 0 1-.8-5.4 35 35 0 0 0-.5-4.1 1.2 1.2 0 1 1 2.5-.5c.3 1.5.4 3 .5 4.4.2 1.7.3 3.4.8 5 .1.7-.2 1.4-1 1.6h-.2zM311.4 632.8c-.6 0-1.2-.4-1.3-1-.4-2.9-.6-5.7-.8-8.2 0-.7.4-1.3 1.1-1.4.7 0 1.3.5 1.4 1.2.2 2.5.4 5.2.8 8 .1.7-.3 1.3-1 1.4h-.2zM319 633.4c-.6 0-1.1-.4-1.3-1-.4-1.8-.5-3.7-.7-5.5 0-1.2-.2-2.3-.4-3.5a1.3 1.3 0 1 1 2.5-.3l.4 3.6c.2 1.7.3 3.5.7 5.2.1.7-.3 1.3-1 1.5h-.3zM326.1 634.4c-.6 0-1.2-.5-1.2-1.2l-.4-4.5-.3-4.7c0-.7.5-1.3 1.2-1.4.7 0 1.3.5 1.3 1.2l.4 4.8.3 4.5c0 .7-.5 1.3-1.2 1.3z" fill="#181B2B"/>
  <path d="M331.9 629.4H327a1.3 1.3 0 0 1 0-2.6h4.8c10 0 20.2-.5 29.2-1a1.3 1.3 0 0 1 .1 2.5c-9 .5-19.2 1-29.3 1z" fill="#181B2B"/>
  <path d="M367.8 633.2c-3.4 0-6.8-2-6.8-6 0-2.2 1.3-4.5 3.3-6a4 4 0 0 1 2.3-.7c2 0 7 1.8 7 6.2 0 3.8-3.1 6.5-5.8 6.5zm-2-10a5.3 5.3 0 0 0-2.3 4c0 2.5 2.2 3.5 4.3 3.5 1.3 0 3.2-1.5 3.2-4 0-2.7-3.6-3.7-4.4-3.7-.3 0-.6 0-.9.3z" fill="#181B2B"/>
  <path d="M366 622c-.7 0-1.3-.5-1.3-1.2a86.3 86.3 0 0 1-.1-14.1 255 255 0 0 0 .1-10 1.3 1.3 0 1 1 2.5 0 106.5 106.5 0 0 1-.1 10 255 255 0 0 0 0 14c.2.6-.4 1.2-1 1.3h-.2z" fill="#181B2B"/>
  <path d="M380 592.2l-.3-7c0-1.4 0-2.7.2-3.9 0-.3-.1-.7-.4-1-.2-.2-.5-.3-.9-.3-6.7 0-13.5.2-20 .3-8.2.2-16.6.4-24.9.4h-1.3c-.3 0-.7.1-.9.3-.2.3-.4.6-.4 1l.1 3.6.2 9v.6c0 .3 0 .6.3.9.3.2.6.3 1 .3l11.9-.2h13.9c4.3 0 10.1 0 16-.4.8 0 1.3-.6 1.2-1.3 0-.7-.6-1.3-1.3-1.2-5.8.4-11.6.4-16 .4h-6.9a937.9 937.9 0 0 0-17.7.2v-8.4l-.1-2.3c8.3 0 16.7-.2 24.9-.4l18.7-.3v2.7c0 2.4 0 4.8.2 7.2l.2 3.9c0 .7.5 1.2 1.2 1.2s1.3-.6 1.3-1.3l-.2-4z" fill="#181B2B"/>
  <path d="M344 586c-.8 0-1.3.5-1.3 1.2v.1l-.2 1c0 .5.3 1 .7 1.3.4.3.8.4 1.2.4a2 2 0 0 0 2.1-2.1c0-.2 0-1.6-1.8-1.7-.2-.2-.5-.3-.8-.3zM354.6 586.3c-.6.6-.8 1.4-.5 2 .3.7.9 1 1.6 1 1 0 1.6-1 1.6-1.7 0-.5-.3-1-.9-1.3-.5-.5-1.3-.5-1.8 0zM363.5 587l-.5.4-.1.1c-.5.5-.5 1.3 0 1.8.1.4.6.9 1.8.9 1.2 0 2.2-.7 2.4-1.7v-.4c0-1-.7-1.6-1.8-1.6a4 4 0 0 0-1.8.6zM367 648.2c-.6 0-1.2-.5-1.2-1.2s.5-1.3 1.2-1.3h.8a1.3 1.3 0 0 1 .2 2.4h-.9zm-6.5-.8h-.4l-.8-.4a1.3 1.3 0 0 1 .8-2.3l.7.2a1.3 1.3 0 0 1-.3 2.5zm13.8-1c-.5 0-1-.2-1.1-.7-.3-.6 0-1.4.6-1.7l.7-.3a1.3 1.3 0 1 1 1.1 2.2l-.8.4-.5.1zm-20.3-2.7c-.3 0-.6 0-.9-.3l-.6-.6c-.5-.5-.5-1.3 0-1.8s1.2-.5 1.7 0l.6.5c.5.5.5 1.3 0 1.8-.2.3-.5.4-.8.4zm26.3-1.8a1.3 1.3 0 0 1-1-2l.6-.7c.4-.5 1.2-.6 1.7-.1.6.4.6 1.2.2 1.7l-.6.7c-.2.3-.6.4-1 .4zm-30.6-4.3c-.5 0-1-.3-1.2-.7l-.3-.9c-.3-.6 0-1.3.7-1.6.6-.2 1.4.1 1.6.8l.3.7a1.3 1.3 0 0 1-1.1 1.7zm34.5-2l-.5-.1c-.6-.3-1-1-.7-1.6 0-.3.2-.5.3-.8a1.3 1.3 0 0 1 2.3.8l-.2.8c-.2.5-.7.8-1.2.8zm-36.2-5.3c-.7 0-1.2-.5-1.3-1.1v-1a1.3 1.3 0 1 1 2.5 0v.8c0 .7-.5 1.3-1.1 1.3h-.1zm37.4-2.1c-.7 0-1.3-.6-1.3-1.2v-.8c-.1-.7.4-1.3 1.1-1.4.7 0 1.3.5 1.4 1.2v.9c0 .7-.5 1.2-1.2 1.3zm-36.7-5.3h-.3c-.7-.2-1-1-.9-1.6l.3-.9a1.3 1.3 0 1 1 2.3.8l-.2.8c-.1.5-.6.9-1.2.9zm34.8-2c-.5 0-.9-.2-1.1-.6l-.4-.7a1.3 1.3 0 1 1 2.1-1.3l.5.8c.3.6 0 1.4-.5 1.7l-.6.1zm-31.4-4.7c-.3 0-.6-.1-.8-.3-.6-.4-.7-1.2-.2-1.8l.6-.6c.4-.6 1.2-.6 1.7-.1.6.4.6 1.2.1 1.7l-.5.6c-.2.3-.6.5-1 .5zm26.5-.8c-.3 0-.6-.1-.8-.3l-.6-.4c-.6-.4-.8-1.2-.4-1.8.4-.5 1.2-.7 1.8-.3l.7.5a1.3 1.3 0 0 1-.7 2.3zm-6.8-3.2l-.3-.1-.8-.2c-.7-.2-1-.9-1-1.5.3-.7 1-1.1 1.6-1l.9.3c.6.2 1 .9.8 1.5-.2.6-.7 1-1.2 1zm-13.7-.3a1.3 1.3 0 0 1-.5-2.5l.9-.3a1.2 1.2 0 1 1 .7 2.4 18.9 18.9 0 0 0-1.1.4zm6.3-.9h-.9c-.6 0-1.2-.6-1.2-1.3 0-.7.6-1.2 1.3-1.2h.8a1.3 1.3 0 0 1 0 2.5zM432.1 375.5c-.6 0-1.2-.6-1.2-1.3v-.8a1.3 1.3 0 0 1 2.5 0v.8a1.2 1.2 0 0 1-1.3 1.3zm0-7.6c-.7 0-1.2-.5-1.2-1.2v-.8a1.3 1.3 0 1 1 2.5 0v.8c0 .7-.5 1.3-1.2 1.3h-.1zm0-7.5c-.7 0-1.2-.6-1.2-1.2v-.9c0-.7.6-1.2 1.3-1.2.6 0 1.2.5 1.2 1.2v.9c0 .7-.5 1.2-1.2 1.2h-.1zm0-7.5c-.7 0-1.2-.6-1.2-1.2v-.9c0-.7.5-1.2 1.2-1.3.7 0 1.2.6 1.2 1.3v.8a1.3 1.3 0 0 1-1.3 1.3zm-.3-7.5c-.6 0-1.2-.6-1.2-1.2v-.8c0-.7.5-1.3 1.2-1.4.6 0 1.2.5 1.3 1.2v.9c0 .7-.5 1.2-1.2 1.3h-.1zM407.4 545.7c-.2 0-.4 0-.6-.2l-.8-.4a1.3 1.3 0 0 1 1.5-2.1l.6.4a1.3 1.3 0 0 1-.7 2.3zm-5.5-5c-.4 0-.8-.1-1-.4l-.5-.7c-.5-.6-.4-1.3.2-1.8.6-.4 1.3-.3 1.8.3l.4.6a1.3 1.3 0 0 1-1 2zm-3.8-6.4c-.5 0-1-.3-1.2-.8l-.3-.8c-.3-.7 0-1.4.7-1.6.7-.3 1.4 0 1.6.7l.3.8c.3.6 0 1.3-.7 1.6h-.4zm-2-7.3c-.6 0-1.1-.4-1.2-1l-.1-1c0-.6.4-1.2 1.1-1.3.7 0 1.3.4 1.4 1.1v.8c.2.7-.3 1.3-1 1.4h-.2zm0-7.5h-.2c-.7 0-1.2-.7-1.1-1.4v-.8a1.3 1.3 0 1 1 2.6.3l-.1.8c-.1.6-.6 1.1-1.3 1.1zm1.6-7.3h-.4c-.7-.3-1-1-.8-1.7l.3-.8a1.3 1.3 0 1 1 2.3 1l-.2.7c-.2.5-.7.8-1.2.8zm3.5-6.6c-.3 0-.5-.1-.8-.3-.5-.4-.6-1.2-.2-1.7l.5-.7a1.3 1.3 0 0 1 2 1.5l-.5.7c-.3.3-.6.5-1 .5zM219.1 578.8l-.3-.6-.2-.9a1.3 1.3 0 0 1 2.5-.5l.1.8a1.3 1.3 0 0 1-2 1.2zm-.5-7.5c-.3-.2-.4-.6-.4-1l.1-.9c0-.6.7-1.1 1.4-1 .7 0 1.2.7 1 1.3v.8a1.3 1.3 0 0 1-2.1.8zm1.7-7.3c-.3-.3-.5-.8-.3-1.3l.4-.8a1.3 1.3 0 1 1 2.3 1l-.3.7c-.3.6-1 1-1.7.7l-.4-.3zm3.7-6.5c-.5-.5-.5-1.2-.2-1.7l.6-.7c.4-.5 1.2-.6 1.7-.2.6.4.7 1.2.2 1.8l-.4.6a1.3 1.3 0 0 1-2 .2zm5.1-5.5v-.1c-.5-.5-.5-1.3 0-1.8l.7-.5a1.3 1.3 0 1 1 1.6 2c-.2 0-.4.3-.6.4-.5.5-1.2.4-1.7 0zm6.3-4.1l-.3-.4c-.3-.6 0-1.4.6-1.7.3 0 .5-.2.8-.3a1.3 1.3 0 1 1 1 2.2l-.7.4c-.5.2-1 .1-1.4-.2zm7.1-2.4l-.4-.7c0-.7.4-1.3 1-1.4l1-.2a1.3 1.3 0 0 1 .3 2.5l-.8.1c-.4.1-.8 0-1.1-.3z" fill="#181B2B"/>
  <path d="M421 571.6c-2 2.6-1.8 6.3-4.6 8.4a23 23 0 0 1-9.8 3.1c-1.8.3-1.2 2.8.4 3 4.6.8 8.9 1.4 13.2-1 3.8-2.2 5.5-6.4 7.5-10 .6-1.2.7-3-.4-3.9l-.3-.2c-2-1.7-4.4-1.5-6 .6z" fill="#E7EAF3"/>
  <path fill-rule="evenodd" clip-rule="evenodd" d="M404.8 588.2c-.4 2.1-2.1 4.4-7 4.7a1.3 1.3 0 0 1-1.4-1.2 136.1 136.1 0 0 0-.3-8.6v-1c0-.4 0-.7.3-1 .3-.2.6-.3 1-.3 4.3 0 6.8 2.4 7.4 4.9h.2l3.1.2c8.9.2 13.3-2.8 13.4-9.1 0-.9-.2-2.5-.4-2.9-.4-.6-.2-1.4.4-1.7.6-.4 1.3-.2 1.7.4.7 1 .8 3.6.8 4.2-.1 5.5-3 11.9-16 11.6l-3.2-.2zm-2.4-1.3c0 1.3-.5 2.8-3.5 3.4 0-2.3-.1-4.7-.3-7 2.6.6 3.9 2.1 3.8 3.6z" fill="#181B2B"/>
  <path d="M155.1 606.3c-2.8 2.4-12-.3-10.7 6.1a2 2 0 0 0 1.4 1.5c2.5.4 4.6 1.6 7.1 1.8 3 .2 6.5-.7 8.6-3 3.8-4.4-2-10.2-6.4-6.4zM159 588c-1.7.7-2.5 1.8-3.6 2.2-1.8.6-3.6.7-5.4 1.6-1.2.5-1.5 2.1-1 3.2.5 1.3 1.7 1.8 3 1.5 1-.1 2.2.3 3.2.5 1.1.2 2.1.2 3.2 0 2.8-.3 5.5-2.1 5.4-5.2 0-2.3-2.4-4.7-4.9-3.8zM164.5 576.4c-.6-2-3-3.6-5.1-2.9-3 1.1-7 2.3-9.4 4.5-1.6 1.5-.8 4.4 1.3 5 3.2.7 7.3-.4 10.3-1.5 2.1-.7 3.5-2.8 2.9-5z" fill="#E7EAF3"/>
  <path fill-rule="evenodd" clip-rule="evenodd" d="M158.7 579.2h-.1c-4-.3-8.1-.3-12-.3-.4 0-.8-.3-1-.7-.2-.5-.2-1 .1-1.4a549.5 549.5 0 0 1 6.5-7.4c.3-.3.7-.4 1-.4.5 0 .8.2 1 .6a92 92 0 0 0 2.6 3.5v.1l3 4c.2.4.2 1 0 1.3-.3.4-.7.7-1.1.7zm-9.3-2.8l6.8.1-1.5-2-.3-.4c-.5-.6-1-1.2-1.3-1.8l-1 1-.4.5-2.3 2.6zm9.7 17.5c-3.7 0-7.5-.1-11.2-.3H145.2c-.5 0-1-.4-1.1-.8-.2-.5-.1-1 .2-1.4 2.7-2.9 5.4-5.6 8-8a1.3 1.3 0 0 1 1.9.2l.7 1c1.7 2.5 3.4 5 5.2 7.3a1.3 1.3 0 0 1-1 2zm-11-2.8l8.5.3-3.7-5.2-4.8 5zm-3.8 17.8c.2.4.6.6 1 .6h7.8a146.6 146.6 0 0 0 9.5-.2c.5 0 1-.4 1.1-.9.2-.5 0-1-.3-1.3-3.3-3-6.2-5.9-8.7-8.7a1.3 1.3 0 0 0-1.8-.1 54 54 0 0 0-8.5 9.3c-.3.4-.3.9-.1 1.3zm8.9-2a146.7 146.7 0 0 0-5.2 0c1.7-2.1 3.6-4 5.7-6 1.8 2 3.7 4 5.9 6-2 .2-4.2.1-6.4 0z" fill="#181B2B"/>
  <path d="M599.7 566c-1.4-2-2.8-2.3-5-2.6-2.3-.3-4.2-1-6.1-2.2-4.3-2.9-6.6-7.4-9.3-11.6-.7-1.1-2.3-1-2.9 0-3.4-.5-7.5.5-10.6.7-4 .4-10.5-.3-13.9 2-3 2-1.9 7.6-1.9 10.6a93 93 0 0 0 1.1 15.4c.2 1.4 2.5 1.4 2.8 0 .7-3.8.9-7.5 1-11.4v-6.3c0-1-.2-2.3 0-3.2 0-.3-.2-.6-.4-.9l2.4.1h12.9c2.5 0 5 .2 7.3-.4 2.3 8.5 9.4 15.7 18.7 15.8 1.4 0 2.9-.8 3.6-2.1l.3-.6c.6-1 .7-2.3 0-3.3zM595.5 577.2c-1 .3-2.1 1.3-2.3 2.3-.4 2 0 3.2.9 5l.5 1-2.7.5c-5 .6-10.1.6-15.2.8l-15.3.4c-2.7 0-5.4.1-8 .3-2 0-5 .9-6.5-.4-1.3-1-3.4-.8-3.8 1-1.7 6.9 8.3 7.2 12.6 7.4 9 .6 17.8.6 26.7.2 5.8-.2 17.6.8 21-5.1 3-5.1-1.5-14.9-7.9-13.4zM559.6 542.2c-1.4-2.5-2.8-5-3.8-7.8-.9-2.3-4.7-1.4-3.8 1l2.5 8.4c.7 2.4 1.1 5.4 4 6 .9.1 2-.2 2.5-1.1 1.3-2.5-.2-4.3-1.4-6.5z" fill="#E7EAF3"/>
  <path fill-rule="evenodd" clip-rule="evenodd" d="M601 569.3h.4a1.3 1.3 0 0 0 .4-2.5c-14.4-4-21.7-13.5-21.7-28a1.3 1.3 0 1 0-2.5 0c0 11.4 4.2 20 12.4 25.5v2.4a271.7 271.7 0 0 0 .1 15l-43-1.3a2659 2659 0 0 1 .6-30 156.8 156.8 0 0 1 16.7-.1h11.8a1.3 1.3 0 1 0 0-2.5 340.3 340.3 0 0 1-13 0 491.3 491.3 0 0 0-16.8.2c-.7 0-1.2.6-1.2 1.2 0 7-.2 14.2-.4 21.2v2.1l-.2 7.8-4.8-.2a1.3 1.3 0 0 0-1.3 1.5c1.4 10.4 4.7 10.7 42.9 10.7h7.1c8.1 0 9.7-2.7 11.2-8.8a1.3 1.3 0 0 0-1.1-1.6l-6-.2a89.2 89.2 0 0 1-.2-15v-1c2.6 1.5 5.5 2.6 8.7 3.6zm-9.6 14.9h.1l5.4.1c-1.2 4.2-2.4 5.5-8.4 5.5H583c-37.2 0-40.6-.3-41.8-7.1l4.5.1a1.2 1.2 0 0 0 .2 0l45.5 1.4z" fill="#181B2B"/>
  <path d="M554.3 546.2c-.6 0-1.1-.4-1.2-1l-.2-.8c-.1-.7.3-1.3 1-1.5.7-.1 1.3.3 1.5 1l.1.8c.2.7-.3 1.3-1 1.5h-.2zm-1.4-7.4c-.6 0-1.1-.4-1.2-1l-.1-.9c-.2-.6.3-1.3 1-1.4.7 0 1.3.4 1.4 1l.2.9c0 .7-.4 1.3-1 1.4h-.3zm-2.3-8.5v-.9c-.1-.7.4-1.3 1-1.4.8 0 1.4.5 1.4 1.2l.1.8-2.5.3zm.7-6.4c-.7 0-1.2-.6-1.3-1.2v-.9c0-.7.5-1.2 1.2-1.3.7 0 1.3.5 1.3 1.2v.9c0 .7-.5 1.2-1.1 1.3h-.1zm0-7.6c-.8 0-1.4-.5-1.3-1.2v-.9c0-.7.6-1.2 1.3-1.2.7 0 1.2.6 1.2 1.3v.8c0 .7-.6 1.2-1.3 1.2zM269.8 725z" fill="#181B2B"/>
  <path d="M276.8 721.2a4.8 4.8 0 0 0-6.4 3.1l-.3.8h-.2l-.8-.3-.8-.4c-2-.8-4 1.2-4 3-.1 3.7 3.5 6 6.7 6.3 3.9.2 6.7-2.4 8.1-5.7 1.2-2.6.6-5.6-2.3-6.8z" fill="#E7EAF3"/>
  <path d="M270.5 730.3c-.3 0-.6 0-.8-.3l-3.3-3.2-3-2.8c-.2-.2-.4-.5-.4-.8 0-.4.1-.7.3-1l.6-.5 5.1-5.3c.5-.5 1.2-.5 1.7-.1l3.5 3.2 2.7 2.5c.5.4.5 1.2 0 1.7l-2.5 3-3 3.2c-.2.3-.5.4-.8.4zm-4.5-7.2a225.7 225.7 0 0 1 4.4 4.2l2.1-2.4 1.8-1.9-1.8-1.7-2.5-2.3-4 4z" fill="#181B2B"/>
  <path d="M458.9 217.2c-1.6.8-2.3 2.1-3.2 3a8 8 0 0 1-.4.5l-1.5.1c-2.8.2-4.7 3.8-2.4 5.9 4.9 4.6 13.3.5 13.7-6 .3-3.3-3.6-4.8-6.2-3.5z" fill="#E7EAF3"/>
  <path d="M455.5 225c-3 0-5.5-2.6-5.5-5.7 0-1.1.3-2.2 1-3.1a5 5 0 0 1 2.5-1.8c.5-.2 1.8-.4 2.5-.4 2.9 0 5.4 2.5 5.4 5.4 0 3-3.3 5.5-6 5.5zm-2.5-7.4a3 3 0 0 0-.5 1.7c0 1.7 1.3 3.1 3 3.1 1.4 0 3.4-1.5 3.4-3a3 3 0 0 0-3-2.9l-1.5.3c-.4.1-1.1.4-1.4.8z" fill="#181B2B"/>
  <path d="M615.9 651.2c-1.6.8-2.3 2.1-3.2 3a8 8 0 0 1-.4.5l-1.5.1c-2.8.2-4.7 3.8-2.4 5.9 4.9 4.6 13.3.5 13.7-6 .3-3.3-3.6-4.8-6.2-3.5z" fill="#E7EAF3"/>
  <path d="M612.5 659c-3 0-5.5-2.6-5.5-5.7 0-1.1.3-2.2 1-3.1a5 5 0 0 1 2.5-1.8c.5-.2 1.8-.4 2.5-.4 2.9 0 5.4 2.5 5.4 5.4 0 3-3.3 5.5-6 5.5zm-2.5-7.4a3 3 0 0 0-.5 1.7c0 1.7 1.3 3.1 3 3.1 1.4 0 3.4-1.5 3.4-3a3 3 0 0 0-3-2.9l-1.5.3c-.4.1-1.1.4-1.4.8zM764.6 408.2c-.2-.7-.9-1.1-1.6-1-1.6.4-3.2.7-4.9.8a31.5 31.5 0 0 1-.1-4.6c0-.7-.5-1.3-1.2-1.4-.7 0-1.3.5-1.3 1.2a22 22 0 0 0 .1 5h-2.9l-1.5.1a1.3 1.3 0 0 0 0 2.5h1.6l3.1-.1.2 1 .4 3.1c0 .7.6 1.1 1.2 1.1h.2c.6 0 1.1-.7 1-1.4a101 101 0 0 0-.5-4c1.8-.2 3.5-.4 5.2-.8.7-.2 1.1-.9 1-1.5z" fill="#181B2B"/>
  <path d="M484 657.5c-3.7-.6-7 .3-10.7 1.2a102.8 102.8 0 0 1-23.9 2.7c-3.3 0-7-.5-10 1.2-.6.3-.8 1.4-.2 1.9 4.6 4.6 15.2 3.7 21.1 3.4 8-.4 15.8-2.2 23.7-3.5 3.4-.6 3.4-6.3 0-6.9z" fill="#E7EAF3"/>
  <path d="M481.2 656.3l-.2-.6c-.7-2.3-3.4-3.5-5.5-2.2-1.2.8-3.6.3-5 .4H464l-13 .4c-2.3.1-17.4-.8-14.5 5 1.5 3.2 5 2.6 8 2.8l12.2.2h12.1c3.5 0 7.3.4 10.4-1.2 1.6-.9 2.5-3 2-4.8z" fill="#72FFFF"/>
  <path d="M467.7 603.1l-.4-.4c-.7-.7-1.7-1-2.6-.7-2.2.7-2.7 1.8-3.5 3.8a17 17 0 0 1-4 6c-3.4 3.2-8 4.3-11.5 7.5-1 1-.2 2.8 1.2 2.8 9.4 0 19.1-6.2 21.7-15.4.4-1.3 0-2.7-1-3.6zM458.4 633a5 5 0 0 0-4 1.6c-.5.4-1 1.5-1.6 1.8-.6.3-1.7 0-2.3.1-1.4.1-2.6.3-3.5 1.3-.7.8-.8 1.7-.3 2.6 1.1 2.4 5.6 3.7 8 3.3a11 11 0 0 0 7-4.9c1.4-2.8-.3-5.6-3.3-5.9z" fill="#E7EAF3"/>
  <path d="M481.7 656l-.4-9.7c0-.7-.6-1.3-1.3-1.2a709 709 0 0 1-45.7.5c-.4 0-.7.1-1 .4-.2.2-.3.6-.3.9 0 3.8.4 7.6.8 11.3l.4 3.9c0 .6.6 1.1 1.2 1.1h45.3c.3 0 .7-.1.9-.4.2-.2.4-.6.3-1l-.2-5.9zm-14.7 4.8h-30.4l-.3-2.9c-.3-3.2-.7-6.5-.8-9.8a1225.2 1225.2 0 0 0 43.3-.5l.4 8.4.2 4.7H467z" fill="#181B2B"/>
  <path d="M444.3 652.5h-.3c-.5-.5-1.3-.5-1.8 0-.7.7-.9 1.6-.5 2.5.4 1 1.4 1.6 2.4 1.6 1.2 0 2.3-1 2.3-2.1a2 2 0 0 0-2.1-2zM456.6 652c-.8-.3-1.8 0-2.5.6-.3.4-.4 1-.2 1.5v.1c0 1 .7 1.7 1.8 1.7a2 2 0 0 0 2.1-2.1c0-.8-.4-1.4-1.2-1.7zM466.8 652.2H465c-.6.4-1 1-1 1.6v.5c.1 1.3 1.7 1.8 2.5 1.8 1.3 0 2.2-.9 2.2-2v-.2c-.2-1-1-1.7-2-1.7zM446.7 639c-.4 0-.7-.2-1-.5-.2-.2-.3-.6-.3-1 .4-3.7 3.3-7.7 7.7-7.7 5 0 5.7 4.6 6.1 7.4.1.4 0 .8-.2 1-.2.4-.6.5-1 .5l-5 .2h-6.3zm6.4-6.7c-2.4 0-4.2 2-4.9 4.1h4.8l3.5-.1c-.5-2.5-1.1-4-3.4-4zM484.7 609.5a573 573 0 0 1-23.3-1 1.3 1.3 0 1 1 .1-2.5c11 .6 20.6 1 23.2 1 2.3 0 4.7-.1 7-.3l7.2-.3a1.3 1.3 0 1 1 0 2.5l-7 .3-7.2.3z" fill="#181B2B"/>
  <path d="M452.7 631.3c-.7 0-1.2-.5-1.2-1.1l-.1-4.3v-2-2l-.1-5.5c0-.7.4-1.3 1.1-1.4.7 0 1.3.5 1.4 1.2l.1 5.7v8.1c.1.7-.4 1.3-1.1 1.3z" fill="#181B2B"/>
  <path d="M445.5 619.1H444c-.6-.1-1.2-.7-1.1-1.4 0-.7.7-1.2 1.4-1.2l1.2.1c5.4 0 15.7-5.3 15.7-13.6v-.7a6 6 0 0 1-.2-1 1.3 1.3 0 1 1 2.5 0v.6l.2 1c0 6.6-7.7 16.2-18.2 16.2z" fill="#181B2B"/>
  <path d="M634 317.7c.6-2.1-.4-4.2-2.5-4.9-1.7-.6-2.7.1-4.4.1-1.7 0-3.5-1.4-4.7-2.6a25.5 25.5 0 0 1-6-8.4c-.8-1.7-3.7-1-3.6.8.5 6.2 2.3 11.4 7.3 15.5a13 13 0 0 0 6 2.8c-.3 2.4.2 4.8.3 7.3.1 2.6 0 5.2-.3 7.8-.2 2.2-.4 4.5-.9 6.7-.6 2.8-1.8 3.7-4.4 4.5-4.5 1.3-9-.3-13.4.7a8.4 8.4 0 0 0-4.4 2.4c-.4.5-1.5 3.1-1.7 3.1-1.7.4-2.6 2.9-1.2 4.1 1.5 1.4 3.2 2 5.2 1.2 1-.4 1.3-1 2.1-1.6 1.5-1.2 1.3-1.2 3.6-.8 5.3.7 12.4 1.1 16.6-3 3.7-3.4 4.4-9.2 5-14 .6-5.7 2-13.8-.8-19.2 1.1-.6 2-1.4 2.3-2.5z" fill="#E7EAF3"/>
  <path d="M633.3 313.4v-.2c-.1-.6-.7-1-1.3-1h-.5c-2.2 0-5.8-.9-8.9-3-3.4-2.6-5.1-6-5-10.3l.3-3a1.3 1.3 0 1 0-2.5-.3l-.3 3.2a14 14 0 0 0 6 12.3c1.2.9 2.5 1.6 3.7 2 0 4.3.1 8.7.3 13 .1 5.3.3 10.4.1 15l-.3 4.5-.1 2.1c-5-.2-10.2 0-14.6.4-.8-3.6-5-5.8-9.2-6.5a1.3 1.3 0 0 0-1.4 1.3v12c0 .3 0 .7.3.9.2.2.5.4.8.4 5.3-.1 8.8-2.2 9.5-5.6a122 122 0 0 1 15.7-.3l.9-.3c.2-.2.4-.6.4-.9a105.6 105.6 0 0 1 .5-7.9c.2-4.7 0-9.8-.1-15.2l-.3-12a17.6 17.6 0 0 0 5 .8c.6-.1 1.1-.7 1-1.4zM602 353.6v-9.2c2.6.7 6 2.3 5.8 5 0 3-3.7 4-5.8 4.2z" fill="#181B2B"/>
  <path d="M647 563.6a13.7 13.7 0 0 1-4.5-8.7c-.1-2.7-4-2.7-4.2 0-.3 4.8.2 9.1 2.6 13.4 2.7 4.8 10-.7 6-4.7z" fill="#E7EAF3"/>
  <path d="M638.6 566.4c-.7 0-1.3-.6-1.3-1.3v-.8a1.3 1.3 0 1 1 2.5 0v.8c0 .7-.5 1.3-1.2 1.3zm-.6-7.5c-.6 0-1.1-.5-1.2-1.2v-.8c-.2-.7.4-1.3 1-1.4.7 0 1.3.5 1.4 1.2v.8c.1.7-.3 1.3-1 1.4h-.2zm-.5-7.5c-.7 0-1.2-.5-1.3-1.2v-.9c0-.7.5-1.2 1.2-1.3.6 0 1.2.5 1.3 1.2v.9c0 .7-.5 1.2-1.2 1.3zm-.2-7.5c-.7 0-1.3-.6-1.3-1.3v-.8c0-.7.6-1.3 1.2-1.3.7 0 1.3.6 1.3 1.3v.8c0 .7-.5 1.2-1.2 1.3zm0-7.6c-.7 0-1.3-.5-1.2-1.2v-.9c0-.7.6-1.2 1.2-1.2.8 0 1.3.6 1.3 1.3v.8c0 .7-.6 1.2-1.3 1.2z" fill="#181B2B"/>
  <path fill-rule="evenodd" clip-rule="evenodd" d="M718.9 244.2c0 .6.6 1 1.2 1h.2c.6 0 1.1-.6 1-1.3l-.4-4.5a25 25 0 0 0 3.9-.5c.6-.1 1-.8 1-1.5-.2-.6-.9-1-1.5-1-1.3.3-2.5.4-3.6.5a40.2 40.2 0 0 1 0-3.6 1.3 1.3 0 1 0-2.5-.1 32 32 0 0 0 0 3.7h-3a1.3 1.3 0 1 0 0 2.5h3.1l.6 4.8z" fill="#181B2B"/>
  <path d="M433.5 710.3c-2.7-1.9-5.3.1-7.2 2 .2-.2-.7.2-.5.2-1 .1-1.7-.1-2.7-.2-2-.1-3.5 2-3 3.9 1 3.1 4.5 4.6 7.6 4.4 3-.2 7-2.7 7.7-5.8.3-1.9-.3-3.4-1.9-4.5z" fill="#E7EAF3"/>
  <path fill-rule="evenodd" clip-rule="evenodd" d="M429.3 717.6c-.3 0-.6-.1-.9-.4a43 43 0 0 1-3.2-3.8 49.5 49.5 0 0 1-4.2 3.5c-.2.2-.5.3-.7.3a1.3 1.3 0 0 1-.8-2.3l3.1-2.6c-.7 0-1.5-.2-2.3-.5a1.3 1.3 0 1 1 .8-2.4l1 .3-1.4-1.5a1.3 1.3 0 0 1 1.7-1.9l3 3.3 1.8-1.7 1.4-1.5c.5-.5 1.3-.5 1.8 0s.5 1.3 0 1.7l-1.4 1.5-.1.1-.1.1 2.4.2c.7.2 1.2.8 1 1.5 0 .6-.6 1-1.2 1h-.2a13.6 13.6 0 0 0-3.3-.2l2.7 3.1c.5.5.5 1.3 0 1.8-.2.3-.6.4-.9.4z" fill="#181B2B"/>
  <path d="M173.3 449c-2.2-.8-4.2 0-6.2 1-.7.3-1.5.5-2.1 1h-.3c-1-.4-2-.3-2.9.6-3 3-.3 7.3 3.7 7.4 1.6 0 3.4-.5 5-1 2.2-.5 3.9-1.2 5.2-3.1 1.6-2.3-.1-5.2-2.4-6z" fill="#E7EAF3"/>
  <path fill-rule="evenodd" clip-rule="evenodd" d="M161 456.9c0 .7.6 1.2 1.3 1.2.6 0 1.2-.5 1.2-1.2v-2.4l1.8 2c.3.2.6.4 1 .4.3 0 .6-.2.8-.4.5-.4.5-1.2 0-1.7v-.1l-2.6-2.9 3.8-3.5c.6-.4.6-1.2.2-1.8-.5-.5-1.3-.5-1.8 0l-3 2.6c0-1.5 0-2.8-.2-4 0-.7-.7-1.2-1.4-1-.7 0-1.2.6-1 1.3v2.5l-1-1.5c-.4-.5-1.2-.7-1.7-.3-.6.4-.7 1.2-.3 1.8l2.9 3.7-3.6 3.3c-.5.4-.5 1.2-.1 1.7a1.2 1.2 0 0 0 1.8.2l2-1.8-.1 1.9z" fill="#181B2B"/>
  <path d="M778.2 300.3c2.6-7.4.1-17.9-9.4-17.2-2 .1-3 2.7-1.2 3.9 1.8 1.1 3.9 2.5 4.5 4.7.6 2.4-.3 5-.7 7.4-.6 4 5.6 4.7 6.8 1.2z" fill="#E7EAF3"/>
  <path d="M768.5 266.3c0-.6.5-1.1 1.1-1.2.7 0 1.3.4 1.4 1.1.3 2.5.4 5.3.3 8.6l-.3 5.2-.2 2c6 2 10.2 7.8 10 14-.2 5.7-3.6 9.4-9.7 11v.6c.1 4.7.2 9.7 0 14.5 0 1.7-.1 3.3-.3 4.9a1.3 1.3 0 0 1-2.5-.2 234.2 234.2 0 0 0 .3-19.1v-1.8c0-.6.4-1.1 1-1.2 5.7-1.1 8.5-4 8.7-8.8.2-5.3-3.7-10.3-9-11.7-.6-.1-1-.6-1-1.3l.2-3 .3-5.2a54.4 54.4 0 0 0-.3-8.4z" fill="#181B2B"/>
  <path d="M547.2 673c-.1-1.9-.3-3.7-.6-5.5-.5-3.8-1.3-7.6-1.5-11.4a19 19 0 0 1 2.6-10.5c1-2.2 1.5-4.4.1-6.4-.8-1.2-2.3-1-2.8.3-1.2 2.9-3.5 4.9-4.8 7.6-1.1 2.3-1.5 5-1.7 7.4-.5 6.8 1.5 13.5.7 20.2-.2 1.8-.5 3.4.2 4.9l-1.5.8-1.2.5c-1.2-.5-2.7.2-3.3 1.7-.9 2.1 1 4.3 3 4.8 2.4.5 5 0 7.3-.5 2.2-.6 3.4-3 3-5 4-2.2 3.3-6.6.5-9z" fill="#E7EAF3"/>
  <path fill-rule="evenodd" clip-rule="evenodd" d="M538.4 646.7c-1.8-.7-2.9-2.4-2.9-4.9 0-1.7.8-3.2 2-4a5 5 0 0 1 2.6-.8c2.3 0 5.6 1.6 5.6 5.2 0 2.8-2.4 4.7-4.8 4.9v1.1a39.6 39.6 0 0 1 0 3.6c-.6 4.6-.8 9.1-1 13.5l-.1.3a313 313 0 0 1-.5 8.1c3.2 0 5 2.5 5.3 7.4 0 .7-.5 1.3-1.1 1.3-2 .3-4 .4-6 .4h-.2l-4 .2c-.4 0-.7 0-1-.3-.2-.3-.3-.6-.3-1 .2-3 2-6.2 4.8-7.5v-.3l.5-8.4v-.3c.3-4.5.5-9 1.1-13.7l.1-1.6v-1.6-1.6zm1.7-7.2c-.3 0-.8.2-1.2.5-.6.3-.8 1-.8 1.9 0 2.4 1.3 2.7 2.5 2.7s2.6-1 2.6-2.4c0-2.2-2.3-2.7-3-2.7zm-1 36.7c-2 0-3.7 2-4.4 4.2h2.7l4.6-.3c-.4-3.4-1.7-3.9-2.8-3.9z" fill="#181B2B"/>
  <path d="M710.1 502.3c-2.8 2.4-12-.3-10.7 6.1a2 2 0 0 0 1.4 1.5c2.5.4 4.6 1.6 7.1 1.8 3 .2 6.5-.7 8.6-3 3.8-4.4-2-10.2-6.4-6.4zM714 484c-1.7.7-2.5 1.8-3.6 2.2-1.8.6-3.6.7-5.4 1.6-1.2.5-1.5 2.1-1 3.2.5 1.3 1.7 1.8 3 1.5 1-.1 2.2.3 3.2.5 1.1.2 2.1.2 3.2 0 2.8-.3 5.5-2.1 5.4-5.2 0-2.3-2.4-4.7-4.9-3.8zM719.5 472.4c-.6-2-3-3.6-5.1-2.9-3 1.1-7 2.3-9.4 4.5-1.6 1.5-.8 4.4 1.3 5 3.2.7 7.3-.4 10.3-1.5 2.1-.7 3.5-2.8 2.9-5z" fill="#E7EAF3"/>
  <path fill-rule="evenodd" clip-rule="evenodd" d="M713.7 475.2h-.1c-4-.3-8.1-.3-12-.3-.4 0-.8-.3-1-.8-.2-.4-.2-1 .1-1.3l4.1-4.6 2.4-2.8c.3-.3.7-.4 1-.4.4 0 .8.2 1 .6l2.6 3.5v.1l3 4c.2.4.2 1 0 1.3-.3.4-.7.7-1.1.7zm-9.3-2.8l6.8.1-1.5-2-.3-.4c-.5-.6-1-1.2-1.3-1.8l-1 1-.4.5-2.3 2.6zm9.7 17.5c-3.7 0-7.5-.1-11.2-.3H700.2c-.5 0-1-.4-1.1-.8-.2-.5-.1-1 .2-1.4 2.7-2.9 5.4-5.6 8-8a1.3 1.3 0 0 1 1.9.2l.7 1c1.7 2.5 3.4 5 5.2 7.3a1.3 1.3 0 0 1-1 2zm-11-2.8l8.5.3-3.7-5.2-4.8 5zm-3.8 17.8c.2.4.6.7 1 .7h.1a54.5 54.5 0 0 1 7.7-.1 146.6 146.6 0 0 0 9.5-.2c.5 0 1-.4 1.1-.9.1-.5 0-1-.3-1.3-3.3-3-6.2-5.9-8.7-8.7a1.3 1.3 0 0 0-1.8-.1 54 54 0 0 0-8.5 9.3c-.3.4-.3.9-.1 1.3zm8.9-2a146.7 146.7 0 0 0-5.2 0c1.7-2.1 3.6-4 5.7-6 1.8 2 3.7 4 5.9 6-2 .2-4.2.1-6.4 0z" fill="#181B2B"/>
  <path d="M328.3 350.7c-1.7-1.8-4.2-1.6-6.3-.6-1.5.8-3 2.5-4.8 2.7-2 .2-3.5 2.7-1.8 4.2 2.2 2 4.7 2 7.3 1 2.3-1 4.6-2.2 6-4.2.7-1 .4-2.4-.4-3.1z" fill="#E7EAF3"/>
  <path fill-rule="evenodd" clip-rule="evenodd" d="M318.4 355.8a1.3 1.3 0 1 0 2.5 0l-.1-3.8c1.3 0 2.7 0 4.1-.3a1.3 1.3 0 0 0-.3-2.5 38 38 0 0 1-4 .3v-3.2a1.3 1.3 0 1 0-2.6 0l.1 3.3-3 .3c-.7 0-1.2.7-1 1.4 0 .6.5 1 1.2 1h.1l2.9-.2.1 3.7zM159.2 693.6h.1c.7 0 1.2-.5 1.3-1.1a33.1 33.1 0 0 0 0-4.6h2a1.3 1.3 0 0 0 0-2.5h-2.1l-.1-3.1a1.3 1.3 0 1 0-2.5 0v3.2h-3.6a1.3 1.3 0 1 0 0 2.4h3.8a57.7 57.7 0 0 1 0 4.4c0 .7.4 1.3 1.1 1.3z" fill="#181B2B"/>
  <path fill-rule="evenodd" clip-rule="evenodd" d="M529.6 256.3c3.1 2.6 6.2 5.2 8 9 1.8 3.8 1.9 8.3-2.2 10.2a13.5 13.5 0 0 1-8.7 8.7c-4.4 1.6-8.7 1-13.1.3l-3.9-.6c-2.6-.3-2.8-4.2 0-4.2h.1c6.3 0 16.1.1 18.1-7.4.5-1.8 1.8-2.7 3.3-2.8-.2-1.2-.5-2.4-1-3.6a30.8 30.8 0 0 0-5.9-7.8c-2.2-2.2 1.1-5.5 3.5-3.4l1.8 1.6zM549 266c1.8-.6 4.4.3 5.2 2 1 2.3 1 4.5-.2 6.7a8 8 0 0 1-4.2 3.5c-2.7 1-7 .7-9.1-1.7a3 3 0 0 1 .6-4.5 8 8 0 0 1 2.7-1 11.1 11.1 0 0 0 1.6-.3h-.1v-.1l.1-.2c.2-2.1 1.3-3.8 3.4-4.4zm-1 24.8c2.8-2.2 6.7-.9 7 2.9.3 3.3-3 6-5.9 7-2.6.8-6.3.7-8.6-1-1.6-1.1-1.9-3.5 0-4.7l2.7-1c.7-.1 1.4-.3 2-.6a5 5 0 0 0 1.2-.7l.4-.4v-.1l.2-.2c.3-.4.6-1 1-1.2zm-26.7-23c-2.3-.6-5.6 1.1-6.8 3.2-.8 1.5 0 3 1.5 3.6 1.1.4 2.4.2 3.5 0h.1c1.5-.2 2.7-.9 3.6-2.2 1.2-1.7 0-4-1.9-4.6z" fill="#E7EAF3"/>
  <path d="M552.4 268c0-2.7-2.2-5.6-5.8-6-.6-4-.8-8-1-12 1.8-.7 3.5-3.6 3.7-8.4a1.3 1.3 0 0 0-1.3-1.3h-3.2l-.5-.1v-.3a1.3 1.3 0 1 0-2.5.1v.2h-3.2a1.3 1.3 0 0 0-1.2 1.3c.3 6.2 3 8.2 5.7 8.7.2 4 .4 8 1 12a6.7 6.7 0 0 0-4.6 6.2v1.1h-1c-2.2 0-4.4-.2-6.5-.4-2.2-.2-4.5-.4-6.8-.4-1.6 0-3 0-4.4.3V268.7c0-2-2.7-5.2-5.9-5.2-1.7 0-2.8.8-3.6 1.5-1.2 1-1.9 2.5-1.9 3.9 0 3 2.4 5.2 5.5 5.2 1.9 0 4-1 5-2.7.3.2.6.2.8.2 1.4-.3 2.8-.4 4.5-.4 2.1 0 4.4.2 6.5.4 2.2.2 4.5.5 6.8.5l2-.1h.1c1 1 2.2 1.9 4 2l.3 6.1c0 2.8.2 5.7.5 8.7h-.3c-3.6 0-5.3 4.8-6 6.8-.2.4-.2.9.1 1.2.3.4.7.5 1 .5h2l3.6.1a61.6 61.6 0 0 0 4.9.1c.3 0 .7-.2 1-.5.1-.3.2-.7.1-1-.7-3-2.2-5-3.9-6.2v-.5a115 115 0 0 1-.5-9.3l-.3-6.2c3.2-.7 5.3-3.4 5.3-5.9zm-34.1.9c0 1.3-1.8 2.7-3.4 2.7-1.7 0-3-1.2-3-2.7 0-.7.4-1.5 1-2 .8-.6 1.3-.9 2-.9 1.8 0 3.4 2 3.4 2.7v.2zm27.6 26l-3.7-.2h-.1c.7-1.5 1.7-3.4 3-3.4.9 0 2.7 1.1 3.8 3.7l-3-.1zm-5.9-52.2h6.7c-.4 3.7-1.8 5-2.2 5.1-1.7 0-3.9-.5-4.5-5.1zm5.2 28.8c-2.2 0-3.3-1.5-3.3-3s1-3 2.5-3.7c.4-.2 1-.3 1.4-.3 2.8 0 4 2 4 3.4 0 1.5-1.7 3.6-4.6 3.6z" fill="#181B2B"/>
  <path fill-rule="evenodd" clip-rule="evenodd" d="M512.8 254.7h.1a11.3 11.3 0 0 1 1-.1h.8c.7 0 1.3-.6 1.3-1.3 0-.7-.6-1.2-1.3-1.2h-.9H512.6c-.7.2-1.2.8-1 1.5 0 .6.5 1 1.2 1zm8.6 1.4l-.7-.3c-.6-.3-.9-1-.6-1.7.3-.6 1-1 1.6-.7l.9.4a1.3 1.3 0 0 1-1.2 2.3zm-20.1 7.3h-.5c-.7-.4-1-1.1-.7-1.7l.4-.9a1.3 1.3 0 1 1 2.3 1.2l-.4.7c-.2.5-.6.7-1.1.7zm26-2c-.4 0-.9-.3-1-.7l-.4-.7c-.4-.6-.2-1.3.3-1.7.6-.4 1.4-.2 1.8.4l.4.8a1.3 1.3 0 0 1-1 1.8zm.4 5.4v.5c0 .7.5 1.3 1.2 1.3s1.3-.5 1.3-1.2v-.4-.5c0-.7-.6-1.3-1.3-1.2-.7 0-1.3.6-1.2 1.2v.3zm-26.2 1.8v.8c.2.7-.3 1.3-1 1.4h-.2c-.6 0-1.1-.5-1.2-1.1l-.1-1c0-.6.5-1.2 1.2-1.2.6 0 1.3.4 1.3 1.1zm20.6 10.1l-.6.5c-.6.4-.7 1.2-.3 1.7.2.4.6.6 1 .6.3 0 .5-.1.7-.3l.8-.5c.5-.4.6-1.2.2-1.8-.5-.5-1.2-.6-1.8-.2zm-6.7 2.6h.6c.6 0 1.2.5 1.3 1.2 0 .6-.5 1.2-1.2 1.3H515.2c-.7 0-1.3-.6-1.3-1.3 0-.6.6-1.2 1.3-1.2h.2zm12.6-8.6c-.6-.3-1.4 0-1.7.6l-.3.7a1.3 1.3 0 0 0 1 1.8c.5 0 1-.2 1.2-.6l.4-.8c.3-.7 0-1.4-.6-1.7zm-22.1-17.9c.5-.4 1.3-.2 1.7.3.4.6.3 1.4-.3 1.8l-.6.4c-.3.2-.5.3-.8.3-.4 0-.7-.2-1-.5-.4-.5-.3-1.3.2-1.8l.8-.5zm3.3 25.2a11 11 0 0 1-.7-.3c-.6-.3-1.3 0-1.7.5-.3.7 0 1.4.6 1.7l.8.4a1.2 1.2 0 0 0 1.7-.6c.2-.7 0-1.4-.7-1.7zm-7.4-5.2c.6-.4 1.4-.2 1.7.4l.4.6a1.2 1.2 0 0 1-1 2c-.4 0-.8-.2-1-.6l-.5-.7c-.4-.6-.2-1.4.4-1.7z" fill="#181B2B"/>
  <path d="M546.2 227.6c.3.2.5.3.8.3.4 0 .7-.2 1-.5l.5-.5a1.3 1.3 0 0 0-1.9-1.7l-.5.7c-.5.5-.4 1.3.1 1.7zM543.4 234.6h.3c.6 0 1-.4 1.2-1l.3-.7a1.3 1.3 0 0 0-2.4-.7l-.3.8c-.2.7.2 1.4.9 1.6zM555.2 222c-.2-.7-.8-1.1-1.5-1l-1 .3a1.3 1.3 0 0 0 .8 2.4l.7-.2c.7-.2 1.1-.8 1-1.5z" fill="#181B2B"/>
  <path fill-rule="evenodd" clip-rule="evenodd" d="M344.8 526.6h.1a12 12 0 0 1 1 0h.8c.7 0 1.3-.7 1.3-1.3 0-.7-.6-1.3-1.3-1.3h-.9H345.5l-.9.1c-.7.1-1.2.7-1 1.4 0 .7.5 1.1 1.2 1.1zm8.6 1.4l-.7-.3c-.6-.3-.9-1-.6-1.7.3-.6 1-.9 1.6-.6l.9.4a1.3 1.3 0 0 1-1.2 2.2zm-20.1 7.4l-.5-.1c-.7-.3-1-1-.7-1.7l.4-.8a1.3 1.3 0 1 1 2.3 1.1l-.4.7c-.2.5-.6.8-1.1.8zm26-2.1c-.4 0-.9-.3-1-.7a16 16 0 0 0-.4-.6c-.4-.6-.2-1.4.3-1.8.6-.3 1.4-.2 1.8.4l.4.8a1.3 1.3 0 0 1-1 1.9zm.4 5.4V539.3c0 .7.5 1.2 1.2 1.2s1.3-.5 1.3-1.2v-.4-.5c0-.7-.6-1.2-1.3-1.2-.7 0-1.3.6-1.2 1.3v.2zm-26.2 1.8v.8c.2.7-.3 1.3-1 1.4h-.2c-.6 0-1.1-.5-1.2-1l-.1-1c0-.7.5-1.3 1.2-1.3.6 0 1.3.5 1.3 1.1zm20.6 10.2l-.6.4c-.6.4-.7 1.2-.3 1.8a1.3 1.3 0 0 0 1.7.3l.8-.6c.5-.4.6-1.2.2-1.7-.5-.6-1.2-.7-1.8-.2zm-6.7 2.5h.6c.6 0 1.2.5 1.3 1.2 0 .7-.5 1.3-1.2 1.3H347.2a1.3 1.3 0 1 1 0-2.5h.2zm12.6-8.6c-.6-.3-1.4 0-1.7.6 0 .3-.2.5-.3.7a1.3 1.3 0 0 0 1 1.9c.5 0 1-.3 1.2-.7l.4-.8c.3-.6 0-1.4-.6-1.7zm-22.1-17.9c.5-.4 1.3-.2 1.7.4.4.5.3 1.3-.3 1.7l-.6.5-.8.2c-.4 0-.7-.1-1-.5-.4-.5-.3-1.3.2-1.7l.8-.6zm3.3 25.3l-.7-.4c-.6-.3-1.3 0-1.7.6-.3.6 0 1.3.6 1.7.3 0 .5.2.8.3l.5.2a1.3 1.3 0 0 0 .5-2.4zm-7.4-5.3c.6-.4 1.4-.2 1.7.4l.4.6a1.2 1.2 0 0 1-1 2c-.4 0-.8-.2-1-.5a18 18 0 0 1-.5-.8c-.4-.6-.2-1.3.4-1.7z" fill="#181B2B"/>
  <path d="M239 692.7c-2.7-2-6.4-1.7-8.5-4.5a23 23 0 0 1-3.4-9.6c-.4-1.9-2.9-1.2-3 .4-.7 4.7-1.2 9 1.4 13.2 2.3 3.7 6.5 5.3 10.1 7.2 1.2.6 3 .6 3.9-.5l.3-.3c1.6-2 1.3-4.4-.8-5.9z" fill="#E7EAF3"/>
  <path fill-rule="evenodd" clip-rule="evenodd" d="M222 676.9c-2.2-.4-4.5-2-5-7 0-.3 0-.7.3-1 .2-.2.6-.4 1-.4 2.6 0 5.3-.2 8-.4h.5l1-.1c.4 0 .7.1 1 .3.2.2.4.6.4 1 0 4.3-2.3 6.8-4.7 7.5v.2a52.6 52.6 0 0 0-.1 3.1c0 8.9 3 13.2 9.4 13.2a9 9 0 0 0 2.9-.5c.5-.4 1.3-.2 1.7.3.4.6.2 1.4-.4 1.8-1 .7-3.6 1-4.2 1-5.4 0-12-2.8-12-15.8 0-1 0-2 .2-3.2zm1.2-2.4c-1.3 0-2.9-.4-3.5-3.5 2.3 0 4.6-.2 6.9-.4-.4 2.5-2 3.9-3.4 3.9z" fill="#181B2B"/>
  <defs>
    <filter id="filter0_f" x="315.7" y="419" width="309.4" height="325.7" filterUnits="userSpaceOnUse" color-interpolation-filters="sRGB">
      <feFlood flood-opacity="0" result="BackgroundImageFix"/>
      <feBlend in="SourceGraphic" in2="BackgroundImageFix" result="shape"/>
      <feGaussianBlur stdDeviation="35.5" result="effect1_foregroundBlur"/>
    </filter>
    <filter id="filter1_f" x="155" y="425.3" width="414.9" height="419.3" filterUnits="userSpaceOnUse" color-interpolation-filters="sRGB">
      <feFlood flood-opacity="0" result="BackgroundImageFix"/>
      <feBlend in="SourceGraphic" in2="BackgroundImageFix" result="shape"/>
      <feGaussianBlur stdDeviation="35.5" result="effect1_foregroundBlur"/>
    </filter>
    <filter id="filter2_f" x="483" y="84" width="277.2" height="340.4" filterUnits="userSpaceOnUse" color-interpolation-filters="sRGB">
      <feFlood flood-opacity="0" result="BackgroundImageFix"/>
      <feBlend in="SourceGraphic" in2="BackgroundImageFix" result="shape"/>
      <feGaussianBlur stdDeviation="35.5" result="effect1_foregroundBlur"/>
    </filter>
    <filter id="filter3_f" x="407" y="0" width="392.1" height="348.2" filterUnits="userSpaceOnUse" color-interpolation-filters="sRGB">
      <feFlood flood-opacity="0" result="BackgroundImageFix"/>
      <feBlend in="SourceGraphic" in2="BackgroundImageFix" result="shape"/>
      <feGaussianBlur stdDeviation="35.5" result="effect1_foregroundBlur"/>
    </filter>
  </defs>
</svg>
