<svg width="201" height="223" fill="none" xmlns="http://www.w3.org/2000/svg">
  <path d="M92.1 71.1l2 2c3.1-.6 6.3-1 9.5-1.2l1.5-.7c.2-1 .9-2 2-2.4.9-.4 1.2-1.2 1.3-2.2 0-2.7 0-5.8-1.7-7.7-2.3-2.5-6.8-1.3-9.6-1.1-6.5.5-13.6.8-19.8 3.3.2-.2.3-.6.2-1-.4-1.3-2-1.7-3.2-1-2 1-2 4-2 6 .1 2.1.2 4.6 2 6 2 1.4 4.2.8 6.1-.3.8-.5 1.3-1.2 1.4-2 2.7-.8 5.4-1.3 8.2-1.2-2 1.4-1.2 5 1.1 5.7l-.4-1c-.5-1 .6-2 1.4-1.2z" fill="#72FFFF"/>
  <path d="M138.3 26.8c0-5.6-.8-11.4-2.9-16.4-2.7-6.3-7.7-7.9-14.1-6.7-.9.2-.9 1.6 0 1.7a58.9 58.9 0 0 0 .8.2c2.3.5 5 1 6.5 2.9 1.4 1.9 1.8 4.6 2.2 7l.1.8c.6 3.8.5 7.5.5 11.2v7c.2 1.6 1 2.5 2 2.9-.2 2.6-.2 5.3-.2 8V50.8c0 3.7 0 7.5-.2 11.2v.9a272.1 272.1 0 0 0-.1 3 60.5 60.5 0 0 1-3.6 23.7 13 13 0 0 1-7.4 2.1c-3.1.2-6.3.2-9.4.3l-9 .1a36.7 36.7 0 0 0-5-13.2c4 .6 9-.7 11.4-3a3 3 0 0 0 1-2.4c1.3-.9 2.2-2.4 2.5-4.1.5-2 0-4.1-.5-6.1a30 30 0 0 1-.6-2.9c-.2-1.9-3.1-1.6-3.5 0-.4 1.4-.4 2.7-.3 4V64.8a45.7 45.7 0 0 1 0 2c-.2.8-.5 1.7-1.4 2a3 3 0 0 0-2 2.3 23.5 23.5 0 0 0-1 .5l-.5.2a15 15 0 0 1-4.9 1.5c-1.2.1-2.4.3-3.5.8l-.2.1a72 72 0 0 0-1-1v-.2a62 62 0 0 0-2-2c-.8-.7-2 .2-1.5 1.2l.3.6.1.4a52.6 52.6 0 0 1 4 21.6 11.4 11.4 0 0 0 1.2 5.9c-.9 1-.6 2.4.7 2.9 2.9 1 6.3.8 9.4.6h.6l6.8-.6 2.3-.1 2.3-.2 10.7-.6c3.3 0 6.4-.3 9.3-1.7.5-.3 1-.6 1.2-1 3.2-2.3 4.4-8.6 4.8-12 .7-6.2 0-12.6-.6-18.8l-.1-1.6c-.7-6.3-1.6-12.6-2.5-18.9-1-7.2-2-14.5-2.7-21.8zM23.2 50l.7 9.3.2 4.8c.1 3.7.3 7.4.6 11 .3 2.5 4 2.5 4 0l-1-9.8-.5-5.4c-.4-3.7-.5-7.4-.6-11.1l-.2-4.2c-.1-3.7-.4-7.3-.6-11l-.2-2.3a733.6 733.6 0 0 1-.4-5c-.2-2.6-.4-5.2-.4-7.8a4 4 0 0 1 1.6-1 6 6 0 0 1 2 0h1c2 0 4-.3 6-.5l4-.4 7.4-.7c7.9-.8 15.7-1.1 23.6-1.2 2.9 0 2.9-4.4 0-4.4a223.9 223.9 0 0 0-32.2 1.4l-.5.1c-4.3.5-8.8 1-12.7 2.8a5.8 5.8 0 0 0-.4.2c-.3-.2-.9 0-1 .4l-.2.6c-.8.8-1 2-.9 3.2a74.8 74.8 0 0 0-.2 21 383.5 383.5 0 0 1 .9 10zM74.5 78c-1.9-.5-3-2-2.7-4 .2-1.4 2.2-1.8 3-.8V73h.4c.3-.2.3-.3.2-.1l.4-.3 1-.7c2.5-1.7 5.5 2.3 3.2 4.3-1.5 1.4-3.4 2.3-5.5 1.7zM37 166c1.7-.6 3-2.3 2.4-4.2-.5-1.6-2.4-3-4.2-2.3-2 .7-3.6 1.8-5 3.3a3 3 0 0 0-.3 4c1 1 2.7 1.6 4 .7l1.7-1 .4-.1a23.2 23.2 0 0 0 1-.4zM32 169.6c-1-.8-2.6-.8-3.5.2l-.2.1-.5-.5c-.1-.2-.3-.3-.5-.3.2.1.2.1 0 0h-1.1c-2 .9-.9 3.8.3 4.8.8.7 1.8 1 2.9 1 1.5 0 2.4-.8 3.3-2 .8-1 .2-2.6-.7-3.3zM96.3 109.7c-1 4.3-1.2 9.4-.5 13.7.6 3.8 6.4 2.6 6.5-1 .2-4-.6-9-2-12.7-.7-1.7-3.5-2.1-4 0zM112.6 113.7l.1 1.5.7 3.2.6 2.7c.7 4-5.3 4.8-5.5.8v-4.2l.2-2.3v-.6c.1-1.7.2-3.5.7-5.2.4-1.2 2-1.2 2.4 0 .5 1.3.6 2.7.8 4.1zM124.2 123.8l-.6-4a231.9 231.9 0 0 1-.6-4c-.1-1.6-.3-3.1-.8-4.6-.3-.7-1.6-1.2-2-.2a30.9 30.9 0 0 0-1.4 12.8c.2 3.5 5.8 3.4 5.4 0zM76 123c1.8-.2 3.5-.5 5.2.1 2.6 1 3.2 5.3 0 5.9-2.1.4-4-.1-6-.7l-.3-.1-.2-.1-1.5-.4c-1.5-.4-3-.8-4.4-1.5-.9-.5-.6-1.8.3-2 1.3-.5 2.8-.6 4.2-.8h.8a47.8 47.8 0 0 0 2-.3zM80.6 93.2c2.3.8 2.9 3.3 1.7 5 2.8 1 3.2 6-.3 6.7-11 2-22.9 1.8-34 1.5-5.5-.2-11.1-.5-16.6-1.3-4-.6-8-1.3-10-5.2-.2-.5 0-1.2.3-1.5-1.2-1-2.2-2.4-3-4.1-.4-1 .8-2 1.6-1.2 3.6 3.6 8.7 3.9 13.5 3.3 2.5-.2 5-.6 7.3-1a262.8 262.8 0 0 1 33-2.7c2.3 0 4.5-.2 6.5.5z" fill="#E7EAF3"/>
  <path d="M50.6 51.9c-3.2 1.4-7.4.6-10.8-.1-1.4-.3-1.5-1.9-.7-2.7l-.3-.2c-.7-.6-.5-2.1.4-2.5a9 9 0 0 1 2.4-.6c1.2-.2 2.4-.3 3.3-1 1.3-1 1.2-2.2 1.1-3.5v-.7-.6c-2 .6-4.6-1-3.9-3.8l.3-.8c.2-1 .5-1.8.5-2.9 0-.8-.3-1.5-.5-2.3l-.4-1.4c-.3-1.4 1-2.3 2.3-1.7 3.6 1.5 5.2 7.4 4 10.8l-.1.1h.8a18.2 18.2 0 0 0 .2-4.5c0-1.4 2-2.4 3-1.2 2.1 2.3 2.5 6 1.7 9 .9.4 1.6 1.3 1.4 2.6-.3 3.2-1.5 6.6-4.7 8zM135.3 126.7c-.2-1.6-2.4-1-2.5.3a62 62 0 0 1-.7 5.3c.2-4-.3-8-1.8-11.8-.5-1.2-2.2-.8-2 .5 1.7 8.6-2 17-5.4 24.8l-.8 1.7-.2.6-.3.5a56.1 56.1 0 0 0-5.6 26.7c.3 3.4 4.1 4 5.8 2-.1 3.7 0 7.4.3 11.1-.5-2.3-1-4.5-1.8-6.7-.4-1.4-2.9-1.7-3.1 0-1 6.2-1.2 12.6-1.2 19a339.4 339.4 0 0 0 .3 11.3V212.6c0 2.6 0 5.2.6 7.6.3.8.7 1.5 1.3 2h5.6c.5-.5.9-1.1 1-2a14.5 14.5 0 0 0 .2-1.3v-.2-.1l.2 3.5s5.2.5 8 0c.7-.8 0-7-.8-15-1.2-10.5-2.6-24.1-2-33.3.4-6 1.5-11.8 2.6-17.7 1.9-9.7 3.7-19.4 2.3-29.4zM92.6 191.6c1-.7 2.4 0 2.9 1 .5.3 1 .9 1.1 1.6 1 3-2 7.5-5.3 7.5-2.5 0-5.8-2.5-4.2-5.3.3-.5.8-.7 1.3-.8a2 2 0 0 1 1-1.7 8.1 8.1 0 0 0 1.3-.8c.6-.6 1.2-1 2-1.5zM170.6 118c1.4-2.6-1.7-6.6-4.5-4.5-1.2.9-1.8.9-3.2.4l-2-1c-1-.3-1.9-.8-2.9-1-.8-.2-1.8.4-1.8 1.3.5 5.9 11 11.2 14.4 4.8z" fill="#E7EAF3"/>
  <path d="M191.6 112.4c-1.4-4.2 5-6.8 7-3 4.4 8 0 17.5-8.2 20.7a17 17 0 0 1-14.2-.9c0 .2 0 .5-.2.7-2.8 6.6-14.3 7.3-16.4-.4-.5-2 1.8-3 3.2-1.8 2.8 2.2 5.5 2 7-1.5.2-.5.7-1 1.2-1.2-.6-.9-1-1.8-1.3-2.7-.5-2 1.4-3 3-2.4l2.4 1.1c3.6 1.7 7.2 3.4 11.5 2 4.7-1.7 6.6-6 5-10.6zM158 146.4c-1.3-.5-3.2-.1-3.8 1.3L153 150l-.2.4a13.6 13.6 0 0 0-.7-.4l-.2-.1c-1.5-.9-2.9.6-2.7 2 .4 2.5 3.1 4.7 5.6 4 2.5-.6 4.3-3.7 5-6a3 3 0 0 0-1.8-3.6zM51.7 176a12 12 0 0 1 1.2-3.7c2-3.3 6.5-2.4 7.6 1 1.3 3.6-.4 8.5-2.7 11.4-2.4 3-5.8 4.3-9.5 4.5-6.2.4-16-2.8-14.8-10.6.2-1 1.6-1.5 2.4-1 3.6 2.3 7 3.9 11.4 3.3 3.4-.5 3.9-2.6 4.4-5zM36.8 130.3c.9-5.3-5.4-8-8.6-3.6-.4.5-.7 1.2-1 1.8-.8 1.7-1.6 3.4-3.5 3.6-1.7 0-7-1.3-7.8-3-.5-.8-1.5-1.1-2.3-1a4.2 4.2 0 0 0-4.4 1l-.6.5h-.4a14 14 0 0 1-2.5-.7 38 38 0 0 0-.9-.3c-1.3-.4-2.9 1-2.3 2.4.6 1.5 1.5 2.8 2.6 3.9-.4 1-.3 2 .7 2.8 2.9 2.3 7 3.6 10.5 2.1.6-.2 1-.5 1.5-.8 1.7.9 3.4 1.5 4.7 1.8 6.9 1.3 13.1-3.8 14.3-10.6zM178.4 53.2c-1.7 1.5-3.5 3-6 2.7-2.8-.3-5.3-4.2-2.7-6.4.8-.8 1.8-.9 2.7-.6a6 6 0 0 1 3.1-2c1.6-.4 3.1.2 4 1.6.8 1.2.6 3.2-.6 4.2l-.5.5z" fill="#E7EAF3"/>
  <path d="M55.6 63.6a1.3 1.3 0 0 0-2.3.6V66l.1 3.4.2 3.2a1.3 1.3 0 0 0 2.6 0l-.2-3.2v-.2a34.7 34.7 0 0 1-.1-4.7c0-.3-.1-.7-.3-1zM71.5 43.7c4.7.5 9.6.7 15.5.7 5.1 0 10.2-.2 15.2-.3h.2c.3 0 .6-.2.9-.5.2-.2.3-.5.3-.9 0-.7-.6-1.2-1.3-1.2h-.2c-5 .2-10 .3-15.1.3-5.8 0-10.6-.2-15.3-.6-.7 0-1.3.5-1.4 1.2 0 .7.5 1.3 1.2 1.3zM87.7 29.7c-4.4.2-9 .4-13.5.4h-3.5c-.4 0-.7-.2-1-.4-.2-.3-.3-.6-.3-1 0-.3.2-.6.4-.8.3-.2.6-.4 1-.4h3.4c4.4 0 9-.1 13.3-.4H88.2c4.4-.2 9-.5 13.5-.5.7 0 1.3.6 1.3 1.3 0 .7-.5 1.3-1.3 1.3-4.4 0-9 .2-13.4.4h-.5zM69.1 35.6c0 .7.6 1.2 1.3 1.2h.1c5.7-.5 11.7-.6 17-.6h.3c4.5 0 9.1 0 13.7-.4.4 0 .7-.1.9-.4.2-.2.3-.6.3-.9 0-.7-.6-1.2-1.3-1.2-4.4.3-9 .3-13.3.3h-.5c-5.7 0-11.5.1-17.3.6-.7.1-1.2.7-1.2 1.4z" fill="#181B2B"/>
  <path d="M65.1 85.7c4.3 0 8-.1 11.3-.4.3 0 .6 0 .9.3.3.2.4.5.5.8 0 .7-.5 1.4-1.2 1.4-3.5.4-7.1.5-11.5.5a357 357 0 0 1-10.8-.2l-8.7-.1c-4.2 0-7.5.2-10.7.3h-.5l-.5.1h-.2l-4 .2h-.2a4.6 4.6 0 0 1-4.6-4c-1.4-14-4-41.6-4.7-69a4 4 0 0 1 3.9-4c24.3-1 46.2-1.9 68.7-1.9 10.5 0 20.2.2 29.6.6 2.3 0 4.1 2 4.2 4.3l.2 10.5v5.6c.3 16.6.6 33.7 1.5 50.7a5 5 0 0 1-4.8 5.3c-3 0-6.2.4-9.3.6h-.2c-3.3.4-7 .7-10.7.8a1.3 1.3 0 0 1-1-2.1c.3-.3.6-.4 1-.4 3.4-.1 7-.5 10.4-.8h.2c3-.3 6.3-.6 9.5-.7.6 0 1.3-.3 1.7-.8.4-.5.7-1.1.6-1.8-.8-16.5-1-33.4-1.4-49.8v-1c0-5.4-.1-10.8-.3-16.1 0-1-.7-1.7-1.7-1.8-9.3-.4-19-.6-29.5-.6-22.2 0-44.2.9-68.6 2-.8 0-1.4.6-1.4 1.4.7 27.2 3.2 54.7 4.7 68.6a2 2 0 0 0 2.1 1.8c1.4 0 2.7 0 4-.2h.7a176.9 176.9 0 0 1 21.1-.2h1l8.7.1z" fill="#181B2B"/>
  <path d="M72.5 59.3H73.3l3.8-.4 1.8-.2A228.1 228.1 0 0 1 104 57h.2l3 .1v8.1a115.5 115.5 0 0 0 0 5.2c-3.7.2-6.5.4-9.2 1-.3 0-.6.2-.8.5-.2.2-.3.6-.2 1 .1.6.8 1 1.5 1 2.8-.6 6-.8 10-1 .4 0 .8-.1 1-.4.2-.2.3-.6.3-1a46.5 46.5 0 0 1 0-8V61v-.8-.6c0-2 0-3.3-.9-4.2-1-1-2.3-1-5-.9H102a229.2 229.2 0 0 0-29.3 2.2h-.2c-2.8.2-2.8 1.4-2.8 5 0 .7.1 3.5.4 6.2.4 4 1 6.3 2.7 6.3l2.5-.3h.2l1.8-.3a1.3 1.3 0 0 0 0-2.5c-.8 0-1.7.1-2.4.3l-1.6.2c-.6-1.6-1-7.4-1-10v-2.3l.3-.1zM36.7 62.5c.3-.3.6-.4 1-.3.6 0 1.2.6 1.1 1.3v2.2l.1 4.3v.3l.2 4.4c0 .7-.5 1.3-1.3 1.3-.7 0-1.2-.6-1.2-1.3l-.2-4.4a72 72 0 0 1-.1-7c0-.3.2-.6.4-.8zM45.5 74a1.3 1.3 0 0 0 1.6.8c.7-.2 1-.9.9-1.6a16 16 0 0 1-.6-4.6V67v-2.8c0-.3-.3-.6-.5-.8-.3-.3-.6-.4-1-.3-.3 0-.6.2-.8.4-.3.3-.3.6-.3 1v4.1c0 1.6.1 3.5.7 5.4z" fill="#181B2B"/>
  <path fill-rule="evenodd" clip-rule="evenodd" d="M52 47.4v.2c0 .6-.5 1-1 1.2-4 .8-8.1 1.2-12.9 1.3-.6 0-1-.4-1.2-1a15.4 15.4 0 0 1 1.3-11.4 5.4 5.4 0 0 1-1.7-3.5v-1l-.1-.2v-1c0-4.6 3.4-7.1 6.6-7.1.6 0 1.2 0 1.8.2 1.6.5 4.5 1.7 6 4.3.4.8 1 2.1 1 3.6a8 8 0 0 1-2.3 4.8c1.6 3 2.5 6.3 2.5 9.6zM39 34.2c0 .9 1.8 3.4 5 3.4 3.9 0 5.2-3.7 5.1-4.7a5 5 0 0 0-.6-2.3c-1-1.8-3.2-2.7-4.5-3-.3-.2-.7-.2-1-.2-2 0-4 1.6-4 4.6a16 16 0 0 0 0 2.2zm8.4 5.1c-2.1 1.1-4.8 1-7 0a12.9 12.9 0 0 0-1.3 8.3c3.8-.2 7.1-.5 10.3-1a18 18 0 0 0-2-7.3z" fill="#181B2B"/>
  <path fill-rule="evenodd" clip-rule="evenodd" d="M137.9 52c.6 14.1 1.2 28.6 1.2 38.4 0 4.5-3.7 8.2-8.2 8.3l-34.4.5.7 6.3h1c3.3-.2 6.9-.4 10.2-.2h.1a42.1 42.1 0 0 1 12 2c8.9 3.2 13.4 9.6 13.4 19.2 0 8.2-2.5 15.8-5.1 24a84.5 84.5 0 0 0-5.4 26c0 6.9.8 13.8 1.5 20.6v.2c.8 6.8 1.6 13.8 1.6 20.8v1.8c0 .7-.6 1.3-1.3 1.3-.4 0-.7-.2-1-.4-.2-.3-.3-.6-.3-1v-1.7c0-6.9-.8-13.8-1.5-20.6-.6-5-1.1-10.2-1.4-15.4a294.9 294.9 0 0 0-36.9-.5H84l-6.8.5c.6 13.1.6 25.9.6 39.3 0 .8-.6 1.3-1.3 1.3-.7 0-1.3-.6-1.3-1.3 0-13.8 0-26.9-.6-40.4 0-.7.5-1.3 1.2-1.3 2.2-.3 4.5-.5 6.9-.6-1-25.2-7.4-30.3-17-38-2.2-1.7-5-3.8-7.7-6.5-1.4-1.3-3-3.6-3-5.9 0-2.7 3.2-6.7 8-6.7a26 26 0 0 1 10.2 3.2c2.4 1.2 4.9 2.4 7.1 2.9.6-1.9 1.1-8.7 1.1-15.4 0-3.8-.2-8.1-.5-13.2l-30.4.8h-.3c-3.4 0-5.8-.1-8-.3a94.2 94.2 0 0 0-15.7 0l-1.6.2c-5 .2-9.2-3.5-9.7-8.4-2.4-24-4.5-68.4-4.5-80.1v-1.4c0-4 3.2-7.3 7.1-7.6 2.7-.1 5.1-.4 7.8-.6h.2a206.8 206.8 0 0 1 27-1.2h5.5c6.2 0 9.5-.2 12-.3l1.9-.2C74.8.2 78.2 0 85 0c8.4 0 17 .5 25.2 1h.3c5.7.2 11.6.6 17.4.7 5 .2 9 4.4 8.9 9.3-.3 10.6.3 22.2.8 33.4v.6l.3 7zm-39.3 56h-1.1l.8 7.3.3 3.4.8 6.8c0 .7-.5 1.4-1.2 1.5l-.9-.3c-.3-.2-.4-.5-.5-.9l-.6-6a533 533 0 0 0-5.3-42.4c-1.6-7.5-3.3-7.5-5.2-7.5-3.3 0-4 3.5-4 6.4 0 1.6.3 5 .6 9.2v.2c.7 7.7 1.7 18 1.7 27 0 18-2.1 18-3.2 18h-.3a35 35 0 0 1-8.3-3.1c-3.2-1.5-6.5-3.1-9.2-3.1-3.2 0-5.5 2.7-5.5 4.2 0 1.4 1.2 3 2.2 4 2.6 2.4 5 4.3 7.2 6.2l.3.1.1.2c9.8 7.8 16.9 13.4 18 39.7a229 229 0 0 1 35.6.6v-3c0-9.7 2.7-18.4 5.4-26.8 2.6-8 5-15.4 5-23.3 0-7.8-3.4-13.2-10.1-16.1.2 4.7.4 10.2.4 15.7 0 .7-.6 1.3-1.3 1.3-.7 0-1.3-.6-1.3-1.3 0-5.7-.2-11.4-.4-16.7-2.5-.7-5.5-1.2-8.8-1.5.3 2.7.3 5.4.4 8v.2c0 3.2 0 6.4.4 9.6 0 .3 0 .6-.2 1-.2.2-.5.4-.9.4h-.1c-.7 0-1.2-.5-1.3-1.1-.4-3.3-.5-6.7-.5-9.7v-.2c0-2.6 0-5.5-.4-8.3H106l-7.3.2zm-56-10.5c2.1.1 4.4.3 7.6.3l30.5-.9-.9-10.9v-.7l-.1-.5c-.4-3.9-.6-7-.6-8.5 0-5.7 2.4-9 6.6-9 4.3 0 6.2 2.3 7.7 9.5.9 4 1.7 9.8 2.8 19.8l34.7-.5c3 0 5.6-2.6 5.6-5.7 0-9.7-.6-24.3-1.2-38.3a799 799 0 0 1-1.1-41.1c0-3.6-2.8-6.6-6.4-6.7a656 656 0 0 1-16.8-.8h-.8a454 454 0 0 0-25.3-1c-6.7 0-9.8.3-13 .5h-.2c-3.1.2-6.4.5-13.5.5H47.7c-9.4 0-15.9.5-21.5 1H26l-.2.1-7.8.7a5 5 0 0 0-4.8 5v1.4c0 11.6 2.1 56 4.5 79.8a6.7 6.7 0 0 0 7 6.1h1.5c3-.2 6.2-.4 9.5-.4 2.4 0 4.3.2 6.2.3h.6zM158 20.4c1.3 0 1.3-.7 1.5-3.4l.1-1.4v-.3c9 3.8 12 13.6 12 21.6 0 2-.1 4-.4 6l-.4-.1h-.7c-1.8 0-4.5 1.9-4.5 4.8 0 3.5 3 5.1 5.7 5.1 2 0 5-2 5-5 0-.5-.2-1-.4-1.4-.3-.7-1-1.8-2.2-2.6.4-2.3.7-4.6.7-6.8 0-3.8-.9-16.6-11.2-22.9l3.7-.3c.8 0 1.3-.5 1.3-1.3 0-.7-.6-1.3-1.3-1.3-1.5 0-3 .2-4.5.4h-.2a41 41 0 0 1-3.8.4c-.7 0-1.2.6-1.3 1.2a181.6 181.6 0 0 1-.5 5.6c0 1.4.7 1.7 1.3 1.7zm15.6 27.4c0 1.2-1.6 2.3-2.3 2.3-.5 0-3-.2-3-2.5 0-1.3 1.3-2.3 1.8-2.3h.4l.6.1c1 0 1.9 1 2.4 2v.4z" fill="#181B2B"/>
  <path d="M28 128.5h-1l-.8.5a6 6 0 0 1-3.9 1.4c-2.7 0-2.7-1-2.7-2 0-1.6.6-3 1.8-4 1.1-.9 2.7-1.3 4-1 .4 0 .7 0 1-.3.3-.2.5-.4.5-.8 0-.3 0-.7-.2-1l-.8-.5c-4-.7-8.9 2.3-8.9 7.5 0 3 1.8 4.6 5.3 4.6 2.9 0 4.6-1.2 5.4-1.8l.2-.1.2-.2a1.3 1.3 0 0 0 .5-1.7c-.1-.3-.4-.5-.7-.6z" fill="#181B2B"/>
  <path fill-rule="evenodd" clip-rule="evenodd" d="M21.3 114.3c8.6 0 14.1 5 14.1 12.6 0 5.7-5 12.1-12 12.1-3.1 0-5.8-.9-8-2.7-1.4.7-3 1-4.7 1C3.3 137.4 0 130.2 0 125c0-5.5 4.1-10 9.3-10.3 2.2 0 4.3.3 6.2 1.2a9.3 9.3 0 0 1 4-1.4h1.8zm-8 3.4c-1-.4-2-.5-3.2-.5h-.6c-4.4.2-7 4.1-7 7.7 0 2.3.8 4.7 2 6.5 1.1 1.6 3 3.4 6.2 3.4 1 0 2-.1 2.8-.5a14.7 14.7 0 0 1-2.8-8.7c0-3.2 1-6 2.7-8zm16.8 15.8a9.4 9.4 0 0 0 2.7-6.6c0-7.4-6-10-11.5-10h-1.5c-4.5.5-6.5 4.7-6.5 8.7 0 5.4 3.1 10.9 10.1 10.9 2.3 0 4.8-1.1 6.7-3zM90.5 188.1h-1.3c-.8 0-1.4.4-1.8.6l-.3.2a3.8 3.8 0 0 0-2 3.3c0 3 2.6 5.5 5.4 5.5 2.8 0 4.5-2.4 4.5-4.7 0-1.6-1.4-4.9-4.5-4.9zm-2.3 3.1a17.4 17.4 0 0 0 1-.5H90.5c1.4 0 2 1.9 2 2.4s-.3 1.1-.7 1.5c-.3.3-.7.6-1.3.6-1.4 0-2.8-1.5-2.8-3a1.9 1.9 0 0 1 0-.1c0-.4.3-.8.5-.9z" fill="#181B2B"/>
  <path d="M51.1 176.9a9.3 9.3 0 0 1-5.5 2c-3 0-6.2-2-6.2-5 0-4.3 3.2-6.7 6.1-6.7h.7a1.3 1.3 0 1 1-.3 2.6h-.4c-1.7 0-3.5 1.5-3.5 4.2 0 1.3 2 2.3 3.6 2.3 1.3 0 2.8-.6 4-1.5.5-.4 1.3-.3 1.7.3.5.5.4 1.3-.2 1.8z" fill="#181B2B"/>
  <path fill-rule="evenodd" clip-rule="evenodd" d="M50.9 159.5c1.5.6 3 1.3 4 2.3 2.4 1.8 5.2 5.2 5.2 11v2c0 1.8-3 13.6-15 13.6-7.3 0-14-6.3-14.6-13.7-3.1-1.3-6.2-4.6-6.2-8.1 0-4.4 3.2-8.4 7.4-9.3 1-3 3.6-6.3 7.7-6.7l1-.1c6 0 10.5 5.4 10.5 9zm-16.7 4.2a15 15 0 0 1 14-4.9 8.6 8.6 0 0 0-8.5-5.7c-3.8.4-6.1 4.3-6.1 7.8 0 1 .2 2 .6 2.8zm-3.7 8.2c.3-2 1-4.1 2-6a9.3 9.3 0 0 1-1.4-5.8 7.2 7.2 0 0 0-4.3 6.5c0 2 1.8 4.2 3.7 5.3zm4.7-5.4l-.2.3c-1.3 2-2 4.3-2 6.7v.3c.1 6.4 5.8 12 12.1 12 9.8 0 12.4-9.7 12.4-11v-1.1-.4-.5c0-6.5-4-9.8-8.1-11.1H49a13.3 13.3 0 0 0-5.6-.5c-3.5.6-6.4 2.6-8.3 5.3z" fill="#181B2B"/>
  <path d="M18.6 196.2c-.3-.1-.6-.2-1-.1-1 .2-2.2.3-3.6.3h-.2v-1.6-1.8-1.7a1.3 1.3 0 0 0-2.6 0v5a64 64 0 0 0-5 .2 1.3 1.3 0 0 0-1.1 1.4c0 .6.6 1.1 1.3 1.1h.1a18.8 18.8 0 0 1 4.7-.1v4.4a1.3 1.3 0 0 0 2.7 0V199h.1c1.6 0 3 0 4.2-.4a1.3 1.3 0 0 0 1-1.5c-.1-.3-.3-.6-.6-.8zM148 202.5c-.9 0-1.7 0-2.5.2h-.2l-.2-3c0-.3-.3-.5-.5-.8a1.3 1.3 0 0 0-2 1.3l.1 2.7h-4c-.8 0-1.4.5-1.4 1.2s.4 1.3 1.1 1.3h4.4c0 1.2 0 2.5.4 3.8a1.3 1.3 0 0 0 2.3.5c.2-.3.3-.7.2-1-.3-1.1-.3-2.3-.4-3.5h.4l2.4-.2c.7 0 1.2-.7 1.2-1.4s-.7-1.2-1.4-1.1z" fill="#181B2B"/>
  <path fill-rule="evenodd" clip-rule="evenodd" d="M169.8 166.3h.4c3.4 0 5.6 1.9 5.6 4.8a5 5 0 0 1-1.5 3.6c-1 1-2.4 1.6-3.7 1.6a5 5 0 0 1-5-5.2c0-2.2 1.5-4.7 4.2-4.8zm.8 7.4c1.5 0 2.7-1.4 2.7-2.6 0-1.8-1.7-2.2-3-2.2h-.4c-1.1 0-1.7 1.2-1.7 2.2 0 1.3.9 2.6 2.4 2.6zM153.6 143.2h-.5c-2.7 0-4.1 2.5-4.1 4.8a5 5 0 0 0 4.9 5.1c1.3 0 2.7-.6 3.7-1.6a5 5 0 0 0 1.5-3.5c0-3-2.1-4.8-5.5-4.8zm3 4.8c0 1.2-1.2 2.6-2.7 2.6-1.5 0-2.4-1.4-2.4-2.6 0-1 .6-2.2 1.8-2.3h.3c1.3 0 3 .4 3 2.3z" fill="#181B2B"/>
  <path d="M163.8 108.9c-3.6-.6-6-3-6-6s2.7-5.6 6-5.6c2 0 3.1.8 3.1 2.3a1.3 1.3 0 0 1-2.5.3h-.7c-1.6 0-3.3 1.1-3.3 3 0 2.1 2 3.2 3.7 3.4a1.3 1.3 0 0 1 1.1 1.5 1.3 1.3 0 0 1-1.4 1zM188.6 114.3a9 9 0 0 1-6.5 2.6c-4 0-8-2-7.9-6.3 0-4.2 3.6-7.8 7.8-7.8 1 0 2 .2 2.8.6.3.1.6.3.7.7.2.3.2.6 0 1-.2.6-1 1-1.6.7a5 5 0 0 0-1.9-.4 5.4 5.4 0 0 0-5.2 5.2c0 3 3.3 3.8 5.3 3.8 1.8 0 3.5-.7 4.7-2a1.3 1.3 0 0 1 2.2 1c0 .3-.2.6-.4.9z" fill="#181B2B"/>
  <path fill-rule="evenodd" clip-rule="evenodd" d="M196.6 103.1a16.5 16.5 0 0 0-15-9.7c-2.3 0-4.6.6-6.8 1.7a14.4 14.4 0 0 0-13.6-3.8c-6.4 1.6-9.3 7.6-9.3 12.8 0 2.9.8 5.6 2.5 7.9-1 1.7-1.4 3.6-1.4 5.6 0 6.3 5.5 13.4 12.8 13.4a14 14 0 0 0 11.4-6.6c2 .6 3.9 1 6 1 8.3 0 14.5-8.7 14.5-16.5 0-2-.4-3.9-1-5.8zm-30.4 6.9c0 1.5.3 3 .9 4.6a10.1 10.1 0 0 1-10.3-3.7 10.8 10.8 0 0 1-2.4-6.8c0-4.2 2.3-9 7.4-10.3a11.9 11.9 0 0 1 11 2.9 17 17 0 0 0-6.6 13.3zm-10 4c2.4 2.2 5.4 3.4 8.3 3.4 1.2 0 2.4-.1 3.6-.4 1.5 2.7 3.8 4.8 6.6 6.3a11 11 0 0 1-8.9 5.2c-6.4 0-10.3-6.4-10.3-11 0-1.2.3-2.3.7-3.5zm12.6-4a14.4 14.4 0 0 1 6.6-12l.1-.1c.2-.1.3-.3.3-.4a11.7 11.7 0 0 1 7.3-1.5c5 .7 9.5 4 11.1 8 .6 1.6 1 3.3 1 5 0 3.7-1.8 7.7-4.5 10.4a10.8 10.8 0 0 1-7.6 3.4c-5.2 0-10.5-3-13-7.3V115.1c0-.2-.2-.4-.3-.5-.7-1.5-1-3-1-4.7z" fill="#181B2B"/>
</svg>
