<svg width="16" height="16" fill="none" xmlns="http://www.w3.org/2000/svg"><path d="M7.3 1.04c.06.66 1.33 1.1 1.74 1.74.56.85.35 1.74 1.05 1.74.37 0 1.42.03 4.15-1.52A7.99 7.99 0 0 0 7.47.02c-.1.25-.2.6-.17 1.02zM3.83 12.87c.4-.67.72-1.7 0-2.78-.49-.72-1.4-1.45-1.4-2.09 0-.85 2.07-1.16 2.79-2.09.63-.81-.06-2.26-.37-2.78a7.41 7.41 0 0 0-1.54-1.6 8 8 0 0 0-.56 12.5c.4-.34.92-.9 1.08-1.16z" fill="#14C393"/><path d="M14.24 3c-2.73 1.55-3.78 1.52-4.15 1.52-.7 0-.49-.9-1.05-1.74-.41-.63-1.68-1.08-1.74-1.74A2.2 2.2 0 0 1 7.47.02c-1.55.1-2.98.65-4.16 1.5.5.4 1.22 1.08 1.54 1.6.31.53 1 1.98.37 2.8C4.5 6.83 2.44 7.14 2.44 8c0 .64.9 1.37 1.39 2.09.72 1.07.4 2.11 0 2.78-.16.27-.68.82-1.08 1.15A8 8 0 0 0 14.24 3zM8.7 12.87c-1.05-.7.17-1.62-.69-4.24-.36-1.1 1.09-2.09 2.43-2.09 1.35 0 2.42.94 2.44 2.09.03 2.14-2.9 5.09-4.18 4.24z" fill="#68DBF4"/><path d="M10.44 6.54c-1.34 0-2.79 1-2.43 2.09.86 2.62-.36 3.54.69 4.24 1.27.85 4.2-2.1 4.18-4.24-.02-1.15-1.1-2.09-2.44-2.09z" fill="#14C393"/></svg>
