<svg width="1440" height="507" viewBox="0 0 1440 507" fill="none" xmlns="http://www.w3.org/2000/svg">
<path d="M579.571 378.359C580.209 378.359 580.847 378.359 581.485 378.359C612.666 378.513 643.673 384.715 669.886 390.783C681.136 393.372 693.006 395.632 704.508 397.796C723.916 401.467 743.982 405.274 762.675 411.012C776.864 415.36 790.627 421.736 803.946 427.919C818.87 434.836 834.315 441.985 850.109 446.12C869.962 451.337 890.878 455.704 911.117 459.955C916.588 461.095 922.02 462.235 927.452 463.394C935.61 465.133 943.922 467.026 951.964 468.862C968.008 472.514 984.614 476.301 1000.77 479.045C1012.51 481.035 1023.97 479.721 1036.09 478.33C1046.18 477.17 1056.6 475.972 1067.23 476.861C1092.13 478.929 1113.73 479.74 1133.27 479.354C1138.22 479.257 1143.19 479.199 1148.15 479.16C1164.47 479.006 1181.34 478.832 1197.49 476.784C1208.22 475.412 1218.54 476.861 1228.51 478.291C1239.96 479.914 1250.78 481.44 1261.88 478.909C1274.15 476.108 1286.31 471.277 1298.07 466.601C1306.63 463.201 1315.5 459.665 1324.49 456.882C1337.64 452.806 1350.55 446.874 1363.02 441.116C1371.39 437.271 1380.03 433.291 1388.73 429.871C1401.64 424.808 1413.07 417.002 1425.17 408.733C1434.77 402.163 1444.73 395.362 1455.42 390.145C1457.33 389.218 1459.65 390.01 1460.58 391.923C1461.51 393.835 1460.72 396.154 1458.8 397.082C1448.62 402.047 1438.91 408.675 1429.52 415.109C1417.59 423.263 1405.28 431.668 1391.53 437.058C1383.04 440.382 1374.5 444.323 1366.23 448.13C1353.53 453.965 1340.4 460.013 1326.75 464.244C1318.05 466.949 1309.34 470.408 1300.91 473.77C1288.86 478.561 1276.41 483.508 1263.58 486.445C1251.09 489.285 1239.05 487.585 1227.41 485.942C1217.49 484.532 1208.14 483.218 1198.45 484.455C1181.87 486.58 1164.76 486.735 1148.21 486.908C1143.26 486.966 1138.33 487.005 1133.4 487.102C1113.59 487.507 1091.73 486.677 1066.58 484.59C1056.74 483.759 1047.13 484.88 1036.96 486.039C1024.82 487.43 1012.28 488.879 999.46 486.696C983.086 483.914 966.384 480.107 950.224 476.436C942.201 474.6 933.928 472.726 925.828 470.987C920.415 469.828 914.983 468.688 909.532 467.548C889.215 463.297 868.202 458.892 848.156 453.617C831.706 449.308 815.951 442.005 800.699 434.952C787.612 428.904 774.08 422.625 760.394 418.432C742.106 412.809 722.253 409.061 703.058 405.428C691.498 403.245 679.532 400.984 668.146 398.337C642.359 392.386 611.874 386.261 581.447 386.107C555.64 385.971 531.805 388.464 510.463 393.507C504.993 394.801 499.387 395.961 493.955 397.101C479.012 400.212 463.566 403.438 449.571 409.544C433.294 416.654 417.249 425.407 401.727 433.851L395.966 436.981C388.775 440.884 381.487 445.038 374.45 449.038C364.688 454.602 354.578 460.36 344.526 465.577C333.005 471.548 320.44 474.658 308.3 477.653C302.095 479.18 295.677 480.764 289.645 482.696C282.512 484.976 275.901 488.319 268.903 491.874C257.285 497.767 245.281 503.873 230.899 504.472C224.539 504.742 218.276 505.187 212.244 505.631C195.04 506.868 178.763 508.046 161.075 505.129C140.333 501.709 120.383 490.908 101.091 480.455C91.9281 475.489 83.2872 470.794 74.5497 466.852C47.351 454.544 22.0273 437.135 -2.46508 420.287C-11.2993 414.201 -20.4429 407.921 -29.4512 402.028C-31.2296 400.868 -31.732 398.473 -30.5723 396.676C-29.4123 394.898 -27.0154 394.396 -25.2176 395.555C-16.1321 401.487 -6.94982 407.805 1.9231 413.911C26.1449 430.566 51.1785 447.782 77.7391 459.8C86.7087 463.857 95.8911 468.843 104.764 473.654C123.496 483.798 142.865 494.309 162.332 497.497C179.13 500.26 194.943 499.12 211.684 497.922C217.773 497.477 224.075 497.033 230.57 496.762C243.27 496.221 254.018 490.773 265.385 484.996C272.344 481.46 279.555 477.808 287.287 475.335C293.57 473.325 300.123 471.721 306.444 470.156C318.159 467.258 330.279 464.283 340.969 458.718C350.886 453.559 360.938 447.859 370.642 442.333C377.717 438.314 385.044 434.141 392.312 430.199L398.073 427.069C413.731 418.548 429.93 409.718 446.516 402.472C461.227 396.038 477.079 392.734 492.408 389.546C497.782 388.425 503.33 387.266 508.704 386.01C530.084 380.928 553.939 378.359 579.571 378.359Z" fill="white"/>
<path d="M570.814 340.083C593.818 340.083 617.151 345.686 639.749 351.135C645.181 352.448 650.593 353.743 655.929 354.941C675.182 359.288 694.185 365.742 712.568 371.983C725.192 376.272 738.24 380.697 751.153 384.368C764.221 388.078 777.694 392.02 790.704 395.845C805.918 400.309 821.653 404.927 836.635 409.119C849.2 412.636 862.287 412.713 876.128 412.79C887.34 412.848 898.938 412.926 910.208 414.993C922.522 417.254 934.681 420.983 946.435 424.577C959.773 428.654 973.556 432.866 987.474 434.933C1001.12 436.943 1015.23 437.02 1028.88 437.097C1037.89 437.155 1047.21 437.194 1056.35 437.793C1063.35 438.257 1070.48 438.856 1077.4 439.455C1092.98 440.788 1109.1 442.16 1124.72 441.928C1137.44 441.754 1150.38 439.667 1162.88 437.658C1171.64 436.247 1180.69 434.798 1189.7 433.967C1202.22 432.827 1214.42 428.828 1226.23 424.983C1235.12 422.084 1244.31 419.089 1253.66 417.254C1264.56 415.128 1275.29 415.959 1285.67 416.751C1297.81 417.679 1309.3 418.568 1320.86 415.032C1343.63 408.057 1365.82 401.12 1387.07 392.947C1396.09 389.469 1405.39 386.378 1414.38 383.402C1428.03 378.881 1442.16 374.186 1455.42 368.08C1457.35 367.191 1459.65 368.041 1460.54 369.973C1461.43 371.906 1460.58 374.205 1458.65 375.094C1444.98 381.373 1430.66 386.126 1416.8 390.725C1407.88 393.681 1398.68 396.734 1389.83 400.154C1368.35 408.424 1346.01 415.399 1323.1 422.413C1310.15 426.374 1297.41 425.408 1285.07 424.461C1274.75 423.669 1265.01 422.934 1255.15 424.847C1246.26 426.586 1237.69 429.369 1228.63 432.325C1216.41 436.305 1203.77 440.44 1190.39 441.657C1181.63 442.449 1172.72 443.899 1164.1 445.27C1151.32 447.319 1138.12 449.444 1124.84 449.637C1108.81 449.869 1092.52 448.478 1076.74 447.145C1069.88 446.565 1062.77 445.947 1055.85 445.502C1046.92 444.923 1037.73 444.865 1028.84 444.807C1014.92 444.729 1000.54 444.652 986.353 442.565C971.855 440.44 957.782 436.131 944.173 431.958C932.613 428.422 920.686 424.77 908.797 422.587C898.204 420.635 886.953 420.577 876.07 420.519C862.326 420.442 848.098 420.365 834.528 416.558C819.488 412.346 803.733 407.728 788.5 403.265C775.491 399.458 762.056 395.517 749.007 391.807C735.901 388.078 722.756 383.615 710.055 379.306C691.865 373.123 673.056 366.727 654.189 362.476C648.815 361.259 643.383 359.965 637.912 358.631C615.063 353.144 591.421 347.463 568.688 347.811C547.598 348.159 525.715 350.787 499.812 356.12C482.646 359.656 466.118 366.669 450.131 373.471C447.193 374.707 444.274 375.963 441.355 377.18C433.197 380.581 424.576 382.996 416.244 385.315C406.037 388.155 395.482 391.092 386.087 395.865C377.717 400.115 370.681 406.028 363.238 412.307C355.274 419.012 347.058 425.929 337.045 430.663C321.309 438.102 303.718 444.826 283.285 451.241C270.121 455.376 256.724 454.468 243.753 453.598C236.137 453.096 228.946 452.593 221.755 453.057C198.326 454.545 175.148 453.192 152.898 449.057C145.223 447.628 137.472 446.488 129.971 445.367C110.64 442.507 90.6521 439.532 71.3405 431.629C39.8309 418.742 9.26868 399.516 -20.2883 380.909C-23.4006 378.958 -26.4936 377.006 -29.5865 375.055C-31.4037 373.915 -31.9449 371.538 -30.8044 369.722C-29.6639 367.906 -27.2861 367.365 -25.4691 368.505C-22.3761 370.437 -19.2639 372.408 -16.1516 374.359C13.1348 392.773 43.4072 411.824 74.2981 424.461C92.7399 432.016 111.394 434.779 131.131 437.696C138.69 438.817 146.519 439.976 154.328 441.425C175.94 445.444 198.461 446.739 221.271 445.309C228.946 444.826 236.736 445.348 244.275 445.85C257.092 446.7 269.193 447.512 280.966 443.821C301.07 437.522 318.332 430.914 333.739 423.63C342.844 419.321 350.325 413.022 358.27 406.337C365.732 400.057 373.445 393.565 382.608 388.909C392.699 383.788 403.621 380.755 414.195 377.799C422.294 375.538 430.665 373.2 438.397 369.993C441.297 368.775 444.196 367.539 447.115 366.302C463.45 359.366 480.365 352.178 498.265 348.488C524.652 343.058 546.979 340.372 568.572 340.025C569.326 340.083 570.08 340.083 570.814 340.083Z" fill="white"/>
<path d="M607.987 306.114C614.849 306.114 621.847 306.675 629 308.278C646.185 312.123 663.061 317.901 679.376 323.465C693.816 328.412 708.74 333.513 723.721 337.203C740.307 341.299 756.584 347.521 772.339 353.549C787.378 359.307 801.567 364.737 815.93 368.427C827.896 371.499 840.384 370.668 853.587 369.76C864.992 368.987 876.765 368.176 888.363 370.089C901.625 372.253 914.615 376.736 927.199 381.044C941.176 385.836 955.616 390.802 969.96 392.367C983.375 393.835 997.603 393.893 1011.35 393.932C1021.03 393.971 1031.05 394.009 1040.77 394.531C1050.69 395.072 1060.74 396.231 1070.46 397.371C1084.22 398.975 1098.49 400.675 1112.47 400.501C1127.1 400.366 1141.95 398.453 1156.33 396.579C1164.06 395.574 1172.06 394.55 1179.93 393.797C1188.81 392.966 1197.87 392.56 1206.67 392.193C1220.51 391.594 1234.79 390.995 1248.42 388.58C1260.85 386.396 1272.97 381.701 1284.69 377.161C1294.49 373.374 1304.64 369.432 1315.13 366.862C1343.22 359.984 1365.18 353.665 1384.22 346.941C1395.2 343.077 1406.72 341.28 1417.88 339.541C1430.42 337.59 1443.39 335.561 1455.38 330.556C1457.35 329.745 1459.61 330.653 1460.44 332.643C1461.28 334.614 1460.33 336.875 1458.36 337.706C1445.5 343.077 1432.07 345.164 1419.06 347.193C1407.75 348.951 1397.08 350.613 1386.77 354.245C1367.48 361.046 1345.31 367.442 1316.95 374.378C1306.94 376.832 1297.02 380.658 1287.45 384.368C1275.39 389.044 1262.9 393.874 1249.74 396.193C1235.61 398.685 1221.05 399.303 1206.98 399.902C1198.3 400.269 1189.33 400.656 1180.65 401.487C1172.9 402.221 1164.97 403.245 1157.3 404.23C1142.7 406.124 1127.6 408.075 1112.53 408.211C1098.03 408.385 1083.55 406.665 1069.55 405.023C1059.95 403.902 1050.01 402.743 1040.34 402.221C1030.81 401.699 1020.9 401.661 1011.31 401.641C997.352 401.583 982.931 401.545 969.109 400.018C953.895 398.357 939.049 393.256 924.667 388.329C912.392 384.116 899.711 379.769 887.088 377.702C876.378 375.943 865.05 376.716 854.09 377.47C840.829 378.359 827.142 379.305 813.978 375.905C799.19 372.098 784.131 366.34 769.555 360.756C754.013 354.825 737.968 348.68 721.846 344.7C706.536 340.913 691.439 335.754 676.844 330.769C660.722 325.262 644.059 319.562 627.279 315.814C612.298 312.471 598.225 313.998 583.34 315.601C573.732 316.645 563.816 317.688 553.647 317.36C530.876 316.567 507.427 318.403 485.815 322.712C467.876 326.286 450.42 333.242 433.544 339.966L428.634 341.918C420.283 345.222 411.487 347.308 402.982 349.337C392.601 351.791 382.781 354.129 373.618 358.496C365.402 362.418 358.366 368.002 350.943 373.914C343.21 380.059 335.207 386.416 325.735 390.744C314.948 395.651 304.065 395.342 293.53 395.014C285.043 394.763 277.04 394.531 269.095 396.849L268.129 397.139C249.958 402.472 231.168 407.979 211.663 408.887C190.302 409.872 167.743 407.979 144.604 403.284C122.644 398.82 93.8406 392.212 65.656 380.619C35.0551 368.021 2.28919 353.781 -29.8196 334.981C-31.656 333.899 -32.2747 331.542 -31.1921 329.687C-30.1096 327.851 -27.7319 327.233 -25.8955 328.315C5.80738 346.883 38.264 360.988 68.6138 373.47C90.1292 382.319 114.042 389.179 146.15 395.709C168.671 400.289 190.592 402.124 211.315 401.177C229.892 400.327 248.237 394.956 265.964 389.739L266.93 389.449C276.054 386.783 285.063 387.053 293.762 387.304C303.852 387.614 313.363 387.884 322.526 383.711C331.128 379.788 338.416 374.011 346.129 367.867C353.572 361.954 361.285 355.829 370.293 351.521C380.21 346.787 390.88 344.256 401.203 341.802C409.438 339.85 417.944 337.841 425.792 334.73L430.683 332.778C447.888 325.919 465.672 318.828 484.307 315.118C506.499 310.694 530.566 308.8 553.918 309.631C563.506 309.979 573.172 308.935 582.509 307.931C590.84 307.022 599.307 306.114 607.987 306.114Z" fill="white"/>
<path d="M489.006 266.66C496.777 266.66 504.548 267.027 512.183 267.394C517.905 267.664 523.821 267.935 529.504 268.051C537.082 268.205 544.833 267.896 552.314 267.626C568.61 267.027 585.448 266.389 602.556 270.041C620.475 273.867 637.429 280.958 653.802 287.817C669.132 294.232 684.983 300.878 701.395 304.685C715.932 308.066 730.604 312.24 744.793 316.297C760.277 320.722 776.283 325.301 791.806 328.683C804.603 331.484 818.463 331.987 831.86 332.45C844.29 332.895 857.125 333.339 869.323 335.619C882.024 337.976 894.956 337.184 908.642 336.373C919.796 335.696 931.337 335.001 942.704 336.16C957.859 337.725 972.241 343.155 986.14 348.41C1000.04 353.666 1013.18 358.612 1026.56 359.771C1037.58 360.718 1047.94 356.216 1058.96 351.444C1069.32 346.961 1080.03 342.304 1091.94 342.015C1103.87 341.705 1115.81 343.309 1127.35 344.855C1140.32 346.594 1153.76 348.391 1166.98 347.425C1181.89 346.343 1196.91 343.077 1211.44 339.928C1219.83 338.112 1228.51 336.218 1236.98 334.808C1248.87 332.817 1260.85 333.822 1272.45 334.788C1284.98 335.832 1297.93 336.914 1310.48 334.112C1336.82 328.2 1362.53 320.703 1381.98 314.81C1390.45 312.24 1399.11 309.844 1407.5 307.506C1423.35 303.101 1439.74 298.541 1455.4 292.783C1457.39 292.048 1459.63 293.073 1460.37 295.082C1461.1 297.091 1460.08 299.313 1458.07 300.048C1442.1 305.902 1425.57 310.501 1409.57 314.945C1401.23 317.263 1392.59 319.659 1384.22 322.21C1364.66 328.122 1338.78 335.677 1312.18 341.647C1298.47 344.72 1284.92 343.58 1271.81 342.498C1260.18 341.532 1249.2 340.604 1238.26 342.44C1229.96 343.831 1221.38 345.686 1213.09 347.502C1198.3 350.729 1182.99 354.052 1167.54 355.153C1153.53 356.158 1139.71 354.323 1126.33 352.526C1114.56 350.941 1103.46 349.473 1092.11 349.743C1081.71 349.994 1072.14 354.149 1062.01 358.535C1050.61 363.481 1038.8 368.563 1025.88 367.481C1011.43 366.244 997.178 360.853 983.376 355.656C969.922 350.574 956.023 345.319 941.872 343.869C931.124 342.768 919.912 343.444 909.068 344.101C895.497 344.932 881.482 345.782 867.854 343.232C856.217 341.068 843.671 340.623 831.531 340.198C817.787 339.715 803.559 339.213 790.086 336.257C774.331 332.798 758.209 328.199 742.609 323.736C728.516 319.717 713.921 315.544 699.578 312.22C682.528 308.259 666.367 301.497 650.748 294.947C634.684 288.223 618.098 281.267 600.874 277.596C584.713 274.137 569.074 274.736 552.546 275.335C544.969 275.625 537.12 275.915 529.311 275.76C523.511 275.644 517.538 275.374 511.758 275.103C495.249 274.311 478.199 273.519 462.097 276.552C447.869 279.238 433.951 284.532 420.496 289.652C416.186 291.295 411.856 292.937 407.525 294.502C387.576 301.709 371.338 308.182 356.434 314.906C342.902 320.992 336.31 323.041 329.332 325.224C323.397 327.079 317.25 328.972 306.076 333.59C296.469 337.571 290.921 340.527 286.03 343.154C278.414 347.212 272.402 350.439 256.318 354.825C241.182 358.96 225.35 359.346 210.04 359.733C206.367 359.829 202.733 359.906 199.137 360.061C190.593 360.389 183.151 363.462 175.283 366.688C164.245 371.229 152.82 375.924 138.38 372.524C120.692 368.331 103.971 359.076 87.7909 350.13C78.6668 345.087 69.2332 339.87 59.9929 335.812C48.839 330.924 37.453 326.615 26.4345 322.442C7.78003 315.389 -11.493 308.105 -30.0893 297.768C-31.9452 296.724 -32.6218 294.386 -31.5973 292.512C-30.5727 290.638 -28.2142 289.981 -26.3392 291.005C-8.22607 301.072 10.7763 308.259 29.16 315.196C40.2753 319.389 51.7581 323.736 63.0859 328.702C72.6355 332.895 82.2235 338.208 91.5024 343.348C107.219 352.042 123.476 361.046 140.139 364.988C152.144 367.828 161.945 363.79 172.306 359.539C180.444 356.197 188.873 352.719 198.809 352.332C202.443 352.197 206.116 352.1 209.827 352.004C224.674 351.637 240.022 351.27 254.25 347.367C269.502 343.212 274.896 340.314 282.357 336.334C287.422 333.629 293.144 330.576 303.099 326.46C314.601 321.707 320.903 319.736 327.012 317.843C333.758 315.737 340.138 313.766 353.225 307.854C368.303 301.052 384.715 294.502 404.858 287.237C409.149 285.692 413.421 284.069 417.694 282.426C431.477 277.19 445.704 271.761 460.608 268.959C470.061 267.201 479.533 266.66 489.006 266.66Z" fill="white"/>
<path d="M451.059 226.761C460.821 226.761 470.506 228.21 479.978 229.62C488.812 230.934 497.937 232.306 506.732 232.383C512.744 232.441 518.814 232.364 524.671 232.287C541.702 232.074 559.293 231.862 576.768 234.856C592.755 237.619 608.974 242.547 624.671 247.338C638.801 251.647 653.435 256.091 667.875 258.97C683.959 262.158 700.583 264.709 716.686 267.162C729.444 269.114 742.628 271.123 755.406 273.442C771.238 276.321 787.863 277.828 803.946 279.277C815.197 280.301 826.834 281.345 838.162 282.871C853.685 284.958 868.685 290.039 883.184 294.966C898.378 300.125 912.741 305.014 927.548 306.675C940.152 308.086 952.988 306.424 966.597 304.666C977.848 303.217 989.485 301.71 1000.93 302.116C1013.53 302.56 1026.16 304.705 1038.37 306.772C1052.21 309.11 1066.54 311.603 1080.63 311.448C1102.26 311.293 1126.12 310.617 1155.69 309.342C1168.2 308.801 1180.01 304.338 1192.5 299.604C1203.46 295.469 1214.77 291.179 1226.79 289.653C1256.72 285.866 1280.55 282.098 1301.83 277.789C1313.9 275.336 1326.35 274.582 1338.39 273.829C1351.71 272.998 1365.49 272.148 1378.52 268.998C1392.77 265.559 1406.74 259.472 1420.28 253.599C1431.62 248.672 1443.36 243.551 1455.44 239.88C1457.49 239.262 1459.63 240.402 1460.27 242.45C1460.89 244.498 1459.75 246.643 1457.7 247.28C1446.04 250.816 1434.52 255.84 1423.39 260.69C1409.57 266.699 1395.26 272.92 1380.36 276.534C1366.67 279.838 1352.54 280.707 1338.89 281.557C1327.12 282.291 1314.94 283.026 1303.4 285.364C1281.94 289.711 1257.91 293.517 1227.8 297.324C1216.68 298.734 1205.8 302.85 1195.26 306.83C1182.74 311.564 1169.78 316.472 1156.04 317.051C1126.37 318.327 1102.44 319.003 1080.71 319.157C1065.88 319.235 1051.27 316.781 1037.1 314.385C1025.15 312.356 1012.78 310.269 1000.68 309.825C989.833 309.438 978.543 310.907 967.602 312.317C954.148 314.056 940.21 315.873 926.698 314.346C911.059 312.588 895.633 307.352 880.709 302.289C866.559 297.478 851.926 292.513 837.157 290.542C826.003 289.054 814.443 287.991 803.269 286.987C787.012 285.518 770.214 283.992 754.053 281.055C741.391 278.756 728.246 276.746 715.545 274.814C699.365 272.341 682.644 269.79 666.406 266.564C651.579 263.627 636.772 259.105 622.447 254.739C606.983 250.024 590.977 245.155 575.473 242.489C558.713 239.59 542.243 239.803 524.787 240.015C518.872 240.093 512.763 240.17 506.674 240.112C497.337 240.035 487.943 238.624 478.838 237.272C465.093 235.224 452.122 233.291 439.132 235.397C429.002 237.04 420.651 242.179 411.798 247.628C405.09 251.763 398.15 256.014 390.282 258.738C382.202 261.52 373.754 262.796 365.597 264.052C355.796 265.539 346.556 266.95 337.818 270.698C329.564 274.254 324.48 280.765 319.086 287.644C313.171 295.198 307.063 303.024 296.45 307.274L291.018 309.458C272.209 317.032 270.237 317.824 246.537 323.988C234.281 327.176 222.934 324.548 211.954 321.998C203.835 320.123 196.161 318.346 188.196 318.771C184.311 318.983 180.406 319.254 176.501 319.524C160.495 320.645 143.948 321.804 127.42 318.558C106.02 314.346 85.5488 305.98 65.7345 297.865C62.0422 296.358 58.3694 294.851 54.6965 293.382C44.2384 289.189 33.5485 285.634 23.2063 282.195C5.59583 276.34 -12.5947 270.273 -30.2826 260.902C-32.177 259.897 -32.8922 257.559 -31.887 255.685C-30.8817 253.792 -28.5428 253.096 -26.6677 254.082C-9.55981 263.163 8.34083 269.114 25.6227 274.872C36.0808 278.35 46.8867 281.944 57.5574 286.233C61.2303 287.701 64.9226 289.228 68.6342 290.735C88.0812 298.695 108.205 306.927 128.87 311.004C144.373 314.056 160.418 312.936 175.902 311.834C179.845 311.564 183.789 311.274 187.732 311.061C196.818 310.559 205.381 312.549 213.655 314.481C224.191 316.916 234.146 319.235 244.546 316.53C267.763 310.501 269.29 309.883 288.079 302.309L293.511 300.125C302.191 296.647 307.411 289.962 312.939 282.89C318.68 275.548 324.634 267.955 334.687 263.607C344.333 259.453 354.52 257.907 364.36 256.4C372.556 255.164 380.288 253.985 387.692 251.435C394.748 249 401.03 245.136 407.68 241.059C416.785 235.455 426.199 229.678 437.817 227.785C442.283 227.05 446.671 226.761 451.059 226.761Z" fill="white"/>
<path d="M441.934 191.634C449.087 191.634 456.2 192.02 463.198 192.387C469.326 192.716 475.667 193.063 481.756 193.121C488.676 193.199 495.79 192.832 502.672 192.464C517.344 191.711 532.5 190.938 547.597 194.107C563.526 197.45 578.933 203.517 593.818 209.371C609.708 215.612 626.12 222.085 643.092 225.176C650.477 226.529 657.996 227.881 665.555 229.234C688.868 233.427 712.993 237.774 735.011 242.373C747.576 245 760.238 242.662 773.634 240.209C785.91 237.948 798.591 235.61 811.62 237.214C827.278 239.146 842.472 244.112 857.183 248.923C873.054 254.12 888.055 259.028 903.655 260.477C917.515 261.772 932.303 260.67 946.589 259.608C958.091 258.758 969.979 257.869 981.52 258.197C995.38 258.584 1009.09 261.443 1022.33 264.226C1036.32 267.162 1050.8 270.177 1065.28 270.196C1065.4 270.196 1065.49 270.196 1065.61 270.196C1083.66 270.196 1102.13 269.017 1119.99 267.897C1127.58 267.414 1135.18 266.931 1142.74 266.544C1157.26 265.791 1172.16 263.588 1186.58 261.482C1197.41 259.898 1208.62 258.255 1219.5 257.231C1233.04 255.975 1245.93 251.57 1259.6 246.913C1271.21 242.952 1283.24 238.856 1295.65 236.885C1320.47 232.982 1345.62 227.224 1369.94 221.679L1374.62 220.616C1387.28 217.718 1400.36 216.829 1413.03 215.979C1427.08 215.032 1441.6 214.047 1455.42 210.299C1457.49 209.738 1459.61 210.955 1460.15 213.023C1460.72 215.09 1459.5 217.216 1457.43 217.757C1442.87 221.718 1427.95 222.722 1413.53 223.708C1400.62 224.577 1388.4 225.408 1376.32 228.171L1371.64 229.234C1347.18 234.818 1321.92 240.595 1296.83 244.537C1285.07 246.392 1273.38 250.372 1262.07 254.236C1248.6 258.835 1234.64 263.588 1220.2 264.941C1209.51 265.945 1198.41 267.568 1187.68 269.133C1173.09 271.278 1157.99 273.481 1143.13 274.273C1135.59 274.659 1128.03 275.142 1120.45 275.625C1102.47 276.765 1083.88 277.944 1065.57 277.944C1065.45 277.944 1065.34 277.944 1065.22 277.944C1049.95 277.925 1035.07 274.814 1020.68 271.8C1007.77 269.095 994.414 266.293 981.249 265.926C970.095 265.617 958.419 266.486 947.111 267.317C932.496 268.399 917.399 269.52 902.881 268.167C886.431 266.641 870.309 261.366 854.728 256.265C840.384 251.57 825.538 246.72 810.634 244.884C798.784 243.416 786.702 245.657 775.007 247.802C761.456 250.295 747.46 252.864 733.407 249.927C711.505 245.348 687.438 241.02 664.163 236.827C656.605 235.475 649.085 234.122 641.7 232.77C623.993 229.543 607.214 222.935 590.995 216.559C576.4 210.82 561.303 204.888 546.012 201.662C531.9 198.705 517.248 199.44 503.078 200.174C496.08 200.522 488.831 200.889 481.698 200.831C475.435 200.773 469.017 200.425 462.812 200.097C448.739 199.343 434.202 198.551 420.361 201.024C406.172 203.555 401.3 207.284 395.656 211.574C390.707 215.341 385.12 219.612 373.271 223.515C359.855 227.939 354.539 231.011 348.372 234.567C343.365 237.465 337.701 240.73 326.992 245.097C314.079 250.352 306.327 249.367 298.827 248.401C292.235 247.57 286.011 246.759 275.591 250.623C261.711 255.763 255.216 256.516 247.716 257.405C242.438 258.023 236.465 258.719 226.548 261.115C218.139 263.144 212.92 264.902 208.319 266.448C199.872 269.288 193.763 271.355 175.785 272.205C153.709 273.249 134.591 272.341 117.328 269.404C97.7848 266.08 78.9949 258.854 60.8044 251.879C56.8223 250.352 52.8595 248.826 48.916 247.358C45.243 245.986 41.5702 244.633 37.9166 243.281C14.2942 234.547 -8.01379 226.297 -30.573 214.723C-32.4674 213.757 -33.2213 211.419 -32.2548 209.526C-31.2882 207.632 -28.9492 206.878 -27.0547 207.845C-4.92077 219.206 17.1939 227.379 40.5844 236.035C44.2379 237.388 47.9108 238.74 51.603 240.112C55.5852 241.6 59.5674 243.126 63.5689 244.653C81.3921 251.492 99.8337 258.584 118.624 261.772C135.325 264.612 153.903 265.501 175.418 264.477C192.313 263.665 197.707 261.868 205.845 259.105C210.368 257.579 215.994 255.685 224.731 253.579C235.093 251.087 241.317 250.353 246.807 249.715C254.114 248.865 259.875 248.188 272.904 243.358C285.102 238.837 292.912 239.841 299.793 240.711C306.598 241.58 313.035 242.411 324.073 237.909C334.28 233.755 339.48 230.76 344.487 227.843C350.75 224.229 356.665 220.81 370.835 216.134C381.428 212.636 386.261 208.946 390.939 205.391C397.106 200.676 402.944 196.232 418.969 193.373C426.585 192.059 434.26 191.634 441.934 191.634Z" fill="white"/>
<path d="M506.77 151.907C511.41 151.907 516.107 152.275 520.863 153.241C534.839 156.081 548.777 160.699 562.25 165.162C578.063 170.398 594.436 175.808 611.061 178.456C625.463 180.736 639.999 183.924 654.053 186.996C671.2 190.744 688.945 194.628 706.401 196.85C721.499 198.782 737.176 199.69 752.351 200.579C765.902 201.371 779.898 202.183 793.41 203.728C807.715 205.351 822.832 205.429 837.446 205.506C850.784 205.583 864.567 205.661 877.828 206.878C890.761 208.076 903.945 210.568 916.684 212.984C932.748 216.036 949.353 219.167 965.475 219.708C979.877 220.191 994.704 221.756 1009.03 223.263C1022.6 224.693 1036.63 226.18 1049.91 226.663C1063.08 227.224 1075.29 221.91 1088.19 216.346C1099.96 211.283 1112.12 206.047 1125.5 205.236C1139.24 204.385 1153.02 206.163 1166.34 207.902C1180.46 209.718 1195.05 211.612 1209.35 210.279C1219.1 209.37 1229.11 208.559 1238.8 207.786C1256 206.395 1273.79 204.965 1290.82 202.898C1305.82 201.062 1320.76 195.691 1335.24 190.493C1347.07 186.242 1359.31 181.856 1371.64 179.344C1385.38 176.543 1399.36 177.296 1412.85 178.031C1426.89 178.784 1441.4 179.576 1455.42 176.272C1457.49 175.77 1459.58 177.064 1460.08 179.151C1460.56 181.238 1459.29 183.305 1457.2 183.808C1442.08 187.363 1427 186.551 1412.43 185.759C1398.82 185.025 1385.96 184.329 1373.18 186.938C1361.39 189.334 1349.43 193.643 1337.87 197.797C1323 203.13 1307.63 208.656 1291.78 210.588C1274.62 212.675 1256.74 214.124 1239.45 215.515C1229.79 216.288 1219.81 217.099 1210.11 218.007C1194.97 219.418 1179.93 217.486 1165.4 215.592C1152.43 213.911 1139.03 212.191 1126 212.984C1113.98 213.718 1102.44 218.684 1091.28 223.495C1078.16 229.137 1064.62 235.01 1049.66 234.431C1036.13 233.928 1021.96 232.441 1008.25 230.992C994.066 229.484 979.394 227.939 965.263 227.475C948.541 226.915 931.646 223.707 915.292 220.616C902.727 218.239 889.736 215.766 877.152 214.607C864.219 213.409 850.611 213.331 837.446 213.254C822.619 213.177 807.29 213.1 792.579 211.419C779.298 209.911 765.4 209.1 751.945 208.308C736.635 207.419 720.822 206.491 705.473 204.54C687.67 202.279 669.769 198.357 652.449 194.57C638.492 191.517 624.071 188.368 609.901 186.126C592.638 183.402 575.975 177.876 559.853 172.543C545.993 167.945 532.886 163.616 519.355 160.873C507.795 158.515 496.583 160.081 484.714 161.742C476.691 162.863 468.418 164.022 459.931 163.887C442.089 163.597 421.849 163.288 402.847 166.534C378.818 170.65 376.905 171.229 358.598 176.871L353.07 178.571C339.441 182.745 334.203 185.16 327.572 188.213C322.778 190.435 317.327 192.928 307.681 196.56C297.01 200.56 292.235 203.786 287.19 207.206C281.912 210.781 276.442 214.491 264.456 218.684C251.563 223.205 244.719 222.644 237.47 222.045C231.671 221.562 225.659 221.06 215.278 223.437C206.096 225.543 200.819 227.668 196.16 229.562C188.95 232.479 182.725 235.01 166.506 235.822C149.978 236.672 133.47 234.025 117.522 231.455C114.854 231.03 112.206 230.605 109.557 230.199C94.827 227.919 81.566 221.311 68.7302 214.916C60.5919 210.858 52.1636 206.646 43.6387 203.748C34.2825 200.56 24.8296 198.009 15.686 195.517C0.511234 191.401 -15.1855 187.15 -30.7471 179.943C-32.6802 179.054 -33.5306 176.755 -32.6221 174.804C-31.7135 172.871 -29.4132 172.041 -27.4801 172.929C-12.5179 179.866 2.1543 183.846 17.7157 188.058C26.9753 190.57 36.5635 193.159 46.1516 196.425C55.1792 199.497 63.8395 203.825 72.2098 207.999C85.0649 214.413 97.2241 220.48 110.756 222.567C113.423 222.973 116.091 223.398 118.778 223.842C134.34 226.335 150.423 228.905 166.139 228.113C181.063 227.359 186.456 225.156 193.28 222.393C198.19 220.403 203.776 218.142 213.577 215.901C225.118 213.254 232.019 213.834 238.128 214.336C244.816 214.896 250.577 215.36 261.905 211.38C272.943 207.496 277.756 204.231 282.86 200.792C288.06 197.275 293.434 193.642 304.955 189.314C314.33 185.798 319.627 183.363 324.305 181.199C330.916 178.146 336.638 175.519 350.769 171.191L356.279 169.49C375.03 163.713 376.982 163.114 401.494 158.921C421.192 155.559 441.799 155.888 459.989 156.178C467.876 156.313 475.86 155.192 483.573 154.11C491.17 152.989 498.883 151.907 506.77 151.907Z" fill="white"/>
<path d="M438.301 110.269C453.205 110.269 467.839 113.283 481.989 116.22C488.755 117.611 495.772 119.061 502.615 120.143C516.417 122.307 530.316 125.166 543.771 127.929C557.766 130.808 572.245 133.784 586.512 135.948C624.787 141.744 653.938 145.783 681.021 149.029C697.607 151.019 714.309 154.787 730.469 158.419C746.224 161.974 761.09 165.317 775.897 167.191C789.545 168.911 803.251 166.302 817.749 163.539C830.952 161.027 844.599 158.4 858.479 159.288C874.64 160.293 890.279 164.892 905.395 169.336C920.88 173.876 935.513 178.185 950.475 178.881C963.852 179.518 977.191 176.543 991.302 173.393C1004.35 170.476 1017.82 167.462 1031.63 167.462C1031.68 167.462 1031.72 167.462 1031.78 167.462C1066.13 167.539 1092.21 167.095 1116.34 166.09C1128.59 165.587 1141.1 165.723 1153.22 165.877C1168.95 166.07 1185.25 166.264 1201.02 164.988C1213.72 163.964 1226.73 163.501 1239.32 163.037C1254.55 162.477 1270.31 161.916 1285.46 160.351C1300.39 158.825 1315.42 154.593 1329.94 150.516C1342.74 146.923 1355.98 143.213 1369.42 141.203C1390.55 138.054 1412 133.88 1432.74 129.823C1440.3 128.354 1447.86 126.867 1455.4 125.437C1457.51 125.031 1459.52 126.422 1459.92 128.509C1460.33 130.596 1458.94 132.625 1456.85 133.03C1449.31 134.46 1441.77 135.929 1434.23 137.397C1413.41 141.455 1391.88 145.667 1370.56 148.835C1357.62 150.768 1344.61 154.419 1332.05 157.936C1317.2 162.11 1301.85 166.418 1286.25 168.022C1270.85 169.606 1254.96 170.186 1239.59 170.746C1227.08 171.21 1214.17 171.674 1201.64 172.679C1185.52 173.973 1169.05 173.78 1153.12 173.587C1141.12 173.451 1128.73 173.297 1116.66 173.799C1092.42 174.804 1066.25 175.229 1031.78 175.171C1031.74 175.171 1031.68 175.171 1031.65 175.171C1018.71 175.171 1005.65 178.089 993.023 180.91C979.027 184.04 964.568 187.247 950.147 186.571C934.237 185.817 918.482 181.18 903.25 176.717C888.539 172.389 873.306 167.925 858.015 166.979C845.102 166.167 831.957 168.679 819.218 171.113C804.778 173.876 789.835 176.717 774.95 174.843C759.756 172.93 744.02 169.374 728.788 165.954C712.82 162.361 696.312 158.632 680.132 156.699C652.972 153.434 623.743 149.396 585.39 143.58C570.912 141.397 556.336 138.382 542.244 135.484C528.886 132.74 515.064 129.9 501.436 127.775C494.399 126.673 487.286 125.205 480.423 123.794C466.64 120.954 452.413 118.017 438.301 118.017C438.224 118.017 438.127 118.017 438.05 118.017C422.102 118.056 416.554 120.201 409.517 122.925C404.201 124.992 398.17 127.311 386.977 129.108C371.822 131.523 366.564 133.571 359.276 136.411C354.482 138.286 349.031 140.411 339.694 143.078C327.264 146.613 319.802 145.222 313.21 143.986C306.773 142.788 301.206 141.744 290.999 145.145C281.121 148.449 277.371 153.337 273.021 158.999C268.536 164.834 263.433 171.461 251.216 175.403C238.612 179.46 231.421 177.567 224.481 175.731C218.469 174.147 212.786 172.659 202.695 174.765C193.532 176.678 188.332 178.745 183.731 180.581C176.753 183.363 170.722 185.759 155.315 186.513C145.243 187.015 139.869 188.87 134.689 190.667C127.266 193.237 120.268 195.671 102.85 193.198C87.1537 190.976 72.153 185.508 57.6547 180.214C51.9713 178.146 46.0947 176.002 40.3341 174.128C11.8402 164.814 -10.8737 155.617 -31.1713 145.183C-33.0657 144.198 -33.8197 141.88 -32.8337 139.986C-31.8479 138.092 -29.5282 137.339 -27.6337 138.324C-7.72277 148.584 14.6432 157.627 42.7311 166.805C48.6077 168.717 54.5424 170.881 60.303 172.988C74.434 178.146 89.0481 183.46 103.933 185.566C119.514 187.769 125.081 185.837 132.156 183.383C137.588 181.489 143.755 179.364 154.928 178.803C169.04 178.108 174.259 176.04 180.87 173.413C185.761 171.48 191.29 169.278 201.11 167.21C212.998 164.718 220.151 166.611 226.453 168.273C232.871 169.973 238.399 171.423 248.838 168.061C258.774 164.853 262.544 159.965 266.893 154.303C271.359 148.488 276.443 141.88 288.563 137.841C300.664 133.803 307.759 135.136 314.641 136.411C320.943 137.59 326.897 138.691 337.587 135.658C346.576 133.107 351.834 131.04 356.473 129.224C363.915 126.326 369.773 124.026 385.759 121.476C396.14 119.833 401.514 117.747 406.714 115.737C414.195 112.839 420.652 110.346 438.011 110.308C438.127 110.269 438.204 110.269 438.301 110.269Z" fill="white"/>
<path d="M382.183 72.8434C389.876 72.8434 397.396 74.0219 404.742 75.1619C412.513 76.3792 419.878 77.5192 427.359 77.384C443.694 77.0941 460.203 79.5093 476.189 81.8473C480.114 82.4269 484.038 82.9873 487.923 83.5283C502.557 85.5184 517.326 89.2476 531.592 92.8608C544.698 96.1841 558.249 99.604 571.568 101.652C587.401 104.067 603.755 103.507 619.567 102.966C634.008 102.483 648.931 101.961 663.565 103.681C677.135 105.285 690.976 108.067 704.353 110.772C721.925 114.327 740.096 117.979 757.707 118.945C772.649 119.757 788.114 118.424 803.076 117.129C816.898 115.931 831.203 114.694 845.257 115.119C861.707 115.602 877.694 120.259 893.139 124.78C908.314 129.205 922.658 133.398 937.369 133.958C951.326 134.499 965.341 132.045 980.167 129.456C993.834 127.06 1008.02 124.607 1022.19 124.645C1043.61 124.742 1065.48 124.278 1086.6 123.853C1093.99 123.698 1101.35 123.544 1108.68 123.428C1124.82 123.138 1141.43 120.839 1157.49 118.617C1169.51 116.955 1181.96 115.235 1194.14 114.366C1208.43 113.342 1222.98 114.192 1237.04 115.023C1251.57 115.873 1266.59 116.762 1281.15 115.545C1297.37 114.192 1314.01 110.772 1330.1 107.449C1342.37 104.918 1355.05 102.309 1367.5 100.628C1379.02 99.063 1390.83 97.5946 1402.28 96.1841C1419.73 94.0201 1437.77 91.7595 1455.38 89.1317C1457.49 88.8033 1459.46 90.2717 1459.77 92.3778C1460.08 94.4839 1458.63 96.4546 1456.52 96.7638C1438.81 99.4108 1420.74 101.672 1403.25 103.836C1391.82 105.265 1380.03 106.734 1368.55 108.28C1356.37 109.922 1343.8 112.511 1331.66 115.004C1315.35 118.366 1298.47 121.824 1281.81 123.215C1266.71 124.491 1251.4 123.583 1236.59 122.713C1222.77 121.902 1208.49 121.071 1194.7 122.056C1182.78 122.906 1170.46 124.607 1158.55 126.268C1142.28 128.529 1125.42 130.848 1108.82 131.157C1101.49 131.292 1094.14 131.427 1086.76 131.582C1065.57 132.007 1043.65 132.471 1022.15 132.374C1022 132.374 1021.86 132.374 1021.71 132.374C1008.31 132.374 994.685 134.751 981.482 137.069C966.906 139.62 951.848 142.228 937.059 141.687C921.382 141.088 905.917 136.567 890.955 132.2C875.974 127.833 860.47 123.312 845.005 122.848C831.377 122.442 817.304 123.66 803.714 124.838C788.501 126.152 772.746 127.524 757.262 126.674C739.071 125.689 720.63 121.959 702.787 118.366C689.565 115.699 675.878 112.936 662.617 111.371C648.564 109.709 633.93 110.212 619.78 110.695C603.6 111.255 586.879 111.815 570.351 109.284C556.664 107.198 542.92 103.72 529.64 100.358C515.586 96.8024 501.03 93.1119 486.821 91.1798C482.897 90.6387 478.954 90.0784 475.01 89.4988C459.333 87.2188 443.114 84.8228 427.437 85.1127C419.318 85.2286 411.257 84.0113 403.505 82.794C393.279 81.2096 383.633 79.7026 373.793 81.1517C361.479 82.968 356.511 86.4845 350.751 90.5808C345.589 94.2326 339.751 98.3867 328.365 101.266C316.651 104.241 310.136 104.087 304.356 103.971C298.364 103.836 293.144 103.72 282.474 106.888C270.74 110.366 265.056 111.12 259.044 111.931C253.806 112.627 248.374 113.361 238.109 116.143C228.849 118.675 223.649 120.761 219.068 122.597C212.65 125.167 207.102 127.408 193.802 129.881C184.292 131.659 179.265 133.9 174.394 136.045C167.879 138.943 161.713 141.668 147.195 142.383C135.616 142.982 125.081 139.388 114.932 135.91C107.605 133.398 100.685 131.041 93.4358 130.171C85.4714 129.224 77.9324 130.654 69.968 132.181C59.2974 134.229 48.2593 136.335 36.1001 132.335L34.631 131.852C12.9415 124.703 -9.50171 117.322 -31.2297 108.028C-33.2015 107.197 -34.11 104.917 -33.2595 102.947C-32.4089 100.976 -30.1472 100.068 -28.1754 100.918C-6.7373 110.096 15.532 117.419 37.0667 124.51L38.5359 124.993C48.7813 128.374 58.3694 126.539 68.5182 124.587C76.7146 123.022 85.1815 121.38 94.3638 122.5C102.425 123.466 110.061 126.075 117.445 128.606C127.342 131.987 136.66 135.176 146.809 134.673C159.896 134.016 165.173 131.678 171.262 128.973C176.288 126.751 181.991 124.22 192.372 122.268C204.917 119.911 210.137 117.824 216.168 115.409C220.962 113.496 226.375 111.313 236.06 108.666C246.827 105.729 252.511 104.976 258 104.241C263.722 103.488 269.116 102.753 280.25 99.4494C292.1 95.9328 298.402 96.0681 304.511 96.2034C310.02 96.3193 315.723 96.4546 326.432 93.7302C336.426 91.1991 341.201 87.8177 346.246 84.2238C352.258 79.9537 358.483 75.5483 372.633 73.4616C375.9 73.0365 379.07 72.8434 382.183 72.8434Z" fill="white"/>
<path d="M380.558 37.6969C388.02 37.6969 392.891 39.0107 397.975 40.3826C404.045 42.0249 410.347 43.7253 422.564 43.5901C440.967 43.4548 459.429 45.7927 477.271 48.092L480.905 48.5558C505.378 51.6859 530.412 54.7581 554.614 57.7143L560.916 58.4871C576.652 60.4193 592.793 58.8349 608.412 57.3085C623.587 55.8401 639.284 54.2944 654.826 55.8981C669.189 57.3859 683.823 60.2261 697.992 62.9698C714.443 66.1579 731.454 69.462 748.059 70.6213C763.37 71.7033 779.279 71.0077 794.666 70.3508C809.049 69.7325 823.914 69.0948 838.412 69.8677C857.55 70.8918 877.538 70.9304 896.85 70.9497C906.979 70.9691 917.457 70.9691 927.664 71.1237C943.554 71.3749 958.361 76.128 972.666 80.7459C987.744 85.5957 1001.97 90.2137 1017.3 89.8659C1027.8 89.6533 1038.45 89.402 1049.18 89.1509C1067.52 88.7258 1086.47 88.2814 1104.83 88.0109C1119.74 87.7791 1134.62 84.2818 1149 80.8812C1162.79 77.6351 1177.03 74.2731 1191.49 73.7128C1205.55 73.1524 1219.77 75.2006 1233.54 77.1908C1248.62 79.3548 1264.22 81.5961 1279.2 80.2629C1293.62 78.9877 1307.88 74.2731 1321.69 69.7131C1336.19 64.9213 1351.17 59.9751 1366.82 58.6998C1396.09 56.3039 1426.73 52.7487 1455.5 49.2708C1457.6 49.0003 1459.54 50.5267 1459.81 52.6521C1460.06 54.7775 1458.55 56.6903 1456.42 56.9608C1427.58 60.4387 1396.85 64.0133 1367.46 66.4092C1352.71 67.6265 1338.18 72.4183 1324.12 77.0555C1309.9 81.7507 1295.18 86.6004 1279.89 87.9723C1264 89.3828 1247.96 87.0642 1232.46 84.8421C1219.04 82.91 1205.18 80.9198 1191.82 81.4415C1178.12 81.9825 1164.85 85.1127 1150.8 88.4167C1136.01 91.8947 1120.7 95.5078 1104.97 95.7397C1086.64 96.0295 1067.7 96.4545 1049.37 96.8796C1038.66 97.1308 1027.99 97.3627 1017.48 97.5946C1000.85 97.8651 985.347 92.938 970.327 88.1075C956.544 83.6828 942.297 79.0843 927.567 78.8717C917.399 78.7172 906.96 78.6978 896.869 78.6978C877.461 78.6785 857.376 78.6592 838.026 77.6158C823.895 76.8622 809.223 77.4805 795.014 78.0988C779.414 78.7751 763.273 79.4707 747.518 78.35C730.468 77.1521 713.206 73.8093 696.523 70.5633C682.527 67.8389 668.068 65.0372 654.053 63.5881C639.265 62.0617 623.974 63.5494 609.186 64.9986C593.16 66.5636 576.574 68.1867 560.008 66.1579L553.706 65.385C529.484 62.4288 504.431 59.3566 479.939 56.2265L476.305 55.7628C458.713 53.5021 440.465 51.1449 422.661 51.3188C409.342 51.4347 402.267 49.5219 395.984 47.8409C389.083 45.986 383.632 44.5175 371.221 46.0632C357.322 47.8022 351.484 49.7731 344.699 52.053C339.557 53.792 333.739 55.7434 323.725 57.8881C317.868 59.144 313.518 60.0522 309.903 60.8057C299.175 63.0471 295.173 63.8973 278.587 68.0901C267.936 70.7951 262.542 73.0171 257.323 75.1812C251.756 77.4805 245.976 79.8763 234.397 82.6393C218.816 86.3685 214.138 87.0641 204.839 88.4167C200.915 88.9963 196.044 89.7111 189.104 90.8511C179.439 92.4355 174.239 94.4643 169.213 96.4158C162.601 98.9856 156.338 101.42 142.033 102.096L141.105 102.135C117.444 103.236 116.98 103.256 90.3228 100.454C77.6803 99.1402 66.8936 93.5369 56.4548 88.1268C48.3552 83.9339 40.7195 79.973 32.3298 77.8862C23.6696 75.7415 15.2412 76.2439 6.32959 76.8042C-5.81018 77.5384 -18.3752 78.3113 -31.5204 71.9351C-33.4341 71.0076 -34.2461 68.6891 -33.2988 66.7762C-32.371 64.8633 -30.0511 64.0517 -28.1374 64.9985C-16.8094 70.4859 -5.81018 69.8291 5.84632 69.0948C14.9513 68.5345 24.3849 67.9548 34.205 70.4087C43.4839 72.708 51.8928 77.0747 60.0311 81.2869C70.2766 86.6004 79.9613 91.624 91.1346 92.7833C117.212 95.5077 117.212 95.5077 140.757 94.4257L141.685 94.387C154.734 93.7881 160.146 91.682 166.429 89.2281C171.571 87.2187 177.39 84.958 187.867 83.2383C194.865 82.0983 199.794 81.3642 203.738 80.7845C212.804 79.4513 217.366 78.7751 232.618 75.1233C243.617 72.4955 248.856 70.3314 254.404 68.0321C259.875 65.7714 265.539 63.4335 276.731 60.5932C293.453 56.3617 297.512 55.5116 308.357 53.2316C311.972 52.4781 316.321 51.5699 322.14 50.314C331.728 48.2659 337.083 46.4496 342.263 44.7106C349.435 42.2954 355.621 40.2087 370.293 38.3732C374.218 37.9094 377.581 37.6969 380.558 37.6969Z" fill="white"/>
<path d="M394.921 0.502608C398.536 0.502608 401.629 0.676509 405.147 0.869724C410.598 1.15955 416.784 1.50732 427.629 1.33343C440.677 1.15954 453.764 2.78248 466.407 4.38619C472.206 5.12041 478.218 5.87396 484.075 6.43429C497.82 7.74816 511.583 10.975 524.883 14.1051C536.849 16.9261 549.221 19.8243 561.341 21.2542C577.444 23.1477 594.127 22.3941 610.268 21.6598C625.404 20.9836 641.043 20.2687 656.45 21.6985C673.152 23.2443 690.434 23.3022 707.155 23.3602C720.861 23.3988 735.03 23.4568 748.832 24.3069C763.427 25.215 778.119 27.7076 792.346 30.1228C807.521 32.6926 823.199 35.359 838.47 36.0159C853.297 36.6342 868.511 34.6827 883.241 32.7892C898.048 30.8764 913.378 28.9056 928.591 29.4659C954.785 30.4513 984.458 30.8958 1016.74 30.8185C1016.82 30.8185 1016.9 30.8185 1016.97 30.8185C1031.9 30.8185 1046.1 34.7214 1059.83 38.4698C1074.68 42.5467 1088.65 46.3724 1103.59 45.7348C1116.35 45.1745 1129.56 44.3822 1142.33 43.6287C1158.48 42.6626 1175.16 41.6772 1191.32 41.0976C1205.78 40.5952 1220.16 37.0014 1234.06 33.5235C1248.63 29.8717 1263.69 26.1039 1279.35 25.6595C1292.17 25.2924 1305.2 25.5436 1317.8 25.7948C1334.02 26.1039 1350.8 26.4324 1367.02 25.4083C1382.37 24.4422 1398.02 21.544 1413.16 18.7616C1426.98 16.2112 1441.29 13.5835 1455.61 12.3276C1457.76 12.1344 1459.61 13.7188 1459.81 15.8442C1460 17.9696 1458.41 19.8437 1456.29 20.037C1442.33 21.2542 1428.22 23.8626 1414.55 26.3744C1399.2 29.1954 1383.31 32.1323 1367.5 33.137C1350.97 34.1804 1334.02 33.852 1317.65 33.5428C1305.14 33.2916 1292.21 33.0404 1279.56 33.4076C1264.74 33.8326 1250.1 37.5038 1235.93 41.0397C1221.65 44.6142 1206.86 48.3046 1191.59 48.8456C1175.53 49.4059 1158.88 50.3913 1142.8 51.3574C1130 52.1303 1116.76 52.9032 1103.94 53.4829C1087.84 54.1784 1072.57 50.0049 1057.78 45.9473C1044.54 42.3148 1030.85 38.5664 1016.97 38.5664C1016.9 38.5664 1016.84 38.5664 1016.76 38.5664C984.342 38.663 954.572 38.1994 928.301 37.214C913.726 36.6536 898.725 38.6051 884.227 40.4793C869.168 42.4308 853.626 44.4209 838.122 43.7639C822.367 43.0877 806.439 40.3827 791.032 37.7742C777.017 35.3977 762.519 32.9438 748.33 32.055C734.74 31.2048 720.706 31.1662 707.097 31.1082C690.202 31.0502 672.746 30.9923 655.696 29.4079C640.811 28.036 625.443 28.7316 610.577 29.3885C594.146 30.1228 577.135 30.8956 560.413 28.9248C547.848 27.4564 535.264 24.4809 523.085 21.6213C510.037 18.5491 496.525 15.3803 483.302 14.1244C477.31 13.5641 471.259 12.7912 465.402 12.057C453.011 10.4919 440.214 8.86891 427.706 9.06213C416.591 9.2167 409.999 8.86891 404.683 8.57908C396.931 8.154 391.325 7.8448 376.672 9.37122C362.638 10.8397 356.452 12.5593 349.281 14.5688C343.829 16.0952 337.643 17.8148 327.224 19.6311C315.123 21.7371 309.246 24.1137 303.022 26.6255C297.164 28.9828 291.114 31.4367 279.902 33.7939C269.27 36.0352 263.664 37.4457 258.27 38.8369C252.142 40.3826 246.362 41.8704 234.068 44.2856C221.387 46.7974 215.143 44.9812 209.112 43.2229C203.699 41.6579 198.596 40.1701 187.867 41.5613C178.472 42.7786 172.866 43.9765 167.898 45.0198C160.224 46.6429 154.173 47.9375 138.979 48.5558C130.009 48.9229 124.384 49.5024 119.416 50.0241C110.678 50.9322 104.357 51.5892 87.0945 50.314C75.1866 49.4445 64.4193 45.1551 53.9999 41.0009C45.9968 37.8128 38.4578 34.7986 30.4547 33.2528C21.9685 31.5912 13.7528 32.4027 5.05383 33.2722C-6.64136 34.4315 -18.7426 35.6295 -31.5591 30.4513C-33.5308 29.6591 -34.4973 27.3984 -33.7047 25.4275C-32.9122 23.4567 -30.6505 22.4907 -28.6787 23.2829C-17.6407 27.7269 -6.98938 26.6835 4.28052 25.5822C13.1534 24.7127 22.3357 23.8045 31.9238 25.6787C40.6228 27.3791 48.8771 30.6638 56.8414 33.8326C67.1642 37.9481 76.907 41.8317 87.6357 42.6046C104.202 43.8219 110.253 43.2036 118.585 42.3341C123.649 41.8124 129.41 41.2134 138.631 40.8463C153.168 40.2473 158.948 39.0301 166.255 37.4843C171.339 36.4023 177.119 35.1851 186.823 33.9098C199.156 32.3061 205.555 34.161 211.219 35.8033C216.844 37.4264 221.696 38.8369 232.521 36.7115C244.603 34.3156 250.306 32.8858 256.318 31.3594C261.808 29.9682 267.472 28.519 278.259 26.2584C288.794 24.0364 294.535 21.7178 300.083 19.4764C306.404 16.926 312.938 14.2789 325.851 12.0376C335.884 10.2987 341.606 8.69503 347.135 7.14929C354.326 5.13983 361.13 3.22696 375.803 1.70054C384.56 0.773099 390.204 0.502607 394.921 0.502608Z" fill="white"/>
</svg>
