<svg width="1440" height="720" viewBox="0 0 1440 720" fill="none" xmlns="http://www.w3.org/2000/svg">
<path d="M-115.496 555.401C-114.569 555.386 -113.663 555.821 -113.101 556.655C-98.4869 578.662 -80.9731 603.615 -58.0827 621.33C-38.4642 636.512 -16.8734 648.543 6.08006 657.081C26.631 664.731 49.397 667.737 71.431 670.642C73.7119 670.943 75.9927 671.243 78.2736 671.544C107.658 675.497 135.603 677.295 161.335 676.881C174.482 676.669 187.818 677.761 200.732 678.818C219.077 680.321 238.055 681.871 256.564 679.676C273.237 677.693 290.145 674.597 306.506 671.58C318.945 669.3 331.804 666.929 344.503 665.067C360.243 662.762 376.446 661.279 392.13 659.832C407.407 658.434 423.203 656.972 438.342 654.789C449.316 653.194 460.388 649.714 471.095 646.338C485.157 641.896 499.709 637.32 514.844 636.669C539.525 635.598 564.331 637.039 588.308 638.438C593.539 638.747 598.77 639.042 604.015 639.323C627.836 640.597 653.87 645.054 685.924 653.348C690.594 654.551 695.165 655.77 699.708 656.962C716.428 661.386 732.216 665.557 749.408 668.765C759.329 670.615 769.408 672.729 779.149 674.778C796.883 678.497 815.209 682.361 833.414 684.752C841.045 685.753 848.676 686.81 856.308 687.854C876.724 690.658 897.845 693.564 918.558 695.563C951.232 698.718 979.957 700.996 1006.39 702.509C1021.6 703.389 1037.27 703.052 1052.44 702.724C1065.36 702.46 1078.73 702.16 1091.8 702.624C1108.81 703.222 1126.32 703.151 1143.26 703.089C1156.96 703.037 1171.12 702.978 1184.95 703.275C1201.12 703.619 1217.62 704.688 1233.58 705.724C1251.19 706.86 1269.39 708.042 1287.15 708.248C1314.26 708.57 1342.07 708.516 1368.98 708.476L1385.89 708.457C1401.15 708.436 1416.78 709.056 1431.88 709.642C1449.85 710.35 1468.4 711.049 1486.23 710.72C1502.41 710.404 1518.66 707.065 1534.39 703.833C1548.34 700.967 1562.76 698.009 1577.43 697.043C1596.5 695.78 1614.48 700.633 1631.87 705.341C1646.99 709.426 1662.62 713.642 1678.71 713.706C1680.25 713.71 1681.51 714.968 1681.51 716.528C1681.5 718.087 1680.2 719.317 1678.69 719.327C1661.87 719.274 1645.87 714.951 1630.4 710.774C1612.68 705.987 1595.92 701.466 1577.78 702.657C1563.51 703.603 1549.28 706.53 1535.52 709.351C1519.54 712.629 1503.03 716.028 1486.33 716.353C1468.31 716.713 1449.7 715.973 1431.66 715.266C1416.61 714.679 1401.04 714.072 1385.9 714.091L1368.98 714.111C1342.07 714.15 1314.22 714.205 1287.09 713.883C1269.17 713.68 1250.89 712.485 1233.21 711.35C1217.3 710.313 1200.86 709.257 1184.81 708.911C1171.07 708.613 1156.93 708.672 1143.26 708.723C1126.28 708.786 1108.71 708.858 1091.6 708.262C1078.68 707.809 1065.41 708.093 1052.56 708.37C1037.28 708.701 1021.49 709.025 1006.08 708.149C979.57 706.622 950.76 704.346 918.016 701.178C897.191 699.167 876.028 696.262 855.541 693.444C847.923 692.4 840.292 691.343 832.675 690.342C814.259 687.912 795.82 684.036 777.987 680.29C768.275 678.255 758.238 676.14 748.373 674.304C730.985 671.071 715.083 666.859 698.265 662.409C693.736 661.217 689.164 659.998 684.508 658.794C652.822 650.593 627.139 646.201 603.698 644.934C598.439 644.653 593.208 644.344 587.963 644.049C564.113 642.663 539.461 641.219 515.06 642.286C500.67 642.911 486.482 647.383 472.755 651.706C461.838 655.142 450.557 658.71 439.119 660.355C423.841 662.568 407.975 664.032 392.614 665.445C377.014 666.876 360.881 668.358 345.295 670.646C332.694 672.493 319.877 674.849 307.494 677.114C291.049 680.132 274.043 683.258 257.202 685.258C238.131 687.518 218.872 685.945 200.247 684.418C187.473 683.373 174.263 682.293 161.397 682.5C135.384 682.905 107.158 681.097 77.506 677.106C75.2253 676.806 72.9585 676.505 70.6776 676.204C48.3478 673.248 25.2438 670.205 4.1134 662.34C-19.3773 653.599 -41.4641 641.295 -61.5237 625.755C-85.0828 607.531 -102.913 582.134 -117.772 559.751C-118.636 558.459 -118.284 556.711 -116.992 555.861C-116.533 555.558 -116.015 555.41 -115.496 555.401Z" fill="#F9FAFC"/>
<path d="M-128.515 530.376C-127.588 530.361 -126.668 530.81 -126.121 531.644C-109.385 557.115 -93.2103 575.711 -75.2333 590.175C-56.6297 605.148 -35.4132 614.01 -14.9038 622.574L-10.5473 624.4C12.7914 634.169 36.9222 644.277 62.0182 648.004C86.0718 651.565 111.02 651.332 135.139 651.098L140.786 651.049C169.597 650.796 198.271 648.143 224.961 645.311C241.104 643.59 257.609 640.753 273.581 637.995C285.35 635.965 297.525 633.872 309.468 632.233C325.632 630.034 342.285 628.599 358.392 627.23C371.875 626.086 385.807 624.892 399.366 623.255C405.536 622.509 411.705 621.721 417.888 620.933C439.129 618.231 461.1 615.447 482.828 614.212L487.544 613.939C511.561 612.569 536.405 611.144 560.471 612.822C582.004 614.316 607.165 616.847 630.48 624.284C640.394 627.441 650.061 630.994 659.403 634.427C677.973 641.252 695.512 647.7 715.03 651.404C726.501 653.58 738.781 653.579 750.666 653.584C760.094 653.587 769.83 653.585 779.232 654.656C793.574 656.28 808.171 658.855 822.288 661.34C839.195 664.313 856.68 667.39 873.887 668.897C892.289 670.498 911.143 671.347 929.378 672.163C940.176 672.65 951.353 673.144 962.322 673.797C990.968 675.5 1020.21 676.589 1048.51 677.651L1057.83 677.992C1072.95 678.564 1088.34 679.693 1103.24 680.774C1122.37 682.18 1142.14 683.633 1161.44 683.884C1193.41 684.311 1226.29 683.754 1258.09 683.228L1261.51 683.173C1287.03 682.748 1313.06 681.669 1338.24 680.631C1346.3 680.305 1354.34 679.964 1362.39 679.652C1375.21 679.151 1388.28 678.8 1400.91 678.456C1421.93 677.893 1443.67 677.304 1464.85 676.022C1486.26 674.722 1508.19 672.725 1529.4 670.796C1540.96 669.739 1552.92 668.661 1564.6 667.701C1581.01 666.355 1597.73 666.071 1613.93 665.783C1630.52 665.502 1647.65 665.198 1664.43 663.762C1665.97 663.652 1667.34 664.768 1667.46 666.326C1667.6 667.869 1666.46 669.237 1664.9 669.36C1647.94 670.813 1630.69 671.105 1614.02 671.401C1597.92 671.675 1581.28 671.97 1565.06 673.299C1553.39 674.26 1541.45 675.337 1529.9 676.394C1508.65 678.324 1486.68 680.336 1465.18 681.637C1443.9 682.921 1422.12 683.51 1401.05 684.074C1388.44 684.418 1375.38 684.768 1362.6 685.255C1354.56 685.567 1346.51 685.893 1338.47 686.234C1313.27 687.271 1287.19 688.351 1261.6 688.777L1258.18 688.832C1226.34 689.373 1193.4 689.917 1161.36 689.491C1141.9 689.229 1122.04 687.778 1102.82 686.359C1087.98 685.263 1072.64 684.147 1057.61 683.574L1048.29 683.232C1019.97 682.184 990.678 681.082 961.976 679.38C951.049 678.727 939.9 678.232 929.117 677.746C910.825 676.93 891.901 676.068 873.386 674.455C855.926 672.938 838.329 669.835 821.309 666.835C807.276 664.363 792.764 661.801 778.591 660.202C769.498 659.168 759.916 659.168 750.658 659.162C738.519 659.161 725.973 659.152 713.981 656.886C694.012 653.105 675.427 646.267 657.464 639.671C648.178 636.251 638.568 632.725 628.768 629.609C606.003 622.36 581.265 619.878 560.069 618.392C536.355 616.751 511.707 618.159 487.859 619.526L483.143 619.799C461.611 621.017 439.739 623.799 418.596 626.486C412.398 627.274 406.215 628.062 400.046 628.808C386.388 630.461 372.4 631.655 358.875 632.814C342.839 634.183 326.241 635.602 310.232 637.784C298.386 639.394 286.267 641.486 274.541 643.515C258.485 646.289 241.882 649.141 225.557 650.879C198.726 653.728 169.855 656.384 140.848 656.655L135.215 656.703C110.871 656.94 85.7127 657.191 61.2224 653.552C35.4363 649.724 10.9662 639.482 -12.6837 629.577L-17.0403 627.751C-37.9175 619.024 -59.5159 610.014 -78.7315 594.544C-97.1782 579.709 -113.711 560.698 -130.792 534.726C-131.641 533.433 -131.29 531.685 -129.983 530.835C-129.553 530.533 -129.021 530.384 -128.515 530.376Z" fill="#F9FAFC"/>
<path d="M-154.724 482.9C-153.754 482.884 -152.805 483.374 -152.271 484.251C-133.666 515.017 -115.216 537.96 -95.8723 554.383C-76.7994 570.585 -55.404 580.962 -35.1227 590.19L-33.75 590.814C-9.83114 601.711 14.8943 612.975 40.4293 616.92C63.4291 620.47 86.2478 620.637 110.387 620.81L117.118 620.856C133.487 620.986 150.014 618.669 165.98 616.417C175.765 615.037 185.899 613.609 195.931 612.759C208.362 611.702 221.04 611.189 233.311 610.711C249.991 610.049 267.247 609.364 283.89 607.269C310.151 603.966 338.303 600.267 367.531 596.27C377.975 594.838 388.583 592.264 398.841 589.781C412.332 586.501 426.299 583.115 440.166 582.259C461.724 580.915 485.634 581.71 517.675 584.819L522.36 585.264C542.243 587.164 561.013 588.955 579.743 595.187C587.681 597.827 595.159 600.644 602.396 603.351C619.527 609.778 635.697 615.854 655.782 619.016C670.29 621.297 684.882 624.449 698.994 627.495C715.672 631.091 732.929 634.817 749.936 637.059C763.509 638.849 777.676 638.312 791.394 637.796C802.921 637.358 814.842 636.913 826.461 637.822C849.264 639.619 872.888 640.925 895.739 642.187C903.88 642.632 912.008 643.091 920.108 643.565C932.61 644.291 945.354 645.238 957.662 646.164C978.86 647.748 1000.76 649.391 1022.12 649.932C1038.81 650.352 1055.8 652.2 1072.21 653.988C1091.84 656.116 1112.15 658.333 1131.92 658.071C1132.19 658.066 1132.44 658.062 1132.71 658.058C1149.95 657.781 1167.59 655.656 1184.64 653.597C1199.21 651.845 1214.27 650.029 1229.06 649.355C1245.61 648.611 1262.66 648.927 1279.16 649.238C1298.62 649.599 1318.75 649.992 1338.1 648.598C1359.43 647.075 1381.34 643.982 1402.54 641C1415.04 639.239 1427.96 637.415 1440.65 635.932C1454.06 634.367 1467.82 633.162 1481.12 631.993C1502.45 630.132 1524.49 628.204 1545.6 624.717C1565.52 621.432 1585.43 615.758 1604.69 610.277C1617.81 606.539 1631.37 602.682 1644.95 599.555C1646.46 599.208 1647.97 600.153 1648.31 601.665C1648.66 603.177 1647.72 604.681 1646.2 605.029C1632.77 608.111 1619.27 611.953 1606.22 615.676C1586.81 621.201 1566.74 626.92 1546.51 630.252C1525.18 633.771 1503.03 635.701 1481.61 637.577C1468.35 638.732 1454.63 639.936 1441.31 641.5C1428.69 642.981 1415.79 644.791 1403.31 646.551C1382.02 649.549 1360.01 652.657 1338.5 654.198C1318.9 655.595 1298.63 655.219 1279.05 654.846C1262.65 654.533 1245.68 654.217 1229.32 654.957C1214.73 655.614 1199.77 657.414 1185.32 659.164C1167.84 661.272 1149.8 663.473 1132 663.675C1111.89 663.929 1091.41 661.701 1071.61 659.561C1055.31 657.786 1038.45 655.95 1021.99 655.54C1000.5 655.001 978.515 653.36 957.246 651.763C944.952 650.851 932.236 649.889 919.777 649.163C911.691 648.689 903.563 648.243 895.422 647.798C872.543 646.537 848.877 645.217 826.004 643.422C814.694 642.536 802.941 642.978 791.582 643.4C777.64 643.919 763.22 644.474 749.183 642.621C731.95 640.341 714.581 636.602 697.79 632.98C683.748 629.946 669.241 626.822 654.888 624.566C634.226 621.316 617.801 615.145 600.387 608.611C593.206 605.916 585.772 603.127 577.932 600.513C559.81 594.482 541.349 592.714 521.79 590.851L517.105 590.407C485.374 587.334 461.744 586.534 440.48 587.86C427.105 588.694 413.39 592.02 400.123 595.24C389.725 597.768 378.977 600.371 368.253 601.837C339.01 605.834 310.845 609.547 284.556 612.851C267.674 614.977 250.292 615.664 233.5 616.342C221.299 616.833 208.677 617.331 196.373 618.387C186.482 619.234 176.445 620.646 166.731 622.011C150.555 624.295 133.832 626.657 117.026 626.492L110.31 626.446C87.027 626.272 62.9436 626.098 39.5354 622.484C13.24 618.426 -11.8535 606.999 -36.112 595.938L-37.4848 595.314C-58.1201 585.909 -79.9121 575.342 -99.5404 558.671C-119.354 541.848 -138.177 518.448 -157.114 487.153C-157.922 485.817 -157.486 484.096 -156.164 483.288C-155.676 483.041 -155.201 482.907 -154.724 482.9Z" fill="#F9FAFC"/>
<path d="M-185.808 429.235C-184.853 429.219 -183.932 429.682 -183.384 430.545C-167.178 456.291 -147.881 485.557 -123.677 507.227C-107.341 521.844 -88.2173 534.224 -61.6494 547.355C-55.9705 550.158 -50.1611 553.212 -44.5499 556.17C-25.1803 566.368 -5.14471 576.921 16.0628 580.851C48.0361 586.772 71.9062 589.408 93.4718 589.398C107.043 589.363 121.07 586.214 134.606 583.144C145.02 580.771 155.799 578.335 166.558 577.249C180.598 575.842 195.025 573.095 208.989 570.426C220.474 568.232 232.338 565.961 244.058 564.424C259.76 562.373 275.526 564.283 290.772 566.145C306.608 568.068 321.572 569.892 336.597 567.683C345.75 566.342 355.332 562.858 364.592 559.491C376.87 555.036 389.553 550.434 402.222 550.23C402.348 550.228 402.475 550.226 402.601 550.224C409.274 550.173 415.971 549.883 423.061 549.572C439.094 548.892 455.689 548.19 471.696 550.25C492.364 552.91 512.516 561.129 532.004 569.091C538.269 571.646 544.732 574.281 550.994 576.64C571.829 584.468 586.264 586.638 609.96 589.783C625.785 591.889 641.721 595.581 657.134 599.14C673.689 602.977 690.795 606.931 707.841 608.947C735.67 612.236 768.38 615.939 800.015 618.31C815.277 619.455 831.025 618.528 846.255 617.636C859.631 616.845 873.456 616.032 887.093 616.6C902.375 617.225 918.006 618.603 933.13 619.919C952.56 621.616 972.637 623.372 992.169 623.592C1010.96 623.795 1030.19 622.291 1048.81 620.853C1062.75 619.772 1077.16 618.655 1091.34 618.244C1099.84 617.995 1108.36 617.787 1116.9 617.566C1143.78 616.88 1171.57 616.166 1198.73 614.563C1215.03 613.598 1231.66 613.709 1247.77 613.802C1268.72 613.942 1290.38 614.071 1311.1 611.827C1332.74 609.469 1354.8 604.576 1376.15 599.835C1388.9 597.002 1402.09 594.078 1415.1 591.705C1437.61 587.605 1460.14 581.496 1481.9 575.581C1494.34 572.206 1507.18 568.725 1519.91 565.64C1532.54 562.585 1545.44 559.749 1557.92 557.006C1580.56 552.033 1603.98 546.893 1626.57 540.234C1628.06 539.789 1629.63 540.649 1630.06 542.131C1630.51 543.613 1629.65 545.187 1628.16 545.618C1605.39 552.336 1581.87 557.505 1559.13 562.494C1546.67 565.224 1533.8 568.058 1521.24 571.098C1508.59 574.168 1495.77 577.634 1483.38 581.009C1461.49 586.954 1438.87 593.093 1416.12 597.238C1403.2 599.596 1390.07 602.505 1377.37 605.337C1355.89 610.108 1333.66 615.047 1311.71 617.437C1290.66 619.729 1268.83 619.589 1247.73 619.45C1231.73 619.357 1215.16 619.244 1199.06 620.192C1171.8 621.811 1143.97 622.511 1117.05 623.198C1108.52 623.419 1100 623.627 1091.5 623.876C1077.46 624.284 1063.12 625.4 1049.26 626.481C1030.52 627.934 1011.15 629.454 992.119 629.241C972.376 629.025 952.173 627.256 932.645 625.547C917.577 624.23 902.016 622.865 886.861 622.238C873.505 621.694 859.82 622.49 846.584 623.265C831.173 624.174 815.228 625.105 799.586 623.937C767.852 621.554 735.058 617.852 707.173 614.549C689.831 612.496 672.556 608.503 655.859 604.641C640.573 601.107 624.779 597.441 609.207 595.373C585.807 592.251 570.386 589.942 549.014 581.912C542.682 579.541 536.176 576.878 529.869 574.31C510.72 566.497 490.907 558.414 470.972 555.84C455.429 553.842 439.086 554.527 423.292 555.202C416.468 555.495 409.392 555.791 402.65 555.858C402.537 555.859 402.425 555.861 402.313 555.863C390.585 556.052 378.349 560.492 366.504 564.785C356.978 568.241 347.117 571.828 337.418 573.248C321.635 575.568 305.602 573.62 290.089 571.734C275.196 569.922 259.796 568.048 244.78 570.004C233.228 571.511 221.434 573.766 210.033 575.945C195.957 578.63 181.39 581.408 167.111 582.846C156.703 583.885 146.093 586.289 135.846 588.618C122.016 591.763 107.723 594.972 93.4778 595.019C71.5471 595.034 47.3673 592.36 15.042 586.389C-7.01096 582.304 -27.429 571.561 -47.1672 561.158C-52.75 558.213 -58.531 555.173 -64.1393 552.397C-91.1746 539.034 -110.696 526.394 -127.431 511.418C-152.177 489.28 -171.747 459.611 -188.141 433.544C-188.963 432.236 -188.569 430.502 -187.262 429.666C-186.803 429.391 -186.299 429.243 -185.808 429.235Z" fill="#F9FAFC"/>
<path d="M-207.356 392.699C-206.415 392.684 -205.481 393.147 -204.933 394.009C-186.093 423.69 -168.098 446.246 -148.281 465.008C-145.827 467.329 -143.359 469.692 -140.876 472.054C-121.014 491.04 -100.467 510.675 -76.6497 522.235C-56.3586 532.081 -34.4187 539.61 -5.47628 546.647C8.02175 549.929 22.5479 548.121 36.5832 546.378C45.3886 545.281 54.4884 544.151 63.2713 544.276C72.9676 544.415 82.9105 545.042 92.5299 545.646C109.533 546.721 127.127 547.829 144.116 546.291C161.764 544.7 179.718 542.037 197.07 539.482C205.102 538.298 213.399 537.069 221.572 535.954C236.348 533.96 251.276 534.436 265.712 534.906C278.827 535.328 292.406 535.769 305.532 534.294C321.66 532.474 338.397 531.868 354.558 531.27C363.586 530.942 372.909 530.596 381.892 530.058C389.219 529.617 396.627 528.106 404.469 526.505C416.778 524.003 429.521 521.409 442.082 523.216L446.166 523.797C464.317 526.385 483.088 529.075 500.579 536.873C505.899 539.246 510.811 541.528 515.553 543.742C535.852 553.194 551.89 560.65 577.168 564.318C593.545 566.695 610.665 568.05 627.222 569.357C639.222 570.302 651.615 571.283 663.719 572.647C676.542 574.099 689.593 575.814 702.208 577.466C721.552 580.007 741.545 582.635 761.101 584.344C777.294 585.755 793.635 588.485 809.441 591.125C828.544 594.316 848.294 597.609 867.796 598.574C890.49 599.712 913.756 599.717 936.263 599.734C946.842 599.733 957.772 599.739 968.508 599.862C981.211 600.009 994.157 600.39 1006.67 600.765C1029.56 601.45 1053.25 602.151 1076.16 601.389C1097.78 600.676 1119.93 597.762 1141.33 594.945C1153.88 593.295 1166.86 591.583 1179.6 590.338C1199.27 588.406 1218.93 583.818 1237.97 579.367C1252.73 575.912 1268 572.35 1283.21 570.04C1298.88 567.652 1315.11 566.154 1330.81 564.693C1352.4 562.688 1374.72 560.614 1395.85 556.228C1423.63 550.47 1451.83 542.063 1479.11 533.938C1487.25 531.517 1495.37 529.096 1503.5 526.745C1516.75 522.907 1530.31 519.387 1543.43 515.986C1566.32 510.054 1589.98 503.926 1612.64 495.862C1614.11 495.333 1615.71 496.108 1616.24 497.561C1616.75 499.028 1615.99 500.628 1614.54 501.157C1591.64 509.309 1567.86 515.467 1544.86 521.429C1531.77 524.815 1518.26 528.32 1505.07 532.144C1496.96 534.494 1488.85 536.915 1480.73 539.336C1453.34 547.49 1425.02 555.927 1397 561.745C1375.57 566.193 1353.09 568.283 1331.35 570.291C1315.73 571.736 1299.59 573.233 1284.07 575.604C1269.08 577.883 1253.92 581.428 1239.26 584.854C1220.06 589.336 1200.2 593.983 1180.17 595.949C1167.52 597.193 1154.59 598.89 1142.08 600.539C1120.54 603.372 1098.26 606.302 1076.37 607.034C1053.28 607.799 1029.5 607.1 1006.52 606.416C994.023 606.041 981.105 605.659 968.459 605.511C957.751 605.388 946.821 605.381 936.27 605.383C913.692 605.367 890.356 605.363 867.521 604.227C847.696 603.239 827.777 599.921 808.52 596.704C792.813 594.09 776.584 591.373 760.602 589.986C740.933 588.265 720.87 585.624 701.455 583.084C688.854 581.432 675.831 579.717 663.079 578.278C651.073 576.926 638.722 575.944 626.779 574.998C610.124 573.679 592.905 572.326 576.359 569.923C550.264 566.127 533.901 558.508 513.177 548.88C508.449 546.68 503.566 544.412 498.288 542.052C481.519 534.566 463.959 532.067 445.371 529.401L441.287 528.821C429.698 527.139 417.445 529.64 405.598 532.051C397.91 533.622 389.97 535.239 382.236 535.701C373.183 536.254 363.818 536.587 354.761 536.93C338.698 537.511 322.074 538.13 306.157 539.918C292.623 541.442 278.848 541.004 265.522 540.572C251.311 540.112 236.622 539.632 222.323 541.576C214.178 542.677 205.894 543.906 197.891 545.089C180.455 547.659 162.416 550.324 144.614 551.946C127.176 553.533 109.386 552.4 92.1576 551.314C82.6083 550.709 72.7218 550.096 63.1801 549.954C54.7625 549.837 46.2659 550.901 37.2641 552.015C22.724 553.823 7.67919 555.695 -6.82032 552.163C-36.1579 545.02 -58.4651 537.37 -79.1244 527.347C-103.72 515.407 -124.595 495.468 -144.772 476.178C-147.254 473.815 -149.708 471.466 -152.162 469.145C-172.321 450.052 -190.603 427.148 -209.702 397.064C-210.538 395.757 -210.145 394.023 -208.838 393.187C-208.352 392.842 -207.848 392.707 -207.356 392.699Z" fill="#F9FAFC"/>
<path d="M-229.918 354.381C-228.977 354.366 -228.057 354.815 -227.509 355.663C-210.248 382.376 -190.933 410.152 -166.664 432.341C-150.252 447.336 -131.749 456.915 -112.169 467.068C-109.732 468.335 -107.268 469.603 -104.788 470.897C-96.2443 475.368 -87.7575 480.669 -79.5545 485.792C-62.4246 496.504 -44.6989 507.572 -25.3419 511.756C-2.34742 516.725 22.8903 519.649 49.6665 520.413C67.8127 520.936 86.6877 518.735 104.946 516.615C111.467 515.863 118.212 515.066 124.805 514.426C138.663 513.065 152.677 510.001 166.23 507.043C176.982 504.692 188.098 502.265 199.171 500.668C213.258 498.643 227.621 498.932 241.521 499.228C253.888 499.478 266.691 499.75 279.06 498.343C288.274 497.295 297.727 495.401 306.858 493.582C320.33 490.892 334.278 488.096 348.168 487.817C370.597 487.343 394.115 489.016 416.034 492.611C421.077 493.444 426.228 494.021 431.224 494.573C444.426 496.047 458.079 497.583 470.965 503.881C478.201 507.418 484.522 510.815 490.63 514.088C509.011 523.979 523.537 531.782 548.022 535.098C562.159 537.006 577.084 536.428 591.504 535.873C604.744 535.351 618.433 534.822 631.9 536.136C649.954 537.911 667.664 542.783 684.796 547.495C702.153 552.274 720.104 557.212 738.282 558.872L747.371 559.695C777.72 562.467 809.096 565.334 839.693 566.907C864.468 568.18 889.966 568.065 914.635 567.963C923.654 567.93 932.982 567.878 942.115 567.914C964.342 567.978 987.007 566.419 1008.93 564.914C1021.24 564.069 1033.95 563.19 1046.49 562.609C1081.43 560.993 1118.64 559.087 1155.64 555.288C1195.49 551.191 1231.52 546.339 1265.76 540.477C1302.28 534.213 1340.02 527.747 1377.09 518.916C1398.48 513.823 1418.59 503.425 1438.02 493.361C1452.19 486.024 1466.85 478.453 1481.88 472.985C1498.8 466.839 1516.64 462.688 1533.89 458.659C1554.39 453.875 1575.58 448.94 1595.41 440.64C1596.85 440.04 1598.49 440.717 1599.09 442.14C1599.69 443.578 1599.01 445.218 1597.59 445.817C1577.33 454.307 1555.9 459.302 1535.17 464.132C1518.08 468.117 1500.4 472.237 1483.81 478.265C1469.11 483.602 1454.62 491.099 1440.62 498.35C1420.87 508.559 1400.46 519.13 1378.41 524.375C1341.16 533.236 1303.32 539.732 1266.72 545.998C1232.34 551.89 1196.2 556.757 1156.23 560.871C1119.08 564.686 1081.79 566.593 1046.76 568.225C1034.28 568.805 1021.59 569.684 1009.33 570.528C987.308 572.048 964.531 573.609 942.107 573.548C932.989 573.526 923.675 573.564 914.67 573.597C889.93 573.7 864.334 573.817 839.418 572.531C808.709 570.96 777.277 568.08 746.871 565.31L737.782 564.486C719.098 562.792 700.907 557.788 683.31 552.942C666.404 548.297 648.933 543.478 631.358 541.765C618.272 540.487 604.779 541.013 591.721 541.518C577.049 542.091 561.885 542.687 547.27 540.702C521.771 537.248 506.097 528.831 487.957 519.077C481.891 515.817 475.627 512.447 468.49 508.965C456.468 503.089 443.899 501.689 430.584 500.203C425.532 499.638 420.296 499.048 415.112 498.204C393.531 494.66 370.478 493.007 348.274 493.491C334.875 493.763 321.193 496.498 307.945 499.142C298.702 500.991 289.137 502.901 279.671 503.981C266.938 505.437 253.938 505.168 241.373 504.907C227.699 504.621 213.56 504.329 199.936 506.29C189.059 507.856 178.041 510.268 167.401 512.603C153.695 515.605 139.513 518.7 125.317 520.094C118.78 520.733 112.063 521.516 105.557 522.281C87.1025 524.433 68.0171 526.651 49.4632 526.106C22.3494 525.32 -3.22598 522.36 -26.5587 517.326C-46.8746 512.932 -65.012 501.604 -82.5536 490.632C-90.6714 485.564 -99.059 480.317 -107.418 475.942C-109.898 474.647 -112.349 473.38 -114.772 472.112C-134.691 461.796 -153.505 452.053 -170.474 436.547C-195.227 413.931 -214.787 385.807 -232.25 358.774C-233.086 357.467 -232.72 355.733 -231.413 354.897C-230.942 354.524 -230.424 354.389 -229.918 354.381Z" fill="#F9FAFC"/>
<path d="M-260.471 301.354C-259.53 301.339 -258.61 301.788 -258.062 302.636C-238.498 332.769 -215.298 367.086 -187.414 393.067C-170.996 408.37 -145.902 430.321 -117.722 444.143C-102.201 451.761 -85.9278 454.633 -68.6965 457.671C-62.0604 458.843 -55.2128 460.053 -48.3466 461.559C-25.1678 466.637 -0.2355 469.791 27.8714 471.179C37.0108 471.636 46.3695 472.624 55.4185 473.574C72.5879 475.391 90.3342 477.255 107.264 475.55C120.393 474.228 133.712 470.726 146.582 467.33C158.012 464.321 169.82 461.209 181.526 459.615C194.591 457.832 208.381 457.455 221.722 457.072C233.687 456.739 246.058 456.385 257.768 455.044C271.918 453.412 286.014 455.489 299.632 457.49C310.617 459.112 321.967 460.783 333.018 460.395C353.87 459.68 377.99 459.531 398.812 463.916C405.621 465.352 412.194 464.361 419.145 463.308C428.984 461.815 439.159 460.26 450.097 465.985C455.934 469.039 460.792 473.162 465.492 477.133C469.921 480.883 474.109 484.427 478.971 487.074C492.024 494.171 507.489 496.549 522.46 498.865L524.334 499.158C538.671 501.372 553.361 504.48 567.557 507.469C584.91 511.124 602.856 514.91 620.412 517.156C645.077 520.3 670.737 522.43 695.553 524.476C702.798 525.076 710.029 525.676 717.218 526.291C735.663 527.877 754.657 527.852 773.019 527.838C787.082 527.822 801.637 527.798 815.95 528.495C838.447 529.595 861.419 529.675 883.632 529.753C895.449 529.801 907.672 529.843 919.631 530.03C935.722 530.291 952.129 531.868 967.987 533.397C988.784 535.395 1010.28 537.451 1031.01 536.528C1053.78 535.501 1077.22 531.836 1099.9 528.267C1112.24 526.326 1125.01 524.322 1137.59 522.757C1173.78 518.254 1212.12 513.225 1247.94 505.61C1268.83 501.171 1289.16 492.512 1308.8 484.144C1323.46 477.909 1338.61 471.455 1353.96 466.74C1370.9 461.549 1388.81 458.521 1406.13 455.601C1427.48 451.998 1449.55 448.284 1469.65 440.458C1506.88 425.977 1543.64 406.782 1579.19 388.211C1580.56 387.487 1582.26 388.021 1582.97 389.401C1583.69 390.78 1583.16 392.475 1581.78 393.186C1546.1 411.829 1509.19 431.096 1471.68 445.694C1451.04 453.726 1428.68 457.486 1407.05 461.136C1389.9 464.026 1372.17 467.009 1355.59 472.095C1340.51 476.721 1325.51 483.117 1310.98 489.294C1291.08 497.764 1270.5 506.539 1249.08 511.085C1213.04 518.747 1174.57 523.792 1138.25 528.31C1125.76 529.86 1113.04 531.863 1100.73 533.79C1077.9 537.375 1054.3 541.07 1031.22 542.102C1010.09 543.046 988.396 540.965 967.416 538.942C951.656 537.425 935.376 535.861 919.496 535.597C907.579 535.395 895.369 535.353 883.567 535.318C861.284 535.241 838.242 535.162 815.632 534.051C801.459 533.351 786.975 533.374 772.982 533.388C754.494 533.419 735.387 533.445 716.689 531.821C709.514 531.206 702.283 530.606 695.038 530.006C670.166 527.947 644.435 525.818 619.643 522.662C601.862 520.391 583.804 516.579 566.352 512.898C552.226 509.922 537.607 506.841 523.424 504.639L521.551 504.346C506.833 502.081 490.143 499.498 476.239 491.938C470.867 489.017 466.252 485.115 461.808 481.351C457.137 477.394 452.721 473.657 447.45 470.89C438.156 466.023 429.312 467.36 419.95 468.789C412.802 469.874 405.43 470.99 397.62 469.345C377.391 465.076 353.692 465.233 333.192 465.942C321.621 466.325 310.017 464.629 298.793 462.983C285.528 461.033 271.811 459.019 258.39 460.556C246.429 461.943 233.944 462.284 221.853 462.62C208.667 462.986 195.017 463.375 182.246 465.112C170.891 466.657 159.237 469.725 147.975 472.689C134.895 476.131 121.366 479.706 107.788 481.063C90.2831 482.82 72.2414 480.919 54.7906 479.078C45.8118 478.126 36.5376 477.152 27.5528 476.706C-0.877601 475.295 -26.1192 472.118 -49.5945 466.96C-56.3479 465.481 -63.1388 464.284 -69.7044 463.125C-87.3444 460.009 -103.998 457.073 -120.227 449.115C-149.073 434.952 -174.58 412.643 -191.268 397.105C-219.623 370.697 -243.054 336.032 -262.805 305.621C-263.655 304.314 -263.275 302.579 -261.982 301.73C-261.508 301.497 -260.991 301.362 -260.471 301.354Z" fill="#F9FAFC"/>
<path d="M-283.079 260.199C-282.18 260.184 -281.302 260.592 -280.741 261.383C-258.287 293.029 -235.866 323.467 -208.621 348.109C-188.049 366.718 -163.123 387.786 -134.303 402.918C-111.207 415.052 -85.3568 421.155 -60.3663 427.061L-59.351 427.298C-49.5354 429.613 -39.7314 432.954 -30.2385 436.173C-13.6115 441.821 3.59486 447.67 20.9231 448.009C36.9867 448.327 53.3859 445.927 69.2384 443.607C78.5593 442.248 88.1886 440.843 97.7703 439.972C108.993 438.948 120.513 438.875 131.652 438.794C146.276 438.685 161.392 438.583 175.714 436.329C186.981 434.56 198.458 431.017 209.558 427.579C222.434 423.606 235.743 419.5 249.135 417.963C265.599 416.083 282.676 415.639 299.191 415.205C305.988 415.025 313.009 414.842 319.875 414.563C325.126 414.352 330.515 414.012 335.722 413.676C351.723 412.673 368.27 411.62 384.365 413.904C404.22 416.718 423.417 426.694 440.362 435.498L442.827 436.779C464.588 448.063 480.048 450.118 503.434 453.24C506.123 453.605 508.897 453.967 511.797 454.37C528.258 456.634 544.584 461.065 560.36 465.363C575.374 469.435 590.911 473.653 606.359 475.933C637.468 480.519 670.856 485.279 704.171 489.042C716.431 490.432 728.862 492.031 740.899 493.565C762.242 496.313 784.303 499.147 806.051 500.877C824.873 502.372 844.018 500.35 862.517 498.38C877.286 496.808 892.546 495.199 907.707 495.335C931.538 495.555 955.945 493.996 979.552 492.478C990.597 491.767 1002.02 491.035 1013.22 490.489C1028.08 489.772 1043.24 489.964 1057.91 490.149C1079.56 490.419 1101.96 490.705 1123.47 488.04C1163.33 483.113 1200.3 476.898 1233.32 469.58C1241.39 467.793 1249.67 466.043 1257.68 464.341C1286.88 458.153 1317.06 451.751 1344.7 442.258C1366.34 434.828 1385.98 421.558 1404.97 408.733C1419.17 399.133 1433.88 389.201 1449.53 381.573C1463.87 374.584 1478.89 368.202 1493.41 362.039C1516.27 352.327 1539.91 342.294 1561.76 329.522C1563.1 328.741 1564.82 329.191 1565.6 330.528C1566.38 331.864 1565.93 333.585 1564.59 334.366C1542.45 347.325 1518.63 357.432 1495.61 367.202C1481.15 373.336 1466.2 379.674 1451.99 386.605C1436.68 394.06 1422.16 403.876 1408.1 413.361C1388.81 426.388 1368.87 439.874 1346.53 447.54C1318.57 457.137 1288.21 463.583 1258.85 469.802C1250.86 471.504 1242.58 473.253 1234.55 475.026C1201.34 482.375 1164.21 488.621 1124.16 493.565C1102.26 496.278 1079.68 495.995 1057.83 495.715C1043.24 495.528 1028.18 495.349 1013.5 496.049C1002.34 496.58 990.939 497.325 979.908 498.037C956.203 499.556 931.698 501.145 907.656 500.914C892.804 500.773 877.713 502.379 863.112 503.921C844.346 505.909 824.949 507.977 805.606 506.434C783.718 504.693 761.586 501.845 740.187 499.099C728.178 497.55 715.775 495.965 703.544 494.574C670.158 490.798 636.714 486.039 605.549 481.44C589.776 479.109 574.085 474.851 558.901 470.74C543.281 466.495 527.138 462.118 511.044 459.904C508.157 459.501 505.383 459.138 502.708 458.774C479.604 455.689 462.905 453.457 440.266 441.738L437.8 440.457C420.445 431.449 402.508 422.127 383.611 419.438C368.079 417.229 351.826 418.25 336.107 419.247C330.872 419.57 325.455 419.925 320.133 420.137C313.225 420.417 306.176 420.6 299.365 420.78C282.962 421.213 266.012 421.654 249.8 423.503C236.941 424.974 223.883 429.006 211.245 432.905C199.95 436.389 188.276 439.991 176.617 441.836C161.875 444.153 146.534 444.259 131.714 444.371C120.687 444.451 109.294 444.536 98.2951 445.528C88.8817 446.382 79.3225 447.772 70.0718 449.129C53.995 451.481 37.3575 453.913 20.8303 453.589C2.63071 453.235 -14.9853 447.238 -32.022 441.443C-41.388 438.263 -51.079 434.963 -60.6125 432.714L-61.6278 432.477C-86.9708 426.492 -113.174 420.31 -136.893 407.85C-166.266 392.417 -191.533 371.074 -212.362 352.23C-240.021 327.215 -262.643 296.5 -285.298 264.59C-286.189 263.326 -285.895 261.565 -284.63 260.673C-284.185 260.385 -283.626 260.208 -283.079 260.199Z" fill="#F9FAFC"/>
<path d="M-296.025 235.313C-295.154 235.299 -294.277 235.692 -293.717 236.442C-267.164 272.166 -244.704 297.208 -220.899 317.62C-199.587 335.894 -174.787 351.779 -145.08 366.181C-126.389 375.238 -106.741 379.179 -85.9223 383.368C-79.5372 384.656 -72.9268 385.983 -66.37 387.465C-56.6263 389.669 -46.869 392.729 -37.4363 395.697C-20.4631 401.03 -2.91132 406.536 14.9692 407.148C43.2804 408.125 71.3474 406.156 95.0576 404.088C102.549 403.434 110.211 402.875 117.621 402.334C136.074 400.983 155.159 399.594 173.376 396.702C185.904 394.716 198.624 391.518 210.924 388.44C223.475 385.287 236.447 382.03 249.395 379.995C263.942 377.709 278.825 378.004 293.202 378.292C301.999 378.46 311.092 378.65 319.923 378.227C325.299 377.972 330.884 377.531 336.3 377.121C352.676 375.86 369.612 374.547 385.983 377.389C391.661 378.379 397.502 379.044 403.161 379.698C417.391 381.337 432.1 383.026 445.612 389.819C449.776 391.916 453.815 394.914 457.739 397.816C462.133 401.075 466.683 404.444 471.124 406.298C478.719 409.463 491.189 410.836 502.195 412.036C507.009 412.563 511.54 413.066 515.147 413.668C528.868 415.976 542.807 418.717 556.295 421.366C573.024 424.651 590.318 428.054 607.176 430.607C623.851 433.135 641.3 433.992 658.158 434.817C673.386 435.555 689.133 436.328 704.395 438.33C717.714 440.069 731.307 442.309 744.45 444.472C763.636 447.633 783.485 450.911 802.916 452.706C840.582 456.202 873.884 458.252 904.706 459.006C929.682 459.616 955.413 458.288 980.302 457.017C989.665 456.543 999.351 456.036 1008.81 455.659C1024.01 455.035 1039.47 455.952 1054.44 456.821C1074.76 458.012 1095.78 459.247 1115.87 456.577C1147.18 452.42 1179.3 444.246 1210.36 436.341C1214.63 435.261 1218.9 434.166 1223.14 433.1C1264.67 422.625 1300.21 411.81 1331.81 400.005C1366.88 386.907 1403.47 370.455 1440.55 351.087C1470.98 335.198 1499.99 315.004 1528.03 295.486C1534.71 290.826 1541.41 286.18 1548.12 281.562C1549.4 280.684 1551.15 281.007 1552.02 282.286C1552.9 283.564 1552.58 285.312 1551.3 286.189C1544.59 290.794 1537.92 295.439 1531.24 300.085C1503.05 319.704 1473.88 339.999 1443.15 356.061C1405.85 375.545 1369.06 392.099 1333.77 405.27C1301.97 417.135 1266.22 428.023 1224.49 438.544C1220.25 439.61 1215.98 440.705 1211.73 441.785C1180.5 449.734 1148.22 457.953 1116.59 462.143C1095.96 464.878 1074.67 463.633 1054.08 462.433C1039.26 461.562 1023.94 460.67 1009.02 461.276C999.582 461.652 989.91 462.159 980.561 462.633C955.573 463.906 929.73 465.235 904.544 464.629C873.581 463.877 840.167 461.815 802.374 458.307C782.745 456.487 762.799 453.197 743.514 450.023C730.413 447.859 716.862 445.632 703.642 443.906C688.605 441.942 672.97 441.182 657.855 440.442C640.842 439.606 623.253 438.751 606.296 436.185C589.325 433.606 571.962 430.204 555.176 426.906C541.73 424.27 527.833 421.529 514.183 419.248C510.731 418.671 506.27 418.181 501.555 417.666C490.183 416.416 477.277 415.008 468.932 411.532C463.84 409.408 459.02 405.832 454.356 402.366C450.46 399.478 446.777 396.756 443.052 394.877C430.432 388.532 416.849 386.966 402.478 385.315C396.75 384.648 390.824 383.971 384.991 382.955C369.31 380.228 352.739 381.521 336.7 382.763C331.256 383.187 325.615 383.615 320.168 383.886C311.156 384.326 301.964 384.137 293.068 383.957C278.93 383.678 264.3 383.38 250.244 385.587C237.547 387.576 224.702 390.804 212.276 393.926C199.865 397.048 187.019 400.262 174.239 402.294C155.783 405.219 136.586 406.623 118.007 407.976C110.625 408.517 102.977 409.075 95.5275 409.715C71.6489 411.785 43.3714 413.772 14.765 412.785C-3.87467 412.144 -21.8079 406.517 -39.134 401.077C-48.4677 398.151 -58.1124 395.116 -67.6303 392.965C-74.1167 391.496 -80.6848 390.183 -87.0418 388.894C-108.212 384.64 -128.213 380.62 -147.541 371.251C-177.687 356.645 -202.885 340.499 -224.567 321.894C-248.7 301.193 -271.418 275.874 -298.229 239.802C-299.148 238.552 -298.895 236.792 -297.645 235.873C-297.16 235.514 -296.587 235.322 -296.025 235.313Z" fill="#F9FAFC"/>
<path d="M-319.969 184.47C-319.14 184.457 -318.32 184.809 -317.747 185.502C-293.643 214.873 -266.329 248.183 -234.649 273.386C-211.637 291.702 -184.445 307.802 -151.528 322.602C-126.664 333.779 -98.7639 342.365 -66.2342 348.824C-42.9642 353.452 -18.4089 354.138 5.33093 354.796C10.1942 354.928 15.0435 355.061 19.8792 355.236C31.0827 355.618 42.5072 357.514 53.551 359.331C69.1874 361.918 85.3592 364.594 100.872 362.967C116.58 361.323 132.441 357.752 147.783 354.288C159.542 351.64 171.693 348.901 183.829 347.006C196.806 344.984 209.8 341.361 222.36 337.871C236.109 334.053 250.32 330.1 264.535 328.214C277.994 326.437 291.774 327.129 305.103 327.814C315.157 328.326 324.662 328.806 334.053 328.317C349.621 327.519 365.316 330.287 380.491 332.965C386.394 334.008 392.509 335.09 398.578 335.962L403.788 336.693C422.685 339.354 442.216 342.088 459.927 350.514C464.896 352.879 469.307 356.335 473.576 359.667C477.702 362.888 481.601 365.944 485.805 367.928C493.719 371.665 506.817 373.674 517.338 375.289C521.394 375.912 525.239 376.497 528.439 377.134C547.888 380.951 568.043 384.069 587.536 387.086C598.198 388.741 609.212 390.446 619.848 392.228C635.935 394.92 652.959 394.646 669.406 394.353C685.881 394.074 702.932 393.785 719.203 396.46C733.529 398.815 747.944 403.233 761.879 407.491C778.003 412.416 794.677 417.515 811.174 419.428C830.626 421.672 851.218 421.383 871.121 421.104C884.592 420.916 898.525 420.72 912.106 421.302C919.994 421.639 928.022 422.043 935.784 422.438C960.882 423.706 986.825 425.031 1012.16 424.146C1017.8 423.942 1023.47 423.781 1029.16 423.605C1057.46 422.742 1086.71 421.864 1114.4 417.681C1138.31 414.078 1162.33 406.568 1185.55 399.31C1196.39 395.918 1207.6 392.407 1218.71 389.334C1227.55 386.873 1236.57 384.508 1245.29 382.218C1271.45 375.348 1298.49 368.239 1323.87 358.023C1355.88 345.129 1386.58 327.142 1416.27 309.748C1420.53 307.262 1424.77 304.763 1429.02 302.292C1441.35 295.111 1454.04 288.317 1466.31 281.754C1490.1 269.021 1514.7 255.853 1537.13 239.573C1538.38 238.654 1540.14 238.935 1541.06 240.198C1541.97 241.448 1541.7 243.209 1540.44 244.128C1517.7 260.638 1492.92 273.894 1468.96 286.714C1456.73 293.261 1444.1 300.026 1431.84 307.151C1427.59 309.622 1423.35 312.107 1419.1 314.592C1389.23 332.088 1358.35 350.19 1325.96 363.244C1300.25 373.606 1273.04 380.746 1246.71 387.661C1238.01 389.951 1229.01 392.316 1220.2 394.762C1209.18 397.819 1198.01 401.315 1187.22 404.692C1163.79 412.01 1139.58 419.594 1115.24 423.259C1087.2 427.49 1057.79 428.385 1029.34 429.236C1023.66 429.412 1017.99 429.574 1012.34 429.777C986.789 430.666 960.706 429.343 935.495 428.063C927.733 427.668 919.719 427.263 911.86 426.926C898.434 426.355 884.584 426.55 871.184 426.738C851.098 427.019 830.324 427.311 810.52 425.03C793.516 423.07 776.602 417.891 760.224 412.885C746.458 408.681 732.226 404.315 718.267 402.025C702.489 399.427 685.705 399.725 669.468 399.986C652.782 400.269 635.478 400.561 618.883 397.779C608.29 396.011 597.29 394.305 586.642 392.65C567.093 389.621 546.881 386.489 527.319 382.659C524.233 382.049 520.458 381.477 516.458 380.853C505.008 379.098 492.036 377.101 483.387 373.025C478.602 370.77 474.276 367.383 470.093 364.106C466.066 360.954 461.911 357.705 457.494 355.612C440.562 347.552 421.467 344.867 402.993 342.27L397.769 341.539C391.601 340.655 385.458 339.573 379.498 338.517C363.957 335.76 349.248 333.145 334.34 333.947C324.64 334.44 314.559 333.942 304.8 333.439C291.724 332.778 278.212 332.096 265.257 333.794C251.42 335.619 237.405 339.525 223.852 343.298C211.138 346.833 197.977 350.501 184.677 352.57C172.723 354.434 160.671 357.157 148.996 359.776C133.499 363.271 117.47 366.873 101.439 368.564C85.1555 370.274 68.6176 367.533 52.6151 364.896C41.7401 363.104 30.4988 361.248 19.6608 360.874C14.8252 360.713 9.99016 360.58 5.14074 360.433C-18.8382 359.765 -43.6182 359.082 -67.3673 354.364C-100.32 347.813 -128.615 339.108 -153.862 327.754C-187.203 312.764 -214.778 296.432 -238.175 277.812C-270.324 252.223 -297.839 218.678 -322.115 189.085C-323.103 187.878 -322.921 186.119 -321.729 185.131C-321.188 184.686 -320.573 184.48 -319.969 184.47Z" fill="#F9FAFC"/>
<path d="M-335.087 145.231C-334.3 145.218 -333.523 145.529 -332.95 146.166C-325.598 154.324 -318.195 163 -311.021 171.385C-289.299 196.804 -266.846 223.083 -240.637 241.868C-222.146 255.129 -202.111 262.113 -180.904 269.5C-170.647 273.072 -160.05 276.765 -149.568 281.233C-138.364 286.027 -127.373 292.426 -116.736 298.633C-99.2487 308.834 -81.1661 319.376 -61.6918 322.982C-39.9066 327.015 -17.1575 326.34 4.83284 325.663C13.0197 325.419 21.4731 325.156 29.7621 325.15C62.0892 325.121 90.7818 323.619 117.497 320.562C149.036 316.949 176.747 312.977 202.216 308.422C214.894 306.152 227.83 303.359 240.361 300.67C254.894 297.528 269.931 294.293 284.755 291.82C306.291 288.228 328.441 286.087 349.847 284.015C353.185 283.694 356.524 283.373 359.848 283.039C375.713 281.477 391.275 283.797 406.315 286.042C412.709 286.993 419.314 287.983 425.816 288.637C435.314 289.594 445.124 288.073 455.495 286.459C470.939 284.061 486.915 281.57 501.854 287.989C527.559 299.013 548.823 305.527 572.837 311.913C586.27 315.49 599.095 321.508 611.496 327.322C624.124 333.245 637.176 339.372 650.719 342.821C669.453 347.606 689.309 351.347 708.516 354.958C719.24 356.977 730.317 359.061 741.101 361.318C758.496 364.944 776.557 366.284 794.027 367.59C808.22 368.64 822.905 369.739 837.259 372.051C866.473 376.751 897.976 380.516 930.909 383.231C935.256 383.583 939.617 383.962 943.978 384.328C970.709 386.609 998.353 388.932 1025.29 388.443C1063.89 387.709 1094.76 385.596 1122.43 381.779C1130.73 380.634 1139.2 379.612 1147.39 378.623C1171.8 375.673 1197.04 372.625 1220.74 366.006C1253.59 356.836 1287.72 344.597 1322.18 329.654C1346.76 318.988 1368.79 302.306 1390.08 286.185C1400.81 278.06 1411.91 269.647 1423.2 262.117C1464.01 234.891 1496.33 210.892 1524.91 186.588C1526.09 185.586 1527.86 185.726 1528.86 186.904C1529.87 188.082 1529.73 189.855 1528.55 190.857C1499.79 215.305 1467.3 239.432 1426.31 266.788C1415.16 274.232 1404.13 282.587 1393.47 290.655C1371.91 306.991 1349.61 323.873 1324.41 334.803C1289.71 349.847 1255.33 362.175 1222.24 371.405C1198.13 378.144 1172.68 381.223 1148.06 384.191C1139.9 385.179 1131.44 386.2 1123.2 387.345C1095.3 391.194 1064.22 393.324 1025.4 394.061C1025.03 394.067 1024.67 394.073 1024.3 394.079C997.417 394.511 970.026 392.184 943.507 389.927C939.145 389.562 934.798 389.182 930.451 388.831C897.377 386.103 865.719 382.328 836.365 377.601C822.25 375.327 807.692 374.255 793.612 373.203C775.959 371.899 757.715 370.535 739.953 366.831C729.226 364.601 718.163 362.517 707.481 360.497C688.189 356.859 668.235 353.105 649.331 348.281C635.266 344.7 621.974 338.45 609.106 332.419C596.917 326.7 584.332 320.791 571.379 317.346C547.125 310.894 525.636 304.313 499.619 293.154C486.151 287.371 471.661 289.627 456.329 292.01C446.057 293.608 435.434 295.255 425.217 294.225C418.603 293.558 411.914 292.556 405.464 291.592C390.761 289.398 375.551 287.142 360.374 288.622C357.035 288.957 353.697 289.278 350.358 289.598C329.036 291.656 306.985 293.795 285.645 297.356C270.961 299.798 255.994 303.032 241.517 306.159C228.945 308.877 215.952 311.671 203.176 313.956C177.595 318.527 149.758 322.516 118.106 326.144C91.1814 329.233 62.264 330.738 29.7403 330.77C21.5356 330.776 13.1239 331.023 4.97942 331.281C-17.3201 331.949 -40.3638 332.643 -62.7407 328.507C-83.1732 324.719 -101.695 313.931 -119.594 303.485C-130.075 297.373 -140.924 291.056 -151.803 286.398C-162.102 281.997 -172.614 278.33 -182.772 274.799C-204.374 267.278 -224.776 260.174 -243.936 246.431C-270.685 227.247 -293.381 200.692 -315.318 175.023C-322.463 166.666 -329.851 158.017 -337.147 149.915C-338.191 148.766 -338.093 146.98 -336.944 145.95C-336.389 145.477 -335.747 145.242 -335.087 145.231Z" fill="#F9FAFC"/>
<path d="M-342.574 119.85C-341.83 119.838 -341.095 120.121 -340.524 120.688L-334.996 126.29C-306.146 155.57 -276.309 185.847 -242.315 208.216C-210.436 229.2 -175.959 243.216 -143.466 255.24C-115.594 265.554 -84.1434 273.071 -44.4869 278.882C-12.5193 283.58 19.844 285.799 51.6892 285.511C51.9982 285.506 52.3073 285.501 52.6163 285.497C72.9264 285.17 93.2477 280.318 112.911 275.618C126.473 272.379 140.483 269.034 154.32 267.21C167.148 265.528 180.012 266.094 192.469 266.638C205.881 267.223 219.758 267.829 233.25 265.532C250.624 262.583 267.773 256.153 284.336 249.929C299.543 244.218 315.268 238.317 331.511 234.922C341.354 232.853 351.416 230.373 361.141 227.968C379.837 223.339 399.162 218.56 418.235 216.455C438.935 214.169 462.729 214.671 488.955 217.93C502.019 219.56 509.208 227.13 516.167 234.437C521.841 240.402 527.7 246.574 537.071 250.048C545.495 253.172 553.669 256.483 561.574 259.686C576.578 265.767 590.748 271.511 606.783 276.184C621.562 280.499 637.147 281.597 652.224 282.647C667.949 283.757 684.209 284.9 699.838 289.636C717.231 294.92 735.359 299.504 752.893 303.943C763.459 306.611 774.392 309.386 785.06 312.277C808.371 318.604 839.144 326.736 870.445 333.665C880.315 335.852 890.232 338.405 899.812 340.864C917.644 345.452 936.097 350.214 954.568 352.6C972.871 354.975 991.831 352.843 1010.16 350.778C1024.39 349.172 1039.12 347.516 1053.61 347.943C1064.87 348.268 1075.98 349.789 1086.74 351.246C1103.75 353.571 1119.8 355.758 1136.26 353.61C1161.62 350.293 1187.67 341.64 1212.86 333.268C1219.56 331.039 1226.49 328.735 1233.24 326.59C1266.28 316.096 1298.28 300.477 1328.21 285.382L1331.4 283.771C1362.3 268.198 1394.25 252.087 1422.31 232.007C1455.24 208.42 1485.5 179.158 1514.76 150.853L1518.03 147.681C1519.14 146.595 1520.93 146.637 1522.01 147.743C1523.08 148.864 1523.06 150.635 1521.95 151.721L1518.67 154.893C1489.26 183.341 1458.85 212.76 1425.59 236.577C1397.18 256.916 1365.03 273.128 1333.94 288.803L1330.75 290.414C1300.61 305.61 1268.38 321.345 1234.94 331.972C1228.22 334.103 1221.32 336.406 1214.64 338.621C1189.19 347.082 1162.87 355.823 1136.98 359.204C1119.79 361.448 1102.6 359.112 1085.98 356.836C1075.38 355.391 1064.41 353.895 1053.46 353.58C1039.37 353.174 1024.85 354.813 1010.8 356.388C992.132 358.487 972.836 360.666 953.857 358.189C935.034 355.753 916.426 350.952 898.424 346.324C888.887 343.864 879.04 341.325 869.255 339.164C837.841 332.222 806.984 324.05 783.616 317.724C772.977 314.846 762.072 312.085 751.534 309.417C733.943 304.965 715.745 300.354 698.225 295.044C683.203 290.48 667.253 289.36 651.851 288.273C636.478 287.2 620.584 286.079 605.227 281.605C588.923 276.851 573.947 270.783 559.48 264.904C551.617 261.715 543.486 258.417 535.133 255.32C524.533 251.388 517.93 244.441 512.099 238.31C505.253 231.1 499.337 224.887 488.258 223.505C462.482 220.295 439.124 219.8 418.859 222.037C400.164 224.094 381.021 228.842 362.507 233.412C352.726 235.831 342.622 238.326 332.681 240.411C316.858 243.729 301.343 249.557 286.331 255.179C269.503 261.492 252.116 268.01 234.21 271.052C220.129 273.443 205.957 272.828 192.25 272.234C180.046 271.699 167.421 271.158 155.084 272.776C141.541 274.553 127.671 277.867 114.25 281.076C94.2921 285.851 73.6628 290.778 52.7487 291.115C52.4256 291.12 52.1027 291.125 51.7796 291.13C19.6394 291.423 -13.0192 289.18 -45.2684 284.444C-85.3193 278.57 -117.123 270.96 -145.376 260.512C-178.194 248.38 -213.011 234.202 -245.358 212.916C-279.85 190.217 -309.9 159.719 -338.951 130.231L-344.478 124.63C-345.564 123.523 -345.55 121.753 -344.458 120.653C-343.961 120.139 -343.277 119.861 -342.574 119.85Z" fill="#F9FAFC"/>
<path d="M-347.604 93.6845C-346.929 93.6736 -346.237 93.9013 -345.696 94.3984C-318.399 118.772 -288.634 134.971 -257.112 152.126C-249.728 156.138 -242.103 160.3 -234.518 164.562C-196.791 185.747 -160.551 201.912 -123.702 214.007C-111.301 218.078 -99.102 223.559 -87.2855 228.862C-67.3882 237.801 -46.7976 247.052 -25.3351 249.362C5.50036 252.674 37.4333 250.853 68.3135 249.092C72.8754 248.836 77.4371 248.566 81.9993 248.323L84.6523 248.182C116.348 246.478 149.111 244.728 180.458 239.629C203.326 235.903 226.686 230.413 249.276 225.089C259.409 222.706 269.879 220.234 280.14 217.975C299.376 213.731 318.256 206.599 336.508 199.715C353.991 193.111 372.061 186.287 390.662 181.885C400.641 179.518 410.95 176.711 420.924 173.993C442.073 168.229 463.951 162.271 484.637 159.985C498.086 158.49 507.633 162.481 516.855 166.323C523.998 169.299 531.396 172.384 540.818 172.991C548.258 173.475 555.973 173.576 564.138 173.683C582.799 173.945 602.093 174.211 619.649 179.056C631.475 182.323 641.935 190.655 652.054 198.711C660.251 205.239 668.733 212.002 677.616 215.695C690.84 221.186 705.15 226 718.979 230.653C730.774 234.622 742.965 238.711 754.657 243.272C768.908 248.846 784.005 252.832 798.608 256.686C811.335 260.05 824.499 263.519 837.103 268.037C847.617 271.802 857.934 276.456 867.911 280.946C881.751 287.186 896.059 293.63 910.918 297.704C927.062 302.137 944.224 301.707 960.823 301.285C976.454 300.893 992.632 300.492 1008.03 304.108C1018.54 306.58 1028 310.742 1037.16 314.767C1049.57 320.216 1061.28 325.381 1075.08 326.423C1095.49 327.977 1117.31 324.366 1138.4 320.866C1147.7 319.325 1157.34 317.723 1166.68 316.603C1191.57 313.617 1220.89 309.393 1249.79 300.667C1276.96 292.459 1302.88 278.203 1327.93 264.409C1332.01 262.166 1336.08 259.922 1340.13 257.722C1366.76 243.256 1393.56 224.756 1427.01 197.746C1457.9 172.816 1487.41 145.321 1514.7 116.036C1515.77 114.909 1517.53 114.839 1518.68 115.902C1519.8 116.966 1519.87 118.735 1518.81 119.876C1491.33 149.347 1461.64 177.013 1430.54 202.116C1396.8 229.355 1369.74 248.028 1342.81 262.666C1338.75 264.867 1334.7 267.096 1330.64 269.34C1305.32 283.264 1279.15 297.679 1251.41 306.05C1222.11 314.91 1192.48 319.18 1167.35 322.184C1158.13 323.288 1148.56 324.875 1139.32 326.401C1117.89 329.949 1095.74 333.622 1074.65 332.022C1059.9 330.897 1047.19 325.312 1034.9 319.904C1025.97 315.987 1016.74 311.92 1006.74 309.566C992.034 306.108 976.937 306.477 960.956 306.889C943.949 307.317 926.366 307.755 909.418 303.11C894.149 298.916 879.629 292.377 865.59 286.055C855.712 281.606 845.495 277.007 835.193 273.309C822.815 268.871 809.778 265.428 797.164 262.09C782.405 258.197 767.139 254.157 752.591 248.476C741.026 243.955 728.906 239.879 717.167 235.937C703.239 231.258 688.845 226.417 675.437 220.844C665.833 216.854 657.038 209.844 648.527 203.068C638.408 195.011 628.859 187.395 618.134 184.434C601.284 179.788 582.355 179.516 564.045 179.263C555.796 179.143 548.011 179.043 540.43 178.547C530.065 177.885 522.229 174.611 514.662 171.459C505.695 167.725 497.222 164.18 485.217 165.511C464.966 167.748 443.313 173.647 422.358 179.351C412.343 182.084 401.992 184.906 391.915 187.288C373.678 191.614 355.762 198.366 338.446 204.911C320.012 211.867 300.951 219.073 281.31 223.408C271.076 225.666 260.621 228.124 250.515 230.507C227.827 235.846 204.37 241.38 181.305 245.123C149.664 250.269 116.733 252.036 84.8963 253.743L82.2433 253.884C77.6952 254.125 73.1333 254.381 68.5716 254.652C37.4529 256.431 5.29546 258.269 -26.0044 254.909C-48.3533 252.515 -69.3545 243.074 -89.6622 233.945C-101.337 228.695 -113.409 223.269 -125.527 219.305C-162.729 207.104 -199.295 190.789 -237.348 169.427C-244.904 165.193 -252.515 161.044 -259.886 157.032C-291.691 139.713 -321.739 123.364 -349.52 98.5628C-350.675 97.5276 -350.774 95.7588 -349.753 94.5902C-349.116 94.0179 -348.362 93.6967 -347.604 93.6845Z" fill="#F9FAFC"/>
<path d="M-348.837 65.1818C-348.205 65.1716 -347.583 65.3723 -347.057 65.7853C-319.62 87.4733 -290.346 101.165 -259.344 115.672C-249.152 120.44 -238.62 125.371 -228.196 130.584C-192.476 148.458 -154.083 163.071 -110.798 175.23C-98.0675 178.805 -85.3234 183.251 -73.003 187.563C-48.8712 195.984 -23.9198 204.701 1.74488 207.098C25.8759 209.365 50.4425 205.514 74.2104 201.801C88.3366 199.593 102.939 197.306 117.352 196.315C151.763 193.935 188.614 189.534 226.895 183.242C261.968 177.465 297.945 170.268 331.791 163.4C346.705 160.364 361.964 159.599 376.732 158.841C391.753 158.08 407.292 157.282 422.274 154.104C438.39 150.683 454.325 144.778 469.716 139.079C487.955 132.322 506.824 125.33 526.429 122.247C553.321 118.006 584.806 113.636 614.449 113.566C634.693 113.507 653.262 118.506 672.918 123.781C677.829 125.107 682.894 126.459 687.958 127.726C713.335 134.076 737.368 142.457 759.379 152.641C771.127 158.072 782.586 164.716 793.662 171.141C803.376 176.774 813.417 182.598 823.556 187.535C835.776 193.492 849.233 196.845 862.239 200.078C874.13 203.034 886.43 206.096 898.046 211.163C904.979 214.185 912.027 217.416 918.85 220.538C934.928 227.88 951.544 235.481 967.888 241.021C983.216 246.226 999.966 249.047 1016.18 251.765C1025.06 253.266 1034.24 254.804 1043.18 256.726C1068.5 262.178 1094.86 264.971 1118.12 267.435C1127.64 268.448 1137.02 270.278 1146.11 272.056C1161.73 275.107 1176.48 277.989 1191.82 277.011C1217.02 275.411 1243.43 267.301 1270.52 258.406C1294.34 250.59 1316.99 237.833 1338.91 225.481C1342.85 223.254 1346.79 221.041 1350.73 218.856C1361.31 212.981 1372.12 208.367 1382.59 203.913C1399.7 196.627 1415.84 189.749 1430.78 177.832C1452.84 160.237 1471.75 137.171 1490.04 114.86C1497.69 105.533 1505.58 95.8942 1513.57 86.8436C1514.59 85.675 1516.37 85.562 1517.54 86.597C1518.71 87.6179 1518.82 89.4004 1517.79 90.5692C1509.87 99.5485 1501.99 109.146 1494.38 118.429C1475.9 140.968 1456.79 164.263 1434.28 182.23C1418.74 194.62 1401.48 201.979 1384.79 209.09C1374.47 213.486 1363.79 218.041 1353.46 223.772C1349.52 225.957 1345.59 228.17 1341.67 230.382C1319.52 242.865 1296.61 255.766 1272.27 263.745C1244.81 272.758 1218.03 280.987 1192.18 282.626C1176.14 283.657 1160.31 280.553 1145.03 277.568C1136.07 275.815 1126.81 274.011 1117.54 273.022C1094.13 270.547 1067.62 267.728 1042 262.211C1033.19 260.315 1024.08 258.776 1015.26 257.288C998.831 254.517 981.842 251.671 966.091 246.319C949.478 240.685 932.735 233.03 916.529 225.619C909.735 222.511 902.701 219.294 895.81 216.286C884.619 211.408 872.558 208.398 860.893 205.495C847.605 202.182 833.866 198.764 821.107 192.548C810.784 187.516 800.659 181.637 790.859 175.964C779.897 169.607 768.551 163.031 757.029 157.695C735.33 147.66 711.636 139.401 686.598 133.13C681.491 131.849 676.398 130.484 671.459 129.158C652.184 123.975 633.968 119.083 614.468 119.13C585.19 119.194 553.986 123.532 527.318 127.74C508.259 130.745 489.671 137.634 471.682 144.302C456.096 150.075 439.965 156.053 423.458 159.564C408.042 162.847 392.278 163.649 377.033 164.414C362.475 165.155 347.427 165.917 332.933 168.862C299.044 175.744 263.011 182.956 227.841 188.748C189.405 195.072 152.372 199.503 117.779 201.887C103.605 202.874 89.1281 205.13 75.1141 207.322C51.0099 211.097 26.0789 214.996 1.2582 212.656C-25.082 210.185 -50.3581 201.361 -74.8148 192.833C-87.0643 188.562 -99.7237 184.143 -112.285 180.608C-155.922 168.355 -194.641 153.621 -230.687 135.584C-241.054 130.398 -251.558 125.481 -261.707 120.74C-293.02 106.098 -322.578 92.256 -350.526 70.1688C-351.75 69.2049 -351.947 67.4377 -350.983 66.2279C-350.446 65.5729 -349.651 65.1949 -348.837 65.1818Z" fill="#F9FAFC"/>
<path d="M-345.181 27.7344C-344.619 27.7253 -344.04 27.8846 -343.529 28.2417C-306.786 53.7703 -267.555 75.943 -223.608 96.0305C-216.532 99.2606 -209.34 102.629 -202.376 105.889C-171.204 120.492 -138.971 135.583 -105.691 144.096C-68.5043 153.6 -28.6388 162.794 10.9552 165.599C36.7792 167.432 63.4749 164.923 89.3009 162.512C101.73 161.342 114.565 160.138 127.241 159.428C140.126 158.701 153.23 158.406 165.911 158.117C189.478 157.584 213.859 157.037 237.351 153.652C272.505 148.576 308.836 143.326 344.096 136.085C360.759 132.655 377.701 128.181 394.083 123.843C411.808 119.146 430.121 114.299 448.257 110.747C465.96 107.273 484.234 105.293 501.905 103.364C515.243 101.913 529.043 100.412 542.44 98.286C553.735 96.4884 565.338 93.7726 576.549 91.1334C596.382 86.4725 616.887 81.6463 637.145 81.5732C660.016 81.5001 682.042 86.5411 703.363 91.4247C707.65 92.4095 711.923 93.3805 716.223 94.323C733.664 98.145 748.28 105.427 763.76 113.13C769.949 116.206 776.35 119.405 782.916 122.32C793.487 127.026 805.244 128.635 816.621 130.194C828.533 131.829 840.867 133.513 852.134 138.727C862.835 143.669 872.449 150.919 881.75 157.921C891.819 165.501 902.244 173.342 913.811 178.017C925.265 182.638 937.913 184.556 950.123 186.397C961.672 188.136 973.6 189.939 984.891 194.015C1000.86 199.772 1018.13 203.484 1034.85 207.079C1041.55 208.517 1048.46 210.007 1055.21 211.613C1073.46 215.942 1092.55 217.391 1111.02 218.794C1116.36 219.199 1121.89 219.616 1127.29 220.105C1135.72 220.855 1144.18 222.068 1152.38 223.242C1168.87 225.59 1184.43 227.813 1200.26 226.771C1224.51 225.158 1249.81 220.775 1275.5 213.744C1305.4 205.563 1330.54 196.264 1352.34 185.305C1374.82 173.998 1395.4 157.565 1415.32 141.676C1420.23 137.747 1425.32 133.689 1430.33 129.801C1437.52 124.206 1444.85 118.734 1451.94 113.45C1472.95 97.7683 1492.79 82.9629 1510.94 64.138C1512.02 63.0247 1513.81 62.996 1514.92 64.06C1516.03 65.138 1516.07 66.9217 1515 68.035C1496.52 87.1882 1475.57 102.826 1455.32 117.948C1448.25 123.218 1440.94 128.675 1433.8 134.241C1428.84 138.115 1423.76 142.159 1418.85 146.074C1398.71 162.148 1377.89 178.768 1354.89 190.336C1332.75 201.47 1307.27 210.9 1277 219.185C1250.96 226.307 1225.28 230.752 1200.66 232.385C1184.25 233.492 1167.67 231.103 1151.61 228.819C1143.5 227.657 1135.11 226.457 1126.82 225.719C1121.45 225.244 1115.95 224.826 1110.62 224.42C1091.94 222.993 1072.62 221.533 1053.95 217.113C1047.25 215.52 1040.36 214.044 1033.7 212.619C1016.81 208.985 999.346 205.234 983.024 199.356C972.256 195.469 960.595 193.704 949.314 192.002C936.78 190.111 923.809 188.142 911.732 183.278C899.472 178.333 888.763 170.257 878.395 162.457C869.322 155.634 859.95 148.577 849.801 143.879C839.298 139.018 827.921 137.473 815.882 135.812C804.111 134.203 791.96 132.53 780.653 127.499C773.988 124.529 767.53 121.317 761.284 118.214C746.13 110.674 731.812 103.542 715.048 99.8637C710.733 98.9215 706.447 97.9367 702.146 96.9521C681.135 92.1478 659.419 87.1722 637.194 87.2489C617.526 87.3125 597.385 92.0625 577.875 96.6619C566.565 99.3168 554.865 102.076 543.36 103.905C529.822 106.048 515.966 107.564 502.558 109.016C484.999 110.929 466.851 112.907 449.387 116.321C431.418 119.842 413.189 124.674 395.562 129.341C379.111 133.695 362.085 138.198 345.267 141.658C309.854 148.93 273.424 154.195 238.2 159.272C214.371 162.719 189.822 163.268 166.087 163.805C153.447 164.093 140.386 164.387 127.613 165.113C115.051 165.835 102.257 167.024 89.8841 168.193C63.8337 170.635 36.9136 173.162 10.6253 171.295C-29.4049 168.455 -69.5662 159.21 -107.007 149.64C-140.794 140.994 -173.268 125.794 -204.68 111.083C-211.631 107.837 -218.808 104.468 -225.857 101.237C-270.115 81.0003 -309.63 58.6635 -346.642 32.9426C-347.921 32.0639 -348.23 30.3126 -347.351 29.0339C-346.916 28.1698 -346.065 27.7486 -345.181 27.7344Z" fill="#F9FAFC"/>
<path d="M-339.46 1.8034C-338.926 1.79481 -338.39 1.94068 -337.908 2.24202C-334.146 4.62629 -330.399 7.02488 -326.637 9.40913C-292.385 31.2263 -256.969 53.7835 -219.425 69.7308C-211.433 73.1289 -203.268 76.7069 -195.387 80.177C-164.895 93.5822 -133.37 107.449 -101.334 114.675C-70.1994 121.705 -36.8677 122.995 -4.64646 124.247C2.60747 124.523 10.1006 124.824 17.4118 125.17C41.1033 126.306 65.1054 123.18 88.3224 120.151C103.422 118.18 119.04 116.144 134.621 115.261C147.394 114.536 160.412 114.158 173.008 113.786C197.4 113.07 222.621 112.341 246.873 109.029C276.873 104.935 307.631 99.1145 337.381 93.4792C343.6 92.2972 349.805 91.1295 355.997 89.976C372.287 86.9318 388.867 83.5458 404.915 80.2667C423.077 76.5601 441.87 72.7169 460.291 69.3715C480.463 65.7028 501.246 63.373 521.343 61.1247C533.32 59.7938 545.703 58.4003 557.829 56.7439C587.212 52.7303 618.505 48.7421 649.486 47.9624C676.618 47.2729 704.83 49.095 733.264 53.3443C740.362 54.4103 747.887 54.9495 755.862 55.5096C772.207 56.6798 789.099 57.8832 803.273 63.8514C814.236 68.4803 823.586 75.9311 832.623 83.1341C841.618 90.3097 850.926 97.7331 861.602 102.057C872.675 106.544 884.363 110.852 895.684 115.026C905.422 118.62 915.485 122.336 925.199 126.17C933.385 129.397 941.689 132.944 949.71 136.384C963.178 142.139 977.099 148.097 990.828 152.695C1002.45 156.597 1014.28 156.674 1026.8 156.767C1037.43 156.849 1048.41 156.925 1059.13 159.577C1083.82 165.699 1107.32 169.803 1128.96 171.801C1132.13 172.087 1135.32 172.401 1138.5 172.701C1159.02 174.675 1180.23 176.708 1200.78 175.085C1212.73 174.134 1224.14 175.735 1235.19 177.285C1248.93 179.2 1261.92 181.014 1275.36 178.156C1294.62 174.052 1313.89 163.879 1332.52 154.053C1338.3 150.995 1344.29 147.836 1350.09 144.974C1373.07 133.617 1394.59 118.321 1415.41 103.542C1419.01 100.983 1422.6 98.4381 1426.22 95.893C1445.22 82.5342 1461.56 64.7362 1477.36 47.5227C1485.26 38.9231 1493.44 30.024 1501.83 21.8098C1502.94 20.7242 1504.72 20.7376 1505.81 21.8582C1506.89 22.9648 1506.88 24.7495 1505.76 25.8354C1497.48 33.9494 1489.36 42.7914 1481.5 51.3341C1465.5 68.7614 1448.94 86.7738 1429.44 100.492C1425.84 103.023 1422.24 105.582 1418.66 108.126C1397.66 123.035 1375.94 138.46 1352.57 150.021C1346.84 152.853 1341.16 155.853 1335.14 159.027C1316.17 169.041 1296.55 179.389 1276.53 183.659C1262.12 186.729 1248.03 184.764 1234.41 182.862C1223.65 181.363 1212.54 179.799 1201.22 180.698C1180.2 182.357 1158.73 180.3 1137.97 178.302C1134.79 178.002 1131.61 177.688 1128.45 177.401C1106.52 175.38 1082.76 171.224 1057.79 165.036C1047.72 162.542 1037.07 162.461 1026.78 162.388C1014.38 162.292 1001.55 162.204 989.06 158.021C975.104 153.342 961.084 147.343 947.518 141.548C939.525 138.136 931.263 134.601 923.147 131.388C913.49 127.581 903.455 123.879 893.746 120.298C882.397 116.111 870.652 111.775 859.509 107.262C848.068 102.627 838.447 94.9552 829.139 87.5177C820.002 80.232 811.363 73.3317 801.108 69.0147C787.797 63.3979 771.369 62.2292 755.489 61.0938C747.401 60.5214 739.764 59.9699 732.454 58.8792C704.344 54.6668 676.483 52.8531 649.646 53.5519C618.947 54.327 587.835 58.2842 558.606 62.2813C546.424 63.9386 533.999 65.3329 521.994 66.6782C501.996 68.911 481.31 71.225 461.32 74.8627C442.955 78.2072 424.205 82.0357 406.071 85.7418C390.009 89.0212 373.401 92.4077 357.068 95.4666C350.877 96.62 344.672 97.8018 338.467 98.9695C308.647 104.606 277.818 110.441 247.679 114.566C223.132 117.925 197.757 118.657 173.21 119.375C160.656 119.746 147.681 120.123 134.992 120.847C119.622 121.727 104.102 123.747 89.1002 125.703C65.6449 128.764 41.3904 131.922 17.1926 130.752C9.89546 130.406 2.4165 130.104 -4.8234 129.828C-37.2977 128.566 -70.8967 127.266 -102.538 120.118C-135.097 112.773 -166.876 98.7987 -197.609 85.2849C-205.476 81.8287 -213.612 78.2503 -221.576 74.8658C-259.558 58.7429 -295.173 36.0625 -329.624 14.122C-333.372 11.7235 -337.133 9.33915 -340.894 6.95489C-342.2 6.11882 -342.594 4.38294 -341.758 3.07684C-341.265 2.28207 -340.387 1.81832 -339.46 1.8034Z" fill="#F9FAFC"/>
<path d="M-334.072 -16.1556C-333.58 -16.1635 -333.073 -16.0452 -332.619 -15.7715C-286.06 11.229 -249.625 29.0207 -214.448 41.9291C-186.635 52.1317 -156.567 56.6638 -127.484 61.0291C-116.795 62.6415 -105.74 64.3042 -94.8767 66.2229C-54.9185 73.3217 -14.8332 76.0908 22.5269 78.0186C36.5317 78.7487 50.7021 80.1505 64.4082 81.5176C88.443 83.9128 113.28 86.3934 137.453 85.1332C177.207 83.0884 215.125 79.4713 250.152 74.3974C269.72 71.5674 289.411 65.9816 308.46 60.5887C325.075 55.8813 342.263 51.0101 359.368 47.9528C376.193 44.9422 393.701 43.3537 410.619 41.8028C428.043 40.2157 446.042 38.5772 463.37 35.3898C476.187 33.0338 489.223 30.2949 501.839 27.6611C521.428 23.5522 541.689 19.306 561.732 16.342C567.282 15.522 572.874 14.6592 578.466 13.8105C603.061 10.0285 628.498 6.12046 653.324 5.25725C680.494 4.31415 707.697 8.00727 734.026 11.5879L737.392 12.0396C757.892 14.8148 775.137 21.3096 793.413 28.1953C797.089 29.5834 800.82 30.9845 804.65 32.3842C820.026 38.0098 835.27 45.0146 850.018 51.7744C854.618 53.8922 859.19 55.9824 863.69 58.0035C873.087 62.222 884.661 62.9069 895.84 63.57C905.319 64.134 915.12 64.7069 923.776 67.4198C935.129 70.9746 945.905 77.1098 956.327 83.0259C966.904 89.0379 977.836 95.241 989.258 98.6963C1001.58 102.418 1014.79 104.439 1027.58 106.397C1036.78 107.809 1046.29 109.258 1055.47 111.344C1061.42 112.695 1067.51 114.185 1073.41 115.636C1090.29 119.776 1107.74 124.048 1124.88 125.767C1139.71 127.27 1155 126.027 1169.79 124.833C1178.08 124.166 1186.67 123.466 1195.15 123.245C1210.53 122.843 1225.85 118.002 1240.67 113.323C1249.01 110.688 1257.64 107.964 1266.22 106.041C1277.85 103.437 1289.41 103.757 1300.59 104.055C1315.44 104.448 1329.45 104.827 1343.32 98.8429C1369.7 87.4589 1395.14 74.0247 1418.92 58.9169C1443.23 43.4635 1471.27 25.1399 1496.54 3.01105C1497.71 1.99473 1499.48 2.10677 1500.51 3.27043C1501.53 4.43432 1501.41 6.2065 1500.25 7.23687C1474.67 29.6235 1446.41 48.0911 1421.93 63.6597C1397.9 78.9259 1372.21 92.5048 1345.55 104.006C1330.54 110.472 1315.25 110.072 1300.44 109.677C1289.61 109.388 1278.41 109.091 1267.44 111.529C1259.1 113.392 1250.59 116.086 1242.37 118.677C1227.19 123.474 1211.49 128.433 1195.31 128.848C1186.99 129.067 1178.48 129.751 1170.26 130.418C1155.22 131.629 1139.66 132.891 1124.32 131.34C1106.79 129.571 1089.14 125.246 1072.07 121.067C1066.19 119.63 1060.13 118.14 1054.22 116.802C1045.24 114.768 1035.83 113.318 1026.73 111.933C1013.74 109.95 1000.32 107.89 987.63 104.048C975.601 100.405 964.4 94.0382 953.553 87.8759C942.919 81.8368 932.866 76.1254 922.092 72.744C914.085 70.2314 905.057 69.7023 895.495 69.1396C883.794 68.4427 871.714 67.7379 861.37 63.085C856.855 61.0501 852.269 58.9601 847.655 56.8424C833.006 50.1232 817.861 43.1731 802.697 37.6143C798.853 36.2009 795.107 34.7998 791.418 33.412C773.452 26.6478 756.49 20.2608 736.624 17.5738L733.259 17.1221C707.154 13.58 680.176 9.89738 653.512 10.8464C629.01 11.7044 603.741 15.5816 579.299 19.333C573.693 20.196 568.088 21.059 562.523 21.8792C542.662 24.8122 522.485 29.043 502.966 33.1367C490.323 35.785 477.245 38.5246 464.371 40.8956C446.791 44.1291 428.652 45.7839 411.116 47.3729C394.31 48.9079 376.928 50.4944 360.342 53.459C343.503 56.4699 326.454 61.2966 309.979 65.9737C290.749 71.4257 270.876 77.0566 250.944 79.9487C215.734 85.0537 177.649 88.6734 137.725 90.7351C113.145 92.0018 88.0694 89.5109 63.8377 87.1048C50.2021 85.7506 36.088 84.348 22.2238 83.6297C-15.3192 81.6908 -55.6013 78.8967 -95.8692 71.7607C-106.648 69.8407 -117.675 68.1916 -128.336 66.5928C-157.686 62.1756 -188.05 57.6061 -216.4 47.2154C-251.888 34.1856 -288.606 16.2579 -335.463 -10.9064C-336.81 -11.6856 -337.259 -13.4065 -336.48 -14.7539C-335.946 -15.6477 -335.027 -16.1402 -334.072 -16.1556Z" fill="#F9FAFC"/>
<path d="M-324.294 -42.3626C-323.858 -42.3696 -323.407 -42.2786 -322.996 -42.0604C-283.707 -22.4318 -242.185 -8.92309 -206.349 2.20423C-167.152 14.3734 -125.647 21.5457 -90.2116 26.9609C-50.5934 33.0113 -11.8299 36.5885 24.9956 37.5976C53.7954 38.3846 83.479 36.4737 112.194 34.6205C120.91 34.0587 129.92 33.4782 138.735 32.985C155.509 32.0547 172.626 33.2264 189.167 34.3793C209.448 35.7811 230.433 37.2278 250.398 34.6584C269.634 32.1709 289.3 26.726 308.322 21.446C324.449 16.9713 341.121 12.3473 357.625 9.49635C374.381 6.58518 391.794 5.20902 408.632 3.88424C426.045 2.50805 444.062 1.07994 461.391 -2.02311C473.915 -4.27605 486.658 -6.85566 498.995 -9.3585C518.475 -13.297 538.626 -17.3868 558.431 -20.2768C582.946 -23.8609 608.313 -25.9412 632.84 -27.9377C638.284 -28.3766 643.713 -28.8293 649.101 -29.2813C659.554 -30.1661 670.521 -33.0825 681.125 -35.9087C696.682 -40.051 712.769 -44.3424 728.6 -42.7847C747.118 -40.9751 762.137 -35.709 778.032 -30.1339C783.67 -28.1592 789.505 -26.1034 795.605 -24.1783C808.272 -20.181 819.529 -12.9576 830.404 -5.9809C839.262 -0.306546 847.609 5.0529 856.476 8.64764C864.862 12.0534 873.911 11.2614 883.507 10.4325C893.047 9.60455 902.911 8.75739 912.728 12.0418C924.438 15.9701 935.065 22.4449 945.351 28.6864C956.815 35.6536 967.641 42.2377 979.934 45.7211C991.733 49.0579 1004.38 50.7793 1016.61 52.4511C1026 53.7331 1035.73 55.0659 1045.08 57.1073C1053.95 59.0581 1062.96 61.653 1071.65 64.1546C1085.88 68.2672 1100.6 72.5125 1115.19 74.0198C1131.42 75.7117 1148.35 75.0317 1164.72 74.3888C1171.45 74.126 1178.4 73.8877 1185.2 73.7362C1192.87 73.6128 1200.71 73.7956 1208.3 73.9545C1225.27 74.3276 1242.84 74.7193 1258.91 71.7771C1274.02 69.0188 1289.15 62.2841 1303.78 55.768C1312.62 51.832 1321.76 47.7648 1330.95 44.5258C1358.74 34.7209 1384.14 23.6758 1406.47 11.6545C1416.22 6.41134 1426.19 1.89514 1435.85 -2.46131C1453.49 -10.445 1470.16 -17.9774 1485.97 -29.7393C1487.22 -30.6586 1488.98 -30.4059 1489.9 -29.1561C1490.82 -27.9064 1490.57 -26.146 1489.32 -25.2267C1473.02 -13.1057 1455.29 -5.09261 1438.16 2.65793C1428.59 6.98493 1418.71 11.4577 1409.12 16.6139C1386.54 28.7656 1360.87 39.9414 1332.81 49.8351C1323.82 53.0005 1314.79 57.024 1306.05 60.916C1291.13 67.5633 1275.69 74.4296 1259.91 77.3109C1243.27 80.3467 1225.42 79.9595 1208.16 79.5769C1200.63 79.4031 1192.83 79.2336 1185.27 79.3552C1185.22 79.3561 1185.15 79.3572 1185.09 79.3581C1178.42 79.4655 1171.57 79.7304 1164.94 79.9916C1148.37 80.6516 1131.24 81.3207 1114.61 79.5932C1099.52 78.0235 1084.56 73.7119 1070.09 69.5329C1061.48 67.044 1052.58 64.4756 1043.88 62.5783C1034.74 60.5756 1025.14 59.2689 1015.84 57.9994C1003.43 56.3024 990.571 54.5423 978.405 51.113C965.378 47.4307 953.716 40.3402 942.436 33.4824C932.419 27.3912 922.048 21.0948 910.945 17.3534C902.229 14.4306 892.955 15.2263 884.004 16.0026C874.183 16.8491 864.026 17.7292 854.381 13.8238C845.034 10.0401 836.062 4.28327 827.388 -1.28164C816.812 -8.06645 805.882 -15.0704 793.921 -18.8542C787.722 -20.8058 781.858 -22.8752 776.178 -24.8632C760.608 -30.3312 745.914 -35.4902 728.071 -37.2263C713.254 -38.6739 697.67 -34.531 682.589 -30.5087C671.747 -27.6225 660.542 -24.632 649.598 -23.7112C644.196 -23.259 638.767 -22.8062 633.323 -22.3674C608.881 -20.3722 583.597 -18.2934 559.265 -14.7404C539.6 -11.8667 519.532 -7.80628 500.123 -3.86887C487.758 -1.36557 474.973 1.22886 462.393 3.4827C444.784 6.64646 426.641 8.0765 409.088 9.469C392.376 10.7917 375.103 12.1516 358.599 15.0166C342.375 17.8349 325.829 22.4148 309.842 26.8451C290.624 32.1704 270.762 37.6747 251.134 40.2106C230.608 42.8592 209.356 41.3887 188.779 39.9636C172.407 38.8361 155.487 37.6612 139.05 38.5721C130.263 39.0647 121.267 39.6452 112.551 40.2069C83.7095 42.0621 53.8857 43.9893 24.8329 43.1924C-12.2316 42.1731 -51.2204 38.5713 -91.078 32.4826C-126.71 27.0425 -168.469 19.8181 -208.033 7.5424C-244.081 -3.65178 -285.858 -17.2407 -325.529 -37.0598C-326.917 -37.754 -327.478 -39.4451 -326.784 -40.8332C-326.279 -41.7827 -325.305 -42.3464 -324.294 -42.3626Z" fill="#F9FAFC"/>
<path d="M707.653 -88.0558C709.24 -88.0813 710.828 -88.0647 712.402 -88.0057C728.428 -87.4347 741.128 -81.3164 754.58 -74.8307C763.344 -70.6161 772.406 -66.2518 782.523 -63.5483C794.926 -60.2352 806.883 -54.9339 818.457 -49.8091C826.198 -46.3789 834.207 -42.8265 842.049 -40.0442C850.795 -36.9393 860.628 -36.2124 870.15 -35.5086C879.87 -34.7939 889.927 -34.0565 899.181 -30.8193C908.747 -27.4746 920.172 -27.3072 931.231 -27.162C940.407 -27.0287 949.893 -26.9003 958.438 -24.9584C972.637 -21.7305 984.895 -13.4834 996.74 -5.51067C1008.06 2.11925 1019.78 9.99567 1032.87 13.115C1044.22 15.8127 1053.41 11.562 1063.14 7.06375C1072.6 2.69641 1082.36 -1.83042 1094.33 0.154712C1104.15 1.79516 1114.31 4.51203 1124.13 7.15003C1138.95 11.1268 1154.29 15.2355 1169.37 15.9482C1184.77 16.6699 1201.03 13.6543 1216.76 10.7315C1224.68 9.25525 1232.87 7.73233 1240.88 6.70425C1253.09 5.13076 1265.07 6.52567 1276.65 7.87074C1291.64 9.61061 1305.8 11.2515 1320.26 6.94413C1346.08 -0.749695 1371.55 -10.4891 1395.94 -21.9956C1421.3 -33.9674 1448.18 -47.0315 1473.54 -63.5697C1474.85 -64.4197 1476.58 -64.0542 1477.43 -62.7471C1478.28 -61.4541 1477.91 -59.7059 1476.61 -58.8559C1450.96 -42.1303 1423.87 -28.9647 1398.34 -16.9059C1373.69 -5.26865 1347.95 4.57345 1321.86 12.3418C1306.3 16.976 1290.9 15.1866 1276 13.4594C1264.75 12.151 1253.11 10.8069 1241.58 12.285C1233.73 13.2966 1225.62 14.8041 1217.78 16.2651C1201.74 19.249 1185.15 22.326 1169.1 21.5728C1153.41 20.8418 1137.77 16.6394 1122.67 12.5829C1112.53 9.86584 1102.96 7.29403 1093.4 5.7057C1083.14 4.00203 1074.57 7.96177 1065.49 12.1685C1055.32 16.8704 1044.81 21.7466 1031.55 18.5878C1017.46 15.2317 1005.33 7.06681 993.584 -0.837271C981.639 -8.87865 970.361 -16.4812 957.177 -19.4725C949.21 -21.2832 940.427 -21.4088 931.124 -21.5401C919.615 -21.7061 907.727 -21.8661 897.3 -25.506C888.738 -28.5014 879.497 -29.1817 869.707 -29.8953C859.818 -30.6213 849.592 -31.384 840.139 -34.7445C832.099 -37.6079 823.991 -41.2008 816.166 -44.6718C804.789 -49.7155 793.044 -54.9219 781.065 -58.1153C770.44 -60.9511 761.138 -65.424 752.132 -69.7612C739.234 -75.9747 727.043 -81.8484 712.184 -82.382C698.197 -82.8875 682.962 -79.6918 668.218 -76.6162C657.674 -74.4092 646.781 -72.1263 636.161 -71.1265C623.452 -69.9243 610.309 -69.4739 597.601 -69.0445C580.737 -68.4781 563.297 -67.8883 546.575 -65.5116C528.296 -62.9131 509.634 -58.8472 491.601 -54.932C478.875 -52.17 465.701 -49.3023 452.743 -46.9581C430.245 -42.9007 407.209 -39.0736 384.916 -35.3567C373.931 -33.536 362.946 -31.7012 351.975 -29.8386C330.734 -26.237 308.968 -23.8494 287.917 -21.5295C274.215 -20.0303 260.037 -18.4673 246.2 -16.6007C233.653 -14.9094 220.845 -12.8626 208.471 -10.879C185.223 -7.16086 161.19 -3.33168 137.601 -1.57509C110.533 0.434225 82.5934 -0.141814 55.5815 -0.704669C45.8983 -0.90009 35.8918 -1.11841 26.084 -1.19942C10.1077 -1.33571 -6.02565 0.989363 -21.6122 3.24945C-43.2539 6.37977 -65.6388 9.60635 -88.1563 6.34371C-112.04 2.87824 -135.183 -5.22174 -157.577 -13.0528C-171.466 -17.9015 -185.807 -22.9257 -200.1 -26.7422C-209.201 -29.167 -218.441 -31.4911 -227.384 -33.7358C-256.33 -40.9978 -286.25 -48.511 -314.784 -60.7394C-316.213 -61.3487 -316.872 -62.996 -316.263 -64.4249C-315.653 -65.8538 -313.992 -66.5129 -312.577 -65.9034C-284.467 -53.8508 -254.759 -46.3903 -226.025 -39.1812C-217.053 -36.9229 -207.785 -34.5992 -198.656 -32.1608C-184.165 -28.2913 -169.711 -23.2269 -155.723 -18.3376C-133.584 -10.6008 -110.695 -2.59503 -87.3464 0.794749C-65.6314 3.9579 -43.6532 0.779984 -22.404 -2.30186C-6.60704 -4.57938 9.72206 -6.96377 26.1483 -6.80662C35.9842 -6.72606 46.0186 -6.50818 55.7019 -6.31276C82.5874 -5.74787 110.386 -5.16958 137.188 -7.17459C160.538 -8.9133 184.459 -12.7267 207.595 -16.429C220.011 -18.4132 232.847 -20.4605 245.464 -22.167C259.371 -24.0487 273.578 -25.6122 287.322 -27.112C308.289 -29.4165 329.971 -31.7888 351.057 -35.3738C362.028 -37.2364 373.013 -39.0712 384.013 -40.8921C406.277 -44.5945 429.299 -48.4214 451.755 -52.4781C464.615 -54.7927 477.733 -57.6453 490.417 -60.4067C508.562 -64.3518 527.322 -68.4334 545.797 -71.0631C562.828 -73.4869 580.422 -74.0792 597.427 -74.6479C610.05 -75.0759 623.109 -75.5109 635.65 -76.7103C645.96 -77.6912 656.7 -79.9435 667.09 -82.1059C680.532 -84.9356 694.394 -87.8424 707.653 -88.0558Z" fill="#F9FAFC"/>
</svg>
