<svg width="1440" height="295" viewBox="0 0 1440 295" fill="none" xmlns="http://www.w3.org/2000/svg">
<path d="M1276.52 0C1292.87 1.52134 1309.11 8.85495 1319.89 21.2148C1331.12 31.0367 1311.98 65.1907 1340.21 58.6248C1347.48 56.9352 1349.14 57.2202 1349.77 65.8269C1350.49 75.6112 1347.05 86.9401 1352.59 96.1637C1372.56 117.519 1411.7 115.858 1407.55 135.355C1402.96 152.861 1377.29 151.53 1391.7 166.049C1395.21 169.586 1397.07 173.356 1397.93 177.528C1402.9 175.476 1407.74 173.398 1412.44 171.297C1413.96 167.9 1412.35 164.058 1403.5 158.918C1394.92 149.824 1437.95 140.743 1423.08 126.218C1408.17 109.738 1387.72 102.258 1412.54 88.4431C1422.58 81.4906 1400.02 56.9124 1425.09 42.8407C1403.39 72.3241 1449.6 88.741 1427.89 101.968C1414.61 110.061 1443.96 131.664 1446.01 141.021C1447.68 148.692 1444.08 150.642 1438.27 152.441C1433.34 153.962 1431.28 156.185 1430.7 158.821C1429.86 162.634 1437.39 163.382 1441.84 163.845C1453.45 165.053 1465.29 166.303 1477.31 167.588C1488.78 167.401 1504.1 165.817 1496.03 157.763C1493.26 156.718 1490.11 157.603 1485.7 158.123C1470.47 159.918 1484.53 147.398 1481.51 136.002C1480.41 131.838 1477.39 117.709 1484.97 117.095C1492.55 116.473 1496.04 125.902 1493.51 134.368C1490.98 142.833 1493.58 146.18 1497.33 146.862C1501.09 147.542 1503.27 139.826 1502.45 131.837C1501.64 123.849 1500 112.24 1505.19 104.864C1510.39 97.4889 1520.35 100.019 1523.7 108.212C1527.05 116.404 1523.43 128.899 1519.6 136.002C1515.78 143.106 1511.07 153.002 1511.54 159.152C1512.02 165.292 1516.12 168.367 1520.08 163.589C1524.04 158.811 1531.07 149.313 1533.12 131.837C1534.39 121.022 1535.22 115.882 1538.33 113.81C1551.51 105.026 1543.38 134.665 1561.25 108.212C1562.74 106 1582.27 81.3086 1581.54 96.3737V96.3913C1581.34 100.562 1580.86 110.461 1571.96 120.913C1561.62 133.038 1531.13 156.891 1539.91 169.425C1546.15 176.22 1560 171.385 1560.73 167.763C1562.01 161.472 1558.74 155.763 1557.82 149.066C1556.9 142.363 1563.36 129.031 1572.91 130.964C1582.46 132.898 1578.63 141.903 1574.76 146.267C1570.88 150.631 1570.13 154.376 1572.63 157.07C1575.14 159.756 1577.04 157.015 1580.6 151.898C1584.15 146.781 1582.62 139.683 1588.7 132.45C1594.78 125.215 1603.56 127.096 1605.22 134.262C1606.88 141.422 1601.7 145.035 1594.46 149.089C1587.21 153.142 1588.32 158.814 1582.08 162.963C1575.84 167.109 1576.15 171.564 1576.15 171.573C1579 168.5 1591.54 167.803 1597.52 164.342C1603.5 160.88 1608.31 149.568 1612.89 140.707C1617.48 131.851 1629.24 128.132 1639.04 128.959C1648.84 129.786 1651.09 133.587 1650.89 138.364C1650.68 143.14 1646.62 144.786 1636.74 144.173C1626.85 143.567 1621.17 149.348 1617.49 152.686C1613.81 156.024 1615.11 157.932 1619.23 158.199C1623.34 158.463 1629.53 149.719 1639.28 151.321C1649.02 152.922 1646.69 151.514 1653.78 150.255C1660.87 148.995 1665.49 152.734 1666.26 156.026C1667.04 159.318 1666.06 163.297 1657.97 165.945C1649.87 168.592 1636.83 165.303 1633.81 164.134C1630.79 162.965 1628.83 162.551 1627.38 163.109C1625.93 163.674 1626.49 164.103 1627.86 167.184C1629.23 170.264 1624.75 173.631 1619.1 171.647C1613.46 169.656 1609.69 169.502 1607.51 173.214C1605.33 176.928 1610.14 180.932 1620.61 180.909C1631.08 180.885 1634.35 176.314 1637.44 174.163C1640.53 172.014 1646.44 171.601 1647.49 175.593C1648.54 179.59 1644.22 181.416 1641.67 181.445C1639.12 181.473 1639.27 184.833 1643.34 185.136C1647.4 185.438 1653.78 186.638 1659.99 188.597L1659.83 188.643C2006.44 231.979 2297.6 291.158 1440.81 295H0.124146C-587.31 295 -750.207 269.81 -233.933 188.712C-243.976 187.224 -251.672 186.324 -253.547 186.656C-258.788 187.584 -265.768 186.632 -266.132 178.532C-266.496 170.431 -262.032 166.675 -254.419 168.024C-246.807 169.366 -238.674 173.945 -232.009 176.63C-225.345 179.315 -226.841 172.561 -230.562 169.607C-234.291 166.653 -242.124 167.338 -245.222 164.47C-248.319 161.602 -246.785 154.476 -240.976 155.05C-235.167 155.632 -225.76 161.194 -220.694 168.168C-215.628 175.15 -207.649 173.039 -208.214 167.781C-208.779 162.522 -219.897 156.09 -227.17 154.026C-234.444 151.961 -239.59 149.242 -239.303 142.346C-239.017 135.451 -232.424 134.997 -222.004 138.203C-211.584 141.408 -201.531 156.074 -197.342 163.581C-193.159 171.089 -184.087 173.719 -183.402 168.634C-182.718 163.55 -188.655 157.404 -193.821 153.875C-198.986 150.347 -203.092 146.188 -202.665 141.513C-202.238 136.839 -198.405 132.701 -192.355 136.006C-188.159 138.299 -182.1 148.788 -178.485 157.498C-175.154 165.525 -172.775 168.871 -172.775 168.871C-168.218 176.36 -163.834 170.774 -165.426 166.47C-165.441 166.417 -167.348 159.881 -172.088 155.641C-175.691 149.74 -179.126 143.45 -179.826 141.691L-179.812 141.692C-180.857 139.08 -181.912 127.962 -171.983 129.15C-162.054 130.339 -160.315 139.932 -158.775 152.764C-157.229 165.596 -150.782 174.568 -148.727 170.774C-146.673 166.979 -148.934 161.759 -150.693 159.063C-152.445 156.366 -153.714 147.882 -146.309 147.915C-138.904 147.947 -138.078 160.702 -139.069 167.916C-139.318 169.728 -139.811 172.014 -140.434 174.504C-128.747 172.782 -116.792 171.037 -104.566 169.269C-103.673 164.84 -97.6301 159.614 -84.017 153.667C-66.6658 146.087 -79.2491 130.806 -108.908 141.032C-156.595 157.472 -116.093 104.682 -152.844 109.906C-144.248 105.083 -130.737 103.345 -126.407 116.126C-121.534 130.511 -114.078 122.603 -96.8047 122.995C-77.8636 123.424 -65.3425 124.896 -62.3534 130.259C-57.4673 139.028 -67.0443 142.271 -72.5557 149.791C-81.5474 162.059 -71.5695 163.27 -62.0116 162.407C-63.0688 158.561 -62.2151 153.752 -57.8408 147.295C-49.1452 135.898 -44.8875 125.315 -62.3534 118.247C-69.5356 115.34 -76.4208 115.058 -84.017 114.367C-120.943 111.007 -93.303 99.6852 -92.9807 86.5192C-91.1726 66.4788 -149.57 83.8197 -152.844 75.9265C-161.987 53.8773 -108.179 15.8955 -91.5127 4.79784C-89.9532 3.58766 -88.3469 2.53413 -86.707 1.66796C-86.7257 1.67967 -88.5209 2.80565 -91.5127 4.79784C-119.44 26.4712 -132.472 98.4455 -59.5032 46.4071C-51.1503 45.0457 -74.881 82.8911 -69.3451 92.1149C-49.3739 113.47 -2.96661 79.6014 -7.11853 99.0983C-9.02417 106.373 -19.0533 114.398 -27.6882 122.798C-57.8094 152.102 -33.557 153.965 -14.5507 154.554C-5.78894 154.826 1.10577 156.831 8.08276 159.67C11.7072 160.752 15.4734 162.205 19.4835 164.115C35.0181 171.514 51.2752 178.521 68.1848 185.146C67.1396 182.12 65.9061 179.161 64.4761 176.333C61.0262 169.513 58.1302 165.231 50.5015 163.51C40.0506 161.154 25.457 160.004 39.6302 148.835C34.5649 144.645 29.2372 143.118 23.9258 139.522C9.12134 129.497 21.4562 110.98 36.863 128.007C49.1887 139.721 53.051 141.405 50.5015 129.297C47.3691 117.501 47.7126 115.596 36.863 111.797C20.5898 106.099 23.0056 94.1508 37.8232 98.2233C45.5145 100.337 45.8477 97.3075 39.6302 91.3522C28.0333 86.6213 20.2765 84.8658 19.4835 72.3699C18.9278 54.0846 32.2231 48.7833 34.0695 72.3699C36.8633 81.2177 47.4355 83.003 43.8547 69.0554L35.1556 49.1034C31.4167 40.5261 37.9126 19.5545 47.7939 32.412C52.7527 38.8653 48.1085 48.9533 50.231 55.408C51.6433 59.7024 52.8887 59.0565 55.2584 56.4588C62.9433 48.0349 72.8648 51.6516 58.0705 75.3132C52.9788 86.4408 55.7762 94.8935 60.6677 91.3522C68.7137 86.4667 72.5264 96.0575 64.6607 110.235C60.3851 117.941 60.3175 124.151 62.0771 133.193C64.0353 143.253 67.8707 130.022 69.6382 127.315C73.3251 121.671 81.0145 121.907 83.2914 134.108C85.4991 145.94 74.1483 172.073 91.6984 179.425C99.1881 179.424 106.067 160.808 97.0491 138.685C93.6268 131.79 91.2396 128.314 84.7468 123.982C66.6234 106.258 81.634 101.254 88.4497 112.961C94.1766 120.755 98.8873 121.148 98.6022 114.519C94.5779 101.802 91.6489 94.8517 78.9487 84.7663C65.2078 76.9785 64.8281 67.2152 74.9431 63.9422C77.5286 63.1058 80.9001 63.2671 80.3104 59.5232C79.8788 56.7855 77.255 52.7025 72.4396 46.1795C66.8427 26.1757 87.731 23.275 90.2714 42.9305C91.3005 50.8853 96.0592 51.0072 99.5086 46.7645C101.154 44.7406 102.387 40.3619 105.936 41.7577C108.766 42.8722 109.296 48.7891 104.069 55.408C96.0897 62.2615 91.8185 69.2284 91.7648 75.3132C91.698 82.9109 100.072 100.224 102.507 83.4724C103.861 79.4697 106.468 76.1429 113.585 69.2673C108.847 61.898 107.502 57.2114 113.585 45.5301C117.591 34.0678 132.168 29.6536 130.909 42.9305C130.075 51.7157 115.447 60.4498 124.294 65.0222C130.041 64.2435 132.641 61.9923 136.263 55.408C144.589 49.3572 150.144 52.9493 149.03 59.5232C147.667 67.5708 135.495 71.1971 129.176 74.9255C133.245 81.2771 121.931 87.5014 116.419 91.2741C104.596 103.005 107.395 108.497 113.585 118.155C115.149 122.839 112.627 127.408 107.601 133.193C105.384 136.396 107.551 140.096 111.538 146.765C114.679 144.177 116.082 142.491 115.834 137.704C116.49 126.248 115.023 118.137 122.497 112.961C127.199 110.811 129.234 114.346 128.571 126.653C128.571 135.381 135.775 117.702 136.339 112.961C138.596 93.9949 147.611 91.2049 147.774 103.182V106.898C151.414 104.395 154.339 100.541 156.984 93.7936C162.659 83.778 169.622 83.1345 173.051 91.7399C172.342 106.322 162.896 113.236 151.992 122.237C144.665 128.285 149.664 126.268 156.959 127.315C175.278 129.946 174.136 139.932 159.923 148.461C150.126 148.461 136.833 138.457 125.632 154.427L118.676 165.087C119.699 168.27 129.846 165.086 136.801 159.415C145.155 158.44 147.479 172.519 133.372 176.333C127.298 177.409 118.083 173.905 112.896 183.667L104.274 197.359L115.443 198.924C129.453 184.142 133.82 183.214 137.683 189.927C152.503 184.146 163.441 197.909 144.742 211.313C408.144 289.732 782.367 294.768 1073.98 255.013C1073.92 254.974 1073.86 254.933 1073.8 254.894L1073.63 254.865C1065.22 253.426 1056.32 251.904 1050.16 246.047C1041.32 239.915 1043.5 233.493 1048.66 231.142L1045.84 225.746C1044.61 220.563 1046 216.197 1048.35 213.533C1053.1 208.131 1057.46 210.976 1057.05 216.79C1056.62 222.959 1056.94 227.444 1057.87 231.142C1059.83 238.839 1064.49 245.288 1071.89 248.165C1095.46 257.316 1112.21 230.505 1082.06 229.721C1077.48 229.602 1073.84 230.26 1070.08 226.835C1066.52 223.595 1065.99 219.016 1073.44 218.417C1077.43 217.691 1084.08 220.186 1082.06 215.661C1081.03 213.341 1076.44 211.286 1076.96 207.823C1078.21 199.272 1075.67 194.744 1060.44 187.765C1049.51 182.095 1054.99 170.527 1068.7 173.157C1072.34 167.805 1073.6 164.648 1071.87 158.385C1071.03 151.572 1076.73 149.176 1082.39 151.662C1091.05 155.467 1091.4 163.994 1089.08 172.044C1088.35 174.608 1087.29 177.14 1085.87 179.96C1082.08 187.492 1083.31 186.864 1087.66 193.698C1089.66 196.858 1090.59 199.733 1091.05 202.668C1091.05 209.944 1091.05 212.991 1095.26 208.491C1102.14 200.409 1107.51 204.361 1108.24 214.717C1108.65 220.638 1108.12 221.771 1112.77 225.746L1119.08 231.142C1131.45 222.386 1129.84 211.414 1125.72 190.971C1122.29 175.083 1128.16 172.722 1135.25 178.68C1139.27 171.065 1138.1 163.544 1147 161.041C1151.2 159.859 1154.86 162.713 1153.01 166.543C1148.34 176.21 1144.56 180.894 1142.9 190.19C1141.65 197.25 1129.06 201.967 1138.34 207.823C1144.69 211.832 1144.14 218.687 1140.34 224.456C1136.53 230.252 1130.23 235.169 1132.47 242.304C1139.97 242.379 1139.03 235.339 1145.53 234.844C1147.66 234.683 1149.27 235.553 1149.95 237.19C1151.12 240.005 1150.41 241.976 1148.9 243.497C1228.33 229.829 1299.49 212.65 1357.74 192.642C1326.11 190.494 1294.36 178.94 1337.05 160.29C1354.4 152.709 1341.82 137.428 1312.16 147.653C1264.48 164.094 1311.55 129.029 1274.8 134.252C1258.29 130.882 1333.66 82.6614 1259.52 55.4197C1370.48 87.2473 1267.17 125.283 1299.47 129.42C1332.04 129.489 1354.57 129.435 1358.72 136.88C1365.4 148.879 1345.01 150.533 1345.01 166.955C1345.01 176.982 1355.63 183.465 1371.58 187.744C1372.93 187.25 1374.28 186.753 1375.62 186.255C1368.99 177.897 1350 173.454 1363.23 153.917C1373.35 140.649 1377.46 128.484 1348.28 121.683C1327.28 118.505 1324.61 111.96 1324.96 97.6432C1326.77 77.6032 1316.59 81.7935 1309.06 70.2439C1299.85 45.9346 1331.05 23.5017 1276.52 0Z" fill="#EDF8F5"/>
</svg>
