<svg xmlns="http://www.w3.org/2000/svg" width="2546" height="370" fill="none"><path fill="#edf8f5" d="M1820.52 75c16.35 1.521 32.59 8.855 43.37 21.215 11.23 9.822-7.91 43.976 20.32 37.41 7.27-1.69 8.93-1.405 9.56 7.202.72 9.784-2.72 21.113 2.82 30.337 19.97 21.355 59.11 19.694 54.96 39.191-4.59 17.506-30.26 16.175-15.85 30.694 3.51 3.537 5.37 7.307 6.23 11.479 4.97-2.052 9.81-4.13 14.51-6.231 1.52-3.397-.09-7.239-8.94-12.379-8.58-9.094 34.45-18.175 19.58-32.7-14.91-16.48-35.36-23.96-10.54-37.775 10.04-6.952-12.52-31.531 12.55-45.602-21.7 29.483 24.51 45.9 2.8 59.127-13.28 8.093 16.07 29.696 18.12 39.053 1.67 7.671-1.93 9.621-7.74 11.42-4.93 1.521-6.99 3.744-7.57 6.38-.84 3.813 6.69 4.561 11.14 5.024 11.61 1.208 23.45 2.458 35.47 3.743 11.47-.187 26.79-1.771 18.72-9.825-2.77-1.045-5.92-.16-10.33.36-15.23 1.795-1.17-10.725-4.19-22.121-1.1-4.164-4.12-18.293 3.46-18.907 7.58-.622 11.07 8.807 8.54 17.273s.07 11.812 3.82 12.494c3.76.68 5.94-7.036 5.12-15.025-.81-7.988-2.45-19.597 2.74-26.973 5.2-7.375 15.16-4.845 18.51 3.348s-.27 20.687-4.1 27.79c-3.82 7.104-8.53 17-8.06 23.15.48 6.14 4.58 9.215 8.54 4.437s10.99-14.276 13.04-31.752c1.27-10.815 2.1-15.955 5.21-18.027 13.18-8.784 5.05 20.855 22.92-5.598 1.49-2.212 21.02-26.903 20.29-11.838v.017c-.2 4.171-.68 14.07-9.58 24.522-10.34 12.125-40.83 35.978-32.05 48.512 6.24 6.795 20.09 1.96 20.82-1.662 1.28-6.291-1.99-12-2.91-18.697-.92-6.703 5.54-20.035 15.09-18.102 9.55 1.934 5.72 10.939 1.85 15.303-3.88 4.364-4.63 8.109-2.13 10.803 2.51 2.686 4.41-.055 7.97-5.172 3.55-5.117 2.02-12.215 8.1-19.448 6.08-7.235 14.86-5.354 16.52 1.812 1.66 7.16-3.52 10.773-10.76 14.827-7.25 4.053-6.14 9.725-12.38 13.874-6.24 4.146-5.93 8.601-5.93 8.61 2.85-3.073 15.39-3.77 21.37-7.231 5.98-3.462 10.79-14.774 15.37-23.635 4.59-8.856 16.35-12.575 26.15-11.748s12.05 4.628 11.85 9.405c-.21 4.776-4.27 6.422-14.15 5.809-9.89-.606-15.57 5.175-19.25 8.513s-2.38 5.246 1.74 5.513c4.11.264 10.3-8.48 20.05-6.878 9.74 1.601 7.41.193 14.5-1.066s11.71 2.479 12.48 5.771c.78 3.292-.2 7.271-8.29 9.919-8.1 2.647-21.14-.642-24.16-1.811s-4.98-1.583-6.43-1.025c-1.45.565-.89.994.48 4.075 1.37 3.08-3.11 6.447-8.76 4.463-5.64-1.991-9.41-2.145-11.59 1.567-2.18 3.714 2.63 7.718 13.1 7.695 10.47-.024 13.74-4.595 16.83-6.746 3.09-2.149 9-2.562 10.05 1.43 1.05 3.997-3.27 5.823-5.82 5.852s-2.4 3.388 1.67 3.691c4.06.302 10.44 1.502 16.65 3.461l-.16.046C2550.44 306.979 2841.6 366.158 1984.81 370H544.124c-587.434 0-750.331-25.19-234.057-106.288-10.043-1.488-17.739-2.388-19.614-2.056-5.241.928-12.221-.024-12.585-8.124s4.1-11.857 11.713-10.508c7.612 1.342 15.745 5.921 22.41 8.606 6.664 2.685 5.168-4.069 1.447-7.023-3.729-2.954-11.562-2.269-14.66-5.137-3.097-2.868-1.563-9.994 4.246-9.42 5.809.582 15.216 6.144 20.282 13.118 5.066 6.982 13.045 4.871 12.48-.387s-11.683-11.691-18.956-13.755c-7.274-2.065-12.42-4.784-12.133-11.68.286-6.895 6.879-7.349 17.299-4.143 10.42 3.205 20.473 17.871 24.662 25.378 4.183 7.508 13.255 10.138 13.94 5.053.684-5.084-5.253-11.23-10.419-14.759-5.165-3.528-9.271-7.687-8.844-12.362s4.26-8.812 10.31-5.507c4.196 2.293 10.255 12.782 13.87 21.492 3.331 8.027 5.71 11.373 5.71 11.373 4.557 7.489 8.941 1.903 7.349-2.401-.015-.053-1.922-6.589-6.662-10.829-3.603-5.901-7.038-12.191-7.738-13.95l.014.001c-1.045-2.612-2.1-13.73 7.829-12.542s11.668 10.782 13.208 23.614c1.546 12.832 7.993 21.804 10.048 18.01 2.054-3.795-.207-9.015-1.966-11.711-1.752-2.697-3.021-11.181 4.384-11.148s8.231 12.787 7.24 20.001c-.249 1.812-.742 4.098-1.365 6.588a13547 13547 0 0 1 35.868-5.235c.893-4.429 6.936-9.655 20.549-15.602 17.351-7.58 4.768-22.861-24.891-12.635-47.687 16.44-7.185-36.35-43.936-31.126 8.596-4.823 22.107-6.561 26.437 6.22 4.873 14.385 12.329 6.477 29.602 6.869 18.941.429 31.462 1.901 34.452 7.264 4.886 8.769-4.691 12.012-10.203 19.532-8.991 12.268.986 13.479 10.544 12.616-1.057-3.846-.203-8.655 4.171-15.112 8.696-11.397 12.954-21.98-4.512-29.048-7.183-2.907-14.068-3.189-21.664-3.88-36.926-3.36-9.286-14.682-8.964-27.848 1.808-20.04-56.589-2.699-59.863-10.592-9.143-22.05 44.665-60.031 61.331-71.13a33 33 0 0 1 4.806-3.129c-.019.012-1.814 1.138-4.806 3.13-27.927 21.673-40.959 93.648 32.01 41.609 8.353-1.361-15.378 36.484-9.842 45.708 19.971 21.355 66.378-12.514 62.226 6.983-1.905 7.275-11.934 15.3-20.569 23.7-30.121 29.304-5.869 31.167 13.137 31.756 8.762.272 15.657 2.277 22.634 5.116 3.624 1.082 7.39 2.535 11.401 4.445 15.534 7.399 31.791 14.406 48.701 21.031a71 71 0 0 0-3.709-8.813c-3.45-6.82-6.346-11.102-13.974-12.823-10.451-2.356-25.045-3.506-10.872-14.675-5.065-4.19-10.393-5.717-15.704-9.313-14.805-10.025-2.47-28.542 12.937-11.515 12.326 11.714 16.188 13.398 13.639 1.29-3.133-11.796-2.789-13.701-13.639-17.5-16.273-5.698-13.857-17.646.96-13.574 7.692 2.114 8.025-.915 1.807-6.871-11.597-4.731-19.354-6.486-20.146-18.982-.556-18.285 12.739-23.587 14.586 0 2.793 8.848 13.366 10.633 9.785-3.315l-8.699-19.952c-3.739-8.577 2.757-29.548 12.638-16.691 4.959 6.453.314 16.541 2.437 22.996 1.412 4.294 2.658 3.648 5.027 1.051 7.685-8.424 17.607-4.807 2.812 18.854-5.091 11.128-2.294 19.581 2.598 16.039 8.046-4.885 11.858 4.705 3.993 18.883-4.276 7.706-4.343 13.916-2.584 22.958 1.958 10.06 5.794-3.171 7.561-5.878 3.687-5.644 11.377-5.408 13.653 6.793 2.208 11.832-9.143 37.965 8.407 45.317 7.49-.001 14.369-18.617 5.351-40.74-3.422-6.895-5.809-10.371-12.302-14.703-18.124-17.724-3.113-22.728 3.703-11.021 5.727 7.794 10.437 8.187 10.152 1.558-4.024-12.717-6.953-19.667-19.653-29.753-13.741-7.788-14.121-17.551-4.006-20.824 2.586-.836 5.957-.675 5.367-4.419-.431-2.737-3.055-6.821-7.87-13.343-5.597-20.004 15.291-22.905 17.831-3.249 1.03 7.954 5.788 8.076 9.238 3.833 1.645-2.023 2.878-6.402 6.427-5.006 2.83 1.114 3.36 7.031-1.867 13.65-7.979 6.854-12.25 13.82-12.304 19.905-.067 7.598 8.307 24.911 10.742 8.159 1.354-4.002 3.961-7.329 11.078-14.205-4.738-7.369-6.083-12.056 0-23.737 4.006-11.462 18.583-15.876 17.324-2.599-.834 8.785-15.462 17.519-6.615 22.091 5.747-.779 8.347-3.03 11.969-9.614 8.326-6.051 13.881-2.459 12.767 4.115-1.363 8.048-13.535 11.674-19.854 15.403 4.069 6.351-7.245 12.575-12.757 16.348-11.823 11.731-9.024 17.223-2.834 26.881 1.564 4.684-.958 9.253-5.984 15.038-2.217 3.203-.05 6.903 3.937 13.572 3.141-2.588 4.544-4.274 4.296-9.061.656-11.456-.811-19.567 6.663-24.743 4.702-2.15 6.737 1.385 6.074 13.692 0 8.728 7.204-8.951 7.768-13.692 2.257-18.966 11.272-21.756 11.435-9.779v3.716c3.64-2.503 6.565-6.357 9.21-13.104 5.675-10.016 12.638-10.66 16.067-2.054-.709 14.582-10.155 21.496-21.059 30.497-7.327 6.048-2.328 4.031 4.967 5.078 18.319 2.631 17.177 12.617 2.964 21.146-9.797 0-23.09-10.004-34.291 5.966l-6.956 10.66c1.023 3.183 11.17-.001 18.125-5.672 8.354-.975 10.678 13.104-3.429 16.918-6.074 1.076-15.289-2.428-20.476 7.334l-8.622 13.692 11.169 1.565c14.01-14.782 18.377-15.71 22.24-8.997 14.82-5.781 25.758 7.982 7.059 21.386 263.402 78.419 637.628 83.455 929.238 43.7l-.18-.119-.17-.029c-8.41-1.439-17.31-2.961-23.47-8.818-8.84-6.132-6.66-12.554-1.5-14.905l-2.82-5.396c-1.23-5.183.16-9.549 2.51-12.213 4.75-5.402 9.11-2.557 8.7 3.257-.43 6.169-.11 10.654.82 14.352 1.96 7.697 6.62 14.146 14.02 17.023 23.57 9.151 40.32-17.66 10.17-18.444-4.58-.119-8.22.539-11.98-2.886-3.56-3.24-4.09-7.819 3.36-8.418 3.99-.726 10.64 1.769 8.62-2.756-1.03-2.32-5.62-4.375-5.1-7.838 1.25-8.551-1.29-13.079-16.52-20.058-10.93-5.67-5.45-17.238 8.26-14.608 3.64-5.352 4.9-8.509 3.17-14.772-.84-6.813 4.86-9.209 10.52-6.723 8.66 3.805 9.01 12.332 6.69 20.382-.73 2.564-1.79 5.096-3.21 7.916-3.79 7.532-2.56 6.904 1.79 13.738 2 3.16 2.93 6.035 3.39 8.97 0 7.276 0 10.323 4.21 5.823 6.88-8.082 12.25-4.13 12.98 6.226.41 5.921-.12 7.054 4.53 11.029l6.31 5.396c12.37-8.756 10.76-19.728 6.64-40.171-3.43-15.888 2.44-18.249 9.53-12.291 4.02-7.615 2.85-15.136 11.75-17.639 4.2-1.182 7.86 1.672 6.01 5.502-4.67 9.667-8.45 14.351-10.11 23.647-1.25 7.06-13.84 11.777-4.56 17.633 6.35 4.009 5.8 10.864 2 16.633-3.81 5.796-10.11 10.713-7.87 17.848 7.5.075 6.56-6.965 13.06-7.46 2.13-.161 3.74.709 4.42 2.346 1.17 2.815.46 4.786-1.05 6.307 79.43-13.668 150.59-30.847 208.84-50.855-31.63-2.148-63.38-13.702-20.69-32.352 17.35-7.581 4.77-22.862-24.89-12.637-47.68 16.441-.61-18.624-37.36-13.401-16.51-3.37 58.86-51.591-15.28-78.832 110.96 31.827 7.65 69.863 39.95 74 32.57.069 55.1.015 59.25 7.46 6.68 11.999-13.71 13.653-13.71 30.075 0 10.027 10.62 16.51 26.57 20.789 1.35-.494 2.7-.991 4.04-1.489-6.63-8.358-25.62-12.801-12.39-32.338 10.12-13.268 14.23-25.433-14.95-32.234-21-3.178-23.67-9.723-23.32-24.04 1.81-20.04-8.37-15.849-15.9-27.399-9.21-24.309 21.99-46.742-32.54-70.244"/></svg>