<svg xmlns="http://www.w3.org/2000/svg" width="2556" height="300" fill="none"><g clip-path="url(#a)"><path fill="#f3f4fa" d="M1823.8 5.227c16.35 1.52 32.58 8.854 43.36 21.214 11.23 9.822-7.91 43.977 20.32 37.41 7.26-1.69 8.92-1.404 9.56 7.203.72 9.784-2.72 21.113 2.81 30.337 19.97 21.355 59.1 19.694 54.95 39.191-4.58 17.506-30.25 16.175-15.85 30.694 3.51 3.537 5.37 7.307 6.24 11.479 4.96-2.052 9.8-4.13 14.51-6.231 1.51-3.397-.1-7.239-8.95-12.378-8.57-9.095 34.44-18.176 19.58-32.701-14.9-16.48-35.35-23.96-10.54-37.775 10.04-6.953-12.52-31.53 12.55-45.603-21.7 29.484 24.5 45.9 2.8 59.128-13.28 8.093 16.06 29.696 18.11 39.053 1.68 7.671-1.92 9.621-7.74 11.42-4.92 1.521-6.98 3.744-7.56 6.38-.84 3.813 6.69 4.561 11.14 5.024 11.6 1.208 23.44 2.458 35.46 3.743 11.46-.187 26.78-1.771 18.72-9.825-2.77-1.045-5.92-.16-10.33.36-15.23 1.795-1.17-10.725-4.19-22.121-1.1-4.164-4.12-18.293 3.46-18.907 7.58-.622 11.06 8.807 8.53 17.273s.07 11.813 3.83 12.494c3.75.68 5.93-7.036 5.12-15.025-.82-7.988-2.45-19.597 2.73-26.973 5.2-7.375 15.16-4.846 18.51 3.347s-.27 20.688-4.1 27.791c-3.82 7.104-8.53 17-8.05 23.15.47 6.14 4.57 9.215 8.53 4.437s10.99-14.276 13.04-31.752c1.26-10.815 2.1-15.955 5.21-18.027 13.18-8.784 5.04 20.855 22.91-5.599 1.5-2.211 21.02-26.903 20.29-11.837v.017c-.2 4.171-.68 14.07-9.59 24.522-10.33 12.125-40.82 35.978-32.03 48.512 6.24 6.795 20.08 1.96 20.81-1.662 1.28-6.291-1.99-12-2.91-18.697-.92-6.703 5.54-20.035 15.09-18.102 9.54 1.935 5.72 10.939 1.85 15.303-3.88 4.364-4.63 8.109-2.13 10.803 2.5 2.686 4.41-.055 7.97-5.172 3.55-5.117 2.02-12.215 8.1-19.448 6.08-7.235 14.85-5.354 16.51 1.812 1.66 7.16-3.51 10.773-10.75 14.827-7.25 4.054-6.14 9.725-12.38 13.874-6.24 4.146-5.93 8.601-5.93 8.61 2.85-3.073 15.39-3.77 21.36-7.231 5.98-3.462 10.79-14.774 15.37-23.635 4.59-8.856 16.35-12.575 26.15-11.748s12.05 4.628 11.84 9.405-4.26 6.422-14.15 5.809c-9.89-.606-15.56 5.175-19.24 8.513s-2.38 5.246 1.74 5.513c4.11.264 10.3-8.48 20.04-6.878 9.74 1.601 7.42.193 14.51-1.066 7.08-1.259 11.7 2.479 12.47 5.771.78 3.292-.2 7.271-8.29 9.919-8.09 2.647-21.13-.642-24.15-1.811-3.03-1.169-4.98-1.583-6.43-1.025-1.45.565-.89.995.48 4.075s-3.11 6.447-8.76 4.463c-5.64-1.991-9.4-2.145-11.59 1.567-2.17 3.714 2.63 7.718 13.1 7.695 10.46-.024 13.73-4.595 16.82-6.745s9-2.563 10.06 1.429c1.05 3.997-3.28 5.823-5.83 5.852s-2.4 3.388 1.67 3.691c4.06.302 10.45 1.503 16.65 3.461l-.16.046c346.54 43.336 637.64 102.515-218.97 106.358H547.663c-587.315 0-750.179-25.191-234.01-106.289-10.041-1.488-17.735-2.388-19.609-2.056-5.24.929-12.22-.024-12.583-8.124-.364-8.101 4.099-11.857 11.711-10.508 7.61 1.342 15.742 5.921 22.405 8.606s5.167-4.068 1.446-7.023c-3.727-2.954-11.559-2.269-14.656-5.137s-1.563-9.994 4.245-9.42c5.808.583 15.212 6.144 20.277 13.119 5.066 6.981 13.043 4.87 12.478-.388s-11.68-11.69-18.952-13.755-12.418-4.784-12.131-11.68c.286-6.895 6.878-7.349 17.296-4.143 10.418 3.205 20.469 17.871 24.657 25.379 4.182 7.507 13.253 10.137 13.937 5.052.684-5.084-5.252-11.23-10.416-14.758-5.165-3.529-9.27-7.688-8.843-12.363s4.259-8.812 10.307-5.507c4.196 2.293 10.254 12.782 13.868 21.492 3.33 8.027 5.709 11.373 5.709 11.373 4.556 7.49 8.939 1.903 7.347-2.401-.015-.052-1.921-6.589-6.66-10.829-3.603-5.901-7.037-12.191-7.736-13.95l.013.001c-1.044-2.612-2.099-13.73 7.828-12.542s11.665 10.782 13.205 23.614c1.546 12.833 7.991 21.805 10.046 18.01s-.207-9.014-1.965-11.711c-1.752-2.697-3.021-11.181 4.383-11.148 7.403.032 8.229 12.787 7.238 20.002-.249 1.812-.742 4.097-1.364 6.587q17.524-2.583 35.86-5.235c.893-4.429 6.935-9.655 20.545-15.601 17.348-7.581 4.767-22.862-24.886-12.636-47.677 16.441-7.184-36.35-43.927-31.126 8.595-4.823 22.102-6.561 26.431 6.22 4.873 14.385 12.327 6.477 29.597 6.869 18.937.429 31.456 1.901 34.444 7.264 4.885 8.769-4.69 12.012-10.2 19.532-8.99 12.268.986 13.479 10.542 12.616-1.057-3.846-.204-8.655 4.17-15.112 8.694-11.397 12.95-21.98-4.512-29.048-7.181-2.907-14.064-3.189-21.659-3.88-36.918-3.36-9.284-14.682-8.962-27.848 1.808-20.04-56.578-2.7-59.851-10.593-9.142-22.049 44.656-60.03 61.319-71.129a33 33 0 0 1 4.804-3.13c-.018.012-1.813 1.138-4.804 3.13-27.922 21.674-40.952 93.648 32.003 41.61 8.351-1.361-15.375 36.484-9.84 45.708 19.967 21.355 66.365-12.514 62.214 6.983-1.906 7.275-11.933 15.3-20.566 23.7-30.115 29.305-5.867 31.167 13.135 31.756 8.76.272 15.653 2.277 22.629 5.116 3.624 1.082 7.389 2.535 11.398 4.445 15.532 7.399 31.786 14.406 48.692 21.031a71 71 0 0 0-3.708-8.812c-3.449-6.821-6.345-11.103-13.972-12.824-10.449-2.356-25.039-3.506-10.869-14.675-5.064-4.19-10.391-5.717-15.701-9.313-14.802-10.025-2.469-28.542 12.934-11.515 12.323 11.714 16.185 13.398 13.636 1.29-3.132-11.796-2.788-13.702-13.636-17.501-16.27-5.698-13.854-17.645.96-13.573 7.69 2.114 8.023-.916 1.807-6.87-11.595-4.732-19.35-6.487-20.143-18.983-.555-18.286 12.737-23.587 14.583 0 2.794 8.848 13.364 10.633 9.784-3.315l-8.698-19.952c-3.738-8.577 2.757-29.549 12.636-16.691 4.958 6.453.314 16.541 2.437 22.996 1.412 4.294 2.657 3.648 5.026 1.05 7.683-8.423 17.603-4.807 2.811 18.855-5.09 11.128-2.293 19.58 2.597 16.04 8.045-4.886 11.856 4.704 3.992 18.882-4.274 7.706-4.342 13.916-2.583 22.958 1.958 10.06 5.793-3.171 7.56-5.878 3.686-5.644 11.374-5.408 13.65 6.793 2.208 11.832-9.141 37.965 8.406 45.317 7.488-.001 14.365-18.617 5.349-40.74-3.421-6.895-5.808-10.371-12.3-14.703-18.119-17.724-3.112-22.728 3.703-11.021 5.725 7.794 10.435 8.187 10.15 1.558-4.024-12.717-6.952-19.667-19.65-29.753-13.738-7.788-14.117-17.551-4.004-20.824 2.585-.836 5.955-.675 5.366-4.419-.432-2.738-3.055-6.82-7.869-13.344-5.596-20.004 15.288-22.904 17.828-3.249 1.029 7.955 5.786 8.077 9.235 3.834 1.645-2.024 2.878-6.402 6.426-5.007 2.83 1.115 3.36 7.032-1.866 13.65-7.978 6.854-12.248 13.821-12.302 19.906-.067 7.598 8.306 24.911 10.74 8.16 1.354-4.004 3.96-7.33 11.075-14.206-4.736-7.37-6.081-12.056 0-23.737 4.006-11.462 18.58-15.877 17.321-2.6-.834 8.785-15.458 17.52-6.614 22.092 5.746-.779 8.345-3.03 11.967-9.614 8.324-6.051 13.878-2.459 12.765 4.115-1.364 8.048-13.533 11.674-19.851 15.402 4.069 6.352-7.243 12.576-12.754 16.349-11.821 11.73-9.022 17.223-2.834 26.881 1.564 4.684-.957 9.253-5.982 15.038-2.216 3.203-.05 6.903 3.937 13.572 3.139-2.588 4.542-4.274 4.294-9.061.656-11.456-.81-19.567 6.662-24.743 4.701-2.15 6.735 1.384 6.073 13.692 0 8.728 7.202-8.951 7.766-13.692 2.257-18.966 11.27-21.756 11.433-9.779v3.716c3.639-2.503 6.563-6.357 9.208-13.105 5.674-10.015 12.635-10.659 16.064-2.053-.709 14.582-10.153 21.495-21.055 30.497-7.326 6.048-2.327 4.031 4.966 5.078 18.315 2.631 17.174 12.617 2.964 21.146-9.796 0-23.086-10.004-34.285 5.966l-6.955 10.66c1.023 3.184 11.168-.001 18.122-5.672 8.352-.975 10.675 13.104-3.428 16.919-6.073 1.075-15.286-2.429-20.472 7.334l-8.62 13.691 11.166 1.565c14.007-14.782 18.374-15.71 22.236-8.997 14.817-5.78 25.753 7.982 7.058 21.386 263.348 78.42 637.498 83.456 929.048 43.7q-.09-.059-.18-.119l-.17-.028c-8.41-1.439-17.31-2.961-23.47-8.819-8.84-6.131-6.65-12.553-1.5-14.905l-2.81-5.395c-1.23-5.184.16-9.549 2.5-12.213 4.75-5.402 9.11-2.558 8.71 3.257-.43 6.168-.12 10.654.82 14.351 1.95 7.697 6.61 14.146 14.02 17.024 23.56 9.15 40.31-17.661 10.16-18.445-4.58-.119-8.22.54-11.98-2.886-3.56-3.24-4.09-7.819 3.36-8.417 3.99-.726 10.64 1.768 8.62-2.756-1.04-2.321-5.62-4.376-5.1-7.839 1.25-8.55-1.29-13.079-16.52-20.058-10.92-5.67-5.44-17.238 8.26-14.608 3.64-5.352 4.9-8.509 3.17-14.772-.84-6.813 4.86-9.209 10.51-6.723 8.66 3.805 9.01 12.332 6.7 20.382-.73 2.565-1.8 5.096-3.21 7.917-3.79 7.531-2.56 6.904 1.78 13.737 2.01 3.16 2.94 6.036 3.4 8.971 0 7.276 0 10.322 4.21 5.823 6.87-8.082 12.25-4.131 12.97 6.225.41 5.921-.12 7.055 4.53 11.03l6.31 5.395c12.37-8.755 10.76-19.728 6.64-40.171-3.43-15.888 2.44-18.249 9.53-12.291 4.02-7.615 2.85-15.136 11.74-17.638 4.2-1.182 7.86 1.671 6.01 5.502-4.67 9.666-8.45 14.35-10.1 23.646-1.26 7.06-13.84 11.777-4.56 17.633 6.35 4.009 5.8 10.864 2 16.634-3.81 5.795-10.11 10.712-7.87 17.847 7.5.076 6.56-6.964 13.06-7.46 2.12-.161 3.73.71 4.41 2.346 1.17 2.815.47 4.786-1.05 6.308 79.42-13.668 150.57-30.848 208.8-50.856-31.62-2.148-63.36-13.702-20.68-32.352 17.35-7.581 4.77-22.862-24.89-12.637-47.67 16.441-.61-18.624-37.35-13.401-16.51-3.37 58.85-51.59-15.27-78.833 110.93 31.828 7.64 69.864 39.94 74.001 32.56.069 55.08.015 59.23 7.46 6.68 11.999-13.71 13.653-13.71 30.076 0 10.026 10.62 16.51 26.57 20.789 1.35-.495 2.7-.992 4.04-1.49-6.63-8.358-25.62-12.801-12.39-32.337 10.12-13.269 14.23-25.434-14.94-32.235-21.01-3.178-23.67-9.723-23.32-24.04 1.81-20.04-8.37-15.85-15.9-27.4-9.21-24.309 21.99-46.742-32.53-70.243"/><path fill="#dae0fd" d="M695.869 262.611c21.935-.7 36.664-.322 58.515 1.805 53.377 5.195 48.65 12.201 23.045 20.285-38.101 12.029-73.882 8.211-113.362 2.211-66.843-10.158-48.723-21.733 31.802-24.301M1755.32 244.752c18.04-.994 34.23-1.402 44.35-1.067 55.84 5.105 61.34 11.383 43.7 20.557 5.54-1.002 12.21-1.792 19.87-2.282 9.66-.62 18.34-.891 23.77-.712 13.85 1.394 26.4 6.834 27.06 13.415 1.11 10.94-12.92 16.362-21.37 18.197-33.22 7.211-87.85-.207-73.78-19.421-14.86 4.866-31.3 8.377-47.96 9.834-74.97 4.686-113.7-16.009-74.97-29.568 11.89-4.162 32.36-7.468 59.33-8.953"/><path fill="#a9baff" d="M831.366 210.668c-26.58 34.157-73.171 42.386-104.063 18.379-30.892-24.006-34.387-71.157-7.807-105.314 26.581-34.157 73.171-42.386 104.063-18.38s34.387 71.157 7.807 105.315"/><path fill="#8099ff" d="M727.607 136.482c24.855-31.94 67.531-40.329 95.318-18.735 27.788 21.594 30.164 64.993 5.309 96.933-22.657 29.115-70.467 36.168-95.318 18.735-20.507-15.937-27.174-43.748-19.269-70.067q-.225-.464-.433-.939c-.779-1.792-1.36-3.694-1.767-5.661-3.363 8.159-8.41 21.949-5.463 42.874a71 71 0 0 1-2.861-10.166c-.468-18.339 5.124-30.127 7.748-36.544-.623-6.365.261-13.188 1.912-19.212a87 87 0 0 1 4.698-7.272c-3.196 7.11-5.553 17.371-4.596 26.533.276 2.634.824 5.161 1.694 7.486 2.857-8.333 7.192-16.465 13.028-23.965"/><path fill="#6cc5ae" d="m868.589 156.66-25.608 7.73.008 59.736 12.381-3.746 5.873 2.996z"/><path fill="#b0ebdb" d="m854.626 154.518-25.608 7.729-17.533 36.325 1.652 26.223 32.12.48z"/><path fill="#fff" d="m865.422 162.129-9.413-1.046-8.369 60.33 10.61-1.643z"/><path fill="#dcf6ef" d="m858.594 155.537-9.058 64.258c1.826-.555 3.546-.862 5.313-.871 2.004-.011 3.978.362 6.145 1.08l7.523-63.345 3.49 1.087-8.021 67.256-2.164-.878c-2.823-1.144-4.939-1.633-6.954-1.623-2.018.011-4.091.522-6.831 1.625l-2.855 1.149 9.333-70.838z"/><path fill="#a9baff" d="M883.649 204.932c2.687-9.799-1.735-33.303-12.276-40.244-38.098 33.802-53.124 42.815 12.276 40.244"/><path fill="#dae0fd" d="M775.228 18.681c5.258-.574 4.711 3.595 3.447 7.108-7.755 21.548-17.762 45.235-26.16 66.512l7.575 28.157.057-.027c.199 8.132-1.452 16.279-14.873 22.632 13.186-3.988 22.563-18.139 21.986-25.451a63 63 0 0 1 8.896-2.265c3.239 1.218 6.226 2.838 9.366 4.97q-.48-.692-.903-1.409c-1.8-3.068-2.795-6.492-3.138-11.011-.598-7.878.286-13.722 3.113-18.484 2.791-4.7 7.392-8.203 13.919-11.606 3.499-4.846 8.955-8.099 15.279-9.826 2.946-6.409 9.41-10.875 16.932-10.914 9.2-.047 16.884 6.544 18.508 15.276q.545.284 1.083.584c5.184 2.898 9.82 6.787 13.359 11.663a18.7 18.7 0 0 1 7.404-1.56c10.343-.053 18.771 8.284 18.824 18.619.053 10.336-8.289 18.758-18.632 18.811a19 19 0 0 1-2.356-.136c-1.396 5.364-3.642 11.113-6.871 17.244l-.225.427-33.083 6.233-.164.03-.165-.023q-.513-.076-1.02-.157c6.408 19.177 1.595 44.101-14.432 64.697a88 88 0 0 1-1.775 2.205c9.467 12.646 13.195 23.486 14.558 38.035-9.714 8.646-16.449 12.776-39.024 14.215-1.27-9.896-4.053-18.291-8.257-28.406-10.641 4.007-21.557 5.077-31.455 2.88l.025.029-23.665 23.491c-25.105 2.096-32.813-18.298-22.268-36.231l14.902-15.351c-6.614-19.231-1.846-44.363 14.295-65.105a87 87 0 0 1 6.853-7.806c-19.07-22.071-29.142-38.029-34.669-52.55-1.917-14.694 44.503-52.999 60.25-60.944 4.331-2.185 9.11-4.186 12.504-4.556"/><path fill="#a9baff" d="M751.987 154.25c-10.225 13.629-15.076 18.298-24.777 14.037-30.931 40.938 10.846 91.664 57.377 72.364 27.939-11.589 50.296-50 50.296-81.065-.877-8.725-7.157-12.774-15.638-10.137 1.512-16.125-12.096-21.418-25.027-10.573-5.376-13.441-21.412-17.157-42.231 15.374"/><path fill="#fff" d="M789.17 216.647a2.999 2.999 0 1 1-.838 5.875l-8.449 11.174a3.39 3.39 0 0 1-2.702 1.345h-6.717l-6.935 8.833q-1.242-.016-2.466-.095l8.427-10.737h7.691c.434 0 .844-.204 1.106-.55l8.42-11.138a2.999 2.999 0 0 1 2.463-4.707M811.481 174.49a2.999 2.999 0 1 1-.567 5.941l-16.977 25.033a3.39 3.39 0 0 1-2.318 1.45l-15.716 2.274-24.143 33.049a47 47 0 0 1-2.034-.604l24.796-33.943 12.754-18.461a3 3 0 0 1-.63-1.834 3 3 0 0 1 6 0 3 3 0 0 1-3.688 2.916l-11.489 16.63 13.863-2.005c.385-.056.731-.271.95-.593l16.904-24.925a3 3 0 0 1-.705-1.93 3 3 0 0 1 3-2.998M785.303 152.624a2.999 2.999 0 1 1 0 5.995 3 3 0 0 1-.98-.167l-26.121 35.268a1.4 1.4 0 0 0-.246 1.09l2.393 12.221a3.39 3.39 0 0 1-.608 2.672l-20.263 27.192a47 47 0 0 1-1.682-1.09l20.341-27.296c.233-.313.324-.71.249-1.094l-2.392-12.22c-.183-.933.035-1.9.601-2.664l6.676-9.015-5.577-10.577a3.3 3.3 0 0 1 .18-3.378l4.13-6.139a2.98 2.98 0 0 1-.608-1.805 3 3 0 0 1 5.999 0 3 3 0 0 1-3 2.998c-.249 0-.491-.034-.722-.092l-4.14 6.153a1.3 1.3 0 0 0-.071 1.331l5.131 9.726 18.166-24.528a2.97 2.97 0 0 1-.456-1.583 3 3 0 0 1 3-2.998M741.939 204.618a2.999 2.999 0 1 1 0 5.995c-.29 0-.569-.043-.833-.12l-12.998 16.522a45 45 0 0 1-.479-.583q-.407-.507-.799-1.025l12.649-16.079a2.97 2.97 0 0 1-.54-1.712 3 3 0 0 1 3-2.998"/><path fill="#8099ff" d="m854.899 115.705 9.294 5.803-18.974 2.227c-17.489-8.492-33.271-26.283-41.89-42.417l11.064 9.19c16.11 8.972 35.092 11.499 40.506 25.197"/><path fill="#fff" d="M845.207 121.413c.079-4.339 2.385-5.592 7.427-4.837-2.361-10.244-20.994-14.66-41.082-25.112 10.042 12.216 19.419 21.55 33.655 29.949M830.734 59.066a16.8 16.8 0 0 1 4.978.726 16 16 0 0 1 1.914.716 16.77 16.77 0 0 1 7.03 5.877 16.64 16.64 0 0 1 2.893 9.313 16.567 16.567 0 0 1-1.243 6.417 17.78 17.78 0 0 1 11.738 9.273 16.74 16.74 0 0 1 9.269-5.911 16.8 16.8 0 0 1 4.207-.445 16.7 16.7 0 0 1 5.325.981 16.7 16.7 0 0 1 2.931 1.392c4.728 2.838 7.94 7.946 8.119 13.824a15 15 0 0 1 .005.862 17 17 0 0 1-.121 1.699 16.6 16.6 0 0 1-.861 3.623 16.5 16.5 0 0 1-1.605 3.271 17 17 0 0 1-1.433 1.937 16.7 16.7 0 0 1-12.621 5.841 16.67 16.67 0 0 1-11.411-4.416 16.5 16.5 0 0 1-2.027-2.23 17.35 17.35 0 0 1-1.116-1.676 16.627 16.627 0 0 1-2.256-8.741 16.7 16.7 0 0 1 .503-3.749 16.6 16.6 0 0 1 1.776-4.335 15.76 15.76 0 0 0-11.319-9.35 17 17 0 0 1-.67 1.094q-.223.334-.463.658-.479.646-1.016 1.243a16.74 16.74 0 0 1-8.892 5.163 16.8 16.8 0 0 1-5.962.204 17 17 0 0 1-2.083-.437 17 17 0 0 1-1.863-.64 16.8 16.8 0 0 1-7.463-6.049 16.63 16.63 0 0 1-2.906-9.332 17 17 0 0 1 .18-2.546q.061-.416.143-.824a16 16 0 0 1 .404-1.604q.12-.394.259-.778a16.6 16.6 0 0 1 2.051-3.94 16.8 16.8 0 0 1 4.604-4.43 16.65 16.65 0 0 1 9.002-2.68"/><path fill="#a9baff" d="M792.387 238.409c3.192 6.29 4.78 12.969 5.57 19.437 11.515.57 22.326-5.145 26.458-18.169 1.055 5.335 1.595 11.076 1.847 17.588l17.51 7.183-14.614 1.905 11.468 9.324-14.364-1.305c-8.118-.738-13.9 1.434-7.894 12.256l-31.9-12.256c-.213-5.211-.39-15.206-1.29-19.691 3.495 1.584 7.136 2.592 10.742 2.998-.783-6.165-2.315-12.453-5.316-18.367zM720.408 218.331c-4.259 5.709-11.067 13.081-20.086 16.441-.423.158-.852.35-1.3.409l-.114.015c-.027 13.286 10.179 26.027 24.448 26.027l-17.129 6.459-20.138 15.438.653-15.04-18.233 7.277c2.594-10.855 16.418-30.771-6.606-22.074 5.666-10.996 11.461-19.509 20.038-25.548l13.645-1.99 5.501-.752a24.8 24.8 0 0 0-2.089 8.126c9.374-3.993 15.696-10.679 20.492-17.107zM764.369 22.427c-12.988 10.005-26.685 22.427-36.375 34.636-5.006 6.309-8.911 12.521-11.108 18.281-2.197 5.762-2.647 10.967-.921 15.357l19.327 43.874a393 393 0 0 1-4.612-5.509l-16.559-37.592-.008-.018-.007-.019c-1.98-5.027-1.383-10.785.913-16.804 2.297-6.024 6.334-12.418 11.408-18.812 6.969-8.782 15.956-17.642 25.254-25.642 4.369-3.09 8.204-5.51 11.043-6.942a92 92 0 0 1 1.645-.81"/><path fill="#a9baff" d="m752.513 92.303 1.107 4.133-32.493-8.555zM853.374 94.636l-4.202 1.717 2.839-4.007zM848.948 90.32l-2.626 4.149-.011-4.537z"/><path fill="#8099ff" d="M859.592 99.994c12.208-6.772 16.557-.082 14.363 11.528-1.695-9.014-6.741-12.572-14.363-11.528M818.959 76.844c9.871-5.704 18.858-5.579 18.167 8.357-2.397-7.243-8.43-10.408-18.167-8.357"/><path fill="#dae0fd" d="M797.911 257.824c.841 6.59.708 15.77.336 21.074l-1.933-.724c.365-5.218.445-14.057-.374-20.48z"/><path fill="#dae0fd" fill-rule="evenodd" d="M778.698 128.344c3.894-.779 7.326-.023 10.138 1.86 2.458 1.646 4.394 4.119 5.777 7.072 6.319-4.881 12.893-6.215 17.916-4.152 5.054 2.076 8.122 7.408 7.807 14.992 3.888-.914 7.391-.465 10.123 1.303 3.057 1.979 4.957 5.486 5.418 10.067l.006.05v.05c0 15.752-5.661 33.299-14.816 48.355-9.153 15.051-21.871 27.733-36.097 33.633-23.695 9.828-46.239 1.825-58.898-13.889-12.668-15.726-15.415-39.148.34-60l.477-.63.724.317c2.339 1.028 4.312 1.483 6.097 1.437 1.772-.047 3.434-.588 5.157-1.676 3.514-2.218 7.169-6.618 12.293-13.446 10.435-16.299 19.838-23.803 27.538-25.343m9.025 3.519c-2.357-1.577-5.244-2.238-8.633-1.56-6.863 1.373-15.882 8.271-26.26 24.486l-.02.031-.023.03c-5.086 6.779-8.963 11.517-12.851 13.971-1.98 1.25-3.988 1.929-6.173 1.986-1.957.051-3.996-.399-6.217-1.295-14.657 19.925-11.913 42.028.083 56.92 12.129 15.057 33.739 22.767 56.574 13.296 13.714-5.688 26.144-18.007 35.155-32.825 8.997-14.796 14.513-31.966 14.525-47.265-.425-4.118-2.098-6.981-4.511-8.542-2.425-1.57-5.79-1.949-9.83-.693l-1.432.447.139-1.494c.73-7.782-2.189-12.619-6.481-14.382-4.361-1.791-10.606-.617-16.907 4.668l-1.059.888-.513-1.283c-1.289-3.224-3.19-5.793-5.566-7.384" clip-rule="evenodd"/><path fill="#dae0fd" d="m698.908 235.196-27.994 3.335c.481-.629.805-1.078 1.367-1.722l26.709-3.685z"/><path fill="#f3f4fa" d="M1710.84 254.927v-12.579l17.11 14.065 1.89 7.439-1.89 7.979z"/><path fill="#b0ebdb" d="M1727.76 275.508c2.03-6.174 1.6-12.617-.66-19.709l136.5-7.958c2.77 1.162 5.25 11.254 0 17.434z"/><path fill="#dcf6ef" d="m1728.28 256.767-18.34-16.747 126.26-4.154 28.2 11.92z"/><path fill="#6cc5ae" d="M1729.73 258.426c2.78 6.281 1.1 12.091-.64 14.925l-1.33 2.163-17.82-19.217.12-4.076 16.64 16.554c.87-1.219 2.05-6.433-1.75-10.725l-15.01-13.951v-4.095l14.68 12.466c1.38 1.215 2.65 2.274 3.68 3.594.55.694 1.03 1.461 1.43 2.362"/><path fill="#f3f4fa" d="M1743.58 239.948v-8.196l27.17 8.824 4.04 5.976-4.61 6.363z"/><path fill="#fcfdfe" d="M1769.62 252.338c1.58-3.232 1.69-8.571-.89-12.736l127.8-5.946v11.834z"/><path fill="#a9baff" d="m1768.81 239.28-23.11-8.533 121.64-6.722 32.58 7.303z"/><path fill="#8099ff" d="M1768.42 250.916v3.979l-25.78-12.92.01-3.549zm-.07-13.115v4.174l-25.7-9.196-.01-3.505z"/><path fill="#dae0fd" d="m1899.94 247.593-131.52 7.309v-3.976l131.52-7.286zm-.01-12.394-131.58 6.787v-4.178l131.59-6.483z"/><path fill="#8099ff" d="m1868.51 225.374.5-20.074 3.52 1.362.91 7.189c-1.05 4.673-2.14 7.193-4.93 11.523"/><path fill="#a9baff" d="m1828.91 214.367-118.21-11.499 36.64-5.112 122.47 5.768z"/><path fill="#f3f4fa" d="M1828.41 239.287c2.5-9.51 2.92-14.938 0-23.794l-108.87-8.607v19.813z"/><path fill="#8099ff" d="m1827.86 213.727-.35 4.687-116.81-11.483v-4.073zM1827.69 237.6l-.13 4.274-115.24-13.136v-4.31z"/><path fill="#fcfdfe" d="M1828.38 238.124c1.93-5.178 2.44-13.962.37-20.11l40.5-12.421-.39 18.549z"/><path fill="#dae0fd" d="M1872.27 203.467c5.28 6.579 4.68 16.583-1.27 23.111l-.34.376-43.12 14.925v-4.294l41.36-14.427c4.1-4.815 3.72-11.278.68-16.054l-42.11 11.334.07-4.742 43.9-11.253z"/><path fill="#3fb898" d="M1874.78 185.28c2.71 4.171 2.75 10.301-.43 14.412l.02-14.136z"/><path fill="#dcf6ef" d="m1807.83 188.997-89.12-8.483 56.63-5 101 6.073z"/><path fill="#f3f4fa" d="M1810 209.736c2.38-7.426 2.5-11.555 0-18.846l-86.48-7.978v16.264l79.47 10.56z"/><path fill="#fcfdfe" d="M1809.29 210.379c1.27-6.333 2.54-11.797 0-19.095l65.18-7.066-.12 16.192z"/><path fill="#6cc5ae" d="M1809.02 209.25v3.602l-90.25-12.283v-3.184zm-1.02-20.461-.15 3.56-89.15-9.052v-2.79z"/><path fill="#b0ebdb" d="m1876.77 202.958-67.77 9.911v-3.617l65.46-10.017c2.27-3.916 3.01-9.281.16-13.716l-66.78 6.836v-3.576l68.58-7.247c5.91 5.796 4.37 15.338.35 21.426"/><path fill="#a9baff" d="m1922 235.957-.01.011v-.009l-20.09 12.176-29.45-15.687zM1867.81 235.289v.003zl29.45 15.668-.01.003v-.001l-25.67 15.559v.002l-29.57 17.921-.01.004z"/><path fill="#8099ff" d="m1872.46 232.473.08.021 29.36 15.64v.002l.43 33.245-4.71-1.933-.36-28.488-.01.001v-.002l.01-.002-24.8-13.174zM1902.34 281.364v.022l-.01-.003z"/><path fill="#fff" d="m1901.9 248.136 20.09-12.178-19.66 45.435zM1871.58 266.52v-.002l25.67-15.56v.004l.01-.001.42 33.261-55.68.226z"/></g><defs><clipPath id="a"><path fill="#fff" d="M0 0h2556v300H0z"/></clipPath></defs></svg>