<svg width="176" height="115" fill="none" xmlns="http://www.w3.org/2000/svg">
  <path fill-rule="evenodd" clip-rule="evenodd" d="M88 20a68 68 0 0 0-66.5 82 10 10 0 0 1-19.6 4 88 88 0 1 1 172.2 0 10 10 0 1 1-19.6-4A68 68 0 0 0 88 20z" fill="#E5EAFF"/>
  <path fill-rule="evenodd" clip-rule="evenodd" d="M88 20a68 68 0 0 0-66.5 82 10 10 0 0 1-19.6 4 88 88 0 0 1 160.3-65.4 10 10 0 0 1-16.8 10.8A68 68 0 0 0 88 20z" fill="#5275FF"/>
  <circle cx="88" cy="68" r="18" fill="#E5EAFF"/>
  <path d="M90 75a1 1 0 0 1-.9-.7l-3.3-9.7-1.9 3.8c-.2.4-.5.6-.9.6h-3v-2h2.4l2.7-5.4c.2-.4.6-.6 1-.6s.7.3.9.7l3.2 9.7 1.9-3.8c.2-.4.5-.6.9-.6h3v2h-2.4l-2.7 5.4c-.2.4-.5.6-.9.6z" fill="#5275FF"/>
</svg>
