<svg xmlns="http://www.w3.org/2000/svg" width="40" height="40" fill="none">
  <path stroke="#505573" stroke-linecap="round" stroke-linejoin="round" stroke-width="1.019" d="m26.22 9.88-.253-.684-.253.684c-.332.898-.498 1.346-.826 1.674-.327.327-.775.493-1.673.825l-.684.253.684.253h0c.898.332 1.346.498 1.674.826.327.326.493.775.825 1.672l.253.684.253-.684c.332-.897.498-1.345.826-1.673.327-.327.775-.493 1.672-.825l.685-.253-.685-.253c-.897-.332-1.345-.498-1.673-.826-.327-.327-.493-.775-.825-1.673Z"/>
  <path stroke="#9FAAC4" stroke-width=".917" d="M23.294 27.661c-.142.83-.313 1.716-.491 2.373l-.082.286c-.265.852-.528 1.38-.906 1.709-.362.315-.9.505-1.856.505-.956 0-1.494-.19-1.857-.505-.33-.288-.573-.728-.806-1.405l-.1-.304c-.206-.67-.408-1.703-.572-2.659h6.67Z"/>
  <path stroke="#9FAAC4" stroke-linecap="round" stroke-width=".917" d="M28.347 16.466c0 2.022-.689 3.525-2.102 5.265-.762.938-2.008 2.487-2.063 3.855-.007.183-.148.343-.331.343h-7.637a.316.316 0 0 1-.308-.262c-.273-1.493-1.053-2.762-2.006-3.936-1.416-1.74-2.095-3.243-2.095-5.265 0-4.366 3.698-7.906 8.267-7.906 1.072 0 2.097.195 3.038.55"/>
</svg>
