<svg xmlns="http://www.w3.org/2000/svg" width="599" height="428" fill="none">
  <defs/>
  <path fill="#EDF8F5" d="M459 390.4c-70.2 30.4-134.8 31.8-242.9 4-4.8-1.2-9.4-2.4-14-4a271.5 271.5 0 01-72.3-32.7c-2.8-1.8-5.6-3.8-8.4-5.8-2.6-1.8-5.2-3.8-7.6-5.8-42.7-33.7-70.2-83.6-70.2-154 0-6.4.2-13 .8-20C52.8 53.6 120.3 33.4 169.2 37.4c49 4 61-40 104.4-33.4 43.5 6.5 60.9 55.5 105.6 83.7 44.8 28.1 104.1 14.6 154.4 78.2 50.3 63.6 7 189.4-74.6 224.6z" opacity="0.8"/>
  <path fill="#DCF6EF" d="M533.4 299.1c11.3 24-35.3 108.3-115.3 109.5-80 1.2-71.8-109.5-246-82.9C-2 352.3-5 262.4 12.3 219.2c17.5-43.3 53.2-48 89.5-59.7 36.3-11.6 85.1-49.6 114.5-49.6 29.4 0 57.6 63.6 180.8 67.4 123.2 3.7 125 97.9 136.3 121.8z"/>
  <path fill="#505573" fill-rule="evenodd" d="M72.7 351.1h308.5v-2H72.7v2zM510 361H90.7v2h107.6v50.4h2V363h12.4v57.2h2V363H510v-2z" clip-rule="evenodd"/>
  <path fill="#E7EAF3" d="M271.2 124.7c.6 8.6-55 7.9-59.8-10-3.4-12.6 1-15.9 4.2-24.8l2.6-15c.7-23-.9-22.8-3.3-31.2-8-27.3 14.5-40.6 15.8-4.2.7 19.2-3.4 34.3-3 49.4.6 15 42.8 27.3 43.5 35.8z"/>
  <path fill="#8AFFCE" d="M263.2 136.4h-91c-3.2 0-5.6-2-5.6-4 0-2.3 2.7-4 5.6-4h90.7c3.2 0 5.6 1.9 5.6 4 .2 2.2-2.2 4-5.3 4z"/>
  <path fill="#505573" fill-rule="evenodd" d="M223.3 3a1 1 0 10-2 0c-1 76.1-1 77.3-.2 89.3l.1 2.5-2.9-1.7a2 2 0 00-2 0l-2.5 1.5V10.1a1 1 0 00-2 0v85.7l-47.8 29c-1.7 1.1-1 3.8 1 3.8h106.2c2 0 2.7-2.7 1-3.8l-49-28.8-.1-3.8c-.8-12-.9-13.1.2-89.2zm-6 91.8l53.9 31.8H165l52.2-31.8z" clip-rule="evenodd"/>
  <path fill="#E7EAF3" d="M544.1 351.3c-14.3 6.7-79.6-1.1-89.8-1.1-10.1 0-38.3 8.3-38.2-8.1 0-16.5 37 8.4 45.2-8.4 8-16.7 29.6-13.6 50-40.6 18.2-24.4 22.5-99.5 67.2-94.4 25.3 2.9 7.1 47.4-5 85-9.3 29.1-15 60.8-29.4 67.6z"/>
  <path fill="#505573" fill-rule="evenodd" d="M442 351v.1h-51.5c-3 0-5.4-2.5-5.4-5.3 0-2.7 2.3-5.3 5.4-5.3h52.9l41.3-122a19 19 0 0117.7-13h.1c1.8 0 81.8-6.4 85 0 3.2 6.7-34.9 139-44.3 144.8-8.7 5.4-87.2 1.5-101.2.7zm-1.6-1.9h-50a3.3 3.3 0 01-3.3-3.3c0-1.7 1.5-3.3 3.4-3.3h52.2l-2.2 6.4v.2zm3.6 0h-1.4l44-130a17 17 0 0115.8-11.5h.1a2.3 2.3 0 00.2 0c.9 0 21.3-1.7 41.8-2.5a392 392 0 0128.5-.3 74.7 74.7 0 0112.3 1.6l.4.2v1.5l-.8 5c-.7 4.2-2 9.9-3.6 16.6a1044.3 1044.3 0 01-28.7 95.8c-2.4 6.6-4.6 12.2-6.5 16.4a48.9 48.9 0 01-4 6.8l-2.1.7-4.2.7c-3.4.4-7.8.7-12.8.8-10.1.4-22.7.2-35 0a1591.2 1591.2 0 01-44-1.8z" clip-rule="evenodd"/>
  <path fill="#D2D6E7" d="M544.8 286a10.3 10.3 0 100-20.4 10.3 10.3 0 000 20.5z"/>
  <path fill="#8AFFCE" d="M238.6 291.1c31.6 14.9 55.7-27.2 52.6-58.1-3-31-17.3-42.7-34.6-26-17.4 16.7-42.7 26-44 39.6-1.1 13.6-5.5 29.7 26 44.5zM338 210c-27.6 37.7-33.2 49.9-18.4 60.4 14.9 10.5 59 0 50.4-32-8.5-31.9-4.2-66-32-28.3zM142.1 210c-27.7 37.7-33.3 49.9-18.4 60.4 14.8 10.5 58.9 0 50.4-32-8.5-31.9-4.3-66-32-28.3z"/>
  <path fill="#505573" fill-rule="evenodd" d="M143.4 295.3V278H92.1v-27.3l39.7-66.3h48V246H192V278h-12.3v17.2h-36.4zm34.3-108.8V248h12.4V276h-12.3v17.2h-32.4V276H94.1v-24.8l38.8-64.8h44.8zm-32.3 27.9L125.3 248h20.1v-33.6zm-2 7.2L128.8 246h14.6v-24.4zm62.5 58a65 65 0 01-12.1-39.6c0-14.8 4-29 12.1-39.6a45.1 45.1 0 0137.2-17.5c16.6 0 29 6.8 37.3 17.5a64.7 64.7 0 0112.1 39.6c0 14.8-4 29-12.1 39.7a45 45 0 01-37.3 17.5 45 45 0 01-37.2-17.5zm46.8-20.4c2.2-4 3.3-10.3 3.3-19.2 0-9-1.1-15.2-3.3-19.1-1-2-2.4-3.3-3.9-4.1-1.5-.9-3.4-1.4-5.7-1.4-2.2 0-4 .5-5.6 1.4-1.5.8-2.8 2.2-3.9 4.1-2.2 4-3.3 10.1-3.3 19 0 9 1.1 15.3 3.3 19.3 1 2 2.4 3.3 4 4.1a11 11 0 005.5 1.4 11 11 0 005.7-1.4c1.5-.8 2.8-2.2 3.9-4.1zm93 36v-17h-51.4v-27.4l39.7-66.3h48V246h12.3V278h-12.4v17.2h-36.3zm34.2-108.7V248h12.4V276h-12.4v17.2h-32.3V276h-51.3v-24.8l38.8-64.8H380zm-32.3 27.9L327.5 248h20.1v-33.6zm-2 7.2L331 246h14.6v-24.4zm-102.5 73.6c-31.8 0-47.3-26.3-47.3-55.2 0-29 15.5-55 47.3-55 31.9 0 47.4 26 47.4 55s-15.5 55.2-47.4 55.2zm0-28.5c10.3 0 15-8.6 15-26.7 0-18-4.7-26.6-15-26.6-10.2 0-14.8 8.5-14.8 26.6 0 18 4.6 26.7 14.8 26.7z" clip-rule="evenodd"/>
</svg>
