<?xml version="1.0" encoding="utf-8"?><svg xmlns="http://www.w3.org/2000/svg" xmlns:xlink="http://www.w3.org/1999/xlink"><symbol viewBox="0 0 16 16" id="0"><path fill-rule="evenodd" d="M7.05 9.7a.5.5 0 1 0 .584-.811 3.25 3.25 0 0 1-.316-5.039l2.125-1.968a3.323 3.323 0 0 1 4.67.16 3.25 3.25 0 0 1-.161 4.62L11.827 8.63a.5.5 0 1 0 .68.733l2.124-1.968a4.25 4.25 0 0 0 .21-6.04 4.323 4.323 0 0 0-6.077-.207L6.639 3.116a4.25 4.25 0 0 0 .41 6.584m1.9-3.4a.5.5 0 0 0-.585.811q.254.183.476.418a3.25 3.25 0 0 1-.16 4.621l-2.125 1.968a3.323 3.323 0 0 1-4.67-.16 3.25 3.25 0 0 1 .161-4.62L4.172 7.37a.5.5 0 1 0-.68-.733L1.369 8.605a4.25 4.25 0 0 0-.21 6.04 4.323 4.323 0 0 0 6.078.207l2.124-1.968A4.25 4.25 0 0 0 8.95 6.3" clip-rule="evenodd"/></symbol></svg>