<?xml version="1.0" encoding="utf-8"?><svg xmlns="http://www.w3.org/2000/svg" xmlns:xlink="http://www.w3.org/1999/xlink"><symbol viewBox="0 0 16 16" id="0"><path fill-rule="evenodd" d="M7.621 1.01c3.906-.171 7.202 2.825 7.373 6.681.17 3.856-2.848 7.13-6.754 7.3-3.546.157-6.591-2.3-7.248-5.64a.5.5 0 1 0-.982.193c.753 3.825 4.234 6.624 8.274 6.447 4.448-.195 7.905-3.927 7.71-8.344S12.025-.183 7.577.011A8.07 8.07 0 0 0 .54 4.787a.5.5 0 1 0 .914.406A7.07 7.07 0 0 1 7.621 1.01" clip-rule="evenodd"/><path fill-rule="evenodd" d="M.5 0a.5.5 0 0 0-.5.5v5.004a.5.5 0 0 0 .5.5h5.005a.5.5 0 1 0 0-1H1V.5A.5.5 0 0 0 .5 0" clip-rule="evenodd"/></symbol></svg>