<svg xmlns="http://www.w3.org/2000/svg" width="15" height="16" fill="none"><path fill="#7A859E" d="M.138 6.735 1.825 1.83C2.205.719 3.31-.002 4.468 0H8.32c.69.002 1.295.293 1.891.58.187.09.691.311.795.36-.01 2.936 0 5.872-.003 8.809-.095.028-.213.06-.305.09-.402.134-1.334.268-1.403.417l-1.447 2.923c-.229.463-.294.983-.358 1.495l-.047.36c-.045.296-.252.567-.492.734-.262.182-.555.232-.866.232-1.478-.186-1.54-2.815-1.198-3.792.263-.447.659-1.036.439-1.754v-.031l-.439-.008c-.183-.003-.558.005-.748 0-1.391-.039-2.894-.206-3.703-1.42a2.59 2.59 0 0 1-.298-2.26m11.87 4.277H14a1 1 0 0 0 1-1.001v-9.01A1 1 0 0 0 14 0h-1.996z"/></svg>