<?xml version="1.0" encoding="utf-8"?><svg xmlns="http://www.w3.org/2000/svg" xmlns:xlink="http://www.w3.org/1999/xlink"><symbol viewBox="0 0 32 26" id="0"><path d="M18.905 19.15a.53.53 0 0 1 .685.257.493.493 0 0 1-.268.658 8.2 8.2 0 0 1-3.188.638 8.2 8.2 0 0 1-3.189-.638.493.493 0 0 1-.267-.658.53.53 0 0 1 .684-.258 7.2 7.2 0 0 0 2.772.554 7.2 7.2 0 0 0 2.771-.554M7 7.824a3.494 3.494 0 0 1 3.499 3.488.514.514 0 0 1-1.03 0A2.467 2.467 0 0 0 7 8.849a2.47 2.47 0 0 0-2.472 2.463.514.514 0 0 1-1.029 0A3.495 3.495 0 0 1 7 7.824m18.002 0a3.494 3.494 0 0 1 3.499 3.488.514.514 0 0 1-1.03 0 2.467 2.467 0 0 0-2.469-2.463 2.47 2.47 0 0 0-2.472 2.463.514.514 0 0 1-1.029 0 3.495 3.495 0 0 1 3.501-3.488"/><path fill-rule="evenodd" d="M15.978 0c4.168 0 7.872 1.594 9.753 4.037a7.001 7.001 0 0 1 3.17 12.777C28.02 22.058 22.516 26 15.998 26S3.976 22.057 3.097 16.811A7 7 0 0 1 6.222 4.042l.033-.046.01-.017.012-.014C8.174 1.565 11.844 0 15.977 0m0 1.063c-3.525 0-6.57 1.207-8.338 2.967a7 7 0 1 1-3.376 13.415c1.184 4.298 5.933 7.591 11.735 7.591s10.547-3.293 11.732-7.59a7 7 0 1 1-3.415-13.413c-1.766-1.76-4.808-2.97-8.339-2.97M6.999 5a6 6 0 1 0 0 12 6 6 0 0 0 0-12m18.002 0a6 6 0 1 0 0 12 6 6 0 0 0 0-12" clip-rule="evenodd"/></symbol></svg>