<svg width="479" height="576" viewBox="0 0 479 576" fill="none" xmlns="http://www.w3.org/2000/svg">
<g opacity="0.12" filter="url(#filter0_f)">
<path d="M-66.3832 366.698C-46.1141 283.818 102.933 241.252 164.836 141.471C226.739 41.6896 395.268 136.529 339.561 274.836C283.854 413.143 207.687 459.715 117.233 472.657C26.7794 485.599 -86.6524 449.577 -66.3832 366.698Z" fill="#72FFFF"/>
</g>
<g opacity="0.1" filter="url(#filter1_f)">
<path d="M141.26 356.692C152.015 312.716 203.006 282.633 258.062 259.84C313.118 237.048 396.529 284.231 374.736 338.339C352.942 392.447 341.277 464.837 293.282 471.704C245.287 478.571 130.506 400.668 141.26 356.692Z" fill="#5275FF"/>
</g>
<defs>
<filter id="filter0_f" x="-168.761" y="0.0766449" width="619.443" height="575.151" filterUnits="userSpaceOnUse" color-interpolation-filters="sRGB">
<feFlood flood-opacity="0" result="BackgroundImageFix"/>
<feBlend mode="normal" in="SourceGraphic" in2="BackgroundImageFix" result="shape"/>
<feGaussianBlur stdDeviation="50" result="effect1_foregroundBlur"/>
</filter>
<filter id="filter1_f" x="40.5535" y="153.965" width="437.734" height="418.165" filterUnits="userSpaceOnUse" color-interpolation-filters="sRGB">
<feFlood flood-opacity="0" result="BackgroundImageFix"/>
<feBlend mode="normal" in="SourceGraphic" in2="BackgroundImageFix" result="shape"/>
<feGaussianBlur stdDeviation="50" result="effect1_foregroundBlur"/>
</filter>
</defs>
</svg>
