<svg width="300" height="206" fill="none" xmlns="http://www.w3.org/2000/svg">
  <g clip-path="url(#clip0)">
    <path d="M44 195a5 5 0 110 2H0v-2h44zm160 48a5 5 0 110 2H82v-2h122zm58-46a5 5 0 110-2h42v2h-42zm0 16a5 5 0 110-2h42v2h-42zm6-114a5 5 0 110 2h-86a5 5 0 110-2h86zM12 51a5 5 0 110 2H0v-2h12zm186 34a5 5 0 110-2h86a5 5 0 110 2h-86zm60-102a5 5 0 11-2 0v-12h2v12zm-64 208a5 5 0 11-2 0v-54a5 5 0 112 0v54zM242-7v58h62v2h-64V-7a5 5 0 112 0zm16 16v26h46v2h-48V9a5 5 0 112 0zm-128 96v74h16v12a5 5 0 11-2 0v-10h-16v-76a5 5 0 112 0zm-6-22a5 5 0 110 2h-10v48H86a5 5 0 110-2h26V83h12zm-6 130a5 5 0 110-2h58v-74a5 5 0 112 0v76h-60zm-16-64a5 5 0 110-2h12v48h10a5 5 0 110 2h-12v-48h-10zM66 255a5 5 0 11-2 0v-10H50v30h-2v-32h18v12zm170-108a5 5 0 110 2h-10v94h48v32h-2v-30h-48v-98h12zm26-30a5 5 0 110-2h12v44a5 5 0 11-2 0v-42h-10zm-64 96a5 5 0 110-2h10v-80h16v-14h-42a5 5 0 110-2h44v18h-16v80h-12zM284 3a5 5 0 110 2h-12v-34h2V3h10zM98 73v44H54a5 5 0 110-2h42V73a5 5 0 112 0zM54 5a5 5 0 110-2h26v-32h2V5H54zm60 4v28H82v64H70a5 5 0 110-2h10V35h32V9a5 5 0 112 0zm-12 44a5 5 0 110-2h26V9a5 5 0 112 0v44h-28zm16-64a5 5 0 110-2h28v44a5 5 0 11-2 0v-42h-26zm102 270a5 5 0 110 2H98v14h-2v-16h124zm22-138v10h16v34h-16v62h48v48h-2v-46h-48v-66h16v-30h-16v-12a5 5 0 112 0zM54-11a5 5 0 110-2h10v-14H48v-2h18v18H54zm112 32a5 5 0 110-2h26v-48h50v2h-48v48h-28zm-48-48a5 5 0 01-9 2l-1-4h2a3 3 0 106 0h62V5h-18V-7a5 5 0 112 0V3h14v-30h-58zm0 96a5 5 0 110-2h19l32-32h39V-7a5 5 0 112 0v44h-40l-32 32h-20zm28 90a5 5 0 11-2 0V83l32-32h48V-7a5 5 0 112 0v60h-50l-30 30v76zm16 32a5 5 0 11-2 0V92l25-25h115a5 5 0 014-4v2a3 3 0 000 6v2a5 5 0 01-4-4H185l-23 23v99zM18 127a5 5 0 11-2 0v-3l48-48V19h32v-48h2v50H66v55l-48 48v3zM50 25v43L2 116v63h26a5 5 0 110 2H0v-65l48-48V25a5 5 0 112 0zM34 41v19L0 94v-2l32-32V41a5 5 0 112 0zM12 3a5 5 0 110 2H9l-9 9v-2l9-9h3zm266 18a5 5 0 110-2h19l7-7v2l-7 7h-19zm-16 160a5 5 0 110-2h26v-71l16-16v2l-14 14v73h-28zM54 213a5 5 0 110-2h10v-23l-23-23H22a5 5 0 110-2h19l25 25v25H54zm150 14a5 5 0 110 2H96v-57l-39-39H38a5 5 0 110-2h19l41 41v55h106zm-150 2a5 5 0 110-2h26v-47l-31-31H22a5 5 0 110-2h27l33 33v49H54zM34 11v1L9 37H0v-2h9l23-23v-41h2v40zM2 271a5 5 0 014 4H4a3 3 0 00-4-2v-46h18v48h-2v-46H2v42zm32-59v63h-2v-62H0v-2h34v1zM17-11H0v-2h16v-16h2v18h-1zm273-2h14v2h-16v-18h2v16zm-32 273v15h-2v-14h-14v14h-2v-16h18v1zM0 63a5 5 0 016 7 5 5 0 01-6 3v-2a3 3 0 100-6v-2zm80 180h2v32h-2v-32zm38 32h-2a3 3 0 00-6 0h-2a5 5 0 0110 0zM6-29a5 5 0 01-6 6v-2a3 3 0 004-4h2zm294 0h2a3 3 0 002 4v2a5 5 0 01-4-6zm4 300v2a3 3 0 00-2 2h-2a5 5 0 014-4zM97 71a3 3 0 100-6 3 3 0 000 6zm0-16a3 3 0 100-6 3 3 0 000 6zm16 16a3 3 0 100-6 3 3 0 000 6zm16 16a3 3 0 100-6 3 3 0 000 6zm0 16a3 3 0 100-6 3 3 0 000 6zm-48 32a3 3 0 100-6 3 3 0 000 6zm16 16a3 3 0 100-6 3 3 0 000 6zm32 48a3 3 0 100-6 3 3 0 000 6zm-16 16a3 3 0 100-6 3 3 0 000 6zm32-16a3 3 0 100-6 3 3 0 000 6zm0-32a3 3 0 100-6 3 3 0 000 6zm16 32a3 3 0 100-6 3 3 0 000 6zm32 16a3 3 0 100-6 3 3 0 000 6zm0-16a3 3 0 100-6 3 3 0 000 6zm-16-64a3 3 0 100-6 3 3 0 000 6zm16 0a3 3 0 100-6 3 3 0 000 6zm16 96a3 3 0 100-6 3 3 0 000 6zm0 16a3 3 0 100-6 3 3 0 000 6zm16 16a3 3 0 100-6 3 3 0 000 6zm16-144a3 3 0 100-6 3 3 0 000 6zm0 32a3 3 0 100-6 3 3 0 000 6zm16-32a3 3 0 100-6 3 3 0 000 6zm16-16a3 3 0 100-6 3 3 0 000 6zm-96 0a3 3 0 100-6 3 3 0 000 6zm0 16a3 3 0 100-6 3 3 0 000 6zm16-32a3 3 0 100-6 3 3 0 000 6zm96 0a3 3 0 100-6 3 3 0 000 6zm-16-64a3 3 0 100-6 3 3 0 000 6zm16-16a3 3 0 100-6 3 3 0 000 6zm-32 0a3 3 0 100-6 3 3 0 000 6zm0-16a3 3 0 100-6 3 3 0 000 6zm-16 0a3 3 0 100-6 3 3 0 000 6zm-16 0a3 3 0 100-6 3 3 0 000 6zm-16 0a3 3 0 100-6 3 3 0 000 6zM49 7a3 3 0 100-6 3 3 0 000 6zM17 7a3 3 0 100-6 3 3 0 000 6zm32 16a3 3 0 100-6 3 3 0 000 6zM33 39a3 3 0 100-6 3 3 0 000 6zM49-9a3 3 0 100-6 3 3 0 000 6zm0 240a3 3 0 100-6 3 3 0 000 6zm16 32a3 3 0 100-6 3 3 0 000 6zm-16-64a3 3 0 100-6 3 3 0 000 6zm0 16a3 3 0 100-6 3 3 0 000 6zm-16-32a3 3 0 100-6 3 3 0 000 6zM113 7a3 3 0 100-6 3 3 0 000 6zm16 0a3 3 0 100-6 3 3 0 000 6zM113-9a3 3 0 100-6 3 3 0 000 6zm32 48a3 3 0 100-6 3 3 0 000 6zm16-16a3 3 0 100-6 3 3 0 000 6zm0-32a3 3 0 100-6 3 3 0 000 6zm112 176a3 3 0 100-6 3 3 0 000 6zm-16 16a3 3 0 100-6 3 3 0 000 6zm0 16a3 3 0 100-6 3 3 0 000 6zm0 16a3 3 0 100-6 3 3 0 000 6zM17 151a3 3 0 100-6 3 3 0 000 6zm0 16a3 3 0 100-6 3 3 0 000 6zm0-32a3 3 0 100-6 3 3 0 000 6zm16 0a3 3 0 100-6 3 3 0 000 6zM17 55a3 3 0 100-6 3 3 0 000 6zm32 64a3 3 0 100-6 3 3 0 000 6zm16-16a3 3 0 100-6 3 3 0 000 6z" fill="#505573"/>
  </g>
  <path fill="url(#paint0_linear)" d="M0 0h299v206H0z"/>
  <defs>
    <linearGradient id="paint0_linear" x1="0" y1="103" x2="299" y2="103" gradientUnits="userSpaceOnUse">
      <stop stop-color="#2F354D"/>
      <stop offset="1" stop-color="#2F354D" stop-opacity="0"/>
    </linearGradient>
    <clipPath id="clip0">
      <path fill="#fff" d="M0 0h300v206H0z"/>
    </clipPath>
  </defs>
</svg>
