<svg width="1440" height="731" fill="none" xmlns="http://www.w3.org/2000/svg">
  <path d="M1356.9 334.5c2.8 83-98.4 171.7-174.2 200.8-75.7 29-181 5.9-185.2-70-4.3-75.8 141.3-1.7 200.7-120.8 59.3-119.1 155.9-92.9 158.7-10z" fill="#5275FF" opacity=".1" filter="url(#filter0_f)"/>
  <path d="M646.7 536.5c-36.1 58-92.3 155-168 68.9-75.8-86.2-132.7-170-85.5-225.9 47.2-56 118.6-36.5 167.3-16.6 48.6 20 122.3 115.7 86.2 173.6z" fill="#72FFFF" opacity=".1" filter="url(#filter1_f)"/>
  <path d="M535 582.2c-21.6 34.5-55 92.5-100.3 41-45.2-51.4-79-101.3-51-134.7 28.2-33.3 70.8-21.7 99.8-9.9 29 12 73 69 51.5 103.6z" fill="#5275FF" opacity=".1" filter="url(#filter2_f)"/>
  <path d="M1251.8 345c1.3 40-47.4 82.7-83.9 96.7-36.5 14-87.2 2.8-89.2-33.7s68-.8 96.7-58.2c28.5-57.4 75-44.7 76.4-4.8z" fill="#72FFFF" opacity=".3" filter="url(#filter3_f)"/>
  <path d="M1010.8 183.2c-12.3 50.1-95.8 50-133.3 110.5-37.5 60.4-136.8-14.3-112-76 25-61.8 79.4-90.8 134.1-98.7 54.8-7.8 123.5 14 111.2 64.2z" fill="#72FFFF" opacity=".1" filter="url(#filter4_f)"/>
  <path d="M1018.3 251.7c-6.5 26.6-50.8 26.6-70.7 58.6-20 32-72.6-7.6-59.4-40.3 13.2-32.8 42-48.2 71.1-52.3 29-4.2 65.5 7.4 59 34z" fill="#5275FF" opacity=".3" filter="url(#filter5_f)"/>
  <path d="M230 220.7c39.2 35.8 78.6 102.6 35.4 116.6-43.3 14-67.5-81.3-153.7-53-86.2 28.2-67.1-87.9-32-117 35.3-29 111.3 17.6 150.4 53.4z" fill="#5275FF" opacity=".1" filter="url(#filter6_f)"/>
  <path d="M194.7 296.9c24 24.8 46 73.5 15.8 87.3-30.3 13.8-40-58-100.4-30.1-60.3 27.8-39.3-63-13.4-87.9 25.8-24.8 74 5.8 98 30.7z" fill="#72FFFF" opacity=".2" filter="url(#filter7_f)"/>
  <path d="M578.6 519.8h1.9c31.2.2 62.2 6.4 88.4 12.4 11.2 2.6 23.1 4.9 34.6 7 19.4 3.7 39.5 7.5 58.2 13.3 14.2 4.3 28 10.7 41.2 16.9 15 6.9 30.4 14 46.2 18.2 19.9 5.2 40.8 9.5 61 13.8a3488.4 3488.4 0 0 1 40.9 8.9c16 3.7 32.6 7.4 48.8 10.2 11.7 2 23.2.7 35.3-.7 10-1.2 20.5-2.4 31.1-1.5a645 645 0 0 0 81 2.3c16.3-.2 33.1-.3 49.3-2.4 10.7-1.3 21 .1 31 1.5a90.3 90.3 0 0 0 33.4.7c12.3-2.9 24.4-7.7 36.2-12.4 8.5-3.4 17.4-6.9 26.4-9.7 13.1-4 26-10 38.5-15.7 8.4-3.9 17-7.9 25.7-11.3 13-5 24.4-12.9 36.5-21.1 9.6-6.6 19.5-13.4 30.2-18.6 2-1 4.3-.1 5.2 1.8 1 1.9.1 4.2-1.8 5.1-10.2 5-19.9 11.6-29.3 18-12 8.2-24.2 16.6-38 22-8.5 3.3-17 7.3-25.3 11-12.7 6-25.8 12-39.5 16.2-8.7 2.7-17.4 6.1-25.8 9.5-12 4.8-24.5 9.7-37.3 12.7-12.5 2.8-24.5 1.1-36.2-.5a107 107 0 0 0-29-1.5c-16.5 2.1-33.6 2.3-50.2 2.5l-14.8.1c-19.8.4-41.7-.4-66.8-2.5-9.9-.8-19.5.3-29.6 1.5-12.2 1.4-24.7 2.8-37.5.6-16.4-2.7-33.1-6.6-49.3-10.2a1885.4 1885.4 0 0 0-40.7-9c-20.3-4.2-41.3-8.6-61.3-13.8-16.5-4.4-32.2-11.7-47.5-18.7-13-6-26.6-12.3-40.3-16.5-18.3-5.6-38.1-9.4-57.3-13a864.6 864.6 0 0 1-35-7.1c-25.7-6-56.2-12.1-86.7-12.3a303 303 0 0 0-71 7.4c-5.4 1.3-11 2.5-16.4 3.6-15 3.2-30.4 6.4-44.4 12.5-16.3 7.1-32.4 15.8-47.9 24.3l-5.7 3.1-21.6 12a876 876 0 0 1-29.9 16.6c-11.5 6-24 9.1-36.2 12.1a140.7 140.7 0 0 0-39.4 14.2c-11.6 6-23.6 12-38 12.6-6.4.3-12.6.7-18.7 1.2-17.2 1.2-33.4 2.4-51.1-.5-20.8-3.5-40.7-14.3-60-24.7-9.2-5-17.8-9.7-26.6-13.6-27.1-12.3-52.5-29.7-77-46.6-8.8-6-18-12.3-27-18.2a3.9 3.9 0 0 1-1-5.4 3.9 3.9 0 0 1 5.3-1.1c9 6 18.3 12.2 27.1 18.4 24.2 16.6 49.3 33.8 75.8 45.8 9 4.1 18.2 9 27 13.9 18.8 10.1 38.2 20.6 57.6 23.8 16.8 2.8 32.6 1.7 49.4.5 6-.5 12.4-1 18.9-1.2 12.7-.5 23.4-6 34.8-11.8a149 149 0 0 1 21.9-9.6c6.3-2 12.8-3.6 19.1-5.2 11.8-2.9 23.9-5.9 34.6-11.4a901 901 0 0 0 29.6-16.4l21.7-12.2 5.8-3c15.6-8.6 31.8-17.4 48.4-24.7 14.7-6.4 30.6-9.7 46-13 5.3-1 10.8-2.2 16.2-3.4a308 308 0 0 1 70.9-7.7z" fill="#fff"/>
  <path d="M569.8 481.5c23 0 46.4 5.6 69 11l16.1 3.9c19.3 4.3 38.3 10.8 56.7 17a809 809 0 0 0 38.6 12.4l39.5 11.5c15.2 4.5 31 9 46 13.3 12.5 3.5 25.6 3.6 39.4 3.6 11.2 0 22.8.2 34.1 2.2 12.3 2.3 24.5 6 36.2 9.6 13.4 4.1 27.2 8.3 41 10.4 13.7 2 27.8 2 41.5 2.1 9 .1 18.3.1 27.4.7l21.1 1.7c15.6 1.3 31.7 2.7 47.3 2.5 12.7-.2 25.7-2.3 38.2-4.3 8.7-1.4 17.8-2.9 26.8-3.7 12.5-1.1 24.7-5.1 36.5-9 9-2.9 18.1-5.9 27.5-7.7 10.9-2.1 21.6-1.3 32-.5 12.1 1 23.6 1.8 35.2-1.7 22.7-7 45-14 66.2-22.1 9-3.5 18.3-6.6 27.3-9.6a395 395 0 0 0 41-15.3 3.9 3.9 0 0 1 3.3 7c-13.7 6.3-28 11-41.9 15.7-9 3-18.1 6-27 9.4-21.5 8.3-43.8 15.2-66.7 22.3-13 4-25.7 3-38 2-10.3-.8-20-1.5-30 .4a225 225 0 0 0-26.5 7.5c-12.2 4-24.8 8-38.2 9.3-8.8.8-17.7 2.2-26.3 3.6-12.8 2-26 4.2-39.3 4.4-16 .2-32.3-1.2-48-2.5l-21-1.7c-8.9-.5-18-.6-27-.7-13.9 0-28.3-.1-42.4-2.2a286.6 286.6 0 0 1-42.2-10.6c-11.6-3.5-23.5-7.2-35.4-9.4-10.6-2-21.8-2-32.7-2-13.8-.1-28-.2-41.6-4-15-4.2-30.8-8.8-46-13.3L748 533.2c-13.1-3.7-26.2-8.1-39-12.5-18.1-6.1-37-12.5-55.8-16.8l-16.3-3.8c-22.8-5.5-46.5-11.2-69.2-10.8-21.1.3-43 3-68.9 8.3a266.6 266.6 0 0 0-49.7 17.3l-8.7 3.7c-8.2 3.4-16.8 5.8-25.2 8.2-10.2 2.8-20.7 5.7-30.1 10.5a121.1 121.1 0 0 0-22.9 16.4c-8 6.8-16.1 13.7-26.2 18.4a418.5 418.5 0 0 1-53.7 20.6c-13.2 4.1-26.6 3.2-39.5 2.3-7.7-.5-14.9-1-22-.5-23.5 1.5-46.7.1-68.9-4-7.7-1.4-15.4-2.6-23-3.7a246.8 246.8 0 0 1-58.6-13.7c-31.5-13-62-32.1-91.6-50.7l-9.3-5.9a3.9 3.9 0 1 1 4.1-6.5l9.3 5.8c29.3 18.4 59.6 37.5 90.5 50.1a236.9 236.9 0 0 0 56.8 13.2c7.6 1.2 15.4 2.3 23.2 3.8a273 273 0 0 0 67 3.9c7.6-.5 15.4 0 23 .5 12.8.8 24.9 1.7 36.7-2 20-6.3 37.3-13 52.7-20.2 9.1-4.3 16.6-10.6 24.6-17.3 7.4-6.3 15.1-12.8 24.3-17.4 10.1-5.2 21-8.2 31.6-11.2 8-2.2 16.5-4.6 24.2-7.8l8.7-3.7c16.3-6.9 33.3-14 51.2-17.8 26.4-5.4 48.7-8 70.3-8.4h2.2z" fill="#fff"/>
  <path d="M607 447.6c6.8 0 13.8.5 21 2.1 17.2 3.9 34 9.6 50.4 15.2a529 529 0 0 0 44.3 13.7 418.6 418.6 0 0 1 48.6 16.4 407 407 0 0 0 43.6 14.9c12 3 24.5 2.2 37.7 1.3 11.4-.8 23.2-1.6 34.8.3 13.2 2.2 26.2 6.7 38.8 11 14 4.8 28.4 9.7 42.8 11.3 13.4 1.5 27.6 1.5 41.4 1.6 9.6 0 19.6 0 29.4.6 9.9.5 20 1.7 29.7 2.8 13.7 1.6 28 3.3 42 3.1 14.6 0 29.5-2 43.8-3.9a522 522 0 0 1 50.3-4.4c14-.6 28.2-1.2 41.8-3.6 12.4-2.2 24.6-6.9 36.3-11.4 9.8-3.8 20-7.7 30.4-10.3 28.1-6.9 50-13.2 69.1-20 11-3.8 22.5-5.6 33.7-7.3 12.5-2 25.5-4 37.5-9a3.9 3.9 0 0 1 3 7.1c-12.9 5.4-26.3 7.5-39.3 9.5-11.3 1.8-22 3.5-32.3 7a732.9 732.9 0 0 1-69.8 20.2c-10 2.5-20 6.3-29.5 10-12.1 4.7-24.6 9.5-37.8 11.8-14 2.5-28.7 3.1-42.7 3.7-8.7.4-17.7.8-26.3 1.6-7.8.8-15.7 1.8-23.4 2.8a376 376 0 0 1-44.8 4c-14.5.1-29-1.6-43-3.2-9.5-1.2-19.5-2.3-29.2-2.8-9.5-.6-19.4-.6-29-.6-14 0-28.4-.1-42.2-1.6-15.2-1.7-30-6.8-44.4-11.7-12.3-4.2-25-8.6-37.6-10.7a145 145 0 0 0-33-.2c-13.3.9-27 1.8-40.1-1.6a419.6 419.6 0 0 1-44.4-15.1c-15.6-6-31.6-12-47.8-16-15.3-3.8-30.4-9-45-14-16-5.5-32.7-11.2-49.5-15-15-3.3-29-1.8-44-.2-9.6 1-19.5 2.1-29.7 1.8a299 299 0 0 0-67.8 5.4c-18 3.5-35.4 10.5-52.3 17.2l-4.9 2c-8.3 3.3-17.1 5.4-25.6 7.4a144.4 144.4 0 0 0-29.4 9.1c-8.2 4-15.2 9.5-22.7 15.5a124.1 124.1 0 0 1-25.2 16.8 69.1 69.1 0 0 1-32.2 4.3c-8.5-.3-16.5-.5-24.4 1.8l-1 .3c-18.1 5.3-37 10.8-56.4 11.7-21.4 1-44-.9-67.1-5.6-22-4.4-50.8-11-79-22.6a755 755 0 0 1-95.4-45.7 3.9 3.9 0 1 1 3.9-6.6 745.2 745.2 0 0 0 94.5 45.1 418.8 418.8 0 0 0 77.6 22.3 267 267 0 0 0 65.1 5.4c18.6-.8 37-6.2 54.7-11.4l1-.3c9-2.7 18-2.4 26.8-2.2 10 .4 19.6.6 28.7-3.5 8.6-4 16-9.7 23.6-15.9 7.5-5.9 15.2-12 24.2-16.3 10-4.8 20.6-7.3 30.9-9.8 8.2-2 16.7-4 24.6-7l4.9-2c17.2-6.8 35-14 53.6-17.6 22.2-4.5 46.3-6.4 69.6-5.5 9.6.3 19.3-.7 28.6-1.7 8.3-1 16.8-1.8 25.5-1.8z" fill="#fff"/>
  <path d="M488 408.1c7.8 0 15.5.4 23.2.7 5.7.3 11.6.6 17.3.7 7.6.1 15.3-.2 22.8-.4 16.3-.6 33.1-1.3 50.3 2.4 17.9 3.8 34.8 10.9 51.2 17.8 15.3 6.4 31.2 13 47.6 16.8 14.5 3.4 29.2 7.6 43.4 11.6 15.5 4.5 31.5 9 47 12.4 12.8 2.8 26.7 3.3 40 3.8 12.5.4 25.3.9 37.5 3.2 12.7 2.3 25.7 1.5 39.3.7a211 211 0 0 1 34.1-.2c15.2 1.6 29.5 7 43.4 12.3 14 5.2 27 10.2 40.5 11.3 11 1 21.3-3.5 32.4-8.3 10.3-4.5 21-9.2 33-9.4 11.9-.4 23.8 1.3 35.3 2.8 13 1.7 26.5 3.5 39.7 2.6 14.9-1.1 30-4.4 44.4-7.5 8.4-1.8 17.1-3.7 25.6-5.2 11.9-2 23.8-1 35.5 0 12.5 1 25.4 2.2 38-.6 26.3-6 52-13.5 71.5-19.3 8.5-2.6 17.1-5 25.5-7.4 15.8-4.4 32.2-9 47.9-14.7 2-.7 4.2.3 5 2.3.7 2-.3 4.3-2.3 5-16 5.8-32.5 10.4-48.5 14.9-8.4 2.3-17 4.7-25.4 7.3-19.5 5.9-45.4 13.4-72 19.4-13.7 3-27.3 2-40.4.8-11.6-1-22.6-1.9-33.5 0a525 525 0 0 0-25.2 5 323 323 0 0 1-45.6 7.7c-14 1-27.8-.8-41.2-2.6-11.7-1.6-22.8-3-34.2-2.8-10.4.2-20 4.4-30 8.8-11.5 5-23.3 10-36.2 9-14.5-1.3-28.7-6.7-42.5-11.9-13.5-5-27.4-10.3-41.5-11.8-10.8-1-22-.4-32.8.2-13.6.9-27.6 1.7-41.2-.8a249.8 249.8 0 0 0-36.4-3c-13.7-.5-28-1-41.4-4-15.8-3.5-31.9-8-47.5-12.5-14-4-28.7-8.2-43-11.5a307 307 0 0 1-48.9-17.3c-16-6.7-32.6-13.7-49.8-17.4-16.2-3.4-31.8-2.8-48.4-2.2a401.7 401.7 0 0 1-40.7-.3c-16.6-.7-33.6-1.5-49.7 1.5-14.2 2.7-28.1 8-41.6 13l-13 5c-20 7.2-36.2 13.6-51 20.3-13.6 6.1-20.2 8.2-27.2 10.4-5.9 1.8-12 3.7-23.2 8.3-9.6 4-15.2 7-20 9.6-7.7 4-13.7 7.3-29.8 11.7-15.1 4.1-31 4.5-46.3 4.9-3.6 0-7.3.1-10.9.3-8.5.3-16 3.4-23.8 6.6-11 4.6-22.5 9.3-37 5.9-17.6-4.2-34.3-13.5-50.5-22.4-9.1-5-18.6-10.3-27.8-14.3-11.2-5-22.5-9.2-33.6-13.4-18.6-7-37.9-14.4-56.5-24.7a3.9 3.9 0 0 1 3.8-6.8c18 10.1 37 17.3 55.5 24.2A696 696 0 0 1 62 470.1c9.5 4.2 19.1 9.5 28.4 14.7 15.7 8.7 32 17.7 48.6 21.6 12 2.9 21.8-1.2 32.2-5.4 8.1-3.4 16.6-6.8 26.5-7.2l11-.4c14.9-.3 30.2-.7 44.4-4.6 15.3-4.1 20.7-7 28.2-11 5-2.7 10.7-5.8 20.7-9.9 11.5-4.8 17.8-6.7 24-8.6 6.7-2.1 13-4 26.1-10 15.1-6.8 31.5-13.4 51.7-20.6a651 651 0 0 0 12.8-4.8c13.8-5.3 28-10.7 43-13.5 9.4-1.8 18.8-2.3 28.3-2.3z" fill="#fff"/>
  <path d="M450 368.2c9.8 0 19.5 1.5 29 2.9 8.8 1.3 18 2.6 26.7 2.7h18c17-.3 34.6-.5 52 2.5 16 2.8 32.3 7.7 48 12.5 14.1 4.3 28.7 8.7 43.2 11.6 16 3.2 32.7 5.8 48.8 8.2 12.7 2 26 4 38.7 6.3 15.8 2.9 32.5 4.4 48.5 5.8 11.3 1 23 2 34.3 3.6 15.5 2.1 30.5 7.2 45 12.1 15.2 5.2 29.5 10 44.3 11.7 12.7 1.4 25.5-.2 39.1-2 11.2-1.4 22.9-3 34.3-2.5 12.6.4 25.3 2.5 37.5 4.6 13.8 2.4 28.1 4.8 42.2 4.7 21.7-.2 45.5-.8 75-2.1 12.6-.6 24.4-5 36.9-9.8 11-4 22.3-8.4 34.3-10 30-3.7 53.8-7.5 75-11.8 12.1-2.4 24.5-3.2 36.6-4 13.3-.8 27-1.6 40.1-4.8 14.3-3.4 28.2-9.5 41.8-15.4 11.3-4.9 23-10 35.1-13.7a3.9 3.9 0 0 1 2.3 7.4c-11.7 3.6-23.2 8.6-34.3 13.4-13.8 6-28.1 12.3-43 15.9-13.7 3.3-27.9 4.1-41.5 5-11.8.7-24 1.5-35.5 3.8-21.5 4.4-45.5 8.2-75.6 12-11.1 1.4-22 5.5-32.5 9.5-12.6 4.7-25.5 9.6-39.3 10.2-29.6 1.3-53.6 2-75.3 2.1a254 254 0 0 1-43.6-4.8c-12-2-24.3-4-36.4-4.5-10.9-.4-22.2 1-33.1 2.5-13.5 1.7-27.4 3.5-40.9 2-15.6-1.8-31-7-46-12a234.2 234.2 0 0 0-43.5-11.8 802.3 802.3 0 0 0-34-3.6c-16.2-1.4-33-3-49.1-5.9-12.7-2.3-25.9-4.3-38.6-6.2-16.1-2.5-32.9-5-49-8.3-15-3-29.7-7.5-44-11.8a394.5 394.5 0 0 0-47-12.3c-16.8-2.9-33.3-2.7-50.7-2.4h-18.1c-9.4 0-18.8-1.4-27.9-2.8-13.7-2-26.7-4-39.7-1.9a75.5 75.5 0 0 0-27.3 12.3c-6.7 4.1-13.7 8.4-21.5 11-8.1 2.9-16.5 4.1-24.7 5.4-9.8 1.5-19 2.9-27.8 6.6-8.2 3.6-13.3 10.1-18.7 17-6 7.5-12 15.4-22.7 19.6L290 451a254.6 254.6 0 0 1-44.5 14.5 70 70 0 0 1-34.5-2c-8.2-1.8-15.8-3.6-23.8-3.2l-11.7.8c-16 1-32.6 2.2-49-1a336.4 336.4 0 0 1-61.8-20.7l-11-4.5a555 555 0 0 0-31.5-11.2c-17.6-5.8-35.8-11.9-53.5-21.3a3.9 3.9 0 0 1 3.6-6.8c17.1 9.1 35 15 52.3 20.8 10.5 3.5 21.3 7 32 11.4l11 4.5c19.5 8 39.6 16.2 60.3 20.2 15.5 3.1 31.5 2 47 .9l11.8-.8a91 91 0 0 1 26 3.4c10.5 2.5 20.4 4.8 30.8 2 23.3-6 24.8-6.6 43.6-14.1l5.4-2.2c8.7-3.5 14-10.2 19.4-17.3a56 56 0 0 1 21.8-19.3c9.6-4.1 19.8-5.7 29.7-7.2 8.2-1.2 15.9-2.4 23.3-5 7-2.4 13.3-6.2 20-10.3a82.8 82.8 0 0 1 30.1-13.3c4.5-.7 8.9-1 13.3-1z" fill="#fff"/>
  <path d="M441 333c7 0 14.2.5 21.2.8 6.1.4 12.5.7 18.6.8 6.9 0 14-.3 20.9-.7 14.6-.7 29.8-1.5 44.9 1.6 16 3.4 31.3 9.5 46.2 15.3 16 6.3 32.3 12.7 49.3 15.8a2603.7 2603.7 0 0 1 92 17.2c12.5 2.6 25.1.3 38.5-2.2 12.3-2.2 25-4.5 38-3 15.7 2 30.9 7 45.6 11.8a214.6 214.6 0 0 0 46.5 11.5c13.8 1.3 28.6.2 42.9-.9 11.5-.8 23.4-1.7 35-1.4a231 231 0 0 1 40.7 6c14 3 28.5 6 43 6h.3c18 0 36.5-1.1 54.4-2.3 7.6-.4 15.2-1 22.7-1.3 14.6-.8 29.5-3 43.9-5 10.8-1.7 22-3.3 32.9-4.3 13.5-1.3 26.4-5.7 40.1-10.3 11.6-4 23.6-8.1 36-10 24.9-4 50-9.7 74.3-15.3l4.7-1c12.7-3 25.8-3.8 38.4-4.7 14-1 28.6-2 42.4-5.7 2-.5 4.2.7 4.8 2.8.5 2-.7 4.2-2.8 4.7-14.5 4-29.5 5-43.9 6a237 237 0 0 0-37.2 4.4l-4.7 1c-24.4 5.7-49.7 11.4-74.8 15.4a211.4 211.4 0 0 0-34.7 9.7 184.6 184.6 0 0 1-41.9 10.7c-10.7 1-21.8 2.6-32.5 4.2a488.1 488.1 0 0 1-44.6 5.1l-22.6 1.4c-18 1.1-36.6 2.3-55 2.3h-.3c-15.3 0-30.1-3.1-44.5-6.2-13-2.7-26.3-5.5-39.5-5.8-11.1-.3-22.8.5-34 1.4-14.7 1-29.8 2.2-44.3.8a223.7 223.7 0 0 1-48.2-11.9 238.2 238.2 0 0 0-44-11.4c-12-1.4-24 .8-35.7 3-13.5 2.4-27.5 5-41.6 2-21.9-4.5-46-8.8-69.2-13l-22.5-4c-17.7-3.3-34.5-10-50.7-16.3a288 288 0 0 0-45-14.9c-14.1-3-28.8-2.2-43-1.5-7 .4-14.2.7-21.3.7-6.3 0-12.7-.4-18.9-.8-14-.7-28.6-1.5-42.4 1-14.2 2.5-19.1 6.2-24.7 10.5-5 3.8-10.6 8-22.4 12-13.4 4.4-18.8 7.5-25 11-5 3-10.6 6.2-21.3 10.5a48.1 48.1 0 0 1-28.2 3.3c-6.6-.8-12.8-1.6-23.2 2.3-13.9 5.1-20.4 5.9-27.9 6.7-5.3.7-11.2 1.4-21.2 3.8-8.4 2-13.6 3.7-18.2 5.3-8.4 2.8-14.5 4.9-32.5 5.7-22 1-41.2.2-58.5-2.8-19.5-3.3-38.3-10.5-56.5-17.5l-11.9-4.5-11-4a606 606 0 0 1-68.5-28.6 3.9 3.9 0 0 1 3.5-7c22.2 11.4 44.3 19.6 67.7 28.3l11 4 12 4.6c17.8 6.8 36.2 14 55 17.1 16.7 2.9 35.3 3.7 56.8 2.7a89.3 89.3 0 0 0 30.4-5.4 200.5 200.5 0 0 1 41-9.3 93 93 0 0 0 26.1-6.4c12.2-4.5 20-3.5 26.9-2.6 6.8.8 13.2 1.7 24.3-2.8a141 141 0 0 0 20.4-10.1c6.3-3.6 12.2-7 26.3-11.7 10.6-3.5 15.5-7.2 20.1-10.8 6.2-4.7 12-9.1 28-12 7.7-1.3 15.4-1.7 23-1.7z" fill="#fff"/>
  <path d="M505.8 293.3c4.6 0 9.3.4 14 1.4 14 2.8 28 7.4 41.5 11.9a315.1 315.1 0 0 0 48.8 13.3c14.4 2.3 28.9 5.5 43 8.5 17.1 3.8 34.8 7.7 52.3 9.9 15.1 2 30.8 2.8 46 3.7 13.5.8 27.5 1.6 41 3.2 14.3 1.6 29.4 1.7 44 1.7 13.4.1 27.2.2 40.4 1.4 13 1.2 26.1 3.7 38.9 6.1 16 3 32.7 6.2 48.8 6.7 14.4.5 29.2 2.1 43.5 3.6 13.6 1.4 27.6 3 41 3.4 13 .6 25.3-4.7 38.2-10.3 11.8-5 24-10.3 37.3-11.1 13.7-.9 27.5.9 40.8 2.6 14.2 1.9 28.8 3.8 43 2.4l29.5-2.5c17.2-1.4 35-2.8 52-4.9 15-1.8 30-7.2 44.4-12.4 11.9-4.2 24.1-8.6 36.4-11.1 13.8-2.8 27.8-2 41.3-1.3 14 .7 28.5 1.5 42.5-1.8a3.9 3.9 0 1 1 1.8 7.5 155.8 155.8 0 0 1-44.8 2c-13.6-.7-26.4-1.4-39.2 1.2-11.8 2.4-23.8 6.7-35.3 10.8-14.9 5.4-30.3 10.9-46.1 12.8-17.2 2.1-35 3.6-52.3 5-9.7.7-19.7 1.5-29.4 2.4-15.1 1.5-30.2-.5-44.7-2.4-13-1.6-26.4-3.4-39.4-2.6-12 .8-23.6 5.7-34.7 10.5-13.1 5.7-26.7 11.6-41.6 11-13.6-.5-27.7-2-41.5-3.5-14.1-1.5-28.8-3-43-3.5-16.7-.5-33.6-3.8-50-6.8-12.5-2.4-25.5-4.9-38-6-13-1.3-26.6-1.3-39.8-1.4-14.8 0-30.1-.2-44.8-1.8-13.3-1.5-27.2-2.4-40.7-3.2-15.3-.8-31-1.8-46.4-3.7-17.8-2.3-35.7-6.2-53-10-14-3-28.4-6.2-42.6-8.4-17.3-2.8-34-8.3-50-13.6-14-4.6-27-9-40.5-11.7-11.6-2.3-22.8-.8-34.7.9-8 1.1-16.3 2.3-24.8 2.1-17.8-.3-38-.6-57 2.7-24 4-26 4.7-44.3 10.3l-5.5 1.7c-13.7 4.2-18.9 6.6-25.5 9.7-4.8 2.2-10.3 4.7-20 8.3a83.4 83.4 0 0 0-20.4 10.6c-5.3 3.6-10.8 7.3-22.7 11.5a55.5 55.5 0 0 1-27 3.4c-5.8-.5-11.8-1-22.2 1.4-9.2 2-14.5 4.2-19.1 6.1-7.3 3-13.5 5.5-29.7 6.3-16.5.8-33-1.8-49-4.4l-8-1.3c-14.7-2.2-28-8.8-40.8-15.2-8.1-4.1-16.5-8.3-25-11.2-9.4-3.2-18.9-5.7-28-8.2-15.2-4.2-30.9-8.4-46.4-15.6-2-.9-2.8-3.2-2-5.2 1-1.9 3.3-2.7 5.2-1.8 15 7 29.7 10.9 45.2 15.1 9.3 2.5 18.9 5.1 28.5 8.4 9 3 17.6 7.4 26 11.5a132.8 132.8 0 0 0 46.6 15.9c15.5 2.5 31.6 5 47.3 4.3 15-.8 20.4-3 27.2-5.8 4.9-2 10.5-4.2 20.3-6.5 11.5-2.6 18.4-2 24.5-1.5 6.7.5 12.5 1 23.8-3 11-3.9 15.9-7.1 21-10.6a91.6 91.6 0 0 1 22-11.4c9.4-3.6 14.7-6 19.4-8.2a175 175 0 0 1 26.5-10l5.5-1.7c18.7-5.7 20.7-6.3 45.2-10.5a320 320 0 0 1 58.5-2.8c7.9.2 15.9-1 23.6-2 7.6-1.2 15.3-2.3 23.2-2.3z" fill="#fff"/>
  <path d="M437.3 251.7c14.9 0 29.5 3 43.7 6 6.8 1.4 13.8 2.8 20.6 3.9 13.8 2.1 27.7 5 41.2 7.8 14 2.9 28.4 5.8 42.7 8a3033 3033 0 0 0 94.5 13c16.6 2 33.3 5.8 49.5 9.5a485 485 0 0 0 45.4 8.7c13.6 1.8 27.4-.9 41.8-3.6 13.3-2.5 26.9-5.2 40.8-4.3 16.1 1 31.8 5.6 46.9 10 15.5 4.6 30.1 9 45 9.6 13.5.7 26.8-2.3 40.9-5.5 13-2.9 26.5-5.9 40.3-5.9h.2c34.3 0 60.4-.4 84.5-1.4a691 691 0 0 1 37-.2c15.7.2 32 .4 47.7-.9 12.7-1 25.7-1.5 38.3-2 15.3-.5 31-1 46.2-2.6 14.9-1.5 30-5.8 44.4-9.8a325 325 0 0 1 39.5-9.4c21.1-3.1 42.6-7.3 63.3-11.3l22.7-4.4a3.9 3.9 0 1 1 1.4 7.6l-22.6 4.3c-20.8 4.1-42.3 8.3-63.6 11.5-13 2-26 5.6-38.5 9a274.9 274.9 0 0 1-45.8 10.2c-15.5 1.5-31.3 2.1-46.7 2.7-12.5.5-25.4 1-38 2a529.5 529.5 0 0 1-48.5.8c-12-.1-24.4-.3-36.4.2a1942 1942 0 0 1-85 1.4c-13 0-26 3-38.7 5.8-14 3-28.4 6.3-42.9 5.6-15.9-.7-31.6-5.4-46.9-9.8-14.7-4.4-29.9-8.8-45.2-9.8-12.9-.8-26 1.7-38.8 4.2a142.1 142.1 0 0 1-44.3 3.7c-15.1-2-30.9-5.5-46.1-8.9-16-3.6-32.5-7.3-48.7-9.3a3054 3054 0 0 1-94.7-13c-14.5-2.3-29-5.3-43.2-8.2-13.3-2.7-27.1-5.6-40.8-7.7-7-1-14.1-2.6-21-4-13.8-2.8-28-5.7-42.1-5.7h-.3a65 65 0 0 0-28.5 4.9c-5.3 2-11.3 4.4-22.5 6.1a109.4 109.4 0 0 0-27.7 7.4c-4.8 1.8-10.3 4-19.6 6.6a50.6 50.6 0 0 1-26.5 1c-6.4-1.3-12-2.3-22.2 1-9.9 3.4-13.6 8.3-18 14a40.7 40.7 0 0 1-21.8 16.3 41 41 0 0 1-26.7.4 41 41 0 0 0-21.8-1c-9.2 2-14.4 4-19 5.8-7 2.8-13 5.2-28.4 6-10 .5-15.4 2.3-20.6 4.1-7.4 2.6-14.4 5-31.8 2.5a225.1 225.1 0 0 1-45.2-13c-5.7-2-11.6-4.2-17.4-6a480.5 480.5 0 0 1-71.5-29 3.9 3.9 0 1 1 3.6-6.8C-8.7 290 13.6 299 41.7 308.2c6 2 11.8 4.1 17.6 6.2a219.3 219.3 0 0 0 43.6 12.6c15.6 2.2 21.2.3 28.3-2.2a72 72 0 0 1 22.7-4.6 66.5 66.5 0 0 0 26-5.3c4.9-2 10.4-4.2 20.2-6.2 11.9-2.5 19-.6 25.4 1 6.4 1.7 11.9 3.2 22.3-.2 10-3.2 13.7-8 18-13.8a41.2 41.2 0 0 1 21.8-16.4c12-4 19.2-2.7 26-1.4a43 43 0 0 0 23-.8c9-2.6 14.2-4.6 18.9-6.4 7.4-3 13.3-5.2 29.3-7.8 10.3-1.6 15.7-3.7 21-5.7a72 72 0 0 1 31.2-5.5h.3z" fill="#fff"/>
  <path d="M381.2 214.3c7.7 0 15.2 1.2 22.5 2.3 7.8 1.2 15.2 2.4 22.7 2.2 16.3-.3 32.8 2.2 48.8 4.5l11.7 1.7c14.7 2 29.4 5.7 43.7 9.3 13.1 3.3 26.6 6.7 40 8.8 15.8 2.4 32.2 1.8 48 1.3 14.4-.5 29.3-1 44 .7 13.5 1.6 27.4 4.4 40.8 7.1a379 379 0 0 0 53.3 8.2c15 .8 30.4-.5 45.4-1.8 13.8-1.2 28.1-2.5 42.2-2a192 192 0 0 1 47.8 9.6c15.2 4.4 29.6 8.6 44.3 9.2 14 .5 28-2 42.8-4.5 13.6-2.4 27.8-4.9 42-4.8 21.4 0 43.3-.4 64.4-.8l22-.4c16.2-.3 32.8-2.6 48.9-4.8 12-1.7 24.5-3.4 36.6-4.3 14.3-1 28.9-.2 43 .7 14.5.8 29.5 1.7 44 .5 16.3-1.4 33-4.8 49-8.1 12.3-2.5 25-5.1 37.4-6.8 11.5-1.6 23.3-3 34.8-4.5 17.4-2.1 35.5-4.4 53-7a3.8 3.8 0 1 1 1.2 7.6c-17.7 2.7-35.8 5-53.3 7l-34.7 4.5c-12.1 1.7-24.7 4.3-36.8 6.7a425.4 425.4 0 0 1-49.9 8.3c-15 1.2-30.4.3-45.2-.5-13.8-.9-28.1-1.7-41.9-.7-12 .8-24.2 2.5-36.2 4.2a422 422 0 0 1-49.7 4.9l-22 .4c-21.2.4-43.1 1-64.6.8h-.5c-13.4 0-27 2.4-40.2 4.7a215.3 215.3 0 0 1-44.4 4.6c-15.7-.6-31.2-5-46.1-9.5-15-4.3-30.5-8.8-46-9.3-13.6-.4-27.7.8-41.3 2-15.2 1.3-31 2.7-46.4 1.8-18.2-1-36.7-4.7-54.5-8.3-13.2-2.7-27-5.4-40.2-7-14-1.6-28.7-1.1-42.8-.7-16.2.6-33 1.2-49.4-1.4-13.7-2-27.5-5.5-40.8-8.9-14-3.6-28.6-7.2-42.8-9.2-3.9-.5-7.8-1-11.8-1.7-15.7-2.2-31.9-4.6-47.6-4.3-8 0-16.1-1.1-23.9-2.4-10.2-1.5-19.9-3-29.7-1.6a44.8 44.8 0 0 0-23 9.4c-5.2 3.7-11 7.8-22.4 10.7-11.7 3-18.3 2.8-24 2.7-6-.1-11.3-.2-22 3-11.7 3.4-17.3 4.2-23.4 5-5.2.7-10.6 1.4-20.9 4.2-9.3 2.5-14.5 4.6-19 6.4-6.4 2.6-12 4.8-25.3 7.3-9.5 1.8-14.5 4-19.4 6.2a64.2 64.2 0 0 1-27.2 6.3c-11.6.6-22.1-3-32.3-6.4-7.3-2.6-14.2-5-21.5-5.8-8-1-15.5.5-23.4 2a64.2 64.2 0 0 1-33.9.2l-1.5-.5C12 266-10.5 258.8-32.2 249.5c-2-.9-3-3.1-2-5.1.8-2 3-2.9 5-2 21.5 9.1 43.7 16.5 65.3 23.6l1.4.4c10.3 3.4 19.9 1.6 30-.4 8.2-1.5 16.7-3.2 25.9-2 8 1 15.7 3.5 23 6 10 3.4 19.3 6.6 29.4 6.1 13.1-.6 18.4-3 24.5-5.7 5-2.2 10.7-4.7 21-6.7 12.6-2.3 17.8-4.4 23.9-6.8 4.8-2 10.2-4.1 19.9-6.8 10.7-3 16.4-3.7 21.9-4.4 5.7-.8 11.1-1.5 22.3-4.8a68 68 0 0 1 24.2-3.3c5.5.2 11.2.3 22-2.4 10-2.6 14.7-6 19.7-9.5 6-4.3 12.3-8.7 26.4-10.8 3.3-.4 6.5-.6 9.6-.6z" fill="#fff"/>
  <path d="M379.6 179.1a60 60 0 0 1 17.4 2.7c6 1.7 12.3 3.4 24.6 3.2 18.4-.1 36.8 2.2 54.7 4.5l3.6.5 73.7 9.2 6.3.7c15.8 2 31.9.4 47.5-1.2 15.2-1.4 30.9-3 46.4-1.4 14.4 1.5 29 4.4 43.2 7.1 16.4 3.2 33.5 6.5 50 7.7 15.4 1 31.3.3 46.7-.3 14.3-.6 29.2-1.3 43.7-.5 19.1 1 39.1 1 58.5 1 10 .1 20.6.1 30.8.3 15.9.2 30.7 5 45 9.6 15 4.8 29.3 9.5 44.6 9.1l31.9-.7c18.3-.4 37.3-.9 55.6-1.1 15-.3 29.8-3.8 44.2-7.2 13.8-3.2 28-6.6 42.5-7.1 14-.6 28.3 1.4 42 3.4 15.1 2.2 30.7 4.4 45.7 3.1 14.4-1.3 28.7-6 42.5-10.5 14.5-4.8 29.5-9.8 45.1-11 29.3-2.5 60-6 88.7-9.5 2.1-.3 4 1.3 4.3 3.4.3 2.1-1.3 4-3.4 4.3-28.8 3.5-59.6 7-89 9.5-14.7 1.2-29.2 6-43.3 10.6-14.2 4.7-29 9.5-44.2 11-15.9 1.3-32-1-47.4-3.2-13.5-2-27.3-4-40.7-3.4-13.7.5-27 3.7-41 7-14.8 3.4-30.1 7-45.8 7.3l-55.6 1.1-32 .7a146 146 0 0 1-47-9.5c-13.9-4.4-28.1-9-42.8-9.2l-30.7-.2c-19.4 0-39.5 0-58.9-1-14.1-.8-28.8-.2-43 .4-15.6.7-31.7 1.4-47.5.3-17-1.2-34.3-4.5-51-7.8-14-2.7-28.4-5.5-42.4-7-14.8-1.5-30.1 0-45 1.4-16 1.6-32.5 3.2-49 1.2l-6.4-.8-73.8-9.1-3.6-.5c-17.6-2.3-35.8-4.6-53.6-4.4-13.4 0-20.4-1.8-26.7-3.5-7-1.9-12.4-3.3-24.8-1.8-13.9 1.7-19.7 3.7-26.5 6-5.1 1.7-11 3.7-21 5.8l-13.8 3a589 589 0 0 0-31.3 7.2c-10.7 2.7-16 5-21.3 7.1-5.5 2.3-11.3 4.7-22.9 7.5a261 261 0 0 1-29.6 5.8l-15.7 2.4c-9.7 1.6-14.9 3.6-19.9 5.6-6.6 2.5-12.9 5-27.2 5.6h-.9a226.5 226.5 0 0 1-50.8-1.6c-12.6-1.3-23.4-7-33.8-12.3-8.1-4.2-15.8-8.2-24.2-10.3-8.6-2.1-17-1.6-26-1-12.1.7-24.7 1.5-37.8-5-2-.9-2.7-3.2-1.8-5 1-2 3.2-2.8 5.2-1.9 11.3 5.5 22.3 4.9 34 4.1 9-.5 18.5-1.1 28.3 1.3 9.3 2.3 17.7 6.7 25.8 11a87.7 87.7 0 0 0 31.1 11.4c26.1 2.7 26.1 2.7 49.7 1.7h.9a65 65 0 0 0 24.7-5.2c5.2-2 11-4.3 21.5-6l15.8-2.5c9.1-1.3 13.7-2 29-5.6 11-2.7 16.2-4.8 21.7-7.1s11.1-4.6 22.3-7.5c16.8-4.2 20.8-5 31.7-7.3l13.7-3c9.6-2 15-3.8 20.2-5.5 7.1-2.5 13.3-4.5 28-6.4 4-.4 7.3-.7 10.3-.7z" fill="#fff"/>
  <path d="M394 142c3.5 0 6.6.1 10.1.3 5.5.3 11.7.6 22.5.5 13-.2 26.2 1.4 38.8 3 5.8.8 11.8 1.5 17.7 2 13.7 1.4 27.5 4.6 40.8 7.7 12 2.9 24.3 5.8 36.4 7.2 16.1 1.9 32.8 1.1 49 .4 15.1-.7 30.7-1.4 46.2 0 16.7 1.6 34 1.6 50.7 1.7 13.7 0 27.8.1 41.6 1 14.6.9 29.3 3.3 43.5 5.8 15.2 2.5 30.9 5.2 46.2 5.9 14.8.6 30-1.4 44.7-3.3 14.8-1.9 30.2-3.9 45.4-3.3 26.2 1 55.9 1.4 88.1 1.4h.3c14.9 0 29.1 3.9 42.8 7.6 14.9 4 28.9 8 43.8 7.3l38.7-2.1c16.2-1 32.9-2 49-2.6a208 208 0 0 0 42.8-7.5 211 211 0 0 1 45.3-7.9c12.8-.4 25.8-.1 38.4.1 16.2.3 33 .7 49.2-.3 15.4-1 31-4 46.2-6.7a454 454 0 0 1 42.4-6.4 3.9 3.9 0 1 1 .7 7.7c-14 1.2-28 3.8-41.8 6.3-15.3 2.8-31.2 5.8-47 6.8-16.5 1-33.5.7-49.8.4a782 782 0 0 0-38.1-.2c-14.9.5-29.5 4.1-43.7 7.7-14.3 3.6-29 7.2-44.3 7.8-16 .5-32.7 1.5-48.8 2.5-12.8.8-26 1.5-38.9 2.1-16 .7-31.3-3.5-46.1-7.5-13.3-3.6-27-7.4-40.8-7.4h-.2c-32.5.1-62.2-.4-88.5-1.3-14.6-.6-29.6 1.3-44 3.2-15.1 2-30.7 4-46.2 3.3-15.7-.7-31.7-3.4-47-6-14-2.4-28.6-4.8-42.8-5.7-13.6-.9-27.6-.9-41.2-1-16.9 0-34.4 0-51.4-1.7-14.9-1.3-30.3-.6-45.1 0-16.5.8-33.5 1.5-50.2-.4-12.6-1.5-25.1-4.5-37.3-7.3a301 301 0 0 0-39.8-7.5c-6-.6-12-1.4-17.9-2.1-12.4-1.6-25.2-3.2-37.7-3-11.1.2-17.7-.2-23-.5-7.8-.4-13.4-.7-28 .8-14 1.5-20.2 3.2-27.4 5.2-5.5 1.5-11.7 3.3-22 5-12.2 2.2-18 4.6-24.3 7-5.8 2.4-11.9 4.9-23.1 7.2a441.7 441.7 0 0 0-21.6 5c-6.2 1.6-12 3.1-24.2 5.5a45 45 0 0 1-25-1c-5.4-1.6-10.5-3-21.2-1.7-9.4 1.2-15 2.4-20 3.5-7.7 1.6-13.7 2.9-29 3.5-8.9.4-14.5 1-19.5 1.5-8.7.9-15 1.5-32.3.3-12-1-22.7-5.2-33.1-9.4-8-3.1-15.5-6.2-23.5-7.7a85.5 85.5 0 0 0-25.4 0c-11.7 1.2-23.8 2.4-36.7-2.8-2-.8-2.9-3-2.1-5 .8-2 3-3 5-2.2 11 4.5 21.7 3.4 33 2.3 8.9-.8 18-1.8 27.6.1 8.7 1.7 17 5 25 8.2 10.3 4 20 8 30.7 8.7 16.6 1.3 22.7.6 31-.2 5-.5 10.8-1.1 20-1.5 14.6-.6 20.3-1.8 27.7-3.4 5-1 10.8-2.3 20.5-3.5 12.4-1.7 18.8.2 24.4 1.8 5.6 1.7 10.5 3 21.3 1 12.1-2.4 17.8-3.9 23.8-5.4 5.5-1.4 11.2-2.8 22-5.1 10.5-2.2 16.2-4.5 21.8-6.8 6.3-2.5 12.8-5.2 25.8-7.4 10-1.8 15.7-3.4 21.2-5 7.2-2 14-3.8 28.7-5.4a177 177 0 0 1 19.1-1.2z" fill="#fff"/>
  <path d="M400.7 105c8.1 0 12.6 1.3 17.2 2.5a70.6 70.6 0 0 0 23.3 2.7c12.4-.3 24.8 1.4 36.8 3 6.2.8 12.5 1.6 18.7 2.1 13.6 1.2 28.7-.5 43.2-2.1 13.3-1.6 27.1-3.2 40.1-2.5 16.6.8 34 2.2 50.7 3.6 13.1 1.1 26.7 2.3 39.9 3l35.5 2.3c18 1 36 2.2 53.8 3.3 14.6 1 29.4 2.9 43.7 4.7 14 1.8 28.6 3.7 42.9 4.6a561 561 0 0 1 39.1 4.5c15.4 2 31.4 4.3 47 4.8 15.3.4 30.5-3.4 45.2-7.2 14.7-3.7 30-7.6 45.7-7.2 10.5.2 21.4.6 32 1 17.6.6 35.9 1.4 53.7 1.2 29.3-.2 58.7-1 86.1-1.6 11.5-.3 23.2-.4 34.6-.5 17-.1 34.4-.2 51.4-1.1 14.3-.7 28.9 0 43 .7 14.2.7 28.9 1.4 43.2.6a244 244 0 0 0 42.5-7.5c14.5-3.5 29.4-7 45-7.8 2 0 3.9 1.5 4 3.7 0 2-1.6 4-3.7 4-14.8.7-29.4 4.2-43.5 7.6-14.2 3.4-28.8 6.9-43.9 7.7-14.7.8-29.6.1-44-.6-14-.7-28.3-1.4-42.2-.7-17.1 1-34.7 1-51.8 1.1-11.3.1-23 .2-34.4.5-27.5.7-57 1.4-86.3 1.7-18 0-36.3-.6-54-1.3-10.5-.4-21.4-.8-32-1-14.6-.3-28.7 3.3-43.5 7-15.2 4-30.9 8-47.4 7.4-16-.5-32.2-2.7-47.8-4.9A554.2 554.2 0 0 0 846 140c-14.6-1-29.2-3-43.4-4.7-14.2-1.8-28.8-3.7-43.2-4.7a17786.7 17786.7 0 0 0-89.3-5.5c-13.3-.8-27-2-40.1-3-16.7-1.5-34-3-50.4-3.7-12.3-.6-25.8 1-38.9 2.4-14.9 1.7-30.3 3.5-44.7 2.2-6.4-.5-12.8-1.4-19-2.2-11.8-1.5-24-3.1-35.7-3-13.7.3-20-1.4-25.5-2.8a57.1 57.1 0 0 0-23.5-1.8c-10.3.8-19.4 4.6-29.2 8.6a116 116 0 0 1-27.6 8.8c-13.6 2-19.2-1.3-24.2-4.2-4.4-2.6-8.2-4.8-19.4-3.3-9.1 1.3-17.1 5.2-25.6 9.3a94.7 94.7 0 0 1-27.1 9.9 582 582 0 0 1-38.4 4.9l-10.8 1.1a58 58 0 0 1-26.7-2.5c-5.7-1.7-11.5-3.5-23.2-3.2-8.3.2-15.9 2.6-24 5.1-9.4 3-19.2 6-30.2 5.3a633.7 633.7 0 0 1-56.7-6.5C17 144.6 6 139.7-4.6 135c-8.8-4-17.9-8-27.4-10.2a3.9 3.9 0 1 1 1.7-7.5c10.3 2.3 19.8 6.5 28.9 10.6 10.6 4.8 20.6 9.2 31.8 11 19.8 3.1 38.6 5.3 56 6.4 9.6.6 18.3-2 27.5-5a94.3 94.3 0 0 1 26-5.4c13-.3 19.7 1.7 25.6 3.5 6.3 1.9 11.6 3.5 23.8 2.2l10.8-1.1c14.5-1.5 18-1.9 38-4.9a87.5 87.5 0 0 0 24.9-9.2 93.5 93.5 0 0 1 28-10c13.7-1.9 19.3 1.4 24.3 4.3 4.4 2.6 8.2 4.8 19.1 3.2 9-1.3 17.2-4.7 25.8-8.3 9.9-4 20-8.2 31.5-9.2l9-.3z" fill="#fff"/>
  <path d="M483.7 64c14.7 0 20 2 25.5 4a68 68 0 0 0 24.2 4.4c14.5.7 29.5.6 44 .4 11.4 0 23.3-.1 35 .2 14.3.4 28.4 3.2 42.1 6 12.4 2.5 25.3 5.1 38 5.8 15.5.8 31.3-.3 46.7-1.3 14.6-1 29.7-2.1 44.6-1.5 12.6.5 25.4 1.6 38 2.7 14.8 1.3 30.2 2.7 45.1 3a433 433 0 0 1 40.5 3.3c13.8 1.6 28 3.2 41.8 3.4 14.3.1 28.9 1.5 43 2.9 13.1 1.2 26.7 2.5 39.8 2.8 14.7.3 30-1.8 44.6-3.8 13.8-1.9 28.1-3.8 42.4-3.9 22.6 0 45.7-.8 68.1-1.4l15.9-.5c14.3-.3 28.8.8 42.8 1.9 13.2 1 26.9 2 40 1.8 14.5-.3 29.2-3 43.4-5.6 13.6-2.5 27.6-5.1 41.8-5.7 16.6-.7 33.5-1.7 49.8-2.8a3069 3069 0 0 1 34.3-2 3.9 3.9 0 1 1 .4 7.7l-34.2 2c-16.4 1-33.3 2.1-50 2.8a289 289 0 0 0-40.7 5.6c-14.6 2.7-29.6 5.5-44.6 5.7-13.6.3-27.4-.8-40.8-1.8-13.8-1-28.2-2.2-42-1.8l-15.9.4c-22.4.7-45.6 1.3-68.3 1.4-13.8 0-27.8 2-41.4 3.9-15 2-30.4 4.1-45.8 3.8-13.4-.2-27.1-1.6-40.4-2.8-13.9-1.4-28.3-2.8-42.3-3-14.2 0-28.6-1.7-42.6-3.3-13-1.5-26.6-3-39.7-3.3-15.2-.3-30.8-1.7-45.8-3-12.4-1-25.1-2.2-37.5-2.7-14.5-.6-29.4.4-43.8 1.4-15.6 1.1-31.7 2.2-47.6 1.4-13.3-.7-26.5-3.4-39.2-6-13.3-2.6-27.2-5.4-40.8-5.8-11.5-.3-23.3-.2-34.7-.1A776 776 0 0 1 533 80c-15.3-.8-21.3-3-26.5-4.9-5.3-2-9.8-3.5-24.2-3.5-11.3.1-22.7 1.8-33.7 3.4-9.4 1.3-19 2.7-28.7 3.2-11.2.6-22.5 1.9-33.5 3.1-7.5.9-15.3 1.8-23 2.4-10.6 1-20.2 4.2-30.4 7.7-9.5 3.3-19.3 6.6-29.8 7.8-13.8 1.6-20 1.7-26.7 1.8-6 0-12.2.2-24.7 1.4-14.4 1.5-20.4-1.5-26.2-4.3-5.3-2.6-10.2-5-22.7-4.3-9.5.6-18 3.7-27 7.1a93.7 93.7 0 0 1-31 7.7c-20.3.5-38.7.5-56.2 0a76 76 0 0 1-31.4-10 73.9 73.9 0 0 0-26.5-9c-7.2-.5-14.7-.8-22-1-13.3-.5-27-1-40.6-3.4a3.9 3.9 0 1 1 1.3-7.6c13 2.3 26.6 2.8 39.7 3.3 7.3.2 14.8.5 22.2 1.1 11 .9 20.3 5.4 29.3 9.7 9.2 4.5 18 8.8 28.3 9.1 17.3.5 35.5.6 55.6 0 10-.2 19-3.6 28.5-7.1 9.2-3.4 18.7-7 29.3-7.6 14.6-.9 21 2.3 26.6 5 5.3 2.6 9.8 4.9 22 3.7 12.9-1.3 19.2-1.4 25.4-1.5 6.4-.1 12.5-.2 25.9-1.7 9.6-1.2 18.6-4.2 28.2-7.5 10.2-3.5 20.8-7.1 32.2-8 7.6-.7 15.4-1.6 22.9-2.5a569 569 0 0 1 33.9-3.1c9.3-.5 18.8-1.9 28-3.2 11.2-1.6 22.9-3.3 34.7-3.4h1.5z" fill="#fff"/>
  <defs>
    <filter id="filter0_f" x="887.6" y="172.1" width="585.4" height="480.9" filterUnits="userSpaceOnUse" color-interpolation-filters="sRGB">
      <feFlood flood-opacity="0" result="BackgroundImageFix"/>
      <feBlend in="SourceGraphic" in2="BackgroundImageFix" result="shape"/>
      <feGaussianBlur stdDeviation="40" result="effect1_foregroundBlur"/>
    </filter>
    <filter id="filter1_f" x="290.1" y="250" width="455.9" height="480.4" filterUnits="userSpaceOnUse" color-interpolation-filters="sRGB">
      <feFlood flood-opacity="0" result="BackgroundImageFix"/>
      <feBlend in="SourceGraphic" in2="BackgroundImageFix" result="shape"/>
      <feGaussianBlur stdDeviation="40" result="effect1_foregroundBlur"/>
    </filter>
    <filter id="filter2_f" x="290" y="379" width="336.5" height="351.1" filterUnits="userSpaceOnUse" color-interpolation-filters="sRGB">
      <feFlood flood-opacity="0" result="BackgroundImageFix"/>
      <feBlend in="SourceGraphic" in2="BackgroundImageFix" result="shape"/>
      <feGaussianBlur stdDeviation="40" result="effect1_foregroundBlur"/>
    </filter>
    <filter id="filter3_f" x="984.3" y="225.3" width="364.9" height="314.6" filterUnits="userSpaceOnUse" color-interpolation-filters="sRGB">
      <feFlood flood-opacity="0" result="BackgroundImageFix"/>
      <feBlend in="SourceGraphic" in2="BackgroundImageFix" result="shape"/>
      <feGaussianBlur stdDeviation="40" result="effect1_foregroundBlur"/>
    </filter>
    <filter id="filter4_f" x="653" y="0" width="469" height="416.9" filterUnits="userSpaceOnUse" color-interpolation-filters="sRGB">
      <feFlood flood-opacity="0" result="BackgroundImageFix"/>
      <feBlend in="SourceGraphic" in2="BackgroundImageFix" result="shape"/>
      <feGaussianBlur stdDeviation="40" result="effect1_foregroundBlur"/>
    </filter>
    <filter id="filter5_f" x="790.9" y="116.9" width="324" height="296.3" filterUnits="userSpaceOnUse" color-interpolation-filters="sRGB">
      <feFlood flood-opacity="0" result="BackgroundImageFix"/>
      <feBlend in="SourceGraphic" in2="BackgroundImageFix" result="shape"/>
      <feGaussianBlur stdDeviation="40" result="effect1_foregroundBlur"/>
    </filter>
    <filter id="filter6_f" x="-55" y="56" width="452.7" height="405.7" filterUnits="userSpaceOnUse" color-interpolation-filters="sRGB">
      <feFlood flood-opacity="0" result="BackgroundImageFix"/>
      <feBlend in="SourceGraphic" in2="BackgroundImageFix" result="shape"/>
      <feGaussianBlur stdDeviation="40" result="effect1_foregroundBlur"/>
    </filter>
    <filter id="filter7_f" x="-27" y="161.3" width="358.5" height="338.1" filterUnits="userSpaceOnUse" color-interpolation-filters="sRGB">
      <feFlood flood-opacity="0" result="BackgroundImageFix"/>
      <feBlend in="SourceGraphic" in2="BackgroundImageFix" result="shape"/>
      <feGaussianBlur stdDeviation="40" result="effect1_foregroundBlur"/>
    </filter>
  </defs>
</svg>
