<svg width="573" height="204" fill="none" xmlns="http://www.w3.org/2000/svg">
  <path d="M33.5 131L255 151l-21 21L1 151l32.5-20z" fill="#fff"/>
  <path d="M234 171.8L1 151M254.7 151l-71.3-6.3-149.8-13.4" stroke="#181B2B" stroke-width="2" stroke-linecap="round" stroke-linejoin="round"/>
  <path d="M142.5 17.6c2.2-7.1-1.7-12-5.6-14.8-4-2.9-11.8-3.8-19.2-1.5-7.5 2.4-12.2 12.1-12.2 12.1S97.7 7.2 91 13 85 25.5 80 26c-5 .5-13.1-2.3-16.5-12.1-3.4-9.9-.1 12.8 5.7 20.4 5.8 7.5 8 9.6 17.7 12.8 9.8 3.2 12.9.1 22.5-1.5a34.6 34.6 0 0 0 16.7-8.9s-1.2-2.8-2.4-9.2c-1.3-6.5-2.7-11 4-14.4 6.9-3.4 12.6 11.6 14.7 4.6z" fill="#181B2B"/>
  <path d="M141 14.2c1.5 2.7 1.9 20.4-1.2 22.7-3.1 2.3-3 1.8-3 1.8V46l11.3 2s-2.3 13-7.8 15c-5.5 1.9-9.3 3.6-16.8.3-7.6-3.2-5.8-16.3-5.8-16.3l10.3-1v-7.7s-4.6-6.3-4.5-14.4c0-8.1 4.5-10.8 4.5-10.8s9 .4 13 1z" fill="#fff"/>
  <path d="M152.3 50c1.4 1.3 6 4.2 9.2 7 3.3 2.9 6 6.5 6 6.5L174 73l13.5-12.5 9.5-9 6.2-1.1s1.5-.8 3.3-1.4c2.3-.8 3.6-2.4 5-2.5 2.5-.2.5 2.5.5 2.5l-2 2.5-2 6-1 2-3.8 2H196s-1 1.8-3.5 5.5c-2 3-2.7 7-5 9.7-5 5.8-4.4 5.6-7 6.8-2.6 1.2-6.6 3.3-12.7.4a30.7 30.7 0 0 1-8.7-7.2c-2-2.3-4.6-4.2-4.6-4.2s.4.5-1.5 7c-1.3 4.3-3.3 9.9-3.5 11.5-.1 1.2-.6 4.9-.5 7 0 1.9 1.5 9 1.5 9s30.6 17.5 32.5 30c2.1 14.4-1.2 14.3-3 15.5a22 22 0 0 1-10.4 2.4c-8.2.3-19.1-1.7-19.1-1.7L147 155l-5.5 3.5L121 170l-12.5 11-6 6.5v11s-1.9 5-4.2 4c-2.3-1-3-6.8-3-6.8l-.5-7.8 1.4-4.5 2.9-2.4 12.3-18.3 5.2-8.5 7.7-6.7-12-12.6s-3.4-8.4-1.8-17c1.6-8.6 5.6-23.3 5.6-23.3L114.3 76l-3.5-9.3-1-17.7 18.3-2.7s21.2.9 24.2 3.6z" fill="#fff"/>
  <path d="M110.9 67.3S96.7 69.8 90 66c-3-1.7-4.5-5.2-4-9.5.5-7.4 5.6-12.5 5.6-12.5s20.9-22.7 27.4-28c6.5-5.3 14.3-1.7 22-1.8 5.5.8 5 3.3 5 3.3l-21 1-4 3.5-9.5 13.5-6 12 11.8-.5-6.4 20.3zM114.5 137.7l-3.9-.5-2.3 2.9-2.2 3.3-6.8 2.7-2.5 2.6 1.5 2 6.3-.5 8.1-.3 7.5 1.1 3.2-3-9-10.3z" fill="#fff"/>
  <path d="M103.5 33.5l-5.1 9.8s-4 7-5.7 12.2C90.9 60.7 93 67 93 67s-3.3-1.3-5.1-3.2c-1.8-2-4-7.3 0-14.3 7.1-9.5 15.6-16 15.6-16z" fill="#E7EAF3"/>
  <path d="M103 193s1 5-3 5.4c-2 .1-3.1-4.4-3.1-4.4s-1-4.5-.9-5.6c0-.8 0-2 .4-3.3l1.1-4.1-4.5 4.5 1 11 2 5 4.3 1.8.7-.8 2.7-5.4-.7-4.1zM114.5 138.1s-1.3 2.2-4 4.3c-2.6 2.2-5.4 2.7-6.6 4.3-1.2 1.6-1.2 3.3-1.2 3.3l-4.4-.3-3.3-2.2 4-2.5 8-3.5 3.4-4.3 4.1 1z" fill="#181B2B"/>
  <path d="M217 51.3s2.6 1 3.4 1.5c.7.5 1.7 1.9 1.7 1.9l-.3.6-3.3-1.1-4.4-2 2.5 2.6 1 1.5-3.7-1.7-2.6-1.7 2.8-.8M210 52.3l18-6.1-16-5.6-40.4-13 10.4 9.2-14.2 7.6 18.7.5 10.4 7.4H210z" fill="#fff"/>
  <path d="M230 46.5l-43.4-1 10.7 6.8 16.5-4.6-2.9 4.6 19.1-5.8zM127.8 46.4L110.3 52s-3.8 3.7-2 7.6c1.8 4 4 9.2 7.5 14.5C119.2 79.6 128 81 128 81s-4.5 9 .6 14.4c5.2 5.4-3.3 2.8-3.3 2.8l-9.6-4.2-1.9-18.2-2.8-7.9-11.3.2 2.7-5.8-.4-6.4 4.4-8.1 21.4-1.3z" fill="#E7EAF3"/>
  <path d="M145.1 98.7c.4 0 2 6 2 6M139.2 100.7v5M127 99.5l-1 6M119.5 96.7l-1 6M146.1 101.7l-3 1" stroke="#181B2B" stroke-width="2" stroke-linecap="round" stroke-linejoin="round"/>
  <path d="M150.6 102.8l-8.8 3.5-8.8.3-9.1-1.5-10.4-5.6-3.5 14-.5 11 3 11 11 11-8.5 7.5-5.5 9 3 5.5 6.5 3 24-13 4-3 3.5-3 4 1 17.9 1.1 9-1.7 2.6-4.4.6-7.7-2.5-8-10.4-12-16-10.7-3.9-2.2-1.2-5.1zM151.8 81.5c0-1.8-1.6-3.3-3.6-3.3s-3.6 1.5-3.6 3.3c0 1.8 1.6 3.3 3.6 3.3s3.6-1.5 3.6-3.3zM141.5 86.3c0-1.8-1.6-3.3-3.6-3.3s-3.6 1.5-3.6 3.3c0 1.9 1.6 3.3 3.6 3.3s3.6-1.4 3.6-3.3zM130.8 90.4c0-1.8-1.6-3.3-3.5-3.3-2 0-3.6 1.5-3.6 3.3 0 1.8 1.6 3.3 3.6 3.3s3.5-1.5 3.5-3.3zM121.2 93c0-1.9-1.6-3.4-3.6-3.4s-2-.3-2 1.5c0 1.9.2 3.2 1.8 4.1 1.8 1 3.8-.5 3.8-2.3zM148.6 94.3c0-1.8-1.6-3.2-3.5-3.2-2 0-3.6 1.4-3.6 3.2 0 1.9 1.6 3.3 3.6 3.3s3.5-1.4 3.5-3.3zM136.9 99.1c0-1.8-1.6-3.3-3.6-3.3s-3.6 1.5-3.6 3.3c0 1.8 4.6 1 4.6 1s2.6.8 2.6-1zM145 74.4c0-1.8-1.5-3.3-3.5-3.3s-3.6 1.5-3.6 3.3c0 1.9 1.6 3.3 3.6 3.3s3.6-1.4 3.6-3.3zM159.5 59.7c0-1.8-1.6-3.3-3.6-3.3s-3.6 1.5-3.6 3.3c0 1.9 1.6 3.3 3.6 3.3s3.6-1.4 3.6-3.3zM141 65.5c0-1.9-.7-2.2-2.6-2.2-2 0-4.5.3-4.5 2.2 0 1.8 1.6 3.3 3.5 3.3 2 0 3.6-1.5 3.6-3.3zM128.2 69.8c0-1.9-1.6-3.3-3.6-3.3s-3.6 1.4-3.6 3.3c0 1.8 1.6 3.3 3.6 3.3s3.6-1.5 3.6-3.3zM153 68.3c0-1.8-1.5-3.3-3.5-3.3s-3.6 1.5-3.6 3.3c0 1.8 1.6 3.3 3.6 3.3s3.6-1.5 3.6-3.3zM123.1 83c0-1.8-1.6-3.3-3.6-3.3S116 81.2 116 83c0 1.9 1.7 3.3 3.6 3.3 2 0 3.6-1.4 3.6-3.3zM165.7 70.7c0-1.8-1.6-3.3-3.6-3.3s-3.6 1.5-3.6 3.3c0 1.8 1.6 3.3 3.6 3.3s3.6-1.5 3.6-3.3zM134.6 78.2c0-1.8-1.6-3.3-3.6-3.3s-3.6 1.5-3.6 3.3c0 1.8 1.6 3.3 3.6 3.3s3.6-1.5 3.6-3.3zM122 61.2c0-1.9-1.6-3.3-3.6-3.3s-3.5 1.4-3.5 3.3c0 1.8 1.6 3.3 3.5 3.3 2 0 3.6-1.5 3.6-3.3zM119.3 72.7c0-2.2-1.6-4-3.6-4s-4 2.2-2.8 4c1.3 2.2.8 4 2.8 4 2 0 3.6-1.8 3.6-4zM115.8 52.7c0-1.9-1.6-3.3-3.6-3.3s-3.6 1.4-3.6 3.3c0 1.8 1.6 3.2 3.6 3.2s3.6-1.4 3.6-3.2z" fill="#72FFFF"/>
  <path d="M174.7 141.2l-9.8-2M125 145l.9-4.4M119.5 103.6l-3 9M110 67l-4-4M134.3 72s-4.8-.1-8.5-1.6-6.3-4.3-6.3-4.3M115.5 83s.9 2 2.8 4c2 2 5.1 3.8 5.1 3.8M153 125.4l-1 7.9M156 130.3l-4 3M148 113l-2 3" stroke="#181B2B" stroke-width="2" stroke-linecap="round" stroke-linejoin="round"/>
  <path d="M119.5 66.1s2.4 1.6 5.7 2c3.2.3 7-.6 7-.6" stroke="#181B2B" stroke-width="2" stroke-linecap="round" stroke-linejoin="round"/>
  <path d="M570.6 50.6L543.3 76l-19-12.8-8.3 2.2-22.4-16 77 1.2z" fill="#fff"/>
  <path d="M570.6 49.9l-4.9 1.4-2.4.7-2.5.7-1.2.3-35.4 10 7.5 5.1 35.9-16 3-2.2z" fill="#E7EAF3"/>
  <path d="M406.7 42.4L398 79l-7.3-14-20.4 2.6 36.5-25.2z" fill="#72FFFF"/>
  <path d="M406.7 42.4L397.8 79M406.7 42.4l-36.5 25.7M397.8 79L391 65.2M370.2 68.1l20.7-3M406.7 42.4L391 65.2M570.6 51.3l-77-2M570.6 51.3l-13.2 3.3-42.1 10.6M493.6 49.4l21.7 15.8M570.6 51.3l-9.2 8.2-2.3 2L542.9 76M524.2 63.2L542.9 76M385 76l-5 3M377 82h-4.8M366.2 82l-4-3M353.4 74l-3-2M342.5 65.2l-3.9-2M331.7 57.3l-4-2M319.8 52.3l-5.9-1M303 49.4l-4.9-1M289.2 49.4h-4.9M273.4 51.3l-3.9 1M261.6 54.3l-5 1M250.7 57.3l-5.9 3.9M515 78l-5.5 4M492.6 88.8l-8 4M505.4 84l-7.9 2.9M476.8 93.8l-7.9 3M458 97.7l-9.8 1M415.6 100.7h-8.9M437.3 100.7h-9.9M395.9 98.7l-10-1M327.7 81l-6.9-4M377 96.7l-7.8-1M363.5 94s-6.5-2-10.5-3M345.5 87.9l-10.9-3M313 74l-10-4.9M297.1 67.1l-5.9-1M283.3 65.2h-7.9M266.5 65.2h-4.9M251.7 65.2l-7.9 1M239.9 67.1l-4 2M182.6 101.7l-5.9 1M192.5 95.8l-5 2M200.4 90.8l-5 2M208.3 84.9l-4 2M217.2 79l-4 4M230 72l-6 3M106.6 101.7l-9.8-1M85.9 96.7l-7.9-2M59.2 86.9l-5.9-3M49.4 82l-6-4M39.5 75l-6-3M169.8 103.6l-6 2M71 91.8l-5.8-4M137.2 32.6s-1.4 1-2.6 1c-1.2 0-2.3-1-2.3-1" stroke="#181B2B" stroke-width="2" stroke-linecap="round" stroke-linejoin="round"/>
  <path d="M143.1 18.8s-7.3 1.7-11.8 4.1c-4.6 2.5-7.3 5.1-7.3 5.1l-1.5-1.5-1.5-2 .5-3.5 2.5-.7 1.2-1.5h18z" fill="#E7EAF3"/>
  <path d="M136 26.5s.4 1.5 0 2c-.3.4-2 0-2 0" stroke="#181B2B" stroke-width="2" stroke-linecap="round" stroke-linejoin="round"/>
  <path d="M139 22c0-1.1-.7-2-1.5-2s-1.5.9-1.5 2 .7 2 1.5 2 1.5-.9 1.5-2zM132 22c0-1.1-.7-2-1.5-2s-1.5.9-1.5 2 .7 2 1.5 2 1.5-.9 1.5-2z" fill="#181B2B"/>
  <path d="M125.6 145s-2.5 6-5.1 10c-2.6 4-5.5 8-7.5 11s-11 13.5-12.5 15-4 1-4 1l1-2c3-4 9.5-14 9.5-14l7.8-11.7 10.8-9.3z" fill="#E7EAF3"/>
  <path d="M147.7 47.8s8.6 4 15.4 10.9a79 79 0 0 1 12 16.9M147.7 47.8l-11.7-2M136 38.5V46M127.2 38.5L127 46M127 45.9l-21.4 2M147.7 47.8s.6 7.1-3.5 11.1c-4 4-8.5 4.9-12.9 4.9-4.3 0-7.8-1.2-11-5.5s-3.9-11.5-3.9-11.5M154.5 72.3c1 1.1 5 5.2 10 9.7 5.1 4.6 13.3 2.4 13.3 2.4M196.5 61.7s-6.2 7.7-7.7 12.4c-1.5 4.6-6 9.4-11 10.3" stroke="#181B2B" stroke-width="2" stroke-linecap="round" stroke-linejoin="round"/>
  <path d="M154.5 66.9s.8 10.2-2.1 12.6c-2.9 2.4-9.1 1-9.1 1" stroke="#181B2B" stroke-width="2" stroke-linecap="round" stroke-linejoin="round"/>
  <path d="M152.4 79.5l-1.6 8-1.9 9.3M107.4 59.4l2.9 8.2c1.1 3.6 2.2 7.8 4 10 4 5.2 13 3.3 13 3.3" stroke="#181B2B" stroke-width="2" stroke-linecap="round" stroke-linejoin="round"/>
  <path d="M113 75.6l1.7 17.7v.8M133.4 100c-8.5 0-18.6-5.9-18.6-5.9M149 96.8s-7 3.2-15.6 3.2M149 96.8l2 10.7M114.8 94.1s-4 16.8-5.3 23.4c-1.3 6.6 1 13.4 2.5 17a56.2 56.2 0 0 0 11.5 11.5M151 107.7s23.7 12.7 30.6 25c2.6 4.9 4.6 16.4-1.3 19.7-9.5 5-30.5.4-30.5.4" stroke="#181B2B" stroke-width="2" stroke-linecap="round" stroke-linejoin="round"/>
  <path d="M138.8 106c-2.1.4-4.4.6-6.7.5-9.4-.4-18.6-6.5-18.6-6.5M149.8 102.6s-4.7 2.4-11 3.4M146 116.2s10.1 31.3 2.5 38c-4.8 4.3-16.3 9-25.4 15-12.8 8.2-20.7 19-20.7 19M130 141.7c-3.7 3.3-13.7 9.2-17.8 16.8-4 7.6-14.5 22.1-14.5 22.1" stroke="#181B2B" stroke-width="2" stroke-linecap="round" stroke-linejoin="round"/>
  <path d="M167 141.7s-2.7-3.7-7-5.8c-4.3-2.1-8.9-2.5-8.9-2.5M123.2 114.3c-2.4 3.1-8.4-.5-8.4-.5M125.5 109a14 14 0 0 1-2.3 5.3M126 105.5s0 1.5-.5 3.4M143.3 105s2.8 5 2.4 6.8c-.3 1.9-3.8.6-3.8.6M119.4 150s-3.8-1-8.6-1.3c-4.4-.1-10.8 1.6-13.8.5-6.3-2.3 8-6.1 8-6.1M114 138.3s-.9-1.1-4.4-.8a31 31 0 0 0-4.7 5.6M110 162.3s.6 4.2 3 6.6c2.3 2.3 6.4 2.9 6.4 2.9M102.6 188.2s1.9 14.6-3.6 14.6c-3.9 0-6.3-10.7-5.4-17.3.4-2.8 4.1-4.9 4.1-4.9M167.1 63.3s.4 6.3-1.6 9.4c-2.1 3-6.3 4.3-6.3 4.3M110 67.7s-16.5 1.9-22-3c-2-2-3.1-9.8-.3-15.2 4.6-8.8 31.7-34 31.7-34" stroke="#181B2B" stroke-width="2" stroke-linecap="round" stroke-linejoin="round"/>
  <path d="M95.4 59.4s6.2-1.1 10-12.2c4-11.1 19-28.6 19-28.6" stroke="#181B2B" stroke-width="2" stroke-linecap="round" stroke-linejoin="round"/>
  <path d="M101 55.4s1 3.4.4 6.5-2.7 6-2.7 6M201 50.4c-3.1 0-5.8 3-5.8 3l-21.4 19.9M196.5 61.7s5.3-.1 9.8-1.8c2.5-1 3.5-7.8 3.5-7.8" stroke="#181B2B" stroke-width="2" stroke-linecap="round" stroke-linejoin="round"/>
  <path d="M201 50.4c5.4 0 11.8-5.3 11.8-2.6 0 1.3-3.4 3.2-4.8 5.4-1.1 1.7-2.2 3.1-3.9 3.7-3.5 1.1-6.2.4-6.2.4M228.5 45.9L209.8 52M196.5 52.1L187 46M228.5 45.9l-61.3-1.7M171 27.6L228.4 46M171 27.6l10.5 9.1M167.2 44.2l14.3-7.5M228.5 45.9l-47-9.2M212.6 51.2c.4 1.3 4.6 5 3.4 5.2-1.1.2-6.2-4.3-6.2-4.3M215.5 50.2s5.1 2.1 5.1 4.2-8-3.2-8-3.2M119.4 15.5s2-1.7 7.6-2.4c2.6-.4 17.7.4 19.7 3 2.4 3-22.3 2.5-22.3 2.5M141.9 18.7s.7 9.4-.8 14.4-5 5.4-5 5.4M122.1 21.3s.9 7.9 1.8 11.7c.3 1.2 1 3.7 3 5.2a13 13 0 0 0 4.7 1.6M136 50.4s-.8 1.6-3 1.6-3.1-.3-3.1-.3" stroke="#181B2B" stroke-width="2" stroke-linecap="round" stroke-linejoin="round"/>
  <path d="M123.3 23l-1.3-.8-2.2 2.9a9 9 0 0 0 2 2.4c1.1 1 2.3.6 2.3.6" fill="#E7EAF3"/>
</svg>
