<svg xmlns="http://www.w3.org/2000/svg" width="70" height="88" fill="none">
    <path fill="#F9FAFC" d="M11.01 29.5C-8.76 34.98.42 51.77 20.2 70.62c19.78 18.84 50.85 7.88 37.43-10.28C44.21 42.18 69.64 38.75 70 21.28 70.35 3.8 55.16-4.76 44.21 8.6c-10.95 13.36-8.47 14.05-33.2 20.9z"/>
    <path fill="#E7EAF3" d="M44.14 69.52c11.32 12.03 23.78 2.32 17.55 9.75-6.23 7.44-16.87 7.78-25.74 0-8.87-7.77-3.14-21.78 8.19-9.75z"/>
    <path fill="#E7EAF3" d="M18.87 54.31c3.43-2.75 5.15 2.4 2.4 5.16-2.75 2.75-8.24 4.81-13.73 0s7.9-2.4 11.33-5.16z"/>
    <path fill="#E7EAF3" d="M31.55 13.83c-16.07.5-6.85 28.73-15.9 14.73C6.59 14.55 21.94.77 39.78.77s7.84 12.57-8.23 13.06z"/>
    <g stroke-linecap="round" stroke-width="1.5">
        <path stroke="#7A859E" d="M56.12 54.89c-6.82-2.65-16.26-1.29-19.64 7.78-3.39 9.06 1.39 16.57 9.86 19.4 8.47 2.82 16.09-.9 19.3-10.14 3.2-9.24-2.69-14.4-9.52-17.04z"/>
        <path stroke="#505573" d="M50.33 66.48c-.17 2.17 1.76 4 3.03 1.46 1.86-3.73-2.7-4.83-3.03-1.46z"/>
        <path stroke="#7A859E" d="M62.53 62.32c-1.36-2.67-5.11-.4-3.5 1.74 1.61 2.16 4.16-.43 3.5-1.74z"/>
        <path stroke="#505573" d="M59.1 73.86c-2.3-1.76-4.2.53-2.87 2.57 1.32 2.05 5.15-.8 2.86-2.57z"/>
        <path stroke="#14C393" d="M48.36 74.5c-2.81-2.17-5.07 3.4-1.19 3.88 3 .38 3.21-2.48 1.2-3.89z"/>
        <path stroke="#7A859E" d="M42.26 67.8c-2.4-.78-2.86 3.61-.33 3.4 2.52-.2 2.73-2.6.33-3.4zM45.97 57.84c-2.4-.8-3 4.08-.44 3.78 2.56-.3 2.84-2.98.44-3.78z"/>
        <path stroke="#7A859E" d="M41.18 3.62C31.06 2.7 18.98 8.1 17.9 21.47c-1.08 13.38 8.14 21.59 20.5 22.14 12.38.55 21.14-7.3 21.91-20.86C61.1 9.2 51.3 4.55 41.18 3.62z"/>
        <path stroke="#505573" d="M37.84 21.3c.6 2.96 3.86 4.67 4.59.79 1.06-5.69-5.42-5.42-4.59-.79z"/>
        <path stroke="#7A859E" d="M52.54 11.1c-2.82-3.05-6.98 1.4-4 3.66 2.96 2.26 5.38-2.16 4-3.66z"/>
        <path stroke="#76E5C2" d="M52.33 27.82c-3.72-1.49-5.4 2.29-2.85 4.52 2.54 2.22 6.57-3.04 2.85-4.52z"/>
        <path stroke="#505573" d="M39.18 33.74c-4.58-1.81-5.48 6.48-.12 5.65 4.14-.65 3.34-4.54.12-5.65z"/>
        <path stroke="#7A859E" d="M28.23 25.52c-3.5-.14-2.46 5.9.84 4.67 3.3-1.24 2.65-4.53-.84-4.67zM28.74 11.42c-3.5-.16-2.46 6.59.84 5.21 3.31-1.38 2.67-5.05-.84-5.2z"/>
        <path stroke="#7A859E" d="M11.3 45.49c-4.05 1.86-7.46 6.55-4.96 11.88 2.5 5.33 7.8 6.43 12.63 3.94 4.83-2.5 6.45-7.4 3.8-12.73-2.67-5.33-7.41-4.95-11.46-3.1z"/>
        <path stroke="#7A859E" d="M16.2 49.07c-2.3-.72-3.1 2.71-.96 2.99 2.13.27 2.08-2.64.95-3z"/>
        <path stroke="#505573" d="M17.62 55.7c-2.13.3-.67 3.65 1.19 2.16 1.43-1.15.28-2.45-1.19-2.17z"/>
        <path stroke="#76E5C2" d="M9.61 53.76c-1.7.9.45 3.5 1.68 2 1.24-1.5.03-2.89-1.68-2z"/>
    </g>

</svg>
