<svg width="1140" height="190" fill="none" xmlns="http://www.w3.org/2000/svg">
  <mask id="a" maskUnits="userSpaceOnUse" x="0" y="-1" width="1140" height="188">
    <rect width="1139" height="187" rx="4" fill="#E7EAF3"/>
  </mask>
  <g mask="url(#a)" fill="#E7EAF3">
    <path d="M1461.39-375.75l.21 1.63c72.81-9.3 149.31-8.72 233.86 1.79 70.97 8.82 128.8 35.96 171.88 80.67 38.95 40.43 65.17 94.25 77.92 159.97 20.25 104.3 4.45 232.92-43.32 352.9-47.81 120.06-120.85 214.3-200.4 258.56-55.67 30.97-110.37 49.56-167.23 56.82-52.43 6.7-106.83 3.5-166.32-9.77-52.61-11.74-102.58-29.67-150.9-47l-.02-.01-.03-.01c-65.08-23.36-126.55-45.42-187.19-49.86-63.36-4.65-128.58-37.48-183.65-92.44-51.54-51.43-89.38-117.69-103.82-181.78-4.53-20.09-6.66-39.7-6.41-58.35-.58.06-1.14.05-1.7-.02-1.85 143.62 138.08 322.69 295.46 334.23 60.42 4.43 122 26.52 186.78 49.77 96.62 34.67 200.37 71.9 318 56.87 52.92-6.76 108.68-24.1 167.83-57.02 263.27-146.45 407.34-803.72-6.68-855.16-88.19-10.96-165.2-10.62-234.32-1.78-192.17 24.57-323.06 114.74-461.33 209.99-57.76 39.78-116.8 80.45-182.12 117.6-53.32 30.32-78.7 77.9-82.98 131.57.58-.03 1.14.02 1.69.13a178.84 178.84 0 018.69-43.34c12.6-37.15 37.3-66.4 73.41-86.94 65.39-37.18 124.8-78.1 182.24-117.67 138.25-95.24 268.84-185.2 460.61-209.7l-.16-1.64z"/>
    <path d="M1760.38-179.3c-27.25-59.06-82.94-126.5-193.54-112.36h-.01c-4.7.6-9.53 1.36-14.35 2.24-186.94 34.41-314.39 71.54-413.27 120.38C1028.14-114.18 950.88-43.1 896.08 54.64c-5.44 9.7-9.81 19.6-13.08 29.64-.51-.2-1.05-.35-1.6-.43a167.31 167.31 0 0113.25-30.02c112.62-200.86 318.43-282.44 657.54-344.87 4.89-.9 9.71-1.65 14.43-2.25 299.09-38.23 274.9 507.7 115.06 653.04-61.71 56.11-124.35 82.09-186.84 90.07-94.96 12.13-189.63-17.24-280.47-45.43h-.01c-23.27-7.22-46.29-14.37-68.99-20.71C981.9 337.98 850.2 218.28 877.7 97.24c.5.21 1.04.37 1.6.45-1.95 8.56-3.11 17.2-3.48 25.88-.94 22.3 3.31 45.02 12.65 67.51 16.94 40.81 50.4 80.4 96.77 114.47 45.51 33.43 101.03 59.9 160.57 76.55 22.73 6.35 46.28 13.65 69.04 20.72h.01c91.03 28.25 185.16 57.46 279.78 45.37 68.37-8.73 129.19-38.06 185.94-89.66 50.98-46.35 91.28-138.2 107.8-245.68 8-52.02 9.97-105.49 5.7-154.61-4.59-52.76-15.93-99.03-33.7-137.55z"/>
    <path d="M1482.73-239.95c21.28-2.72 41.89 1.28 61.26 11.9 17.99 9.86 35.04 25.48 50.66 46.4 36.83 49.36 65.07 127.74 77.46 215.06 11.82 83.22 7.11 159.56-12.59 204.22-37.66 85.38-101.62 136.14-184.95 146.79-65.85 8.41-141.41-9.37-212.75-50.07-52.75-30.1-99.81-41.86-141.32-52.23-68.13-17.03-118.19-29.54-144.1-114.58-.49.23-1.01.4-1.56.5 26.15 85.9 76.63 98.52 145.26 115.67 40.94 10.24 88.35 22.08 140.91 52.07 69.41 39.6 145.07 59.04 213.77 50.27 77.12-9.86 145.46-55.3 186.24-147.76 56.4-127.85-14.77-500.8-178.51-479.87-22.83 2.92-47.47 13.5-73.8 33.47-90.16 68.36-182.87 101.57-260.35 129.33C1018.49-32.26 931.45-1.08 971.1 154.6c.48-.17.98-.3 1.5-.36h.03l.07-.02C933.4-.03 1019.2-30.77 1148.91-77.24h.01c75.93-27.2 170.43-61.05 260.78-129.56 25.06-19 49.63-30.16 73.02-33.15h.01z"/>
    <path d="M1433.46-153.66c31.9-4.08 62.99 10.43 89.91 41.95 27.88 32.66 50.97 83.61 63.34 139.8 12.08 54.86 12.73 107.81 1.79 145.28-18.35 62.78-60.75 97.57-129.66 106.38-47.88 6.12-100.95-.92-147.77-7.13l-9.04-1.2a2284.78 2284.78 0 00-40.15-4.8c-91.79-10.41-171.06-19.41-192.87-105.69-9.38-36-7.43-64.78 5.57-88.87-.41-.14-.81-.31-1.19-.52-12.35 22.8-15.3 51.23-5.17 89.6 19.64 87.07 99.47 95.92 191.33 106.1 13.9 1.54 28.08 3.12 42.37 5l4.68.61 4.36.58h.01c46.71 6.2 99.99 13.26 147.98 7.13 58.54-7.48 109.2-34.62 130.33-106.96 32.09-109.84-38.14-343.13-155.93-328.07-21.86 2.8-45.37 14.14-70.16 36.43-54.16 48.68-114.21 77.4-166.34 102.32-49.97 23.9-92.66 44.31-115.93 75.5.33.25.64.53.92.83 2.56-3.48 5.38-6.86 8.45-10.15 24.25-25.97 62.51-44.82 107.18-66h.02c52.49-24.9 111.99-53.11 166.25-101.9 23.51-21.12 46.96-33.3 69.71-36.22h.01z"/>
    <path d="M1456.81-48.3c-21.5-20.23-45.18-29.35-68.49-26.37-24.44 3.13-47.76 19.17-69.33 47.68-20.72 27.4-48.38 49.81-75.13 71.5-5.61 4.94-11.27 9.73-16.84 14.46-16.65 14.12-32.52 27.6-43.96 42.26l-.03.05a7.04 7.04 0 00-1.38-.9c15.04-19.76 37.52-37.98 61.17-57.15 26.4-21.4 54.26-43.97 74.86-71.2 23.22-30.7 47.33-45.37 70.43-48.33 72.62-9.29 135.3 97.25 129.43 185.2-3.81 57.22-44.29 63.45-89.23 70.38-29.63 4.56-61.21 9.43-85.48 29.41-18.39 15.15-38.04 22.95-57.32 25.41-57.77 7.38-112.34-33.1-120.49-67.65-4.81-20.37-.76-38.13 8.88-54.57.41.37.86.69 1.34.95-10.25 17.55-12.99 34.73-8.62 53.23 1.94 8.25 6.71 17.07 13.8 25.51 7.16 8.54 16.53 16.5 27.1 23.03 24.05 14.86 51.68 21.2 77.78 17.87 20.47-2.61 39.48-11.04 56.49-25.04 24.61-20.28 55.96-25.1 86.27-29.78h.01c45.13-6.95 84.11-12.96 87.84-68.85 3.74-56.22-20.56-120.82-59.1-157.1z"/>
    <path d="M1364.07-9.03c15.21-1.94 30.48 3.62 44.17 16.08 22.88 20.81 37.52 57.3 36.42 90.78-1.23 37.35-27.28 44.54-57.44 52.86-15.88 4.38-32.29 8.92-46.59 18.22a71.23 71.23 0 01-29.97 11.19c-17.6 2.25-35.96-2.29-51.72-12.78-14.38-9.56-24.56-22.99-27.23-35.9-6.02-29.2 14.23-51.1 39.91-72.6-.37-.4-.69-.85-.96-1.34-25.99 21.76-46.77 44.18-40.55 74.27 5.55 26.93 41.99 54.93 80.75 49.98a72.78 72.78 0 0030.66-11.44c14.09-9.17 30.52-13.7 46.14-18.01 30.21-8.34 57.37-15.84 58.64-54.4 1.76-53.76-36.62-114.39-82.43-108.54-12.99 1.66-26.58 8.67-40.01 22.69-11.06 11.53-24.3 22.13-37.33 32.56h-.01l-5.21 4.18c.42.36.8.76 1.13 1.2l5.1-4.08.01-.01c12.96-10.38 26.36-21.1 37.5-32.72 12.46-13 25.59-20.47 39.02-22.19z"/>
    <path fill-rule="evenodd" clip-rule="evenodd" d="M1350.72 55.57c-21.9 2.8-44.36 27.38-41.57 49.29 2.79 21.91 18.41 34.57 40.31 31.77 21.89-2.8 27.56-28.76 24.77-50.67-.28-2.19-.52-4.27-.75-6.24v-.01c-2.04-17.78-3.06-26.66-22.76-24.14zm.2 1.62c18.31-2.34 19.14 5.5 20.84 21.5l.01.03c.24 2.31.5 4.8.84 7.45 2.67 20.98-2.39 46.16-23.36 48.84-20.97 2.68-35.81-9.37-38.48-30.36-2.68-20.98 19.18-44.79 40.15-47.46z"/>
    <path fill-rule="evenodd" clip-rule="evenodd" d="M735.58 93.32a3.05 3.05 0 10-.78-6.04 3.05 3.05 0 00.78 6.04z"/>
    <path fill-rule="evenodd" clip-rule="evenodd" d="M880.8 93.95a3.05 3.05 0 10-.78-6.04 3.05 3.05 0 00.77 6.04z"/>
    <path fill-rule="evenodd" clip-rule="evenodd" d="M974.71 164.95a3.05 3.05 0 10-.77-6.04 3.05 3.05 0 00.77 6.04z"/>
    <path fill-rule="evenodd" clip-rule="evenodd" d="M1078.62 68.95a3.04 3.04 0 002.63-3.4 3.04 3.04 0 10-6.03.77 3.04 3.04 0 003.4 2.63z"/>
  </g>
</svg>
