<?xml version="1.0" encoding="utf-8"?><svg xmlns="http://www.w3.org/2000/svg" xmlns:xlink="http://www.w3.org/1999/xlink"><symbol fill="none" viewBox="0 0 117 136" id="0"><path fill="#a9baff" d="M86.718 97.453c-13.523 17.334-37.227 21.51-52.944 9.327-15.717-12.182-17.495-36.11-3.972-53.443s37.227-21.51 52.944-9.327c15.717 12.182 17.495 36.11 3.972 53.443"/><path fill="#8099ff" d="M33.929 59.807c12.646-16.209 34.358-20.465 48.495-9.508 14.138 10.959 15.347 32.982 2.701 49.19-11.527 14.776-35.851 18.354-48.495 9.508-10.434-8.087-13.825-22.2-9.803-35.556q-.115-.236-.22-.477a14.6 14.6 0 0 1-.9-2.873c-1.71 4.14-4.278 11.139-2.78 21.757a36 36 0 0 1-1.455-5.159c-.238-9.306 2.607-15.288 3.942-18.544-.317-3.23.133-6.693.973-9.75a44 44 0 0 1 2.39-3.69c-1.626 3.608-2.825 8.815-2.338 13.464.14 1.337.419 2.62.862 3.8 1.453-4.23 3.659-8.356 6.628-12.162"/><path fill="#6cc5ae" d="M105.656 70.046 92.628 73.97l.004 30.314 6.3-1.901 2.987 1.52z"/><path fill="#b0ebdb" d="m98.552 68.96-13.028 3.922-8.92 18.433.84 13.307 16.342.244z"/><path fill="#fff" d="m104.045 72.822-4.789-.532-4.258 30.616 5.398-.834z"/><path fill="#dcf6ef" d="m100.571 69.477-4.609 32.608c.93-.282 1.805-.437 2.704-.442 1.02-.005 2.024.184 3.126.548l3.828-32.145 1.775.551-4.081 34.13-1.101-.445c-1.436-.581-2.512-.829-3.538-.824s-2.08.265-3.475.825l-1.453.583 4.749-35.948z"/><path fill="#a9baff" d="M113.319 94.543c1.367-4.973-.883-16.9-6.246-20.423-19.383 17.154-27.028 21.727 6.246 20.423"/><path fill="#dae0fd" d="M58.156.027c2.676-.291 2.397 1.824 1.754 3.607C55.965 14.57 50.873 26.59 46.6 37.386l3.855 14.289.029-.013c.1 4.126-.74 8.26-7.567 11.484 6.709-2.023 11.48-9.205 11.186-12.915 1.506-.5 3.02-.885 4.526-1.15 1.648.619 3.167 1.44 4.765 2.523a12 12 0 0 1-.46-.715c-.915-1.557-1.421-3.295-1.596-5.588-.304-3.998.146-6.964 1.584-9.38 1.42-2.385 3.76-4.163 7.082-5.89 1.78-2.459 4.555-4.11 7.773-4.986a9.53 9.53 0 0 1 8.614-5.539c4.68-.023 8.59 3.322 9.416 7.752q.278.145.552.297c2.637 1.47 4.996 3.444 6.797 5.919a9.5 9.5 0 0 1 3.766-.793c5.263-.026 9.55 4.204 9.578 9.45.026 5.245-4.218 9.518-9.48 9.545a10 10 0 0 1-1.199-.069c-.71 2.722-1.853 5.64-3.495 8.75l-.115.218-16.832 3.163-.083.015-.084-.012q-.261-.038-.519-.08c3.26 9.732.811 22.38-7.342 32.832q-.445.57-.904 1.119c4.817 6.417 6.713 11.918 7.407 19.301-4.942 4.388-8.369 6.483-19.854 7.214-.646-5.022-2.062-9.283-4.201-14.416-5.414 2.034-10.968 2.577-16.003 1.462l.012.015-12.04 11.921c-12.773 1.063-16.694-9.286-11.33-18.386l7.582-7.79c-3.364-9.76-.939-22.513 7.274-33.039a44 44 0 0 1 3.486-3.961c-9.702-11.2-14.827-19.298-17.639-26.667-.975-7.457 22.642-26.895 30.654-30.927C53.999 1.23 56.43.215 58.156.027"/><path fill="#a9baff" d="M46.333 68.823c-5.203 6.916-7.67 9.286-12.606 7.124-15.737 20.774 5.518 46.515 29.192 36.721 14.214-5.88 25.589-25.373 25.589-41.137-.447-4.427-3.641-6.482-7.956-5.144.769-8.183-6.154-10.869-12.734-5.365-2.734-6.821-10.893-8.707-21.485 7.801"/><path fill="#fff" d="M65.25 100.487c.843 0 1.526.682 1.526 1.522a1.524 1.524 0 0 1-1.952 1.46l-4.299 5.67c-.326.43-.834.683-1.375.683h-3.417l-3.528 4.482a24 24 0 0 1-1.255-.048l4.287-5.449h3.913c.221 0 .43-.103.563-.279l4.284-5.652a1.5 1.5 0 0 1-.273-.867c0-.84.683-1.521 1.526-1.522m11.351-21.392c.843 0 1.526.68 1.526 1.52a1.524 1.524 0 0 1-1.814 1.494l-8.638 12.703c-.272.4-.7.667-1.18.736L58.5 96.702l-12.283 16.772a24 24 0 0 1-1.035-.307l12.615-17.225 6.49-9.368a1.5 1.5 0 0 1-.32-.93c0-.84.683-1.522 1.525-1.522.843 0 1.527.681 1.527 1.521a1.524 1.524 0 0 1-1.877 1.48l-5.845 8.44 7.053-1.019a.7.7 0 0 0 .483-.3l8.6-12.65a1.5 1.5 0 0 1-.358-.978c0-.84.683-1.521 1.526-1.521M63.282 67.998c.843 0 1.527.681 1.527 1.521a1.524 1.524 0 0 1-2.025 1.437l-13.29 17.897a.7.7 0 0 0-.125.553l1.218 6.202c.093.475-.02.967-.31 1.356l-10.309 13.798q-.435-.267-.856-.553l10.35-13.851a.7.7 0 0 0 .126-.555L48.371 89.6a1.72 1.72 0 0 1 .306-1.352l3.397-4.574-2.838-5.368a1.67 1.67 0 0 1 .092-1.714l2.1-3.115a1.5 1.5 0 0 1-.309-.916c0-.84.684-1.521 1.526-1.521.843 0 1.527.68 1.527 1.52a1.524 1.524 0 0 1-1.894 1.476l-2.106 3.122a.66.66 0 0 0-.036.675l2.61 4.936 9.242-12.447a1.5 1.5 0 0 1-.232-.804c0-.84.684-1.52 1.526-1.521ZM41.22 94.383c.843 0 1.526.681 1.526 1.521a1.524 1.524 0 0 1-1.95 1.46l-6.612 8.385a23 23 0 0 1-.65-.816l6.434-8.16a1.5 1.5 0 0 1-.274-.869c0-.84.683-1.52 1.526-1.52Z"/><path fill="#8099ff" d="m98.69 49.263 4.729 2.945-9.653 1.13C84.868 49.028 76.838 40 72.453 31.813l5.63 4.663c8.195 4.554 17.853 5.836 20.608 12.787Z"/><path fill="#fff" d="M93.76 52.16c.04-2.202 1.213-2.838 3.779-2.455-1.202-5.198-10.682-7.44-20.902-12.743 5.109 6.2 9.88 10.936 17.123 15.198m-7.363-31.639a8.6 8.6 0 0 1 2.929.5 8 8 0 0 1 .578.232 8.53 8.53 0 0 1 4.713 5.387 8.4 8.4 0 0 1 .335 2.32 8.5 8.5 0 0 1-.433 2.724q-.091.27-.2.533a9.04 9.04 0 0 1 5.973 4.706 8.52 8.52 0 0 1 9.169-2.858 8.4 8.4 0 0 1 1.887.837 8.473 8.473 0 0 1 2.818 11.813 8.4 8.4 0 0 1-.73.983 8.5 8.5 0 0 1-6.421 2.964 8.5 8.5 0 0 1-4.935-1.54 8.6 8.6 0 0 1-2.761-3.226 8.4 8.4 0 0 1-.856-3.892 8.5 8.5 0 0 1 .255-1.903 8.4 8.4 0 0 1 .904-2.2 8.01 8.01 0 0 0-5.759-4.745 9 9 0 0 1-.576.89 8.52 8.52 0 0 1-8.726 3.235 8.5 8.5 0 0 1-1.356-.428 8.53 8.53 0 0 1-3.797-3.07 8.43 8.43 0 0 1-1.478-4.735 8.5 8.5 0 0 1 .31-2.324 9 9 0 0 1 .191-.595 8.4 8.4 0 0 1 1.044-2 8.55 8.55 0 0 1 4.797-3.33 8.6 8.6 0 0 1 2.125-.278"/><path fill="#a9baff" d="M66.887 111.531c1.624 3.192 2.432 6.581 2.834 9.864 5.858.289 11.358-2.612 13.46-9.22.537 2.707.812 5.62.94 8.925l8.909 3.645-7.435.967 5.835 4.731-7.309-.662c-4.13-.375-7.071.728-4.016 6.219l-16.23-6.219c-.108-2.645-.198-7.717-.656-9.992a18.3 18.3 0 0 0 5.465 1.521c-.398-3.129-1.177-6.32-2.704-9.321zm-36.621-10.189c-2.167 2.897-5.63 6.638-10.22 8.343-.214.08-.433.178-.66.208l-.058.007c-.014 6.743 5.178 13.208 12.438 13.208l-8.715 3.278-10.246 7.834.333-7.632-9.277 3.693c1.32-5.509 8.353-15.616-3.361-11.202 2.883-5.58 5.831-9.9 10.195-12.965l6.942-1.01 2.799-.381a12.6 12.6 0 0 0-1.063 4.123c4.77-2.026 7.986-5.419 10.426-8.681zM52.632 1.928c-6.608 5.077-13.577 11.38-18.506 17.577-2.547 3.201-4.534 6.354-5.652 9.277-1.118 2.924-1.347 5.565-.468 7.793l9.833 22.264a196 196 0 0 1-2.347-2.796l-8.425-19.076-.004-.01-.003-.009c-1.008-2.551-.704-5.473.464-8.528 1.169-3.057 3.223-6.301 5.804-9.546 3.546-4.456 8.118-8.953 12.849-13.012 2.223-1.568 4.174-2.796 5.618-3.523q.415-.21.837-.411"/><path fill="#a9baff" d="m46.6 37.387.563 2.098-16.531-4.342zm51.315 1.184-2.138.872 1.445-2.033zm-2.252-2.19-1.336 2.105-.005-2.301z"/><path fill="#8099ff" d="M101.079 41.29c6.211-3.436 8.423-.042 7.307 5.85-.862-4.574-3.43-6.38-7.307-5.85M80.405 29.542c5.022-2.894 9.595-2.83 9.243 4.241-1.22-3.675-4.289-5.281-9.243-4.24Z"/><path fill="#dae0fd" d="M69.698 121.383c.427 3.344.36 8.003.17 10.695l-.983-.368c.186-2.648.226-7.134-.19-10.393z"/><path fill="#dae0fd" fill-rule="evenodd" d="M59.922 55.677c1.981-.396 3.728-.012 5.158.944 1.251.835 2.236 2.09 2.94 3.589 3.214-2.477 6.56-3.154 9.114-2.108 2.572 1.054 4.133 3.76 3.973 7.608 1.978-.463 3.76-.236 5.15.662 1.555 1.004 2.522 2.784 2.757 5.108l.003.026v.025c0 7.994-2.88 16.898-7.539 24.539-4.656 7.637-11.127 14.073-18.365 17.067-12.055 4.987-23.525.926-29.965-7.048-6.445-7.98-7.843-19.867.173-30.448l.242-.32.369.161c1.19.522 2.193.753 3.102.73.901-.024 1.747-.3 2.624-.851 1.787-1.126 3.647-3.359 6.254-6.824 5.31-8.27 10.093-12.079 14.01-12.86m4.592 1.786c-1.199-.8-2.668-1.136-4.392-.792-3.492.697-8.08 4.197-13.36 12.426l-.01.016-.012.014c-2.588 3.44-4.56 5.845-6.539 7.09-1.007.635-2.029.98-3.14 1.008-.996.026-2.033-.202-3.163-.657-7.457 10.111-6.061 21.328.042 28.885 6.171 7.641 17.165 11.553 28.783 6.747 6.977-2.887 13.301-9.138 17.886-16.657 4.578-7.509 7.384-16.222 7.39-23.986-.216-2.09-1.068-3.542-2.295-4.335-1.234-.796-2.946-.988-5.001-.35l-.73.226.072-.758c.371-3.95-1.114-6.404-3.298-7.299-2.218-.909-5.395-.313-8.602 2.369l-.538.45-.26-.65c-.657-1.636-1.624-2.94-2.833-3.747" clip-rule="evenodd"/><path fill="#dae0fd" d="m19.328 109.9-14.243 1.693c.244-.319.41-.547.696-.874l13.588-1.87z"/></symbol></svg>